<svg width="104" height="81" viewBox="0 0 104 81" fill="none" xmlns="http://www.w3.org/2000/svg">
<path d="M2 78.5906V74.0853C2 56.6676 16.1198 42.5479 33.5374 42.5479C50.9551 42.5479 65.0748 56.6676 65.0748 74.0853V78.5906" stroke="black" stroke-width="4" stroke-linecap="round"/>
<path d="M56.064 51.5589C56.064 39.1179 66.1496 29.0322 78.5907 29.0322C91.0317 29.0322 101.117 39.1179 101.117 51.5589V53.8116" stroke="black" stroke-width="4" stroke-linecap="round"/>
<path d="M33.5375 42.5476C43.4902 42.5476 51.5589 34.479 51.5589 24.5263C51.5589 14.5733 43.4902 6.50488 33.5375 6.50488C23.5846 6.50488 15.5161 14.5733 15.5161 24.5263C15.5161 34.479 23.5846 42.5476 33.5375 42.5476Z" stroke="black" stroke-width="4" stroke-linecap="round" stroke-linejoin="round"/>
<path d="M78.5903 29.0321C86.0552 29.0321 92.1063 22.9807 92.1063 15.516C92.1063 8.05135 86.0552 2 78.5903 2C71.1253 2 65.0742 8.05135 65.0742 15.516C65.0742 22.9807 71.1253 29.0321 78.5903 29.0321Z" stroke="black" stroke-width="4" stroke-linecap="round" stroke-linejoin="round"/>
</svg>
