<svg width="39" height="40" viewBox="0 0 39 40" fill="none" xmlns="http://www.w3.org/2000/svg">
<path d="M22.4014 10.4909C18.6309 11.0957 15.197 13.0182 12.7106 15.9165C11.1423 15.5207 9.72891 14.6634 8.65321 13.4555C7.57751 12.2477 6.88901 10.7448 6.67679 9.14138C6.46457 7.53794 6.73839 5.90771 7.46283 4.46159C8.18726 3.01548 9.32898 1.82003 10.7403 1.02989C12.1516 0.239757 13.7675 -0.1087 15.379 0.0296023C16.9905 0.167905 18.5234 0.786601 19.7794 1.80565C21.0354 2.8247 21.9568 4.19721 22.4242 5.74561C22.8917 7.29402 22.8837 8.94707 22.4014 10.4909ZM10.575 19.0978C9.447 21.3009 8.8125 23.7978 8.8125 26.4415C8.8125 30.2896 10.1579 33.8205 12.4021 36.5965C4.56781 35.7035 0 30.2691 0 24.9728V23.504C0 22.3354 0.464229 21.2147 1.29056 20.3883C2.11689 19.562 3.23764 19.0978 4.40625 19.0978H10.575ZM24.9688 39.6603C26.7047 39.6603 28.4236 39.3184 30.0273 38.6541C31.6311 37.9897 33.0883 37.0161 34.3158 35.7886C35.5433 34.5611 36.517 33.1039 37.1813 31.5001C37.8456 29.8963 38.1875 28.1774 38.1875 26.4415C38.1875 24.7056 37.8456 22.9867 37.1813 21.3829C36.517 19.7792 35.5433 18.3219 34.3158 17.0945C33.0883 15.867 31.6311 14.8933 30.0273 14.229C28.4236 13.5647 26.7047 13.2228 24.9688 13.2228C21.4629 13.2228 18.1007 14.6155 15.6217 17.0945C13.1427 19.5735 11.75 22.9357 11.75 26.4415C11.75 29.9473 13.1427 33.3096 15.6217 35.7886C18.1007 38.2676 21.4629 39.6603 24.9688 39.6603ZM24.9688 19.0978C25.3583 19.0978 25.7319 19.2525 26.0073 19.528C26.2828 19.8034 26.4375 20.177 26.4375 20.5665V24.9728H30.8438C31.2333 24.9728 31.6069 25.1275 31.8823 25.403C32.1578 25.6784 32.3125 26.052 32.3125 26.4415C32.3125 26.8311 32.1578 27.2046 31.8823 27.4801C31.6069 27.7555 31.2333 27.9103 30.8438 27.9103H26.4375V32.3165C26.4375 32.7061 26.2828 33.0796 26.0073 33.3551C25.7319 33.6305 25.3583 33.7853 24.9688 33.7853C24.5792 33.7853 24.2056 33.6305 23.9302 33.3551C23.6547 33.0796 23.5 32.7061 23.5 32.3165V27.9103H19.0938C18.7042 27.9103 18.3306 27.7555 18.0552 27.4801C17.7797 27.2046 17.625 26.8311 17.625 26.4415C17.625 26.052 17.7797 25.6784 18.0552 25.403C18.3306 25.1275 18.7042 24.9728 19.0938 24.9728H23.5V20.5665C23.5 20.177 23.6547 19.8034 23.9302 19.528C24.2056 19.2525 24.5792 19.0978 24.9688 19.0978Z" fill="#3180BA"/>
</svg>
