<svg width="82" height="81" viewBox="0 0 82 81" fill="none" xmlns="http://www.w3.org/2000/svg">
<path d="M2 14.834V40.5004C2 40.5004 2 53.3337 33.9869 53.3337C65.9738 53.3337 65.9738 40.5004 65.9738 40.5004V14.834" stroke="white" stroke-width="4" stroke-linecap="round" stroke-linejoin="round"/>
<path d="M33.9869 2C65.9738 2 65.9738 14.8332 65.9738 14.8332C65.9738 14.8332 65.9738 27.6665 33.9869 27.6665C2 27.6665 2 14.8332 2 14.8332C2 14.8332 2 2 33.9869 2Z" stroke="white" stroke-width="4" stroke-linecap="round" stroke-linejoin="round"/>
<path d="M33.9869 78.9987C2 78.9987 2 66.1655 2 66.1655V40.499" stroke="white" stroke-width="4" stroke-linecap="round" stroke-linejoin="round"/>
<path d="M52.2646 78.9998V70.4443" stroke="white" stroke-width="4" stroke-linecap="round"/>
<path d="M65.9736 79.0006V61.8896" stroke="white" stroke-width="4" stroke-linecap="round"/>
<path d="M79.6821 79.0004V53.334" stroke="white" stroke-width="4" stroke-linecap="round"/>
</svg>
