<svg xmlns="http://www.w3.org/2000/svg" height="1em" viewBox="0 0 384 512"><!--! Font Awesome Free 6.4.0 by @fontawesome - https://fontawesome.com License - https://fontawesome.com/license (Commercial License) Copyright 2023 Fonticons, Inc. --><path d="M376.6 84.5c11.3-13.6 9.5-33.8-4.1-45.1s-33.8-9.5-45.1 4.1L192 206 56.6 43.5C45.3 29.9 25.1 28.1 11.5 39.4S-3.9 70.9 7.4 84.5L150.3 256 7.4 427.5c-11.3 13.6-9.5 33.8 4.1 45.1s33.8 9.5 45.1-4.1L192 306 327.4 468.5c11.3 13.6 31.5 15.4 45.1 4.1s15.4-31.5 4.1-45.1L233.7 256 376.6 84.5z"/>
<path d="M10.5201 3.72001L13.24 1L18 5.76001L15.28 8.47998M10.5201 3.72001L1.28166 12.9584C1.10132 13.1387 1 13.3833 1 13.6384V18H5.36167C5.61672 18 5.86132 17.8987 6.04167 17.7183L15.28 8.47998M10.5201 3.72001L15.28 8.47998" stroke="#2E424D" stroke-width="2" stroke-linecap="round" stroke-linejoin="round"/>
</svg>
