<svg width="42" height="43" viewBox="0 0 42 43" fill="none" xmlns="http://www.w3.org/2000/svg">
<path d="M21 27.0841C24.3138 27.0841 27 24.3889 27 21.064C27 17.7391 24.3138 15.0439 21 15.0439C17.6862 15.0439 15 17.7391 15 21.064C15 24.3889 17.6862 27.0841 21 27.0841Z" stroke="#2E424D" stroke-width="2" stroke-linecap="round" stroke-linejoin="round"/>
<path d="M36.2448 17.8469L34.0494 12.528L37 9.02674L33 5.01337L29.5294 7.98919L24.1156 5.75532L22.8706 1H18.962L17.6982 5.81831L12.4088 8.05543L9 5.01337L5 9.02674L7.90674 12.6164L5.745 17.9491L1 19.0602V23.0735L5.80222 24.3889L8.0315 29.695L5 33.107L9 37.1204L12.5823 34.1912L17.794 36.3424L19 41.1337H23L24.209 36.3442L29.5102 34.1414C30.3938 34.7751 33 37.1204 33 37.1204L37 33.107L34.0318 29.5941L36.2278 24.2735L40.9998 23.0278L41 19.0602L36.2448 17.8469Z" stroke="#2E424D" stroke-width="2" stroke-linecap="round" stroke-linejoin="round"/>
</svg>
