<svg width="43" height="42" viewBox="0 0 43 42" fill="none" xmlns="http://www.w3.org/2000/svg">
<path d="M15 40H10.6667C5.8802 40 2 36.0714 2 31.2254V17.4221C2 14.3537 3.58299 11.5083 6.17471 9.918L17.008 3.27058C19.7691 1.57647 23.231 1.57647 25.9919 3.27058L36.8253 9.918C39.417 11.5083 41 14.3537 41 17.4221V31.2254C41 36.0714 37.1197 40 32.3333 40H28M15 40V31.2254C15 27.5907 17.9101 24.6444 21.5 24.6444C25.09 24.6444 28 27.5907 28 31.2254V40M15 40H28" stroke="white" stroke-width="3" stroke-linecap="round" stroke-linejoin="round"/>
</svg>
