<svg width="346" height="75" viewBox="0 0 346 75" fill="none" xmlns="http://www.w3.org/2000/svg">
<path d="M48 40.25L177 40.25" stroke="#D9D9D9" stroke-width="3.5" stroke-dasharray="7 7"/>
<path d="M48 40L48 72.5L302 72.5L302 40.5" stroke="#D9D9D9" stroke-width="3.5" stroke-dasharray="7 7"/>
<g filter="url(#filter0_dd_331_837)">
<rect x="12" width="75" height="34" rx="8" fill="white"/>
<path d="M25.2166 21V12.2727H28.3274C29.0036 12.2727 29.5646 12.3892 30.0107 12.6222C30.4595 12.8551 30.7947 13.1776 31.0163 13.5895C31.2379 13.9986 31.3487 14.4716 31.3487 15.0085C31.3487 15.5426 31.2365 16.0128 31.0121 16.419C30.7905 16.8224 30.4553 17.1364 30.0064 17.3608C29.5604 17.5852 28.9993 17.6974 28.3232 17.6974H25.9666V16.5639H28.2038C28.63 16.5639 28.9766 16.5028 29.2436 16.3807C29.5135 16.2585 29.7109 16.081 29.8359 15.848C29.9609 15.6151 30.0234 15.3352 30.0234 15.0085C30.0234 14.679 29.9595 14.3935 29.8317 14.152C29.7067 13.9105 29.5092 13.7259 29.2393 13.598C28.9723 13.4673 28.6214 13.402 28.1868 13.402H26.5334V21H25.2166ZM29.5249 17.0625L31.6811 21H30.1811L28.0675 17.0625H29.5249ZM35.5877 21.1321C34.9428 21.1321 34.3874 20.9943 33.9215 20.7188C33.4585 20.4403 33.1005 20.0497 32.8477 19.5469C32.5977 19.0412 32.4727 18.4489 32.4727 17.7699C32.4727 17.0994 32.5977 16.5085 32.8477 15.9972C33.1005 15.4858 33.4528 15.0866 33.9045 14.7997C34.359 14.5128 34.8903 14.3693 35.4982 14.3693C35.8675 14.3693 36.2255 14.4304 36.5721 14.5526C36.9187 14.6747 37.2298 14.8665 37.5053 15.1278C37.7809 15.3892 37.9982 15.7287 38.1573 16.1463C38.3164 16.5611 38.396 17.0653 38.396 17.6591V18.1108H33.1928V17.1562H37.1474C37.1474 16.821 37.0792 16.5241 36.9428 16.2656C36.8065 16.0043 36.6147 15.7983 36.3675 15.6477C36.1232 15.4972 35.8363 15.4219 35.5067 15.4219C35.1488 15.4219 34.8363 15.5099 34.5692 15.6861C34.305 15.8594 34.1005 16.0866 33.9556 16.3679C33.8136 16.6463 33.7425 16.9489 33.7425 17.2756V18.0213C33.7425 18.4588 33.8192 18.831 33.9727 19.1378C34.1289 19.4446 34.3462 19.679 34.6246 19.8409C34.9031 20 35.2283 20.0795 35.6005 20.0795C35.842 20.0795 36.0621 20.0455 36.261 19.9773C36.4599 19.9062 36.6317 19.8011 36.7766 19.6619C36.9215 19.5227 37.0323 19.3509 37.109 19.1463L38.315 19.3636C38.2184 19.7187 38.0451 20.0298 37.7951 20.2969C37.5479 20.5611 37.2369 20.767 36.8619 20.9148C36.4897 21.0597 36.065 21.1321 35.5877 21.1321ZM39.8097 14.4545H41.0838V21.4261C41.0838 21.8636 41.0043 22.233 40.8452 22.5341C40.6889 22.8352 40.456 23.0639 40.1463 23.2202C39.8395 23.3764 39.4602 23.4545 39.0085 23.4545C38.9631 23.4545 38.9205 23.4545 38.8807 23.4545C38.8381 23.4545 38.794 23.4531 38.7486 23.4503V22.3551C38.7884 22.3551 38.8239 22.3551 38.8551 22.3551C38.8835 22.3551 38.9162 22.3551 38.9531 22.3551C39.2543 22.3551 39.4716 22.2741 39.6051 22.1122C39.7415 21.9531 39.8097 21.7216 39.8097 21.4176V14.4545ZM40.4403 13.4446C40.2188 13.4446 40.0284 13.3707 39.8693 13.223C39.7131 13.0724 39.6349 12.8935 39.6349 12.6861C39.6349 12.4759 39.7131 12.2969 39.8693 12.1491C40.0284 11.9986 40.2188 11.9233 40.4403 11.9233C40.6619 11.9233 40.8509 11.9986 41.0071 12.1491C41.1662 12.2969 41.2457 12.4759 41.2457 12.6861C41.2457 12.8935 41.1662 13.0724 41.0071 13.223C40.8509 13.3707 40.6619 13.4446 40.4403 13.4446ZM45.619 21.1321C44.9741 21.1321 44.4187 20.9943 43.9528 20.7188C43.4897 20.4403 43.1317 20.0497 42.8789 19.5469C42.6289 19.0412 42.5039 18.4489 42.5039 17.7699C42.5039 17.0994 42.6289 16.5085 42.8789 15.9972C43.1317 15.4858 43.484 15.0866 43.9357 14.7997C44.3903 14.5128 44.9215 14.3693 45.5295 14.3693C45.8988 14.3693 46.2567 14.4304 46.6033 14.5526C46.9499 14.6747 47.261 14.8665 47.5366 15.1278C47.8121 15.3892 48.0295 15.7287 48.1886 16.1463C48.3477 16.5611 48.4272 17.0653 48.4272 17.6591V18.1108H43.2241V17.1562H47.1786C47.1786 16.821 47.1104 16.5241 46.9741 16.2656C46.8377 16.0043 46.646 15.7983 46.3988 15.6477C46.1545 15.4972 45.8675 15.4219 45.538 15.4219C45.18 15.4219 44.8675 15.5099 44.6005 15.6861C44.3363 15.8594 44.1317 16.0866 43.9869 16.3679C43.8448 16.6463 43.7738 16.9489 43.7738 17.2756V18.0213C43.7738 18.4588 43.8505 18.831 44.0039 19.1378C44.1602 19.4446 44.3775 19.679 44.6559 19.8409C44.9343 20 45.2596 20.0795 45.6317 20.0795C45.8732 20.0795 46.0934 20.0455 46.2923 19.9773C46.4911 19.9062 46.663 19.8011 46.8079 19.6619C46.9528 19.5227 47.0636 19.3509 47.1403 19.1463L48.3462 19.3636C48.2496 19.7187 48.0763 20.0298 47.8263 20.2969C47.5792 20.5611 47.2681 20.767 46.8931 20.9148C46.521 21.0597 46.0962 21.1321 45.619 21.1321ZM52.598 21.1321C51.9645 21.1321 51.419 20.9886 50.9616 20.7017C50.5071 20.4119 50.1577 20.0128 49.9134 19.5043C49.669 18.9957 49.5469 18.4134 49.5469 17.7571C49.5469 17.0923 49.6719 16.5057 49.9219 15.9972C50.1719 15.4858 50.5241 15.0866 50.9787 14.7997C51.4332 14.5128 51.9688 14.3693 52.5852 14.3693C53.0824 14.3693 53.5256 14.4616 53.9148 14.6463C54.304 14.8281 54.6179 15.0838 54.8565 15.4134C55.098 15.7429 55.2415 16.1278 55.2869 16.5682H54.0469C53.9787 16.2614 53.8224 15.9972 53.5781 15.7756C53.3366 15.554 53.0128 15.4432 52.6065 15.4432C52.2514 15.4432 51.9403 15.5369 51.6733 15.7244C51.4091 15.9091 51.2031 16.1733 51.0554 16.517C50.9077 16.858 50.8338 17.2614 50.8338 17.7273C50.8338 18.2045 50.9063 18.6165 51.0511 18.9631C51.196 19.3097 51.4006 19.5781 51.6648 19.7685C51.9318 19.9588 52.2457 20.054 52.6065 20.054C52.848 20.054 53.0668 20.0099 53.2628 19.9219C53.4616 19.831 53.6278 19.7017 53.7614 19.5341C53.8977 19.3665 53.9929 19.1648 54.0469 18.929H55.2869C55.2415 19.3523 55.1037 19.7301 54.8736 20.0625C54.6435 20.3949 54.3352 20.6562 53.9489 20.8466C53.5653 21.0369 53.1151 21.1321 52.598 21.1321ZM59.7049 14.4545V15.4773H56.1296V14.4545H59.7049ZM57.0884 12.8864H58.3626V19.0781C58.3626 19.3253 58.3995 19.5114 58.4734 19.6364C58.5472 19.7585 58.6424 19.8423 58.7589 19.8878C58.8782 19.9304 59.0075 19.9517 59.1467 19.9517C59.2489 19.9517 59.3384 19.9446 59.4151 19.9304C59.4918 19.9162 59.5515 19.9048 59.5941 19.8963L59.8242 20.9489C59.7504 20.9773 59.6452 21.0057 59.5089 21.0341C59.3725 21.0653 59.2021 21.0824 58.9975 21.0852C58.6623 21.0909 58.3498 21.0312 58.06 20.9062C57.7702 20.7812 57.5359 20.5881 57.3569 20.3267C57.1779 20.0653 57.0884 19.7372 57.0884 19.3423V12.8864ZM63.8651 21.1321C63.2202 21.1321 62.6648 20.9943 62.1989 20.7188C61.7358 20.4403 61.3778 20.0497 61.125 19.5469C60.875 19.0412 60.75 18.4489 60.75 17.7699C60.75 17.0994 60.875 16.5085 61.125 15.9972C61.3778 15.4858 61.7301 15.0866 62.1818 14.7997C62.6364 14.5128 63.1676 14.3693 63.7756 14.3693C64.1449 14.3693 64.5028 14.4304 64.8494 14.5526C65.196 14.6747 65.5071 14.8665 65.7827 15.1278C66.0582 15.3892 66.2756 15.7287 66.4347 16.1463C66.5938 16.5611 66.6733 17.0653 66.6733 17.6591V18.1108H61.4702V17.1562H65.4247C65.4247 16.821 65.3565 16.5241 65.2202 16.2656C65.0838 16.0043 64.892 15.7983 64.6449 15.6477C64.4006 15.4972 64.1136 15.4219 63.7841 15.4219C63.4261 15.4219 63.1136 15.5099 62.8466 15.6861C62.5824 15.8594 62.3778 16.0866 62.233 16.3679C62.0909 16.6463 62.0199 16.9489 62.0199 17.2756V18.0213C62.0199 18.4588 62.0966 18.831 62.25 19.1378C62.4062 19.4446 62.6236 19.679 62.902 19.8409C63.1804 20 63.5057 20.0795 63.8778 20.0795C64.1193 20.0795 64.3395 20.0455 64.5384 19.9773C64.7372 19.9062 64.9091 19.8011 65.054 19.6619C65.1989 19.5227 65.3097 19.3509 65.3864 19.1463L66.5923 19.3636C66.4957 19.7187 66.3224 20.0298 66.0724 20.2969C65.8253 20.5611 65.5142 20.767 65.1392 20.9148C64.767 21.0597 64.3423 21.1321 63.8651 21.1321ZM70.5373 21.1278C70.0089 21.1278 69.5373 20.9929 69.1225 20.723C68.7106 20.4503 68.3867 20.0625 68.1509 19.5597C67.918 19.054 67.8015 18.4474 67.8015 17.7401C67.8015 17.0327 67.9194 16.4276 68.1552 15.9247C68.3938 15.4219 68.7205 15.0369 69.1353 14.7699C69.5501 14.5028 70.0202 14.3693 70.5458 14.3693C70.9521 14.3693 71.2788 14.4375 71.5259 14.5739C71.7759 14.7074 71.9691 14.8636 72.1055 15.0426C72.2447 15.2216 72.3526 15.3793 72.4293 15.5156H72.506V12.2727H73.7802V21H72.5359V19.9815H72.4293C72.3526 20.1207 72.2418 20.2798 72.0969 20.4588C71.9549 20.6378 71.7589 20.794 71.5089 20.9276C71.2589 21.0611 70.935 21.1278 70.5373 21.1278ZM70.8185 20.0412C71.185 20.0412 71.4947 19.9446 71.7475 19.7514C72.0032 19.5554 72.1964 19.2841 72.3271 18.9375C72.4606 18.5909 72.5273 18.1875 72.5273 17.7273C72.5273 17.2727 72.462 16.875 72.3313 16.5341C72.2006 16.1932 72.0089 15.9276 71.756 15.7372C71.5032 15.5469 71.1907 15.4517 70.8185 15.4517C70.435 15.4517 70.1154 15.5511 69.8597 15.75C69.604 15.9489 69.4109 16.2202 69.2802 16.5639C69.1523 16.9077 69.0884 17.2955 69.0884 17.7273C69.0884 18.1648 69.1538 18.5582 69.2844 18.9077C69.4151 19.2571 69.6083 19.5341 69.864 19.7386C70.1225 19.9403 70.4407 20.0412 70.8185 20.0412Z" fill="#344054"/>
<rect x="12.25" y="0.25" width="74.5" height="33.5" rx="7.75" stroke="#63696E" stroke-opacity="0.24" stroke-width="0.5"/>
<path d="M54 41C54 43.4853 51.9853 45.5 49.5 45.5C47.0147 45.5 45 43.4853 45 41C45 38.5147 47.0147 36.5 49.5 36.5C51.9853 36.5 54 38.5147 54 41Z" fill="#3180BA"/>
<path d="M55.5711 31.4853C56.462 31.4853 56.9081 32.5624 56.2782 33.1924L50.2071 39.2635C49.8166 39.654 49.1834 39.654 48.7929 39.2635L42.7218 33.1924C42.0919 32.5624 42.538 31.4853 43.4289 31.4853H55.5711Z" fill="white"/>
</g>
<g filter="url(#filter1_dd_331_837)">
<rect x="137" width="76" height="34" rx="8" fill="#D5CFCF"/>
<path d="M151.694 12.2727V21H150.377V12.2727H151.694ZM154.783 17.1136V21H153.509V14.4545H154.732V15.5199H154.813C154.963 15.1733 155.199 14.8949 155.52 14.6847C155.844 14.4744 156.252 14.3693 156.743 14.3693C157.189 14.3693 157.58 14.4631 157.915 14.6506C158.25 14.8352 158.51 15.1108 158.695 15.4773C158.88 15.8437 158.972 16.2969 158.972 16.8366V21H157.698V16.9901C157.698 16.5156 157.574 16.1449 157.327 15.8778C157.08 15.608 156.74 15.473 156.309 15.473C156.013 15.473 155.75 15.5369 155.52 15.6648C155.293 15.7926 155.113 15.9801 154.979 16.2273C154.848 16.4716 154.783 16.767 154.783 17.1136ZM167.168 18.1705H168.463L169.375 19.3594L169.805 19.8878L171.259 21.7841H169.912L168.94 20.5185L168.608 20.0582L167.168 18.1705ZM171.54 16.6364C171.54 17.5682 171.369 18.3693 171.028 19.0398C170.688 19.7074 170.22 20.2216 169.626 20.5824C169.036 20.9403 168.364 21.1193 167.611 21.1193C166.855 21.1193 166.18 20.9403 165.587 20.5824C164.996 20.2216 164.53 19.706 164.189 19.0355C163.848 18.3651 163.678 17.5653 163.678 16.6364C163.678 15.7045 163.848 14.9048 164.189 14.2372C164.53 13.5668 164.996 13.0526 165.587 12.6946C166.18 12.3338 166.855 12.1534 167.611 12.1534C168.364 12.1534 169.036 12.3338 169.626 12.6946C170.22 13.0526 170.688 13.5668 171.028 14.2372C171.369 14.9048 171.54 15.7045 171.54 16.6364ZM170.236 16.6364C170.236 15.9261 170.121 15.3281 169.891 14.8423C169.663 14.3537 169.351 13.9844 168.953 13.7344C168.558 13.4815 168.111 13.3551 167.611 13.3551C167.108 13.3551 166.659 13.4815 166.264 13.7344C165.869 13.9844 165.557 14.3537 165.327 14.8423C165.099 15.3281 164.986 15.9261 164.986 16.6364C164.986 17.3466 165.099 17.946 165.327 18.4347C165.557 18.9205 165.869 19.2898 166.264 19.5426C166.659 19.7926 167.108 19.9176 167.611 19.9176C168.111 19.9176 168.558 19.7926 168.953 19.5426C169.351 19.2898 169.663 18.9205 169.891 18.4347C170.121 17.946 170.236 17.3466 170.236 16.6364ZM177.225 18.2855V14.4545H178.504V21H177.251V19.8665H177.183C177.032 20.2159 176.791 20.5071 176.458 20.7401C176.129 20.9702 175.718 21.0852 175.227 21.0852C174.806 21.0852 174.434 20.9929 174.11 20.8082C173.789 20.6207 173.537 20.3438 173.352 19.9773C173.17 19.6108 173.079 19.1577 173.079 18.6179V14.4545H174.353V18.4645C174.353 18.9105 174.477 19.2656 174.724 19.5298C174.971 19.794 175.292 19.9261 175.687 19.9261C175.926 19.9261 176.163 19.8665 176.399 19.7472C176.637 19.6278 176.835 19.4474 176.991 19.206C177.15 18.9645 177.228 18.6577 177.225 18.2855ZM183.037 21.1321C182.392 21.1321 181.837 20.9943 181.371 20.7188C180.908 20.4403 180.55 20.0497 180.297 19.5469C180.047 19.0412 179.922 18.4489 179.922 17.7699C179.922 17.0994 180.047 16.5085 180.297 15.9972C180.55 15.4858 180.902 15.0866 181.354 14.7997C181.808 14.5128 182.339 14.3693 182.947 14.3693C183.317 14.3693 183.675 14.4304 184.021 14.5526C184.368 14.6747 184.679 14.8665 184.955 15.1278C185.23 15.3892 185.447 15.7287 185.607 16.1463C185.766 16.5611 185.845 17.0653 185.845 17.6591V18.1108H180.642V17.1562H184.597C184.597 16.821 184.528 16.5241 184.392 16.2656C184.256 16.0043 184.064 15.7983 183.817 15.6477C183.572 15.4972 183.286 15.4219 182.956 15.4219C182.598 15.4219 182.286 15.5099 182.018 15.6861C181.754 15.8594 181.55 16.0866 181.405 16.3679C181.263 16.6463 181.192 16.9489 181.192 17.2756V18.0213C181.192 18.4588 181.268 18.831 181.422 19.1378C181.578 19.4446 181.795 19.679 182.074 19.8409C182.352 20 182.678 20.0795 183.05 20.0795C183.291 20.0795 183.511 20.0455 183.71 19.9773C183.909 19.9062 184.081 19.8011 184.226 19.6619C184.371 19.5227 184.482 19.3509 184.558 19.1463L185.764 19.3636C185.668 19.7187 185.494 20.0298 185.244 20.2969C184.997 20.5611 184.686 20.767 184.311 20.9148C183.939 21.0597 183.514 21.1321 183.037 21.1321ZM191.405 18.2855V14.4545H192.684V21H191.431V19.8665H191.363C191.212 20.2159 190.971 20.5071 190.638 20.7401C190.309 20.9702 189.898 21.0852 189.407 21.0852C188.986 21.0852 188.614 20.9929 188.29 20.8082C187.969 20.6207 187.716 20.3438 187.532 19.9773C187.35 19.6108 187.259 19.1577 187.259 18.6179V14.4545H188.533V18.4645C188.533 18.9105 188.657 19.2656 188.904 19.5298C189.151 19.794 189.472 19.9261 189.867 19.9261C190.105 19.9261 190.343 19.8665 190.578 19.7472C190.817 19.6278 191.015 19.4474 191.171 19.206C191.33 18.9645 191.408 18.6577 191.405 18.2855ZM197.217 21.1321C196.572 21.1321 196.016 20.9943 195.55 20.7188C195.087 20.4403 194.729 20.0497 194.477 19.5469C194.227 19.0412 194.102 18.4489 194.102 17.7699C194.102 17.0994 194.227 16.5085 194.477 15.9972C194.729 15.4858 195.082 15.0866 195.533 14.7997C195.988 14.5128 196.519 14.3693 197.127 14.3693C197.496 14.3693 197.854 14.4304 198.201 14.5526C198.548 14.6747 198.859 14.8665 199.134 15.1278C199.41 15.3892 199.627 15.7287 199.786 16.1463C199.945 16.5611 200.025 17.0653 200.025 17.6591V18.1108H194.822V17.1562H198.776C198.776 16.821 198.708 16.5241 198.572 16.2656C198.435 16.0043 198.244 15.7983 197.996 15.6477C197.752 15.4972 197.465 15.4219 197.136 15.4219C196.778 15.4219 196.465 15.5099 196.198 15.6861C195.934 15.8594 195.729 16.0866 195.585 16.3679C195.442 16.6463 195.371 16.9489 195.371 17.2756V18.0213C195.371 18.4588 195.448 18.831 195.602 19.1378C195.758 19.4446 195.975 19.679 196.254 19.8409C196.532 20 196.857 20.0795 197.229 20.0795C197.471 20.0795 197.691 20.0455 197.89 19.9773C198.089 19.9062 198.261 19.8011 198.406 19.6619C198.55 19.5227 198.661 19.3509 198.738 19.1463L199.944 19.3636C199.847 19.7187 199.674 20.0298 199.424 20.2969C199.177 20.5611 198.866 20.767 198.491 20.9148C198.119 21.0597 197.694 21.1321 197.217 21.1321Z" fill="white"/>
<rect x="137.25" y="0.25" width="75.5" height="33.5" rx="7.75" stroke="#63696E" stroke-opacity="0.24" stroke-width="0.5"/>
<path d="M179.5 41C179.5 43.4853 177.485 45.5 175 45.5C172.515 45.5 170.5 43.4853 170.5 41C170.5 38.5147 172.515 36.5 175 36.5C177.485 36.5 179.5 38.5147 179.5 41Z" fill="#63696E"/>
<path d="M181.071 31.4853C181.962 31.4853 182.408 32.5624 181.778 33.1924L175.707 39.2635C175.317 39.654 174.683 39.654 174.293 39.2635L168.222 33.1924C167.592 32.5624 168.038 31.4853 168.929 31.4853H181.071Z" fill="#D5CFCF"/>
</g>
<g filter="url(#filter2_dd_331_837)">
<rect x="269" width="65" height="34" rx="8" fill="#D5CFCF"/>
<path d="M289.692 15.1108H288.362C288.311 14.8267 288.216 14.5767 288.077 14.3608C287.938 14.1449 287.767 13.9616 287.565 13.8111C287.364 13.6605 287.138 13.5469 286.888 13.4702C286.641 13.3935 286.378 13.3551 286.099 13.3551C285.597 13.3551 285.146 13.4815 284.749 13.7344C284.354 13.9872 284.041 14.358 283.811 14.8466C283.584 15.3352 283.47 15.9318 283.47 16.6364C283.47 17.3466 283.584 17.946 283.811 18.4347C284.041 18.9233 284.355 19.2926 284.753 19.5426C285.151 19.7926 285.598 19.9176 286.095 19.9176C286.371 19.9176 286.632 19.8807 286.879 19.8068C287.129 19.7301 287.355 19.6179 287.557 19.4702C287.759 19.3224 287.929 19.142 288.068 18.929C288.21 18.7131 288.308 18.4659 288.362 18.1875L289.692 18.1918C289.621 18.6207 289.483 19.0156 289.278 19.3764C289.077 19.7344 288.817 20.044 288.499 20.3054C288.183 20.5639 287.822 20.7642 287.416 20.9062C287.01 21.0483 286.567 21.1193 286.087 21.1193C285.331 21.1193 284.658 20.9403 284.067 20.5824C283.476 20.2216 283.01 19.706 282.669 19.0355C282.331 18.3651 282.162 17.5653 282.162 16.6364C282.162 15.7045 282.332 14.9048 282.673 14.2372C283.014 13.5668 283.48 13.0526 284.071 12.6946C284.662 12.3338 285.334 12.1534 286.087 12.1534C286.55 12.1534 286.982 12.2202 287.382 12.3537C287.786 12.4844 288.148 12.6776 288.469 12.9332C288.79 13.1861 289.055 13.4957 289.266 13.8622C289.476 14.2259 289.618 14.642 289.692 15.1108ZM292.439 12.2727V21H291.165V12.2727H292.439ZM296.911 21.1321C296.297 21.1321 295.761 20.9915 295.304 20.7102C294.847 20.429 294.491 20.0355 294.239 19.5298C293.986 19.0241 293.859 18.4332 293.859 17.7571C293.859 17.0781 293.986 16.4844 294.239 15.9759C294.491 15.4673 294.847 15.0724 295.304 14.7912C295.761 14.5099 296.297 14.3693 296.911 14.3693C297.524 14.3693 298.06 14.5099 298.517 14.7912C298.974 15.0724 299.33 15.4673 299.582 15.9759C299.835 16.4844 299.962 17.0781 299.962 17.7571C299.962 18.4332 299.835 19.0241 299.582 19.5298C299.33 20.0355 298.974 20.429 298.517 20.7102C298.06 20.9915 297.524 21.1321 296.911 21.1321ZM296.915 20.0625C297.313 20.0625 297.642 19.9574 297.903 19.7472C298.165 19.5369 298.358 19.2571 298.483 18.9077C298.611 18.5582 298.675 18.1733 298.675 17.7528C298.675 17.3352 298.611 16.9517 298.483 16.6023C298.358 16.25 298.165 15.9673 297.903 15.7543C297.642 15.5412 297.313 15.4347 296.915 15.4347C296.514 15.4347 296.182 15.5412 295.918 15.7543C295.656 15.9673 295.462 16.25 295.334 16.6023C295.209 16.9517 295.146 17.3352 295.146 17.7528C295.146 18.1733 295.209 18.5582 295.334 18.9077C295.462 19.2571 295.656 19.5369 295.918 19.7472C296.182 19.9574 296.514 20.0625 296.915 20.0625ZM306.289 16.0526L305.134 16.2571C305.086 16.1094 305.009 15.9687 304.904 15.8352C304.801 15.7017 304.662 15.5923 304.486 15.5071C304.31 15.4219 304.09 15.3793 303.826 15.3793C303.465 15.3793 303.164 15.4602 302.922 15.6222C302.681 15.7812 302.56 15.9872 302.56 16.2401C302.56 16.4588 302.641 16.6349 302.803 16.7685C302.965 16.902 303.226 17.0114 303.587 17.0966L304.627 17.3352C305.229 17.4744 305.678 17.6889 305.973 17.9787C306.269 18.2685 306.417 18.6449 306.417 19.108C306.417 19.5 306.303 19.8494 306.076 20.1562C305.851 20.4602 305.537 20.6989 305.134 20.8722C304.733 21.0455 304.269 21.1321 303.74 21.1321C303.007 21.1321 302.409 20.9759 301.946 20.6634C301.483 20.348 301.199 19.9006 301.094 19.321L302.326 19.1335C302.402 19.4545 302.56 19.6974 302.799 19.8622C303.037 20.0241 303.348 20.1051 303.732 20.1051C304.15 20.1051 304.483 20.0185 304.733 19.8452C304.983 19.669 305.108 19.4545 305.108 19.2017C305.108 18.9972 305.032 18.8253 304.878 18.6861C304.728 18.5469 304.496 18.4418 304.184 18.3707L303.076 18.1278C302.465 17.9886 302.013 17.767 301.721 17.4631C301.431 17.1591 301.286 16.7741 301.286 16.3082C301.286 15.9219 301.394 15.5838 301.61 15.294C301.826 15.0043 302.124 14.7784 302.505 14.6165C302.885 14.4517 303.321 14.3693 303.813 14.3693C304.52 14.3693 305.077 14.5227 305.483 14.8295C305.89 15.1335 306.158 15.5412 306.289 16.0526ZM310.638 21.1321C309.994 21.1321 309.438 20.9943 308.972 20.7188C308.509 20.4403 308.151 20.0497 307.898 19.5469C307.648 19.0412 307.523 18.4489 307.523 17.7699C307.523 17.0994 307.648 16.5085 307.898 15.9972C308.151 15.4858 308.504 15.0866 308.955 14.7997C309.41 14.5128 309.941 14.3693 310.549 14.3693C310.918 14.3693 311.276 14.4304 311.623 14.5526C311.969 14.6747 312.281 14.8665 312.556 15.1278C312.832 15.3892 313.049 15.7287 313.208 16.1463C313.367 16.5611 313.447 17.0653 313.447 17.6591V18.1108H308.244V17.1562H312.198C312.198 16.821 312.13 16.5241 311.994 16.2656C311.857 16.0043 311.665 15.7983 311.418 15.6477C311.174 15.4972 310.887 15.4219 310.558 15.4219C310.2 15.4219 309.887 15.5099 309.62 15.6861C309.356 15.8594 309.151 16.0866 309.006 16.3679C308.864 16.6463 308.793 16.9489 308.793 17.2756V18.0213C308.793 18.4588 308.87 18.831 309.023 19.1378C309.18 19.4446 309.397 19.679 309.675 19.8409C309.954 20 310.279 20.0795 310.651 20.0795C310.893 20.0795 311.113 20.0455 311.312 19.9773C311.511 19.9062 311.683 19.8011 311.827 19.6619C311.972 19.5227 312.083 19.3509 312.16 19.1463L313.366 19.3636C313.269 19.7187 313.096 20.0298 312.846 20.2969C312.599 20.5611 312.288 20.767 311.913 20.9148C311.54 21.0597 311.116 21.1321 310.638 21.1321ZM317.311 21.1278C316.782 21.1278 316.311 20.9929 315.896 20.723C315.484 20.4503 315.16 20.0625 314.924 19.5597C314.691 19.054 314.575 18.4474 314.575 17.7401C314.575 17.0327 314.693 16.4276 314.929 15.9247C315.167 15.4219 315.494 15.0369 315.909 14.7699C316.324 14.5028 316.794 14.3693 317.319 14.3693C317.725 14.3693 318.052 14.4375 318.299 14.5739C318.549 14.7074 318.743 14.8636 318.879 15.0426C319.018 15.2216 319.126 15.3793 319.203 15.5156H319.279V12.2727H320.554V21H319.309V19.9815H319.203C319.126 20.1207 319.015 20.2798 318.87 20.4588C318.728 20.6378 318.532 20.794 318.282 20.9276C318.032 21.0611 317.708 21.1278 317.311 21.1278ZM317.592 20.0412C317.958 20.0412 318.268 19.9446 318.521 19.7514C318.777 19.5554 318.97 19.2841 319.1 18.9375C319.234 18.5909 319.301 18.1875 319.301 17.7273C319.301 17.2727 319.235 16.875 319.105 16.5341C318.974 16.1932 318.782 15.9276 318.529 15.7372C318.277 15.5469 317.964 15.4517 317.592 15.4517C317.208 15.4517 316.889 15.5511 316.633 15.75C316.377 15.9489 316.184 16.2202 316.054 16.5639C315.926 16.9077 315.862 17.2955 315.862 17.7273C315.862 18.1648 315.927 18.5582 316.058 18.9077C316.189 19.2571 316.382 19.5341 316.637 19.7386C316.896 19.9403 317.214 20.0412 317.592 20.0412Z" fill="white"/>
<rect x="269.25" y="0.25" width="64.5" height="33.5" rx="7.75" stroke="#63696E" stroke-opacity="0.24" stroke-width="0.5"/>
<path d="M306 41C306 43.4853 303.985 45.5 301.5 45.5C299.015 45.5 297 43.4853 297 41C297 38.5147 299.015 36.5 301.5 36.5C303.985 36.5 306 38.5147 306 41Z" fill="#63696E"/>
<path d="M307.571 31.4853C308.462 31.4853 308.908 32.5624 308.278 33.1924L302.207 39.2635C301.817 39.654 301.183 39.654 300.793 39.2635L294.722 33.1924C294.092 32.5624 294.538 31.4853 295.429 31.4853H307.571Z" fill="#D5CFCF"/>
</g>
<defs>
<filter id="filter0_dd_331_837" x="0" y="0" width="99" height="69.5" filterUnits="userSpaceOnUse" color-interpolation-filters="sRGB">
<feFlood flood-opacity="0" result="BackgroundImageFix"/>
<feColorMatrix in="SourceAlpha" type="matrix" values="0 0 0 0 0 0 0 0 0 0 0 0 0 0 0 0 0 0 127 0" result="hardAlpha"/>
<feMorphology radius="2" operator="erode" in="SourceAlpha" result="effect1_dropShadow_331_837"/>
<feOffset dy="4"/>
<feGaussianBlur stdDeviation="3"/>
<feColorMatrix type="matrix" values="0 0 0 0 0.0627451 0 0 0 0 0.0941176 0 0 0 0 0.156863 0 0 0 0.03 0"/>
<feBlend mode="normal" in2="BackgroundImageFix" result="effect1_dropShadow_331_837"/>
<feColorMatrix in="SourceAlpha" type="matrix" values="0 0 0 0 0 0 0 0 0 0 0 0 0 0 0 0 0 0 127 0" result="hardAlpha"/>
<feMorphology radius="4" operator="erode" in="SourceAlpha" result="effect2_dropShadow_331_837"/>
<feOffset dy="12"/>
<feGaussianBlur stdDeviation="8"/>
<feColorMatrix type="matrix" values="0 0 0 0 0.0627451 0 0 0 0 0.0941176 0 0 0 0 0.156863 0 0 0 0.08 0"/>
<feBlend mode="normal" in2="effect1_dropShadow_331_837" result="effect2_dropShadow_331_837"/>
<feBlend mode="normal" in="SourceGraphic" in2="effect2_dropShadow_331_837" result="shape"/>
</filter>
<filter id="filter1_dd_331_837" x="125" y="0" width="100" height="69.5" filterUnits="userSpaceOnUse" color-interpolation-filters="sRGB">
<feFlood flood-opacity="0" result="BackgroundImageFix"/>
<feColorMatrix in="SourceAlpha" type="matrix" values="0 0 0 0 0 0 0 0 0 0 0 0 0 0 0 0 0 0 127 0" result="hardAlpha"/>
<feMorphology radius="2" operator="erode" in="SourceAlpha" result="effect1_dropShadow_331_837"/>
<feOffset dy="4"/>
<feGaussianBlur stdDeviation="3"/>
<feColorMatrix type="matrix" values="0 0 0 0 0.0627451 0 0 0 0 0.0941176 0 0 0 0 0.156863 0 0 0 0.03 0"/>
<feBlend mode="normal" in2="BackgroundImageFix" result="effect1_dropShadow_331_837"/>
<feColorMatrix in="SourceAlpha" type="matrix" values="0 0 0 0 0 0 0 0 0 0 0 0 0 0 0 0 0 0 127 0" result="hardAlpha"/>
<feMorphology radius="4" operator="erode" in="SourceAlpha" result="effect2_dropShadow_331_837"/>
<feOffset dy="12"/>
<feGaussianBlur stdDeviation="8"/>
<feColorMatrix type="matrix" values="0 0 0 0 0.0627451 0 0 0 0 0.0941176 0 0 0 0 0.156863 0 0 0 0.08 0"/>
<feBlend mode="normal" in2="effect1_dropShadow_331_837" result="effect2_dropShadow_331_837"/>
<feBlend mode="normal" in="SourceGraphic" in2="effect2_dropShadow_331_837" result="shape"/>
</filter>
<filter id="filter2_dd_331_837" x="257" y="0" width="89" height="69.5" filterUnits="userSpaceOnUse" color-interpolation-filters="sRGB">
<feFlood flood-opacity="0" result="BackgroundImageFix"/>
<feColorMatrix in="SourceAlpha" type="matrix" values="0 0 0 0 0 0 0 0 0 0 0 0 0 0 0 0 0 0 127 0" result="hardAlpha"/>
<feMorphology radius="2" operator="erode" in="SourceAlpha" result="effect1_dropShadow_331_837"/>
<feOffset dy="4"/>
<feGaussianBlur stdDeviation="3"/>
<feColorMatrix type="matrix" values="0 0 0 0 0.0627451 0 0 0 0 0.0941176 0 0 0 0 0.156863 0 0 0 0.03 0"/>
<feBlend mode="normal" in2="BackgroundImageFix" result="effect1_dropShadow_331_837"/>
<feColorMatrix in="SourceAlpha" type="matrix" values="0 0 0 0 0 0 0 0 0 0 0 0 0 0 0 0 0 0 127 0" result="hardAlpha"/>
<feMorphology radius="4" operator="erode" in="SourceAlpha" result="effect2_dropShadow_331_837"/>
<feOffset dy="12"/>
<feGaussianBlur stdDeviation="8"/>
<feColorMatrix type="matrix" values="0 0 0 0 0.0627451 0 0 0 0 0.0941176 0 0 0 0 0.156863 0 0 0 0.08 0"/>
<feBlend mode="normal" in2="effect1_dropShadow_331_837" result="effect2_dropShadow_331_837"/>
<feBlend mode="normal" in="SourceGraphic" in2="effect2_dropShadow_331_837" result="shape"/>
</filter>
</defs>
</svg>
