<svg width="355" height="93" viewBox="0 0 355 93" fill="none" xmlns="http://www.w3.org/2000/svg">
<path d="M52 58.25L181 58.25" stroke="#D9D9D9" stroke-width="3.5" stroke-dasharray="7 7"/>
<path d="M52 58L52 90.5L306 90.5L306 58.5" stroke="#D9D9D9" stroke-width="3.5" stroke-dasharray="7 7"/>
<g filter="url(#filter0_dd_583_851)">
<rect x="12" width="81" height="52" rx="8" fill="white"/>
<path d="M28.4276 21V12.2727H31.5384C32.2173 12.2727 32.7798 12.3963 33.2259 12.6435C33.6719 12.8906 34.0057 13.2287 34.2273 13.6577C34.4489 14.0838 34.5597 14.5639 34.5597 15.098C34.5597 15.6349 34.4474 16.1179 34.223 16.5469C34.0014 16.973 33.6662 17.3111 33.2173 17.5611C32.7713 17.8082 32.2102 17.9318 31.5341 17.9318H29.3949V16.8153H31.4148C31.8438 16.8153 32.1918 16.7415 32.4588 16.5938C32.7259 16.4432 32.9219 16.2386 33.0469 15.9801C33.1719 15.7216 33.2344 15.4276 33.2344 15.098C33.2344 14.7685 33.1719 14.4759 33.0469 14.2202C32.9219 13.9645 32.7244 13.7642 32.4545 13.6193C32.1875 13.4744 31.8352 13.402 31.3977 13.402H29.7443V21H28.4276ZM38.7401 21.1321C38.0952 21.1321 37.5398 20.9943 37.0739 20.7188C36.6108 20.4403 36.2528 20.0497 36 19.5469C35.75 19.0412 35.625 18.4489 35.625 17.7699C35.625 17.0994 35.75 16.5085 36 15.9972C36.2528 15.4858 36.6051 15.0866 37.0568 14.7997C37.5114 14.5128 38.0426 14.3693 38.6506 14.3693C39.0199 14.3693 39.3778 14.4304 39.7244 14.5526C40.071 14.6747 40.3821 14.8665 40.6577 15.1278C40.9332 15.3892 41.1506 15.7287 41.3097 16.1463C41.4688 16.5611 41.5483 17.0653 41.5483 17.6591V18.1108H36.3452V17.1562H40.2997C40.2997 16.821 40.2315 16.5241 40.0952 16.2656C39.9588 16.0043 39.767 15.7983 39.5199 15.6477C39.2756 15.4972 38.9886 15.4219 38.6591 15.4219C38.3011 15.4219 37.9886 15.5099 37.7216 15.6861C37.4574 15.8594 37.2528 16.0866 37.108 16.3679C36.9659 16.6463 36.8949 16.9489 36.8949 17.2756V18.0213C36.8949 18.4588 36.9716 18.831 37.125 19.1378C37.2812 19.4446 37.4986 19.679 37.777 19.8409C38.0554 20 38.3807 20.0795 38.7528 20.0795C38.9943 20.0795 39.2145 20.0455 39.4134 19.9773C39.6122 19.9062 39.7841 19.8011 39.929 19.6619C40.0739 19.5227 40.1847 19.3509 40.2614 19.1463L41.4673 19.3636C41.3707 19.7187 41.1974 20.0298 40.9474 20.2969C40.7003 20.5611 40.3892 20.767 40.0142 20.9148C39.642 21.0597 39.2173 21.1321 38.7401 21.1321ZM44.2362 17.1136V21H42.962V14.4545H44.185V15.5199H44.266C44.4165 15.1733 44.6523 14.8949 44.9734 14.6847C45.2972 14.4744 45.7049 14.3693 46.1964 14.3693C46.6424 14.3693 47.033 14.4631 47.3683 14.6506C47.7035 14.8352 47.9634 15.1108 48.1481 15.4773C48.3327 15.8437 48.4251 16.2969 48.4251 16.8366V21H47.1509V16.9901C47.1509 16.5156 47.0273 16.1449 46.7802 15.8778C46.533 15.608 46.1935 15.473 45.7617 15.473C45.4663 15.473 45.2035 15.5369 44.9734 15.6648C44.7461 15.7926 44.5657 15.9801 44.4322 16.2273C44.3015 16.4716 44.2362 16.767 44.2362 17.1136ZM52.5842 21.1278C52.0558 21.1278 51.5842 20.9929 51.1694 20.723C50.7575 20.4503 50.4336 20.0625 50.1978 19.5597C49.9648 19.054 49.8484 18.4474 49.8484 17.7401C49.8484 17.0327 49.9663 16.4276 50.2021 15.9247C50.4407 15.4219 50.7674 15.0369 51.1822 14.7699C51.5969 14.5028 52.0671 14.3693 52.5927 14.3693C52.9989 14.3693 53.3256 14.4375 53.5728 14.5739C53.8228 14.7074 54.016 14.8636 54.1523 15.0426C54.2915 15.2216 54.3995 15.3793 54.4762 15.5156H54.5529V12.2727H55.8271V21H54.5827V19.9815H54.4762C54.3995 20.1207 54.2887 20.2798 54.1438 20.4588C54.0018 20.6378 53.8058 20.794 53.5558 20.9276C53.3058 21.0611 52.9819 21.1278 52.5842 21.1278ZM52.8654 20.0412C53.2319 20.0412 53.5415 19.9446 53.7944 19.7514C54.0501 19.5554 54.2433 19.2841 54.3739 18.9375C54.5075 18.5909 54.5742 18.1875 54.5742 17.7273C54.5742 17.2727 54.5089 16.875 54.3782 16.5341C54.2475 16.1932 54.0558 15.9276 53.8029 15.7372C53.5501 15.5469 53.2376 15.4517 52.8654 15.4517C52.4819 15.4517 52.1623 15.5511 51.9066 15.75C51.6509 15.9489 51.4577 16.2202 51.3271 16.5639C51.1992 16.9077 51.1353 17.2955 51.1353 17.7273C51.1353 18.1648 51.2006 18.5582 51.3313 18.9077C51.462 19.2571 51.6552 19.5341 51.9109 19.7386C52.1694 19.9403 52.4876 20.0412 52.8654 20.0412ZM57.6456 21V14.4545H58.9197V21H57.6456ZM58.2891 13.4446C58.0675 13.4446 57.8771 13.3707 57.718 13.223C57.5618 13.0724 57.4837 12.8935 57.4837 12.6861C57.4837 12.4759 57.5618 12.2969 57.718 12.1491C57.8771 11.9986 58.0675 11.9233 58.2891 11.9233C58.5107 11.9233 58.6996 11.9986 58.8558 12.1491C59.0149 12.2969 59.0945 12.4759 59.0945 12.6861C59.0945 12.8935 59.0149 13.0724 58.8558 13.223C58.6996 13.3707 58.5107 13.4446 58.2891 13.4446ZM61.908 17.1136V21H60.6339V14.4545H61.8569V15.5199H61.9379C62.0884 15.1733 62.3242 14.8949 62.6452 14.6847C62.9691 14.4744 63.3768 14.3693 63.8683 14.3693C64.3143 14.3693 64.7049 14.4631 65.0401 14.6506C65.3754 14.8352 65.6353 15.1108 65.82 15.4773C66.0046 15.8437 66.0969 16.2969 66.0969 16.8366V21H64.8228V16.9901C64.8228 16.5156 64.6992 16.1449 64.4521 15.8778C64.2049 15.608 63.8654 15.473 63.4336 15.473C63.1381 15.473 62.8754 15.5369 62.6452 15.6648C62.418 15.7926 62.2376 15.9801 62.104 16.2273C61.9734 16.4716 61.908 16.767 61.908 17.1136ZM70.5501 23.5909C70.0302 23.5909 69.5827 23.5227 69.2077 23.3864C68.8356 23.25 68.5316 23.0696 68.2958 22.8452C68.06 22.6207 67.8839 22.375 67.7674 22.108L68.8626 21.6562C68.9393 21.7812 69.0415 21.9134 69.1694 22.0526C69.3001 22.1946 69.4762 22.3153 69.6978 22.4148C69.9222 22.5142 70.2106 22.5639 70.5629 22.5639C71.0458 22.5639 71.445 22.446 71.7603 22.2102C72.0756 21.9773 72.2333 21.6051 72.2333 21.0938V19.8068H72.1523C72.0756 19.946 71.9648 20.1009 71.82 20.2713C71.6779 20.4418 71.4819 20.5895 71.2319 20.7145C70.9819 20.8395 70.6566 20.902 70.256 20.902C69.739 20.902 69.2731 20.7812 68.8583 20.5398C68.4464 20.2955 68.1197 19.9361 67.8782 19.4616C67.6396 18.9844 67.5202 18.3977 67.5202 17.7017C67.5202 17.0057 67.6381 16.4091 67.8739 15.9119C68.1126 15.4148 68.4393 15.0341 68.854 14.7699C69.2688 14.5028 69.739 14.3693 70.2646 14.3693C70.6708 14.3693 70.9989 14.4375 71.2489 14.5739C71.4989 14.7074 71.6935 14.8636 71.8327 15.0426C71.9748 15.2216 72.0842 15.3793 72.1609 15.5156H72.2546V14.4545H73.5032V21.1449C73.5032 21.7074 73.3725 22.169 73.1112 22.5298C72.8498 22.8906 72.4961 23.1577 72.0501 23.331C71.6069 23.5043 71.1069 23.5909 70.5501 23.5909ZM70.5373 19.8452C70.9038 19.8452 71.2134 19.7599 71.4663 19.5895C71.7219 19.4162 71.9151 19.169 72.0458 18.848C72.1793 18.5241 72.2461 18.1364 72.2461 17.6847C72.2461 17.2443 72.1808 16.8565 72.0501 16.5213C71.9194 16.1861 71.7276 15.9247 71.4748 15.7372C71.2219 15.5469 70.9094 15.4517 70.5373 15.4517C70.1538 15.4517 69.8342 15.5511 69.5785 15.75C69.3228 15.946 69.1296 16.2131 68.9989 16.5511C68.8711 16.8892 68.8072 17.267 68.8072 17.6847C68.8072 18.1136 68.8725 18.4901 69.0032 18.8139C69.1339 19.1378 69.3271 19.3906 69.5827 19.5724C69.8413 19.7543 70.1594 19.8452 70.5373 19.8452ZM28.2965 36.1705H29.592L30.5039 37.3594L30.9343 37.8878L32.3874 39.7841H31.0408L30.0692 38.5185L29.7369 38.0582L28.2965 36.1705ZM32.6687 34.6364C32.6687 35.5682 32.4982 36.3693 32.1573 37.0398C31.8164 37.7074 31.3491 38.2216 30.7553 38.5824C30.1644 38.9403 29.4925 39.1193 28.7397 39.1193C27.984 39.1193 27.3093 38.9403 26.7156 38.5824C26.1246 38.2216 25.6587 37.706 25.3178 37.0355C24.9769 36.3651 24.8065 35.5653 24.8065 34.6364C24.8065 33.7045 24.9769 32.9048 25.3178 32.2372C25.6587 31.5668 26.1246 31.0526 26.7156 30.6946C27.3093 30.3338 27.984 30.1534 28.7397 30.1534C29.4925 30.1534 30.1644 30.3338 30.7553 30.6946C31.3491 31.0526 31.8164 31.5668 32.1573 32.2372C32.4982 32.9048 32.6687 33.7045 32.6687 34.6364ZM31.3647 34.6364C31.3647 33.9261 31.2496 33.3281 31.0195 32.8423C30.7923 32.3537 30.4798 31.9844 30.082 31.7344C29.6871 31.4815 29.2397 31.3551 28.7397 31.3551C28.2369 31.3551 27.788 31.4815 27.3931 31.7344C26.9982 31.9844 26.6857 32.3537 26.4556 32.8423C26.2283 33.3281 26.1147 33.9261 26.1147 34.6364C26.1147 35.3466 26.2283 35.946 26.4556 36.4347C26.6857 36.9205 26.9982 37.2898 27.3931 37.5426C27.788 37.7926 28.2369 37.9176 28.7397 37.9176C29.2397 37.9176 29.6871 37.7926 30.082 37.5426C30.4798 37.2898 30.7923 36.9205 31.0195 36.4347C31.2496 35.946 31.3647 35.3466 31.3647 34.6364ZM38.3544 36.2855V32.4545H39.6328V39H38.38V37.8665H38.3118C38.1612 38.2159 37.9197 38.5071 37.5874 38.7401C37.2578 38.9702 36.8473 39.0852 36.3558 39.0852C35.9354 39.0852 35.5632 38.9929 35.2393 38.8082C34.9183 38.6207 34.6655 38.3438 34.4808 37.9773C34.299 37.6108 34.2081 37.1577 34.2081 36.6179V32.4545H35.4822V36.4645C35.4822 36.9105 35.6058 37.2656 35.853 37.5298C36.1001 37.794 36.4212 37.9261 36.8161 37.9261C37.0547 37.9261 37.2919 37.8665 37.5277 37.7472C37.7663 37.6278 37.9638 37.4474 38.12 37.206C38.2791 36.9645 38.3572 36.6577 38.3544 36.2855ZM44.1019 39.1321C43.4883 39.1321 42.9528 38.9915 42.4954 38.7102C42.038 38.429 41.6829 38.0355 41.43 37.5298C41.1772 37.0241 41.0508 36.4332 41.0508 35.7571C41.0508 35.0781 41.1772 34.4844 41.43 33.9759C41.6829 33.4673 42.038 33.0724 42.4954 32.7912C42.9528 32.5099 43.4883 32.3693 44.1019 32.3693C44.7156 32.3693 45.2511 32.5099 45.7085 32.7912C46.1658 33.0724 46.521 33.4673 46.7738 33.9759C47.0266 34.4844 47.1531 35.0781 47.1531 35.7571C47.1531 36.4332 47.0266 37.0241 46.7738 37.5298C46.521 38.0355 46.1658 38.429 45.7085 38.7102C45.2511 38.9915 44.7156 39.1321 44.1019 39.1321ZM44.1062 38.0625C44.5039 38.0625 44.8335 37.9574 45.0948 37.7472C45.3562 37.5369 45.5494 37.2571 45.6744 36.9077C45.8022 36.5582 45.8661 36.1733 45.8661 35.7528C45.8661 35.3352 45.8022 34.9517 45.6744 34.6023C45.5494 34.25 45.3562 33.9673 45.0948 33.7543C44.8335 33.5412 44.5039 33.4347 44.1062 33.4347C43.7056 33.4347 43.3732 33.5412 43.109 33.7543C42.8477 33.9673 42.6531 34.25 42.5252 34.6023C42.4002 34.9517 42.3377 35.3352 42.3377 35.7528C42.3377 36.1733 42.4002 36.5582 42.5252 36.9077C42.6531 37.2571 42.8477 37.5369 43.109 37.7472C43.3732 37.9574 43.7056 38.0625 44.1062 38.0625ZM51.6307 32.4545V33.4773H48.0554V32.4545H51.6307ZM49.0142 30.8864H50.2884V37.0781C50.2884 37.3253 50.3253 37.5114 50.3991 37.6364C50.473 37.7585 50.5682 37.8423 50.6847 37.8878C50.804 37.9304 50.9332 37.9517 51.0724 37.9517C51.1747 37.9517 51.2642 37.9446 51.3409 37.9304C51.4176 37.9162 51.4773 37.9048 51.5199 37.8963L51.75 38.9489C51.6761 38.9773 51.571 39.0057 51.4347 39.0341C51.2983 39.0653 51.1278 39.0824 50.9233 39.0852C50.5881 39.0909 50.2756 39.0312 49.9858 38.9062C49.696 38.7812 49.4616 38.5881 49.2827 38.3267C49.1037 38.0653 49.0142 37.7372 49.0142 37.3423V30.8864ZM54.945 39.1449C54.5302 39.1449 54.1552 39.0682 53.82 38.9148C53.4847 38.7585 53.2191 38.5327 53.0231 38.2372C52.8299 37.9418 52.7333 37.5795 52.7333 37.1506C52.7333 36.7812 52.8043 36.4773 52.9464 36.2386C53.0884 36 53.2802 35.8111 53.5217 35.6719C53.7631 35.5327 54.033 35.4276 54.3313 35.3565C54.6296 35.2855 54.9336 35.2315 55.2433 35.1946C55.6353 35.1491 55.9535 35.1122 56.1978 35.0838C56.4421 35.0526 56.6197 35.0028 56.7305 34.9347C56.8413 34.8665 56.8967 34.7557 56.8967 34.6023V34.5724C56.8967 34.2003 56.7915 33.9119 56.5813 33.7074C56.3739 33.5028 56.0643 33.4006 55.6523 33.4006C55.2234 33.4006 54.8853 33.4957 54.6381 33.6861C54.3938 33.8736 54.2248 34.0824 54.131 34.3125L52.9336 34.0398C53.0756 33.642 53.283 33.321 53.5558 33.0767C53.8313 32.8295 54.1481 32.6506 54.506 32.5398C54.864 32.4261 55.2404 32.3693 55.6353 32.3693C55.8967 32.3693 56.1737 32.4006 56.4663 32.4631C56.7617 32.5227 57.0373 32.6335 57.293 32.7955C57.5515 32.9574 57.7631 33.1889 57.9279 33.4901C58.0927 33.7884 58.1751 34.1761 58.1751 34.6534V39H56.9308V38.1051H56.8796C56.7972 38.2699 56.6737 38.4318 56.5089 38.5909C56.3441 38.75 56.1325 38.8821 55.8739 38.9872C55.6154 39.0923 55.3058 39.1449 54.945 39.1449ZM55.2219 38.1222C55.5742 38.1222 55.8754 38.0526 56.1254 37.9134C56.3782 37.7741 56.57 37.5923 56.7006 37.3679C56.8342 37.1406 56.9009 36.8977 56.9009 36.6392V35.7955C56.8555 35.8409 56.7674 35.8835 56.6367 35.9233C56.5089 35.9602 56.3626 35.9929 56.1978 36.0213C56.033 36.0469 55.8725 36.071 55.7163 36.0938C55.56 36.1136 55.4293 36.1307 55.3242 36.1449C55.0771 36.1761 54.8512 36.2287 54.6467 36.3026C54.445 36.3764 54.283 36.483 54.1609 36.6222C54.0415 36.7585 53.9819 36.9403 53.9819 37.1676C53.9819 37.483 54.0984 37.7216 54.3313 37.8835C54.5643 38.0426 54.8612 38.1222 55.2219 38.1222ZM62.9276 32.4545V33.4773H59.3523V32.4545H62.9276ZM60.3111 30.8864H61.5852V37.0781C61.5852 37.3253 61.6222 37.5114 61.696 37.6364C61.7699 37.7585 61.8651 37.8423 61.9815 37.8878C62.1009 37.9304 62.2301 37.9517 62.3693 37.9517C62.4716 37.9517 62.5611 37.9446 62.6378 37.9304C62.7145 37.9162 62.7741 37.9048 62.8168 37.8963L63.0469 38.9489C62.973 38.9773 62.8679 39.0057 62.7315 39.0341C62.5952 39.0653 62.4247 39.0824 62.2202 39.0852C61.8849 39.0909 61.5724 39.0312 61.2827 38.9062C60.9929 38.7812 60.7585 38.5881 60.5795 38.3267C60.4006 38.0653 60.3111 37.7372 60.3111 37.3423V30.8864ZM64.337 39V32.4545H65.6112V39H64.337ZM64.9805 31.4446C64.7589 31.4446 64.5685 31.3707 64.4094 31.223C64.2532 31.0724 64.1751 30.8935 64.1751 30.6861C64.1751 30.4759 64.2532 30.2969 64.4094 30.1491C64.5685 29.9986 64.7589 29.9233 64.9805 29.9233C65.2021 29.9233 65.391 29.9986 65.5472 30.1491C65.7063 30.2969 65.7859 30.4759 65.7859 30.6861C65.7859 30.8935 65.7063 31.0724 65.5472 31.223C65.391 31.3707 65.2021 31.4446 64.9805 31.4446ZM70.0824 39.1321C69.4688 39.1321 68.9332 38.9915 68.4759 38.7102C68.0185 38.429 67.6634 38.0355 67.4105 37.5298C67.1577 37.0241 67.0312 36.4332 67.0312 35.7571C67.0312 35.0781 67.1577 34.4844 67.4105 33.9759C67.6634 33.4673 68.0185 33.0724 68.4759 32.7912C68.9332 32.5099 69.4688 32.3693 70.0824 32.3693C70.696 32.3693 71.2315 32.5099 71.6889 32.7912C72.1463 33.0724 72.5014 33.4673 72.7543 33.9759C73.0071 34.4844 73.1335 35.0781 73.1335 35.7571C73.1335 36.4332 73.0071 37.0241 72.7543 37.5298C72.5014 38.0355 72.1463 38.429 71.6889 38.7102C71.2315 38.9915 70.696 39.1321 70.0824 39.1321ZM70.0866 38.0625C70.4844 38.0625 70.8139 37.9574 71.0753 37.7472C71.3366 37.5369 71.5298 37.2571 71.6548 36.9077C71.7827 36.5582 71.8466 36.1733 71.8466 35.7528C71.8466 35.3352 71.7827 34.9517 71.6548 34.6023C71.5298 34.25 71.3366 33.9673 71.0753 33.7543C70.8139 33.5412 70.4844 33.4347 70.0866 33.4347C69.6861 33.4347 69.3537 33.5412 69.0895 33.7543C68.8281 33.9673 68.6335 34.25 68.5057 34.6023C68.3807 34.9517 68.3182 35.3352 68.3182 35.7528C68.3182 36.1733 68.3807 36.5582 68.5057 36.9077C68.6335 37.2571 68.8281 37.5369 69.0895 37.7472C69.3537 37.9574 69.6861 38.0625 70.0866 38.0625ZM75.8299 35.1136V39H74.5558V32.4545H75.7788V33.5199H75.8597C76.0103 33.1733 76.2461 32.8949 76.5671 32.6847C76.891 32.4744 77.2987 32.3693 77.7901 32.3693C78.2362 32.3693 78.6268 32.4631 78.962 32.6506C79.2972 32.8352 79.5572 33.1108 79.7418 33.4773C79.9265 33.8437 80.0188 34.2969 80.0188 34.8366V39H78.7447V34.9901C78.7447 34.5156 78.6211 34.1449 78.3739 33.8778C78.1268 33.608 77.7873 33.473 77.3555 33.473C77.06 33.473 76.7972 33.5369 76.5671 33.6648C76.3398 33.7926 76.1594 33.9801 76.0259 34.2273C75.8952 34.4716 75.8299 34.767 75.8299 35.1136Z" fill="#344054"/>
<rect x="12.25" y="0.25" width="80.5" height="51.5" rx="7.75" stroke="#63696E" stroke-opacity="0.24" stroke-width="0.5"/>
<path d="M57 59C57 61.4853 54.9853 63.5 52.5 63.5C50.0147 63.5 48 61.4853 48 59C48 56.5147 50.0147 54.5 52.5 54.5C54.9853 54.5 57 56.5147 57 59Z" fill="#3180BA"/>
<path d="M58.5711 49.4853C59.462 49.4853 59.9081 50.5624 59.2782 51.1924L53.2071 57.2635C52.8166 57.654 52.1834 57.654 51.7929 57.2635L45.7218 51.1924C45.0919 50.5624 45.538 49.4853 46.4289 49.4853L58.5711 49.4853Z" fill="white"/>
</g>
<g filter="url(#filter1_dd_583_851)">
<rect x="135" y="18" width="89" height="34" rx="8" fill="#D5CFCF"/>
<path d="M149.502 30.2727V39H148.185V30.2727H149.502ZM152.592 35.1136V39H151.317V32.4545H152.54V33.5199H152.621C152.772 33.1733 153.008 32.8949 153.329 32.6847C153.653 32.4744 154.06 32.3693 154.552 32.3693C154.998 32.3693 155.388 32.4631 155.724 32.6506C156.059 32.8352 156.319 33.1108 156.504 33.4773C156.688 33.8437 156.781 34.2969 156.781 34.8366V39H155.506V34.9901C155.506 34.5156 155.383 34.1449 155.136 33.8778C154.888 33.608 154.549 33.473 154.117 33.473C153.822 33.473 153.559 33.5369 153.329 33.6648C153.102 33.7926 152.921 33.9801 152.788 34.2273C152.657 34.4716 152.592 34.767 152.592 35.1136ZM161.767 39V30.2727H164.878C165.557 30.2727 166.12 30.3963 166.566 30.6435C167.012 30.8906 167.346 31.2287 167.567 31.6577C167.789 32.0838 167.9 32.5639 167.9 33.098C167.9 33.6349 167.787 34.1179 167.563 34.5469C167.341 34.973 167.006 35.3111 166.557 35.5611C166.111 35.8082 165.55 35.9318 164.874 35.9318H162.735V34.8153H164.755C165.184 34.8153 165.532 34.7415 165.799 34.5938C166.066 34.4432 166.262 34.2386 166.387 33.9801C166.512 33.7216 166.574 33.4276 166.574 33.098C166.574 32.7685 166.512 32.4759 166.387 32.2202C166.262 31.9645 166.064 31.7642 165.794 31.6193C165.527 31.4744 165.175 31.402 164.738 31.402H163.084V39H161.767ZM169.341 39V32.4545H170.572V33.4943H170.641C170.76 33.142 170.97 32.8651 171.271 32.6634C171.575 32.4588 171.919 32.3565 172.303 32.3565C172.382 32.3565 172.476 32.3594 172.584 32.3651C172.695 32.3707 172.781 32.3778 172.844 32.3864V33.6051C172.793 33.5909 172.702 33.5753 172.571 33.5582C172.44 33.5384 172.31 33.5284 172.179 33.5284C171.878 33.5284 171.609 33.5923 171.374 33.7202C171.141 33.8452 170.956 34.0199 170.82 34.2443C170.683 34.4659 170.615 34.7187 170.615 35.0028V39H169.341ZM176.469 39.1321C175.855 39.1321 175.32 38.9915 174.863 38.7102C174.405 38.429 174.05 38.0355 173.797 37.5298C173.544 37.0241 173.418 36.4332 173.418 35.7571C173.418 35.0781 173.544 34.4844 173.797 33.9759C174.05 33.4673 174.405 33.0724 174.863 32.7912C175.32 32.5099 175.855 32.3693 176.469 32.3693C177.083 32.3693 177.618 32.5099 178.076 32.7912C178.533 33.0724 178.888 33.4673 179.141 33.9759C179.394 34.4844 179.52 35.0781 179.52 35.7571C179.52 36.4332 179.394 37.0241 179.141 37.5298C178.888 38.0355 178.533 38.429 178.076 38.7102C177.618 38.9915 177.083 39.1321 176.469 39.1321ZM176.473 38.0625C176.871 38.0625 177.201 37.9574 177.462 37.7472C177.723 37.5369 177.917 37.2571 178.042 36.9077C178.169 36.5582 178.233 36.1733 178.233 35.7528C178.233 35.3352 178.169 34.9517 178.042 34.6023C177.917 34.25 177.723 33.9673 177.462 33.7543C177.201 33.5412 176.871 33.4347 176.473 33.4347C176.073 33.4347 175.74 33.5412 175.476 33.7543C175.215 33.9673 175.02 34.25 174.892 34.6023C174.767 34.9517 174.705 35.3352 174.705 35.7528C174.705 36.1733 174.767 36.5582 174.892 36.9077C175.02 37.2571 175.215 37.5369 175.476 37.7472C175.74 37.9574 176.073 38.0625 176.473 38.0625ZM183.687 41.5909C183.167 41.5909 182.719 41.5227 182.344 41.3864C181.972 41.25 181.668 41.0696 181.433 40.8452C181.197 40.6207 181.021 40.375 180.904 40.108L181.999 39.6562C182.076 39.7812 182.178 39.9134 182.306 40.0526C182.437 40.1946 182.613 40.3153 182.835 40.4148C183.059 40.5142 183.347 40.5639 183.7 40.5639C184.183 40.5639 184.582 40.446 184.897 40.2102C185.212 39.9773 185.37 39.6051 185.37 39.0938V37.8068H185.289C185.212 37.946 185.102 38.1009 184.957 38.2713C184.815 38.4418 184.619 38.5895 184.369 38.7145C184.119 38.8395 183.793 38.902 183.393 38.902C182.876 38.902 182.41 38.7812 181.995 38.5398C181.583 38.2955 181.256 37.9361 181.015 37.4616C180.776 36.9844 180.657 36.3977 180.657 35.7017C180.657 35.0057 180.775 34.4091 181.011 33.9119C181.249 33.4148 181.576 33.0341 181.991 32.7699C182.406 32.5028 182.876 32.3693 183.401 32.3693C183.808 32.3693 184.136 32.4375 184.386 32.5739C184.636 32.7074 184.83 32.8636 184.969 33.0426C185.112 33.2216 185.221 33.3793 185.298 33.5156H185.391V32.4545H186.64V39.1449C186.64 39.7074 186.509 40.169 186.248 40.5298C185.987 40.8906 185.633 41.1577 185.187 41.331C184.744 41.5043 184.244 41.5909 183.687 41.5909ZM183.674 37.8452C184.04 37.8452 184.35 37.7599 184.603 37.5895C184.859 37.4162 185.052 37.169 185.183 36.848C185.316 36.5241 185.383 36.1364 185.383 35.6847C185.383 35.2443 185.317 34.8565 185.187 34.5213C185.056 34.1861 184.864 33.9247 184.612 33.7372C184.359 33.5469 184.046 33.4517 183.674 33.4517C183.29 33.4517 182.971 33.5511 182.715 33.75C182.46 33.946 182.266 34.2131 182.136 34.5511C182.008 34.8892 181.944 35.267 181.944 35.6847C181.944 36.1136 182.009 36.4901 182.14 36.8139C182.271 37.1378 182.464 37.3906 182.719 37.5724C182.978 37.7543 183.296 37.8452 183.674 37.8452ZM188.349 39V32.4545H189.58V33.4943H189.648C189.768 33.142 189.978 32.8651 190.279 32.6634C190.583 32.4588 190.927 32.3565 191.31 32.3565C191.39 32.3565 191.484 32.3594 191.592 32.3651C191.702 32.3707 191.789 32.3778 191.852 32.3864V33.6051C191.8 33.5909 191.71 33.5753 191.579 33.5582C191.448 33.5384 191.317 33.5284 191.187 33.5284C190.886 33.5284 190.617 33.5923 190.381 33.7202C190.148 33.8452 189.964 34.0199 189.827 34.2443C189.691 34.4659 189.623 34.7187 189.623 35.0028V39H188.349ZM195.541 39.1321C194.896 39.1321 194.341 38.9943 193.875 38.7188C193.412 38.4403 193.054 38.0497 192.801 37.5469C192.551 37.0412 192.426 36.4489 192.426 35.7699C192.426 35.0994 192.551 34.5085 192.801 33.9972C193.054 33.4858 193.406 33.0866 193.858 32.7997C194.312 32.5128 194.843 32.3693 195.451 32.3693C195.821 32.3693 196.179 32.4304 196.525 32.5526C196.872 32.6747 197.183 32.8665 197.458 33.1278C197.734 33.3892 197.951 33.7287 198.11 34.1463C198.27 34.5611 198.349 35.0653 198.349 35.6591V36.1108H193.146V35.1562H197.1C197.1 34.821 197.032 34.5241 196.896 34.2656C196.76 34.0043 196.568 33.7983 196.321 33.6477C196.076 33.4972 195.789 33.4219 195.46 33.4219C195.102 33.4219 194.789 33.5099 194.522 33.6861C194.258 33.8594 194.054 34.0866 193.909 34.3679C193.767 34.6463 193.696 34.9489 193.696 35.2756V36.0213C193.696 36.4588 193.772 36.831 193.926 37.1378C194.082 37.4446 194.299 37.679 194.578 37.8409C194.856 38 195.181 38.0795 195.554 38.0795C195.795 38.0795 196.015 38.0455 196.214 37.9773C196.413 37.9062 196.585 37.8011 196.73 37.6619C196.875 37.5227 196.985 37.3509 197.062 37.1463L198.268 37.3636C198.172 37.7187 197.998 38.0298 197.748 38.2969C197.501 38.5611 197.19 38.767 196.815 38.9148C196.443 39.0597 196.018 39.1321 195.541 39.1321ZM204.668 34.0526L203.513 34.2571C203.464 34.1094 203.388 33.9687 203.283 33.8352C203.18 33.7017 203.041 33.5923 202.865 33.5071C202.689 33.4219 202.469 33.3793 202.205 33.3793C201.844 33.3793 201.543 33.4602 201.301 33.6222C201.06 33.7812 200.939 33.9872 200.939 34.2401C200.939 34.4588 201.02 34.6349 201.182 34.7685C201.344 34.902 201.605 35.0114 201.966 35.0966L203.006 35.3352C203.608 35.4744 204.057 35.6889 204.352 35.9787C204.648 36.2685 204.795 36.6449 204.795 37.108C204.795 37.5 204.682 37.8494 204.455 38.1562C204.23 38.4602 203.916 38.6989 203.513 38.8722C203.112 39.0455 202.648 39.1321 202.119 39.1321C201.386 39.1321 200.788 38.9759 200.325 38.6634C199.862 38.348 199.578 37.9006 199.473 37.321L200.705 37.1335C200.781 37.4545 200.939 37.6974 201.178 37.8622C201.416 38.0241 201.727 38.1051 202.111 38.1051C202.528 38.1051 202.862 38.0185 203.112 37.8452C203.362 37.669 203.487 37.4545 203.487 37.2017C203.487 36.9972 203.411 36.8253 203.257 36.6861C203.107 36.5469 202.875 36.4418 202.562 36.3707L201.455 36.1278C200.844 35.9886 200.392 35.767 200.099 35.4631C199.81 35.1591 199.665 34.7741 199.665 34.3082C199.665 33.9219 199.773 33.5838 199.989 33.294C200.205 33.0043 200.503 32.7784 200.884 32.6165C201.264 32.4517 201.7 32.3693 202.192 32.3693C202.899 32.3693 203.456 32.5227 203.862 32.8295C204.268 33.1335 204.537 33.5412 204.668 34.0526ZM211.101 34.0526L209.946 34.2571C209.898 34.1094 209.821 33.9687 209.716 33.8352C209.614 33.7017 209.475 33.5923 209.299 33.5071C209.123 33.4219 208.902 33.3793 208.638 33.3793C208.277 33.3793 207.976 33.4602 207.735 33.6222C207.493 33.7812 207.373 33.9872 207.373 34.2401C207.373 34.4588 207.453 34.6349 207.615 34.7685C207.777 34.902 208.039 35.0114 208.4 35.0966L209.439 35.3352C210.042 35.4744 210.49 35.6889 210.786 35.9787C211.081 36.2685 211.229 36.6449 211.229 37.108C211.229 37.5 211.115 37.8494 210.888 38.1562C210.664 38.4602 210.35 38.6989 209.946 38.8722C209.546 39.0455 209.081 39.1321 208.553 39.1321C207.82 39.1321 207.222 38.9759 206.759 38.6634C206.296 38.348 206.012 37.9006 205.907 37.321L207.138 37.1335C207.215 37.4545 207.373 37.6974 207.611 37.8622C207.85 38.0241 208.161 38.1051 208.544 38.1051C208.962 38.1051 209.296 38.0185 209.546 37.8452C209.796 37.669 209.921 37.4545 209.921 37.2017C209.921 36.9972 209.844 36.8253 209.691 36.6861C209.54 36.5469 209.309 36.4418 208.996 36.3707L207.888 36.1278C207.277 35.9886 206.826 35.767 206.533 35.4631C206.243 35.1591 206.098 34.7741 206.098 34.3082C206.098 33.9219 206.206 33.5838 206.422 33.294C206.638 33.0043 206.936 32.7784 207.317 32.6165C207.698 32.4517 208.134 32.3693 208.625 32.3693C209.333 32.3693 209.89 32.5227 210.296 32.8295C210.702 33.1335 210.971 33.5412 211.101 34.0526Z" fill="white"/>
<rect x="135.25" y="18.25" width="88.5" height="33.5" rx="7.75" stroke="#63696E" stroke-opacity="0.24" stroke-width="0.5"/>
<path d="M184 59C184 61.4853 181.985 63.5 179.5 63.5C177.015 63.5 175 61.4853 175 59C175 56.5147 177.015 54.5 179.5 54.5C181.985 54.5 184 56.5147 184 59Z" fill="#63696E"/>
<path d="M185.571 49.4853C186.462 49.4853 186.908 50.5624 186.278 51.1924L180.207 57.2635C179.817 57.654 179.183 57.654 178.793 57.2635L172.722 51.1924C172.092 50.5624 172.538 49.4853 173.429 49.4853L185.571 49.4853Z" fill="#D5CFCF"/>
</g>
<g filter="url(#filter2_dd_583_851)">
<rect x="267" y="18" width="76" height="34" rx="8" fill="#D5CFCF"/>
<path d="M281.694 30.2727V39H280.377V30.2727H281.694ZM284.783 35.1136V39H283.509V32.4545H284.732V33.5199H284.813C284.963 33.1733 285.199 32.8949 285.52 32.6847C285.844 32.4744 286.252 32.3693 286.743 32.3693C287.189 32.3693 287.58 32.4631 287.915 32.6506C288.25 32.8352 288.51 33.1108 288.695 33.4773C288.88 33.8437 288.972 34.2969 288.972 34.8366V39H287.698V34.9901C287.698 34.5156 287.574 34.1449 287.327 33.8778C287.08 33.608 286.74 33.473 286.309 33.473C286.013 33.473 285.75 33.5369 285.52 33.6648C285.293 33.7926 285.113 33.9801 284.979 34.2273C284.848 34.4716 284.783 34.767 284.783 35.1136ZM297.168 36.1705H298.463L299.375 37.3594L299.805 37.8878L301.259 39.7841H299.912L298.94 38.5185L298.608 38.0582L297.168 36.1705ZM301.54 34.6364C301.54 35.5682 301.369 36.3693 301.028 37.0398C300.688 37.7074 300.22 38.2216 299.626 38.5824C299.036 38.9403 298.364 39.1193 297.611 39.1193C296.855 39.1193 296.18 38.9403 295.587 38.5824C294.996 38.2216 294.53 37.706 294.189 37.0355C293.848 36.3651 293.678 35.5653 293.678 34.6364C293.678 33.7045 293.848 32.9048 294.189 32.2372C294.53 31.5668 294.996 31.0526 295.587 30.6946C296.18 30.3338 296.855 30.1534 297.611 30.1534C298.364 30.1534 299.036 30.3338 299.626 30.6946C300.22 31.0526 300.688 31.5668 301.028 32.2372C301.369 32.9048 301.54 33.7045 301.54 34.6364ZM300.236 34.6364C300.236 33.9261 300.121 33.3281 299.891 32.8423C299.663 32.3537 299.351 31.9844 298.953 31.7344C298.558 31.4815 298.111 31.3551 297.611 31.3551C297.108 31.3551 296.659 31.4815 296.264 31.7344C295.869 31.9844 295.557 32.3537 295.327 32.8423C295.099 33.3281 294.986 33.9261 294.986 34.6364C294.986 35.3466 295.099 35.946 295.327 36.4347C295.557 36.9205 295.869 37.2898 296.264 37.5426C296.659 37.7926 297.108 37.9176 297.611 37.9176C298.111 37.9176 298.558 37.7926 298.953 37.5426C299.351 37.2898 299.663 36.9205 299.891 36.4347C300.121 35.946 300.236 35.3466 300.236 34.6364ZM307.225 36.2855V32.4545H308.504V39H307.251V37.8665H307.183C307.032 38.2159 306.791 38.5071 306.458 38.7401C306.129 38.9702 305.718 39.0852 305.227 39.0852C304.806 39.0852 304.434 38.9929 304.11 38.8082C303.789 38.6207 303.537 38.3438 303.352 37.9773C303.17 37.6108 303.079 37.1577 303.079 36.6179V32.4545H304.353V36.4645C304.353 36.9105 304.477 37.2656 304.724 37.5298C304.971 37.794 305.292 37.9261 305.687 37.9261C305.926 37.9261 306.163 37.8665 306.399 37.7472C306.637 37.6278 306.835 37.4474 306.991 37.206C307.15 36.9645 307.228 36.6577 307.225 36.2855ZM313.037 39.1321C312.392 39.1321 311.837 38.9943 311.371 38.7188C310.908 38.4403 310.55 38.0497 310.297 37.5469C310.047 37.0412 309.922 36.4489 309.922 35.7699C309.922 35.0994 310.047 34.5085 310.297 33.9972C310.55 33.4858 310.902 33.0866 311.354 32.7997C311.808 32.5128 312.339 32.3693 312.947 32.3693C313.317 32.3693 313.675 32.4304 314.021 32.5526C314.368 32.6747 314.679 32.8665 314.955 33.1278C315.23 33.3892 315.447 33.7287 315.607 34.1463C315.766 34.5611 315.845 35.0653 315.845 35.6591V36.1108H310.642V35.1562H314.597C314.597 34.821 314.528 34.5241 314.392 34.2656C314.256 34.0043 314.064 33.7983 313.817 33.6477C313.572 33.4972 313.286 33.4219 312.956 33.4219C312.598 33.4219 312.286 33.5099 312.018 33.6861C311.754 33.8594 311.55 34.0866 311.405 34.3679C311.263 34.6463 311.192 34.9489 311.192 35.2756V36.0213C311.192 36.4588 311.268 36.831 311.422 37.1378C311.578 37.4446 311.795 37.679 312.074 37.8409C312.352 38 312.678 38.0795 313.05 38.0795C313.291 38.0795 313.511 38.0455 313.71 37.9773C313.909 37.9062 314.081 37.8011 314.226 37.6619C314.371 37.5227 314.482 37.3509 314.558 37.1463L315.764 37.3636C315.668 37.7187 315.494 38.0298 315.244 38.2969C314.997 38.5611 314.686 38.767 314.311 38.9148C313.939 39.0597 313.514 39.1321 313.037 39.1321ZM321.405 36.2855V32.4545H322.684V39H321.431V37.8665H321.363C321.212 38.2159 320.971 38.5071 320.638 38.7401C320.309 38.9702 319.898 39.0852 319.407 39.0852C318.986 39.0852 318.614 38.9929 318.29 38.8082C317.969 38.6207 317.716 38.3438 317.532 37.9773C317.35 37.6108 317.259 37.1577 317.259 36.6179V32.4545H318.533V36.4645C318.533 36.9105 318.657 37.2656 318.904 37.5298C319.151 37.794 319.472 37.9261 319.867 37.9261C320.105 37.9261 320.343 37.8665 320.578 37.7472C320.817 37.6278 321.015 37.4474 321.171 37.206C321.33 36.9645 321.408 36.6577 321.405 36.2855ZM327.217 39.1321C326.572 39.1321 326.016 38.9943 325.55 38.7188C325.087 38.4403 324.729 38.0497 324.477 37.5469C324.227 37.0412 324.102 36.4489 324.102 35.7699C324.102 35.0994 324.227 34.5085 324.477 33.9972C324.729 33.4858 325.082 33.0866 325.533 32.7997C325.988 32.5128 326.519 32.3693 327.127 32.3693C327.496 32.3693 327.854 32.4304 328.201 32.5526C328.548 32.6747 328.859 32.8665 329.134 33.1278C329.41 33.3892 329.627 33.7287 329.786 34.1463C329.945 34.5611 330.025 35.0653 330.025 35.6591V36.1108H324.822V35.1562H328.776C328.776 34.821 328.708 34.5241 328.572 34.2656C328.435 34.0043 328.244 33.7983 327.996 33.6477C327.752 33.4972 327.465 33.4219 327.136 33.4219C326.778 33.4219 326.465 33.5099 326.198 33.6861C325.934 33.8594 325.729 34.0866 325.585 34.3679C325.442 34.6463 325.371 34.9489 325.371 35.2756V36.0213C325.371 36.4588 325.448 36.831 325.602 37.1378C325.758 37.4446 325.975 37.679 326.254 37.8409C326.532 38 326.857 38.0795 327.229 38.0795C327.471 38.0795 327.691 38.0455 327.89 37.9773C328.089 37.9062 328.261 37.8011 328.406 37.6619C328.55 37.5227 328.661 37.3509 328.738 37.1463L329.944 37.3636C329.847 37.7187 329.674 38.0298 329.424 38.2969C329.177 38.5611 328.866 38.767 328.491 38.9148C328.119 39.0597 327.694 39.1321 327.217 39.1321Z" fill="white"/>
<rect x="267.25" y="18.25" width="75.5" height="33.5" rx="7.75" stroke="#63696E" stroke-opacity="0.24" stroke-width="0.5"/>
<path d="M309.5 59C309.5 61.4853 307.485 63.5 305 63.5C302.515 63.5 300.5 61.4853 300.5 59C300.5 56.5147 302.515 54.5 305 54.5C307.485 54.5 309.5 56.5147 309.5 59Z" fill="#63696E"/>
<path d="M311.071 49.4853C311.962 49.4853 312.408 50.5624 311.778 51.1924L305.707 57.2635C305.317 57.654 304.683 57.654 304.293 57.2635L298.222 51.1924C297.592 50.5624 298.038 49.4853 298.929 49.4853L311.071 49.4853Z" fill="#D5CFCF"/>
</g>
<defs>
<filter id="filter0_dd_583_851" x="0" y="0" width="105" height="87.5" filterUnits="userSpaceOnUse" color-interpolation-filters="sRGB">
<feFlood flood-opacity="0" result="BackgroundImageFix"/>
<feColorMatrix in="SourceAlpha" type="matrix" values="0 0 0 0 0 0 0 0 0 0 0 0 0 0 0 0 0 0 127 0" result="hardAlpha"/>
<feMorphology radius="2" operator="erode" in="SourceAlpha" result="effect1_dropShadow_583_851"/>
<feOffset dy="4"/>
<feGaussianBlur stdDeviation="3"/>
<feColorMatrix type="matrix" values="0 0 0 0 0.0627451 0 0 0 0 0.0941176 0 0 0 0 0.156863 0 0 0 0.03 0"/>
<feBlend mode="normal" in2="BackgroundImageFix" result="effect1_dropShadow_583_851"/>
<feColorMatrix in="SourceAlpha" type="matrix" values="0 0 0 0 0 0 0 0 0 0 0 0 0 0 0 0 0 0 127 0" result="hardAlpha"/>
<feMorphology radius="4" operator="erode" in="SourceAlpha" result="effect2_dropShadow_583_851"/>
<feOffset dy="12"/>
<feGaussianBlur stdDeviation="8"/>
<feColorMatrix type="matrix" values="0 0 0 0 0.0627451 0 0 0 0 0.0941176 0 0 0 0 0.156863 0 0 0 0.08 0"/>
<feBlend mode="normal" in2="effect1_dropShadow_583_851" result="effect2_dropShadow_583_851"/>
<feBlend mode="normal" in="SourceGraphic" in2="effect2_dropShadow_583_851" result="shape"/>
</filter>
<filter id="filter1_dd_583_851" x="123" y="18" width="113" height="69.5" filterUnits="userSpaceOnUse" color-interpolation-filters="sRGB">
<feFlood flood-opacity="0" result="BackgroundImageFix"/>
<feColorMatrix in="SourceAlpha" type="matrix" values="0 0 0 0 0 0 0 0 0 0 0 0 0 0 0 0 0 0 127 0" result="hardAlpha"/>
<feMorphology radius="2" operator="erode" in="SourceAlpha" result="effect1_dropShadow_583_851"/>
<feOffset dy="4"/>
<feGaussianBlur stdDeviation="3"/>
<feColorMatrix type="matrix" values="0 0 0 0 0.0627451 0 0 0 0 0.0941176 0 0 0 0 0.156863 0 0 0 0.03 0"/>
<feBlend mode="normal" in2="BackgroundImageFix" result="effect1_dropShadow_583_851"/>
<feColorMatrix in="SourceAlpha" type="matrix" values="0 0 0 0 0 0 0 0 0 0 0 0 0 0 0 0 0 0 127 0" result="hardAlpha"/>
<feMorphology radius="4" operator="erode" in="SourceAlpha" result="effect2_dropShadow_583_851"/>
<feOffset dy="12"/>
<feGaussianBlur stdDeviation="8"/>
<feColorMatrix type="matrix" values="0 0 0 0 0.0627451 0 0 0 0 0.0941176 0 0 0 0 0.156863 0 0 0 0.08 0"/>
<feBlend mode="normal" in2="effect1_dropShadow_583_851" result="effect2_dropShadow_583_851"/>
<feBlend mode="normal" in="SourceGraphic" in2="effect2_dropShadow_583_851" result="shape"/>
</filter>
<filter id="filter2_dd_583_851" x="255" y="18" width="100" height="69.5" filterUnits="userSpaceOnUse" color-interpolation-filters="sRGB">
<feFlood flood-opacity="0" result="BackgroundImageFix"/>
<feColorMatrix in="SourceAlpha" type="matrix" values="0 0 0 0 0 0 0 0 0 0 0 0 0 0 0 0 0 0 127 0" result="hardAlpha"/>
<feMorphology radius="2" operator="erode" in="SourceAlpha" result="effect1_dropShadow_583_851"/>
<feOffset dy="4"/>
<feGaussianBlur stdDeviation="3"/>
<feColorMatrix type="matrix" values="0 0 0 0 0.0627451 0 0 0 0 0.0941176 0 0 0 0 0.156863 0 0 0 0.03 0"/>
<feBlend mode="normal" in2="BackgroundImageFix" result="effect1_dropShadow_583_851"/>
<feColorMatrix in="SourceAlpha" type="matrix" values="0 0 0 0 0 0 0 0 0 0 0 0 0 0 0 0 0 0 127 0" result="hardAlpha"/>
<feMorphology radius="4" operator="erode" in="SourceAlpha" result="effect2_dropShadow_583_851"/>
<feOffset dy="12"/>
<feGaussianBlur stdDeviation="8"/>
<feColorMatrix type="matrix" values="0 0 0 0 0.0627451 0 0 0 0 0.0941176 0 0 0 0 0.156863 0 0 0 0.08 0"/>
<feBlend mode="normal" in2="effect1_dropShadow_583_851" result="effect2_dropShadow_583_851"/>
<feBlend mode="normal" in="SourceGraphic" in2="effect2_dropShadow_583_851" result="shape"/>
</filter>
</defs>
</svg>
