<svg width="351" height="93" viewBox="0 0 351 93" fill="none" xmlns="http://www.w3.org/2000/svg">
<path d="M47 58.25L176 58.25" stroke="#D9D9D9" stroke-width="3.5" stroke-dasharray="7 7"/>
<path d="M175 58.124L301.001 57.876" stroke="#D9D9D9" stroke-width="3.5"/>
<path d="M47 58L47 90.5L301 90.5L301 58.5" stroke="#D9D9D9" stroke-width="3.5" stroke-dasharray="7 7"/>
<g filter="url(#filter0_dd_122_389)">
<rect x="12" y="18" width="70" height="34" rx="8" fill="white"/>
<path d="M32.8406 34.6364C32.8406 35.5682 32.6701 36.3693 32.3292 37.0398C31.9883 37.7074 31.521 38.2216 30.9272 38.5824C30.3363 38.9403 29.6644 39.1193 28.9116 39.1193C28.1559 39.1193 27.4812 38.9403 26.8874 38.5824C26.2965 38.2216 25.8306 37.706 25.4897 37.0355C25.1488 36.3651 24.9783 35.5653 24.9783 34.6364C24.9783 33.7045 25.1488 32.9048 25.4897 32.2372C25.8306 31.5668 26.2965 31.0526 26.8874 30.6946C27.4812 30.3338 28.1559 30.1534 28.9116 30.1534C29.6644 30.1534 30.3363 30.3338 30.9272 30.6946C31.521 31.0526 31.9883 31.5668 32.3292 32.2372C32.6701 32.9048 32.8406 33.7045 32.8406 34.6364ZM31.5366 34.6364C31.5366 33.9261 31.4215 33.3281 31.1914 32.8423C30.9641 32.3537 30.6516 31.9844 30.2539 31.7344C29.859 31.4815 29.4116 31.3551 28.9116 31.3551C28.4087 31.3551 27.9599 31.4815 27.565 31.7344C27.1701 31.9844 26.8576 32.3537 26.6275 32.8423C26.4002 33.3281 26.2866 33.9261 26.2866 34.6364C26.2866 35.3466 26.4002 35.946 26.6275 36.4347C26.8576 36.9205 27.1701 37.2898 27.565 37.5426C27.9599 37.7926 28.4087 37.9176 28.9116 37.9176C29.4116 37.9176 29.859 37.7926 30.2539 37.5426C30.6516 37.2898 30.9641 36.9205 31.1914 36.4347C31.4215 35.946 31.5366 35.3466 31.5366 34.6364ZM34.38 41.4545V32.4545H35.6243V33.5156H35.7308C35.8047 33.3793 35.9112 33.2216 36.0504 33.0426C36.1896 32.8636 36.3828 32.7074 36.63 32.5739C36.8771 32.4375 37.2038 32.3693 37.6101 32.3693C38.1385 32.3693 38.6101 32.5028 39.0249 32.7699C39.4396 33.0369 39.7649 33.4219 40.0007 33.9247C40.2393 34.4276 40.3587 35.0327 40.3587 35.7401C40.3587 36.4474 40.2408 37.054 40.005 37.5597C39.7692 38.0625 39.4453 38.4503 39.0334 38.723C38.6214 38.9929 38.1513 39.1278 37.6229 39.1278C37.2251 39.1278 36.8999 39.0611 36.647 38.9276C36.397 38.794 36.201 38.6378 36.0589 38.4588C35.9169 38.2798 35.8075 38.1207 35.7308 37.9815H35.6541V41.4545H34.38ZM35.6286 35.7273C35.6286 36.1875 35.6953 36.5909 35.8288 36.9375C35.9624 37.2841 36.1555 37.5554 36.4084 37.7514C36.6612 37.9446 36.9709 38.0412 37.3374 38.0412C37.718 38.0412 38.0362 37.9403 38.2919 37.7386C38.5476 37.5341 38.7408 37.2571 38.8714 36.9077C39.005 36.5582 39.0717 36.1648 39.0717 35.7273C39.0717 35.2955 39.0064 34.9077 38.8757 34.5639C38.7479 34.2202 38.5547 33.9489 38.2962 33.75C38.0405 33.5511 37.7209 33.4517 37.3374 33.4517C36.968 33.4517 36.6555 33.5469 36.3999 33.7372C36.147 33.9276 35.9553 34.1932 35.8246 34.5341C35.6939 34.875 35.6286 35.2727 35.6286 35.7273ZM44.6072 39.1321C43.9624 39.1321 43.407 38.9943 42.9411 38.7188C42.478 38.4403 42.12 38.0497 41.8672 37.5469C41.6172 37.0412 41.4922 36.4489 41.4922 35.7699C41.4922 35.0994 41.6172 34.5085 41.8672 33.9972C42.12 33.4858 42.4723 33.0866 42.924 32.7997C43.3786 32.5128 43.9098 32.3693 44.5178 32.3693C44.8871 32.3693 45.245 32.4304 45.5916 32.5526C45.9382 32.6747 46.2493 32.8665 46.5249 33.1278C46.8004 33.3892 47.0178 33.7287 47.1768 34.1463C47.3359 34.5611 47.4155 35.0653 47.4155 35.6591V36.1108H42.2124V35.1562H46.1669C46.1669 34.821 46.0987 34.5241 45.9624 34.2656C45.826 34.0043 45.6342 33.7983 45.3871 33.6477C45.1428 33.4972 44.8558 33.4219 44.5263 33.4219C44.1683 33.4219 43.8558 33.5099 43.5888 33.6861C43.3246 33.8594 43.12 34.0866 42.9751 34.3679C42.8331 34.6463 42.7621 34.9489 42.7621 35.2756V36.0213C42.7621 36.4588 42.8388 36.831 42.9922 37.1378C43.1484 37.4446 43.3658 37.679 43.6442 37.8409C43.9226 38 44.2479 38.0795 44.62 38.0795C44.8615 38.0795 45.0817 38.0455 45.2805 37.9773C45.4794 37.9062 45.6513 37.8011 45.7962 37.6619C45.9411 37.5227 46.0518 37.3509 46.1286 37.1463L47.3345 37.3636C47.2379 37.7187 47.0646 38.0298 46.8146 38.2969C46.5675 38.5611 46.2564 38.767 45.8814 38.9148C45.5092 39.0597 45.0845 39.1321 44.6072 39.1321ZM50.1033 35.1136V39H48.8292V32.4545H50.0522V33.5199H50.1332C50.2837 33.1733 50.5195 32.8949 50.8406 32.6847C51.1644 32.4744 51.5721 32.3693 52.0636 32.3693C52.5096 32.3693 52.9002 32.4631 53.2354 32.6506C53.5707 32.8352 53.8306 33.1108 54.0153 33.4773C54.1999 33.8437 54.2923 34.2969 54.2923 34.8366V39H53.0181V34.9901C53.0181 34.5156 52.8945 34.1449 52.6474 33.8778C52.4002 33.608 52.0607 33.473 51.6289 33.473C51.3335 33.473 51.0707 33.5369 50.8406 33.6648C50.6133 33.7926 50.4329 33.9801 50.2994 34.2273C50.1687 34.4716 50.1033 34.767 50.1033 35.1136ZM58.8221 39.1321C58.1772 39.1321 57.6218 38.9943 57.1559 38.7188C56.6928 38.4403 56.3349 38.0497 56.082 37.5469C55.832 37.0412 55.707 36.4489 55.707 35.7699C55.707 35.0994 55.832 34.5085 56.082 33.9972C56.3349 33.4858 56.6871 33.0866 57.1388 32.7997C57.5934 32.5128 58.1246 32.3693 58.7326 32.3693C59.1019 32.3693 59.4599 32.4304 59.8065 32.5526C60.1531 32.6747 60.4641 32.8665 60.7397 33.1278C61.0153 33.3892 61.2326 33.7287 61.3917 34.1463C61.5508 34.5611 61.6303 35.0653 61.6303 35.6591V36.1108H56.4272V35.1562H60.3817C60.3817 34.821 60.3136 34.5241 60.1772 34.2656C60.0408 34.0043 59.8491 33.7983 59.6019 33.6477C59.3576 33.4972 59.0707 33.4219 58.7411 33.4219C58.3832 33.4219 58.0707 33.5099 57.8036 33.6861C57.5394 33.8594 57.3349 34.0866 57.19 34.3679C57.0479 34.6463 56.9769 34.9489 56.9769 35.2756V36.0213C56.9769 36.4588 57.0536 36.831 57.207 37.1378C57.3633 37.4446 57.5806 37.679 57.859 37.8409C58.1374 38 58.4627 38.0795 58.8349 38.0795C59.0763 38.0795 59.2965 38.0455 59.4954 37.9773C59.6942 37.9062 59.8661 37.8011 60.011 37.6619C60.1559 37.5227 60.2667 37.3509 60.3434 37.1463L61.5494 37.3636C61.4528 37.7187 61.2795 38.0298 61.0295 38.2969C60.7823 38.5611 60.4712 38.767 60.0962 38.9148C59.7241 39.0597 59.2994 39.1321 58.8221 39.1321ZM65.4943 39.1278C64.9659 39.1278 64.4943 38.9929 64.0795 38.723C63.6676 38.4503 63.3438 38.0625 63.108 37.5597C62.875 37.054 62.7585 36.4474 62.7585 35.7401C62.7585 35.0327 62.8764 34.4276 63.1122 33.9247C63.3509 33.4219 63.6776 33.0369 64.0923 32.7699C64.5071 32.5028 64.9773 32.3693 65.5028 32.3693C65.9091 32.3693 66.2358 32.4375 66.483 32.5739C66.733 32.7074 66.9261 32.8636 67.0625 33.0426C67.2017 33.2216 67.3097 33.3793 67.3864 33.5156H67.4631V30.2727H68.7372V39H67.4929V37.9815H67.3864C67.3097 38.1207 67.1989 38.2798 67.054 38.4588C66.9119 38.6378 66.7159 38.794 66.4659 38.9276C66.2159 39.0611 65.892 39.1278 65.4943 39.1278ZM65.7756 38.0412C66.142 38.0412 66.4517 37.9446 66.7045 37.7514C66.9602 37.5554 67.1534 37.2841 67.2841 36.9375C67.4176 36.5909 67.4844 36.1875 67.4844 35.7273C67.4844 35.2727 67.419 34.875 67.2884 34.5341C67.1577 34.1932 66.9659 33.9276 66.7131 33.7372C66.4602 33.5469 66.1477 33.4517 65.7756 33.4517C65.392 33.4517 65.0724 33.5511 64.8168 33.75C64.5611 33.9489 64.3679 34.2202 64.2372 34.5639C64.1094 34.9077 64.0455 35.2955 64.0455 35.7273C64.0455 36.1648 64.1108 36.5582 64.2415 36.9077C64.3722 37.2571 64.5653 37.5341 64.821 37.7386C65.0795 37.9403 65.3977 38.0412 65.7756 38.0412Z" fill="#344054"/>
<rect x="12.25" y="18.25" width="69.5" height="33.5" rx="7.75" stroke="#63696E" stroke-opacity="0.24" stroke-width="0.5"/>
<path d="M51.5 59C51.5 61.4853 49.4853 63.5 47 63.5C44.5147 63.5 42.5 61.4853 42.5 59C42.5 56.5147 44.5147 54.5 47 54.5C49.4853 54.5 51.5 56.5147 51.5 59Z" fill="#3180BA"/>
<path d="M53.0711 49.4853C53.962 49.4853 54.4081 50.5624 53.7782 51.1924L47.7071 57.2635C47.3166 57.654 46.6834 57.654 46.2929 57.2635L40.2218 51.1924C39.5919 50.5624 40.038 49.4853 40.9289 49.4853L53.0711 49.4853Z" fill="white"/>
</g>
<g filter="url(#filter1_dd_122_389)">
<rect x="132" width="81" height="52" rx="8" fill="#D5CFCF"/>
<path d="M148.428 21V12.2727H151.538C152.217 12.2727 152.78 12.3963 153.226 12.6435C153.672 12.8906 154.006 13.2287 154.227 13.6577C154.449 14.0838 154.56 14.5639 154.56 15.098C154.56 15.6349 154.447 16.1179 154.223 16.5469C154.001 16.973 153.666 17.3111 153.217 17.5611C152.771 17.8082 152.21 17.9318 151.534 17.9318H149.395V16.8153H151.415C151.844 16.8153 152.192 16.7415 152.459 16.5938C152.726 16.4432 152.922 16.2386 153.047 15.9801C153.172 15.7216 153.234 15.4276 153.234 15.098C153.234 14.7685 153.172 14.4759 153.047 14.2202C152.922 13.9645 152.724 13.7642 152.455 13.6193C152.188 13.4744 151.835 13.402 151.398 13.402H149.744V21H148.428ZM158.74 21.1321C158.095 21.1321 157.54 20.9943 157.074 20.7188C156.611 20.4403 156.253 20.0497 156 19.5469C155.75 19.0412 155.625 18.4489 155.625 17.7699C155.625 17.0994 155.75 16.5085 156 15.9972C156.253 15.4858 156.605 15.0866 157.057 14.7997C157.511 14.5128 158.043 14.3693 158.651 14.3693C159.02 14.3693 159.378 14.4304 159.724 14.5526C160.071 14.6747 160.382 14.8665 160.658 15.1278C160.933 15.3892 161.151 15.7287 161.31 16.1463C161.469 16.5611 161.548 17.0653 161.548 17.6591V18.1108H156.345V17.1562H160.3C160.3 16.821 160.232 16.5241 160.095 16.2656C159.959 16.0043 159.767 15.7983 159.52 15.6477C159.276 15.4972 158.989 15.4219 158.659 15.4219C158.301 15.4219 157.989 15.5099 157.722 15.6861C157.457 15.8594 157.253 16.0866 157.108 16.3679C156.966 16.6463 156.895 16.9489 156.895 17.2756V18.0213C156.895 18.4588 156.972 18.831 157.125 19.1378C157.281 19.4446 157.499 19.679 157.777 19.8409C158.055 20 158.381 20.0795 158.753 20.0795C158.994 20.0795 159.214 20.0455 159.413 19.9773C159.612 19.9062 159.784 19.8011 159.929 19.6619C160.074 19.5227 160.185 19.3509 160.261 19.1463L161.467 19.3636C161.371 19.7187 161.197 20.0298 160.947 20.2969C160.7 20.5611 160.389 20.767 160.014 20.9148C159.642 21.0597 159.217 21.1321 158.74 21.1321ZM164.236 17.1136V21H162.962V14.4545H164.185V15.5199H164.266C164.417 15.1733 164.652 14.8949 164.973 14.6847C165.297 14.4744 165.705 14.3693 166.196 14.3693C166.642 14.3693 167.033 14.4631 167.368 14.6506C167.703 14.8352 167.963 15.1108 168.148 15.4773C168.333 15.8437 168.425 16.2969 168.425 16.8366V21H167.151V16.9901C167.151 16.5156 167.027 16.1449 166.78 15.8778C166.533 15.608 166.194 15.473 165.762 15.473C165.466 15.473 165.203 15.5369 164.973 15.6648C164.746 15.7926 164.566 15.9801 164.432 16.2273C164.301 16.4716 164.236 16.767 164.236 17.1136ZM172.584 21.1278C172.056 21.1278 171.584 20.9929 171.169 20.723C170.757 20.4503 170.434 20.0625 170.198 19.5597C169.965 19.054 169.848 18.4474 169.848 17.7401C169.848 17.0327 169.966 16.4276 170.202 15.9247C170.441 15.4219 170.767 15.0369 171.182 14.7699C171.597 14.5028 172.067 14.3693 172.593 14.3693C172.999 14.3693 173.326 14.4375 173.573 14.5739C173.823 14.7074 174.016 14.8636 174.152 15.0426C174.292 15.2216 174.4 15.3793 174.476 15.5156H174.553V12.2727H175.827V21H174.583V19.9815H174.476C174.4 20.1207 174.289 20.2798 174.144 20.4588C174.002 20.6378 173.806 20.794 173.556 20.9276C173.306 21.0611 172.982 21.1278 172.584 21.1278ZM172.865 20.0412C173.232 20.0412 173.542 19.9446 173.794 19.7514C174.05 19.5554 174.243 19.2841 174.374 18.9375C174.507 18.5909 174.574 18.1875 174.574 17.7273C174.574 17.2727 174.509 16.875 174.378 16.5341C174.248 16.1932 174.056 15.9276 173.803 15.7372C173.55 15.5469 173.238 15.4517 172.865 15.4517C172.482 15.4517 172.162 15.5511 171.907 15.75C171.651 15.9489 171.458 16.2202 171.327 16.5639C171.199 16.9077 171.135 17.2955 171.135 17.7273C171.135 18.1648 171.201 18.5582 171.331 18.9077C171.462 19.2571 171.655 19.5341 171.911 19.7386C172.169 19.9403 172.488 20.0412 172.865 20.0412ZM177.646 21V14.4545H178.92V21H177.646ZM178.289 13.4446C178.067 13.4446 177.877 13.3707 177.718 13.223C177.562 13.0724 177.484 12.8935 177.484 12.6861C177.484 12.4759 177.562 12.2969 177.718 12.1491C177.877 11.9986 178.067 11.9233 178.289 11.9233C178.511 11.9233 178.7 11.9986 178.856 12.1491C179.015 12.2969 179.094 12.4759 179.094 12.6861C179.094 12.8935 179.015 13.0724 178.856 13.223C178.7 13.3707 178.511 13.4446 178.289 13.4446ZM181.908 17.1136V21H180.634V14.4545H181.857V15.5199H181.938C182.088 15.1733 182.324 14.8949 182.645 14.6847C182.969 14.4744 183.377 14.3693 183.868 14.3693C184.314 14.3693 184.705 14.4631 185.04 14.6506C185.375 14.8352 185.635 15.1108 185.82 15.4773C186.005 15.8437 186.097 16.2969 186.097 16.8366V21H184.823V16.9901C184.823 16.5156 184.699 16.1449 184.452 15.8778C184.205 15.608 183.865 15.473 183.434 15.473C183.138 15.473 182.875 15.5369 182.645 15.6648C182.418 15.7926 182.238 15.9801 182.104 16.2273C181.973 16.4716 181.908 16.767 181.908 17.1136ZM190.55 23.5909C190.03 23.5909 189.583 23.5227 189.208 23.3864C188.836 23.25 188.532 23.0696 188.296 22.8452C188.06 22.6207 187.884 22.375 187.767 22.108L188.863 21.6562C188.939 21.7812 189.042 21.9134 189.169 22.0526C189.3 22.1946 189.476 22.3153 189.698 22.4148C189.922 22.5142 190.211 22.5639 190.563 22.5639C191.046 22.5639 191.445 22.446 191.76 22.2102C192.076 21.9773 192.233 21.6051 192.233 21.0938V19.8068H192.152C192.076 19.946 191.965 20.1009 191.82 20.2713C191.678 20.4418 191.482 20.5895 191.232 20.7145C190.982 20.8395 190.657 20.902 190.256 20.902C189.739 20.902 189.273 20.7812 188.858 20.5398C188.446 20.2955 188.12 19.9361 187.878 19.4616C187.64 18.9844 187.52 18.3977 187.52 17.7017C187.52 17.0057 187.638 16.4091 187.874 15.9119C188.113 15.4148 188.439 15.0341 188.854 14.7699C189.269 14.5028 189.739 14.3693 190.265 14.3693C190.671 14.3693 190.999 14.4375 191.249 14.5739C191.499 14.7074 191.694 14.8636 191.833 15.0426C191.975 15.2216 192.084 15.3793 192.161 15.5156H192.255V14.4545H193.503V21.1449C193.503 21.7074 193.373 22.169 193.111 22.5298C192.85 22.8906 192.496 23.1577 192.05 23.331C191.607 23.5043 191.107 23.5909 190.55 23.5909ZM190.537 19.8452C190.904 19.8452 191.213 19.7599 191.466 19.5895C191.722 19.4162 191.915 19.169 192.046 18.848C192.179 18.5241 192.246 18.1364 192.246 17.6847C192.246 17.2443 192.181 16.8565 192.05 16.5213C191.919 16.1861 191.728 15.9247 191.475 15.7372C191.222 15.5469 190.909 15.4517 190.537 15.4517C190.154 15.4517 189.834 15.5511 189.578 15.75C189.323 15.946 189.13 16.2131 188.999 16.5511C188.871 16.8892 188.807 17.267 188.807 17.6847C188.807 18.1136 188.873 18.4901 189.003 18.8139C189.134 19.1378 189.327 19.3906 189.583 19.5724C189.841 19.7543 190.159 19.8452 190.537 19.8452ZM148.297 36.1705H149.592L150.504 37.3594L150.934 37.8878L152.387 39.7841H151.041L150.069 38.5185L149.737 38.0582L148.297 36.1705ZM152.669 34.6364C152.669 35.5682 152.498 36.3693 152.157 37.0398C151.816 37.7074 151.349 38.2216 150.755 38.5824C150.164 38.9403 149.493 39.1193 148.74 39.1193C147.984 39.1193 147.309 38.9403 146.716 38.5824C146.125 38.2216 145.659 37.706 145.318 37.0355C144.977 36.3651 144.806 35.5653 144.806 34.6364C144.806 33.7045 144.977 32.9048 145.318 32.2372C145.659 31.5668 146.125 31.0526 146.716 30.6946C147.309 30.3338 147.984 30.1534 148.74 30.1534C149.493 30.1534 150.164 30.3338 150.755 30.6946C151.349 31.0526 151.816 31.5668 152.157 32.2372C152.498 32.9048 152.669 33.7045 152.669 34.6364ZM151.365 34.6364C151.365 33.9261 151.25 33.3281 151.02 32.8423C150.792 32.3537 150.48 31.9844 150.082 31.7344C149.687 31.4815 149.24 31.3551 148.74 31.3551C148.237 31.3551 147.788 31.4815 147.393 31.7344C146.998 31.9844 146.686 32.3537 146.456 32.8423C146.228 33.3281 146.115 33.9261 146.115 34.6364C146.115 35.3466 146.228 35.946 146.456 36.4347C146.686 36.9205 146.998 37.2898 147.393 37.5426C147.788 37.7926 148.237 37.9176 148.74 37.9176C149.24 37.9176 149.687 37.7926 150.082 37.5426C150.48 37.2898 150.792 36.9205 151.02 36.4347C151.25 35.946 151.365 35.3466 151.365 34.6364ZM158.354 36.2855V32.4545H159.633V39H158.38V37.8665H158.312C158.161 38.2159 157.92 38.5071 157.587 38.7401C157.258 38.9702 156.847 39.0852 156.356 39.0852C155.935 39.0852 155.563 38.9929 155.239 38.8082C154.918 38.6207 154.665 38.3438 154.481 37.9773C154.299 37.6108 154.208 37.1577 154.208 36.6179V32.4545H155.482V36.4645C155.482 36.9105 155.606 37.2656 155.853 37.5298C156.1 37.794 156.421 37.9261 156.816 37.9261C157.055 37.9261 157.292 37.8665 157.528 37.7472C157.766 37.6278 157.964 37.4474 158.12 37.206C158.279 36.9645 158.357 36.6577 158.354 36.2855ZM164.102 39.1321C163.488 39.1321 162.953 38.9915 162.495 38.7102C162.038 38.429 161.683 38.0355 161.43 37.5298C161.177 37.0241 161.051 36.4332 161.051 35.7571C161.051 35.0781 161.177 34.4844 161.43 33.9759C161.683 33.4673 162.038 33.0724 162.495 32.7912C162.953 32.5099 163.488 32.3693 164.102 32.3693C164.716 32.3693 165.251 32.5099 165.708 32.7912C166.166 33.0724 166.521 33.4673 166.774 33.9759C167.027 34.4844 167.153 35.0781 167.153 35.7571C167.153 36.4332 167.027 37.0241 166.774 37.5298C166.521 38.0355 166.166 38.429 165.708 38.7102C165.251 38.9915 164.716 39.1321 164.102 39.1321ZM164.106 38.0625C164.504 38.0625 164.833 37.9574 165.095 37.7472C165.356 37.5369 165.549 37.2571 165.674 36.9077C165.802 36.5582 165.866 36.1733 165.866 35.7528C165.866 35.3352 165.802 34.9517 165.674 34.6023C165.549 34.25 165.356 33.9673 165.095 33.7543C164.833 33.5412 164.504 33.4347 164.106 33.4347C163.706 33.4347 163.373 33.5412 163.109 33.7543C162.848 33.9673 162.653 34.25 162.525 34.6023C162.4 34.9517 162.338 35.3352 162.338 35.7528C162.338 36.1733 162.4 36.5582 162.525 36.9077C162.653 37.2571 162.848 37.5369 163.109 37.7472C163.373 37.9574 163.706 38.0625 164.106 38.0625ZM171.631 32.4545V33.4773H168.055V32.4545H171.631ZM169.014 30.8864H170.288V37.0781C170.288 37.3253 170.325 37.5114 170.399 37.6364C170.473 37.7585 170.568 37.8423 170.685 37.8878C170.804 37.9304 170.933 37.9517 171.072 37.9517C171.175 37.9517 171.264 37.9446 171.341 37.9304C171.418 37.9162 171.477 37.9048 171.52 37.8963L171.75 38.9489C171.676 38.9773 171.571 39.0057 171.435 39.0341C171.298 39.0653 171.128 39.0824 170.923 39.0852C170.588 39.0909 170.276 39.0312 169.986 38.9062C169.696 38.7812 169.462 38.5881 169.283 38.3267C169.104 38.0653 169.014 37.7372 169.014 37.3423V30.8864ZM174.945 39.1449C174.53 39.1449 174.155 39.0682 173.82 38.9148C173.485 38.7585 173.219 38.5327 173.023 38.2372C172.83 37.9418 172.733 37.5795 172.733 37.1506C172.733 36.7812 172.804 36.4773 172.946 36.2386C173.088 36 173.28 35.8111 173.522 35.6719C173.763 35.5327 174.033 35.4276 174.331 35.3565C174.63 35.2855 174.934 35.2315 175.243 35.1946C175.635 35.1491 175.953 35.1122 176.198 35.0838C176.442 35.0526 176.62 35.0028 176.73 34.9347C176.841 34.8665 176.897 34.7557 176.897 34.6023V34.5724C176.897 34.2003 176.792 33.9119 176.581 33.7074C176.374 33.5028 176.064 33.4006 175.652 33.4006C175.223 33.4006 174.885 33.4957 174.638 33.6861C174.394 33.8736 174.225 34.0824 174.131 34.3125L172.934 34.0398C173.076 33.642 173.283 33.321 173.556 33.0767C173.831 32.8295 174.148 32.6506 174.506 32.5398C174.864 32.4261 175.24 32.3693 175.635 32.3693C175.897 32.3693 176.174 32.4006 176.466 32.4631C176.762 32.5227 177.037 32.6335 177.293 32.7955C177.551 32.9574 177.763 33.1889 177.928 33.4901C178.093 33.7884 178.175 34.1761 178.175 34.6534V39H176.931V38.1051H176.88C176.797 38.2699 176.674 38.4318 176.509 38.5909C176.344 38.75 176.132 38.8821 175.874 38.9872C175.615 39.0923 175.306 39.1449 174.945 39.1449ZM175.222 38.1222C175.574 38.1222 175.875 38.0526 176.125 37.9134C176.378 37.7741 176.57 37.5923 176.701 37.3679C176.834 37.1406 176.901 36.8977 176.901 36.6392V35.7955C176.855 35.8409 176.767 35.8835 176.637 35.9233C176.509 35.9602 176.363 35.9929 176.198 36.0213C176.033 36.0469 175.873 36.071 175.716 36.0938C175.56 36.1136 175.429 36.1307 175.324 36.1449C175.077 36.1761 174.851 36.2287 174.647 36.3026C174.445 36.3764 174.283 36.483 174.161 36.6222C174.042 36.7585 173.982 36.9403 173.982 37.1676C173.982 37.483 174.098 37.7216 174.331 37.8835C174.564 38.0426 174.861 38.1222 175.222 38.1222ZM182.928 32.4545V33.4773H179.352V32.4545H182.928ZM180.311 30.8864H181.585V37.0781C181.585 37.3253 181.622 37.5114 181.696 37.6364C181.77 37.7585 181.865 37.8423 181.982 37.8878C182.101 37.9304 182.23 37.9517 182.369 37.9517C182.472 37.9517 182.561 37.9446 182.638 37.9304C182.714 37.9162 182.774 37.9048 182.817 37.8963L183.047 38.9489C182.973 38.9773 182.868 39.0057 182.732 39.0341C182.595 39.0653 182.425 39.0824 182.22 39.0852C181.885 39.0909 181.572 39.0312 181.283 38.9062C180.993 38.7812 180.759 38.5881 180.58 38.3267C180.401 38.0653 180.311 37.7372 180.311 37.3423V30.8864ZM184.337 39V32.4545H185.611V39H184.337ZM184.98 31.4446C184.759 31.4446 184.569 31.3707 184.409 31.223C184.253 31.0724 184.175 30.8935 184.175 30.6861C184.175 30.4759 184.253 30.2969 184.409 30.1491C184.569 29.9986 184.759 29.9233 184.98 29.9233C185.202 29.9233 185.391 29.9986 185.547 30.1491C185.706 30.2969 185.786 30.4759 185.786 30.6861C185.786 30.8935 185.706 31.0724 185.547 31.223C185.391 31.3707 185.202 31.4446 184.98 31.4446ZM190.082 39.1321C189.469 39.1321 188.933 38.9915 188.476 38.7102C188.018 38.429 187.663 38.0355 187.411 37.5298C187.158 37.0241 187.031 36.4332 187.031 35.7571C187.031 35.0781 187.158 34.4844 187.411 33.9759C187.663 33.4673 188.018 33.0724 188.476 32.7912C188.933 32.5099 189.469 32.3693 190.082 32.3693C190.696 32.3693 191.232 32.5099 191.689 32.7912C192.146 33.0724 192.501 33.4673 192.754 33.9759C193.007 34.4844 193.134 35.0781 193.134 35.7571C193.134 36.4332 193.007 37.0241 192.754 37.5298C192.501 38.0355 192.146 38.429 191.689 38.7102C191.232 38.9915 190.696 39.1321 190.082 39.1321ZM190.087 38.0625C190.484 38.0625 190.814 37.9574 191.075 37.7472C191.337 37.5369 191.53 37.2571 191.655 36.9077C191.783 36.5582 191.847 36.1733 191.847 35.7528C191.847 35.3352 191.783 34.9517 191.655 34.6023C191.53 34.25 191.337 33.9673 191.075 33.7543C190.814 33.5412 190.484 33.4347 190.087 33.4347C189.686 33.4347 189.354 33.5412 189.089 33.7543C188.828 33.9673 188.634 34.25 188.506 34.6023C188.381 34.9517 188.318 35.3352 188.318 35.7528C188.318 36.1733 188.381 36.5582 188.506 36.9077C188.634 37.2571 188.828 37.5369 189.089 37.7472C189.354 37.9574 189.686 38.0625 190.087 38.0625ZM195.83 35.1136V39H194.556V32.4545H195.779V33.5199H195.86C196.01 33.1733 196.246 32.8949 196.567 32.6847C196.891 32.4744 197.299 32.3693 197.79 32.3693C198.236 32.3693 198.627 32.4631 198.962 32.6506C199.297 32.8352 199.557 33.1108 199.742 33.4773C199.926 33.8437 200.019 34.2969 200.019 34.8366V39H198.745V34.9901C198.745 34.5156 198.621 34.1449 198.374 33.8778C198.127 33.608 197.787 33.473 197.355 33.473C197.06 33.473 196.797 33.5369 196.567 33.6648C196.34 33.7926 196.159 33.9801 196.026 34.2273C195.895 34.4716 195.83 34.767 195.83 35.1136Z" fill="white"/>
<rect x="132.25" y="0.25" width="80.5" height="51.5" rx="7.75" stroke="#63696E" stroke-opacity="0.24" stroke-width="0.5"/>
<path d="M177 59C177 61.4853 174.985 63.5 172.5 63.5C170.015 63.5 168 61.4853 168 59C168 56.5147 170.015 54.5 172.5 54.5C174.985 54.5 177 56.5147 177 59Z" fill="#63696E"/>
<path d="M178.571 49.4853C179.462 49.4853 179.908 50.5624 179.278 51.1924L173.207 57.2635C172.817 57.654 172.183 57.654 171.793 57.2635L165.722 51.1924C165.092 50.5624 165.538 49.4853 166.429 49.4853L178.571 49.4853Z" fill="#D5CFCF"/>
</g>
<g filter="url(#filter2_dd_122_389)">
<rect x="263" y="18" width="76" height="34" rx="8" fill="#D5CFCF"/>
<path d="M277.694 30.2727V39H276.377V30.2727H277.694ZM280.783 35.1136V39H279.509V32.4545H280.732V33.5199H280.813C280.963 33.1733 281.199 32.8949 281.52 32.6847C281.844 32.4744 282.252 32.3693 282.743 32.3693C283.189 32.3693 283.58 32.4631 283.915 32.6506C284.25 32.8352 284.51 33.1108 284.695 33.4773C284.88 33.8437 284.972 34.2969 284.972 34.8366V39H283.698V34.9901C283.698 34.5156 283.574 34.1449 283.327 33.8778C283.08 33.608 282.74 33.473 282.309 33.473C282.013 33.473 281.75 33.5369 281.52 33.6648C281.293 33.7926 281.113 33.9801 280.979 34.2273C280.848 34.4716 280.783 34.767 280.783 35.1136ZM293.168 36.1705H294.463L295.375 37.3594L295.805 37.8878L297.259 39.7841H295.912L294.94 38.5185L294.608 38.0582L293.168 36.1705ZM297.54 34.6364C297.54 35.5682 297.369 36.3693 297.028 37.0398C296.688 37.7074 296.22 38.2216 295.626 38.5824C295.036 38.9403 294.364 39.1193 293.611 39.1193C292.855 39.1193 292.18 38.9403 291.587 38.5824C290.996 38.2216 290.53 37.706 290.189 37.0355C289.848 36.3651 289.678 35.5653 289.678 34.6364C289.678 33.7045 289.848 32.9048 290.189 32.2372C290.53 31.5668 290.996 31.0526 291.587 30.6946C292.18 30.3338 292.855 30.1534 293.611 30.1534C294.364 30.1534 295.036 30.3338 295.626 30.6946C296.22 31.0526 296.688 31.5668 297.028 32.2372C297.369 32.9048 297.54 33.7045 297.54 34.6364ZM296.236 34.6364C296.236 33.9261 296.121 33.3281 295.891 32.8423C295.663 32.3537 295.351 31.9844 294.953 31.7344C294.558 31.4815 294.111 31.3551 293.611 31.3551C293.108 31.3551 292.659 31.4815 292.264 31.7344C291.869 31.9844 291.557 32.3537 291.327 32.8423C291.099 33.3281 290.986 33.9261 290.986 34.6364C290.986 35.3466 291.099 35.946 291.327 36.4347C291.557 36.9205 291.869 37.2898 292.264 37.5426C292.659 37.7926 293.108 37.9176 293.611 37.9176C294.111 37.9176 294.558 37.7926 294.953 37.5426C295.351 37.2898 295.663 36.9205 295.891 36.4347C296.121 35.946 296.236 35.3466 296.236 34.6364ZM303.225 36.2855V32.4545H304.504V39H303.251V37.8665H303.183C303.032 38.2159 302.791 38.5071 302.458 38.7401C302.129 38.9702 301.718 39.0852 301.227 39.0852C300.806 39.0852 300.434 38.9929 300.11 38.8082C299.789 38.6207 299.537 38.3438 299.352 37.9773C299.17 37.6108 299.079 37.1577 299.079 36.6179V32.4545H300.353V36.4645C300.353 36.9105 300.477 37.2656 300.724 37.5298C300.971 37.794 301.292 37.9261 301.687 37.9261C301.926 37.9261 302.163 37.8665 302.399 37.7472C302.637 37.6278 302.835 37.4474 302.991 37.206C303.15 36.9645 303.228 36.6577 303.225 36.2855ZM309.037 39.1321C308.392 39.1321 307.837 38.9943 307.371 38.7188C306.908 38.4403 306.55 38.0497 306.297 37.5469C306.047 37.0412 305.922 36.4489 305.922 35.7699C305.922 35.0994 306.047 34.5085 306.297 33.9972C306.55 33.4858 306.902 33.0866 307.354 32.7997C307.808 32.5128 308.339 32.3693 308.947 32.3693C309.317 32.3693 309.675 32.4304 310.021 32.5526C310.368 32.6747 310.679 32.8665 310.955 33.1278C311.23 33.3892 311.447 33.7287 311.607 34.1463C311.766 34.5611 311.845 35.0653 311.845 35.6591V36.1108H306.642V35.1562H310.597C310.597 34.821 310.528 34.5241 310.392 34.2656C310.256 34.0043 310.064 33.7983 309.817 33.6477C309.572 33.4972 309.286 33.4219 308.956 33.4219C308.598 33.4219 308.286 33.5099 308.018 33.6861C307.754 33.8594 307.55 34.0866 307.405 34.3679C307.263 34.6463 307.192 34.9489 307.192 35.2756V36.0213C307.192 36.4588 307.268 36.831 307.422 37.1378C307.578 37.4446 307.795 37.679 308.074 37.8409C308.352 38 308.678 38.0795 309.05 38.0795C309.291 38.0795 309.511 38.0455 309.71 37.9773C309.909 37.9062 310.081 37.8011 310.226 37.6619C310.371 37.5227 310.482 37.3509 310.558 37.1463L311.764 37.3636C311.668 37.7187 311.494 38.0298 311.244 38.2969C310.997 38.5611 310.686 38.767 310.311 38.9148C309.939 39.0597 309.514 39.1321 309.037 39.1321ZM317.405 36.2855V32.4545H318.684V39H317.431V37.8665H317.363C317.212 38.2159 316.971 38.5071 316.638 38.7401C316.309 38.9702 315.898 39.0852 315.407 39.0852C314.986 39.0852 314.614 38.9929 314.29 38.8082C313.969 38.6207 313.716 38.3438 313.532 37.9773C313.35 37.6108 313.259 37.1577 313.259 36.6179V32.4545H314.533V36.4645C314.533 36.9105 314.657 37.2656 314.904 37.5298C315.151 37.794 315.472 37.9261 315.867 37.9261C316.105 37.9261 316.343 37.8665 316.578 37.7472C316.817 37.6278 317.015 37.4474 317.171 37.206C317.33 36.9645 317.408 36.6577 317.405 36.2855ZM323.217 39.1321C322.572 39.1321 322.016 38.9943 321.55 38.7188C321.087 38.4403 320.729 38.0497 320.477 37.5469C320.227 37.0412 320.102 36.4489 320.102 35.7699C320.102 35.0994 320.227 34.5085 320.477 33.9972C320.729 33.4858 321.082 33.0866 321.533 32.7997C321.988 32.5128 322.519 32.3693 323.127 32.3693C323.496 32.3693 323.854 32.4304 324.201 32.5526C324.548 32.6747 324.859 32.8665 325.134 33.1278C325.41 33.3892 325.627 33.7287 325.786 34.1463C325.945 34.5611 326.025 35.0653 326.025 35.6591V36.1108H320.822V35.1562H324.776C324.776 34.821 324.708 34.5241 324.572 34.2656C324.435 34.0043 324.244 33.7983 323.996 33.6477C323.752 33.4972 323.465 33.4219 323.136 33.4219C322.778 33.4219 322.465 33.5099 322.198 33.6861C321.934 33.8594 321.729 34.0866 321.585 34.3679C321.442 34.6463 321.371 34.9489 321.371 35.2756V36.0213C321.371 36.4588 321.448 36.831 321.602 37.1378C321.758 37.4446 321.975 37.679 322.254 37.8409C322.532 38 322.857 38.0795 323.229 38.0795C323.471 38.0795 323.691 38.0455 323.89 37.9773C324.089 37.9062 324.261 37.8011 324.406 37.6619C324.55 37.5227 324.661 37.3509 324.738 37.1463L325.944 37.3636C325.847 37.7187 325.674 38.0298 325.424 38.2969C325.177 38.5611 324.866 38.767 324.491 38.9148C324.119 39.0597 323.694 39.1321 323.217 39.1321Z" fill="white"/>
<rect x="263.25" y="18.25" width="75.5" height="33.5" rx="7.75" stroke="#63696E" stroke-opacity="0.24" stroke-width="0.5"/>
<path d="M305.5 59C305.5 61.4853 303.485 63.5 301 63.5C298.515 63.5 296.5 61.4853 296.5 59C296.5 56.5147 298.515 54.5 301 54.5C303.485 54.5 305.5 56.5147 305.5 59Z" fill="#63696E"/>
<path d="M307.071 49.4853C307.962 49.4853 308.408 50.5624 307.778 51.1924L301.707 57.2635C301.317 57.654 300.683 57.654 300.293 57.2635L294.222 51.1924C293.592 50.5624 294.038 49.4853 294.929 49.4853L307.071 49.4853Z" fill="#D5CFCF"/>
</g>
<defs>
<filter id="filter0_dd_122_389" x="0" y="18" width="94" height="69.5" filterUnits="userSpaceOnUse" color-interpolation-filters="sRGB">
<feFlood flood-opacity="0" result="BackgroundImageFix"/>
<feColorMatrix in="SourceAlpha" type="matrix" values="0 0 0 0 0 0 0 0 0 0 0 0 0 0 0 0 0 0 127 0" result="hardAlpha"/>
<feMorphology radius="2" operator="erode" in="SourceAlpha" result="effect1_dropShadow_122_389"/>
<feOffset dy="4"/>
<feGaussianBlur stdDeviation="3"/>
<feColorMatrix type="matrix" values="0 0 0 0 0.0627451 0 0 0 0 0.0941176 0 0 0 0 0.156863 0 0 0 0.03 0"/>
<feBlend mode="normal" in2="BackgroundImageFix" result="effect1_dropShadow_122_389"/>
<feColorMatrix in="SourceAlpha" type="matrix" values="0 0 0 0 0 0 0 0 0 0 0 0 0 0 0 0 0 0 127 0" result="hardAlpha"/>
<feMorphology radius="4" operator="erode" in="SourceAlpha" result="effect2_dropShadow_122_389"/>
<feOffset dy="12"/>
<feGaussianBlur stdDeviation="8"/>
<feColorMatrix type="matrix" values="0 0 0 0 0.0627451 0 0 0 0 0.0941176 0 0 0 0 0.156863 0 0 0 0.08 0"/>
<feBlend mode="normal" in2="effect1_dropShadow_122_389" result="effect2_dropShadow_122_389"/>
<feBlend mode="normal" in="SourceGraphic" in2="effect2_dropShadow_122_389" result="shape"/>
</filter>
<filter id="filter1_dd_122_389" x="120" y="0" width="105" height="87.5" filterUnits="userSpaceOnUse" color-interpolation-filters="sRGB">
<feFlood flood-opacity="0" result="BackgroundImageFix"/>
<feColorMatrix in="SourceAlpha" type="matrix" values="0 0 0 0 0 0 0 0 0 0 0 0 0 0 0 0 0 0 127 0" result="hardAlpha"/>
<feMorphology radius="2" operator="erode" in="SourceAlpha" result="effect1_dropShadow_122_389"/>
<feOffset dy="4"/>
<feGaussianBlur stdDeviation="3"/>
<feColorMatrix type="matrix" values="0 0 0 0 0.0627451 0 0 0 0 0.0941176 0 0 0 0 0.156863 0 0 0 0.03 0"/>
<feBlend mode="normal" in2="BackgroundImageFix" result="effect1_dropShadow_122_389"/>
<feColorMatrix in="SourceAlpha" type="matrix" values="0 0 0 0 0 0 0 0 0 0 0 0 0 0 0 0 0 0 127 0" result="hardAlpha"/>
<feMorphology radius="4" operator="erode" in="SourceAlpha" result="effect2_dropShadow_122_389"/>
<feOffset dy="12"/>
<feGaussianBlur stdDeviation="8"/>
<feColorMatrix type="matrix" values="0 0 0 0 0.0627451 0 0 0 0 0.0941176 0 0 0 0 0.156863 0 0 0 0.08 0"/>
<feBlend mode="normal" in2="effect1_dropShadow_122_389" result="effect2_dropShadow_122_389"/>
<feBlend mode="normal" in="SourceGraphic" in2="effect2_dropShadow_122_389" result="shape"/>
</filter>
<filter id="filter2_dd_122_389" x="251" y="18" width="100" height="69.5" filterUnits="userSpaceOnUse" color-interpolation-filters="sRGB">
<feFlood flood-opacity="0" result="BackgroundImageFix"/>
<feColorMatrix in="SourceAlpha" type="matrix" values="0 0 0 0 0 0 0 0 0 0 0 0 0 0 0 0 0 0 127 0" result="hardAlpha"/>
<feMorphology radius="2" operator="erode" in="SourceAlpha" result="effect1_dropShadow_122_389"/>
<feOffset dy="4"/>
<feGaussianBlur stdDeviation="3"/>
<feColorMatrix type="matrix" values="0 0 0 0 0.0627451 0 0 0 0 0.0941176 0 0 0 0 0.156863 0 0 0 0.03 0"/>
<feBlend mode="normal" in2="BackgroundImageFix" result="effect1_dropShadow_122_389"/>
<feColorMatrix in="SourceAlpha" type="matrix" values="0 0 0 0 0 0 0 0 0 0 0 0 0 0 0 0 0 0 127 0" result="hardAlpha"/>
<feMorphology radius="4" operator="erode" in="SourceAlpha" result="effect2_dropShadow_122_389"/>
<feOffset dy="12"/>
<feGaussianBlur stdDeviation="8"/>
<feColorMatrix type="matrix" values="0 0 0 0 0.0627451 0 0 0 0 0.0941176 0 0 0 0 0.156863 0 0 0 0.08 0"/>
<feBlend mode="normal" in2="effect1_dropShadow_122_389" result="effect2_dropShadow_122_389"/>
<feBlend mode="normal" in="SourceGraphic" in2="effect2_dropShadow_122_389" result="shape"/>
</filter>
</defs>
</svg>
