<svg width="416" height="120" viewBox="0 0 416 120" fill="none" xmlns="http://www.w3.org/2000/svg">
<path d="M50 58.25L179 58.25" stroke="#D9D9D9" stroke-width="3.5" stroke-dasharray="7 7"/>
<path d="M50 58L49.9942 90.5L275.186 90.4547L275.192 58.4547" stroke="#D9D9D9" stroke-width="3.5" stroke-dasharray="7 7"/>
<path d="M50.0019 60.0002L50.0043 88.2099L50.0068 118.177L366.556 118.204L366.551 60.4891" stroke="#D9D9D9" stroke-width="3.5" stroke-dasharray="7 7"/>
<g filter="url(#filter0_dd_584_872)">
<rect x="12" y="18" width="76" height="34" rx="8" fill="white"/>
<path d="M26.6935 30.2727V39H25.3768V30.2727H26.6935ZM29.783 35.1136V39H28.5089V32.4545H29.7319V33.5199H29.8129C29.9634 33.1733 30.1992 32.8949 30.5202 32.6847C30.8441 32.4744 31.2518 32.3693 31.7433 32.3693C32.1893 32.3693 32.5799 32.4631 32.9151 32.6506C33.2504 32.8352 33.5103 33.1108 33.695 33.4773C33.8796 33.8437 33.9719 34.2969 33.9719 34.8366V39H32.6978V34.9901C32.6978 34.5156 32.5742 34.1449 32.3271 33.8778C32.0799 33.608 31.7404 33.473 31.3086 33.473C31.0131 33.473 30.7504 33.5369 30.5202 33.6648C30.293 33.7926 30.1126 33.9801 29.979 34.2273C29.8484 34.4716 29.783 34.767 29.783 35.1136ZM42.1676 36.1705H43.4631L44.375 37.3594L44.8054 37.8878L46.2585 39.7841H44.9119L43.9403 38.5185L43.608 38.0582L42.1676 36.1705ZM46.5398 34.6364C46.5398 35.5682 46.3693 36.3693 46.0284 37.0398C45.6875 37.7074 45.2202 38.2216 44.6264 38.5824C44.0355 38.9403 43.3636 39.1193 42.6108 39.1193C41.8551 39.1193 41.1804 38.9403 40.5866 38.5824C39.9957 38.2216 39.5298 37.706 39.1889 37.0355C38.848 36.3651 38.6776 35.5653 38.6776 34.6364C38.6776 33.7045 38.848 32.9048 39.1889 32.2372C39.5298 31.5668 39.9957 31.0526 40.5866 30.6946C41.1804 30.3338 41.8551 30.1534 42.6108 30.1534C43.3636 30.1534 44.0355 30.3338 44.6264 30.6946C45.2202 31.0526 45.6875 31.5668 46.0284 32.2372C46.3693 32.9048 46.5398 33.7045 46.5398 34.6364ZM45.2358 34.6364C45.2358 33.9261 45.1207 33.3281 44.8906 32.8423C44.6634 32.3537 44.3509 31.9844 43.9531 31.7344C43.5582 31.4815 43.1108 31.3551 42.6108 31.3551C42.108 31.3551 41.6591 31.4815 41.2642 31.7344C40.8693 31.9844 40.5568 32.3537 40.3267 32.8423C40.0994 33.3281 39.9858 33.9261 39.9858 34.6364C39.9858 35.3466 40.0994 35.946 40.3267 36.4347C40.5568 36.9205 40.8693 37.2898 41.2642 37.5426C41.6591 37.7926 42.108 37.9176 42.6108 37.9176C43.1108 37.9176 43.5582 37.7926 43.9531 37.5426C44.3509 37.2898 44.6634 36.9205 44.8906 36.4347C45.1207 35.946 45.2358 35.3466 45.2358 34.6364ZM52.2255 36.2855V32.4545H53.5039V39H52.2511V37.8665H52.1829C52.0323 38.2159 51.7908 38.5071 51.4585 38.7401C51.1289 38.9702 50.7184 39.0852 50.2269 39.0852C49.8065 39.0852 49.4343 38.9929 49.1104 38.8082C48.7894 38.6207 48.5366 38.3438 48.3519 37.9773C48.1701 37.6108 48.0792 37.1577 48.0792 36.6179V32.4545H49.3533V36.4645C49.3533 36.9105 49.4769 37.2656 49.7241 37.5298C49.9712 37.794 50.2923 37.9261 50.6871 37.9261C50.9258 37.9261 51.163 37.8665 51.3988 37.7472C51.6374 37.6278 51.8349 37.4474 51.9911 37.206C52.1502 36.9645 52.2283 36.6577 52.2255 36.2855ZM58.0369 39.1321C57.392 39.1321 56.8366 38.9943 56.3707 38.7188C55.9077 38.4403 55.5497 38.0497 55.2969 37.5469C55.0469 37.0412 54.9219 36.4489 54.9219 35.7699C54.9219 35.0994 55.0469 34.5085 55.2969 33.9972C55.5497 33.4858 55.902 33.0866 56.3537 32.7997C56.8082 32.5128 57.3395 32.3693 57.9474 32.3693C58.3168 32.3693 58.6747 32.4304 59.0213 32.5526C59.3679 32.6747 59.679 32.8665 59.9545 33.1278C60.2301 33.3892 60.4474 33.7287 60.6065 34.1463C60.7656 34.5611 60.8452 35.0653 60.8452 35.6591V36.1108H55.642V35.1562H59.5966C59.5966 34.821 59.5284 34.5241 59.392 34.2656C59.2557 34.0043 59.0639 33.7983 58.8168 33.6477C58.5724 33.4972 58.2855 33.4219 57.956 33.4219C57.598 33.4219 57.2855 33.5099 57.0185 33.6861C56.7543 33.8594 56.5497 34.0866 56.4048 34.3679C56.2628 34.6463 56.1918 34.9489 56.1918 35.2756V36.0213C56.1918 36.4588 56.2685 36.831 56.4219 37.1378C56.5781 37.4446 56.7955 37.679 57.0739 37.8409C57.3523 38 57.6776 38.0795 58.0497 38.0795C58.2912 38.0795 58.5114 38.0455 58.7102 37.9773C58.9091 37.9062 59.081 37.8011 59.2259 37.6619C59.3707 37.5227 59.4815 37.3509 59.5582 37.1463L60.7642 37.3636C60.6676 37.7187 60.4943 38.0298 60.2443 38.2969C59.9972 38.5611 59.6861 38.767 59.3111 38.9148C58.9389 39.0597 58.5142 39.1321 58.0369 39.1321ZM66.4052 36.2855V32.4545H67.6836V39H66.4308V37.8665H66.3626C66.212 38.2159 65.9705 38.5071 65.6381 38.7401C65.3086 38.9702 64.8981 39.0852 64.4066 39.0852C63.9862 39.0852 63.614 38.9929 63.2901 38.8082C62.9691 38.6207 62.7163 38.3438 62.5316 37.9773C62.3498 37.6108 62.2589 37.1577 62.2589 36.6179V32.4545H63.533V36.4645C63.533 36.9105 63.6566 37.2656 63.9038 37.5298C64.1509 37.794 64.4719 37.9261 64.8668 37.9261C65.1055 37.9261 65.3427 37.8665 65.5785 37.7472C65.8171 37.6278 66.0146 37.4474 66.1708 37.206C66.3299 36.9645 66.408 36.6577 66.4052 36.2855ZM72.2166 39.1321C71.5717 39.1321 71.0163 38.9943 70.5504 38.7188C70.0874 38.4403 69.7294 38.0497 69.4766 37.5469C69.2266 37.0412 69.1016 36.4489 69.1016 35.7699C69.1016 35.0994 69.2266 34.5085 69.4766 33.9972C69.7294 33.4858 70.0817 33.0866 70.5334 32.7997C70.9879 32.5128 71.5192 32.3693 72.1271 32.3693C72.4964 32.3693 72.8544 32.4304 73.201 32.5526C73.5476 32.6747 73.8587 32.8665 74.1342 33.1278C74.4098 33.3892 74.6271 33.7287 74.7862 34.1463C74.9453 34.5611 75.0249 35.0653 75.0249 35.6591V36.1108H69.8217V35.1562H73.7763C73.7763 34.821 73.7081 34.5241 73.5717 34.2656C73.4354 34.0043 73.2436 33.7983 72.9964 33.6477C72.7521 33.4972 72.4652 33.4219 72.1357 33.4219C71.7777 33.4219 71.4652 33.5099 71.1982 33.6861C70.9339 33.8594 70.7294 34.0866 70.5845 34.3679C70.4425 34.6463 70.3714 34.9489 70.3714 35.2756V36.0213C70.3714 36.4588 70.4482 36.831 70.6016 37.1378C70.7578 37.4446 70.9751 37.679 71.2536 37.8409C71.532 38 71.8572 38.0795 72.2294 38.0795C72.4709 38.0795 72.6911 38.0455 72.8899 37.9773C73.0888 37.9062 73.2607 37.8011 73.4055 37.6619C73.5504 37.5227 73.6612 37.3509 73.7379 37.1463L74.9439 37.3636C74.8473 37.7187 74.674 38.0298 74.424 38.2969C74.1768 38.5611 73.8658 38.767 73.4908 38.9148C73.1186 39.0597 72.6939 39.1321 72.2166 39.1321Z" fill="#344054"/>
<rect x="12.25" y="18.25" width="75.5" height="33.5" rx="7.75" stroke="#63696E" stroke-opacity="0.24" stroke-width="0.5"/>
<path d="M54.5 59C54.5 61.4853 52.4853 63.5 50 63.5C47.5147 63.5 45.5 61.4853 45.5 59C45.5 56.5147 47.5147 54.5 50 54.5C52.4853 54.5 54.5 56.5147 54.5 59Z" fill="#3180BA"/>
<path d="M56.0711 49.4853C56.962 49.4853 57.4081 50.5624 56.7782 51.1924L50.7071 57.2635C50.3166 57.654 49.6834 57.654 49.2929 57.2635L43.2218 51.1924C42.5919 50.5624 43.038 49.4853 43.9289 49.4853L56.0711 49.4853Z" fill="white"/>
</g>
<g filter="url(#filter1_dd_584_872)">
<rect x="138" width="81" height="52" rx="8" fill="#D5CFCF"/>
<path d="M156.015 21V12.2727H159.126C159.805 12.2727 160.368 12.3963 160.814 12.6435C161.26 12.8906 161.594 13.2287 161.815 13.6577C162.037 14.0838 162.148 14.5639 162.148 15.098C162.148 15.6349 162.035 16.1179 161.811 16.5469C161.589 16.973 161.254 17.3111 160.805 17.5611C160.359 17.8082 159.798 17.9318 159.122 17.9318H156.983V16.8153H159.003C159.432 16.8153 159.78 16.7415 160.047 16.5938C160.314 16.4432 160.51 16.2386 160.635 15.9801C160.76 15.7216 160.822 15.4276 160.822 15.098C160.822 14.7685 160.76 14.4759 160.635 14.2202C160.51 13.9645 160.312 13.7642 160.042 13.6193C159.775 13.4744 159.423 13.402 158.986 13.402H157.332V21H156.015ZM166.328 21.1321C165.683 21.1321 165.128 20.9943 164.662 20.7188C164.199 20.4403 163.841 20.0497 163.588 19.5469C163.338 19.0412 163.213 18.4489 163.213 17.7699C163.213 17.0994 163.338 16.5085 163.588 15.9972C163.841 15.4858 164.193 15.0866 164.645 14.7997C165.099 14.5128 165.631 14.3693 166.238 14.3693C166.608 14.3693 166.966 14.4304 167.312 14.5526C167.659 14.6747 167.97 14.8665 168.246 15.1278C168.521 15.3892 168.738 15.7287 168.898 16.1463C169.057 16.5611 169.136 17.0653 169.136 17.6591V18.1108H163.933V17.1562H167.888C167.888 16.821 167.819 16.5241 167.683 16.2656C167.547 16.0043 167.355 15.7983 167.108 15.6477C166.863 15.4972 166.577 15.4219 166.247 15.4219C165.889 15.4219 165.577 15.5099 165.309 15.6861C165.045 15.8594 164.841 16.0866 164.696 16.3679C164.554 16.6463 164.483 16.9489 164.483 17.2756V18.0213C164.483 18.4588 164.559 18.831 164.713 19.1378C164.869 19.4446 165.086 19.679 165.365 19.8409C165.643 20 165.969 20.0795 166.341 20.0795C166.582 20.0795 166.802 20.0455 167.001 19.9773C167.2 19.9062 167.372 19.8011 167.517 19.6619C167.662 19.5227 167.773 19.3509 167.849 19.1463L169.055 19.3636C168.959 19.7187 168.785 20.0298 168.535 20.2969C168.288 20.5611 167.977 20.767 167.602 20.9148C167.23 21.0597 166.805 21.1321 166.328 21.1321ZM171.824 17.1136V21H170.55V14.4545H171.773V15.5199H171.854C172.004 15.1733 172.24 14.8949 172.561 14.6847C172.885 14.4744 173.293 14.3693 173.784 14.3693C174.23 14.3693 174.621 14.4631 174.956 14.6506C175.291 14.8352 175.551 15.1108 175.736 15.4773C175.921 15.8437 176.013 16.2969 176.013 16.8366V21H174.739V16.9901C174.739 16.5156 174.615 16.1449 174.368 15.8778C174.121 15.608 173.781 15.473 173.35 15.473C173.054 15.473 172.791 15.5369 172.561 15.6648C172.334 15.7926 172.154 15.9801 172.02 16.2273C171.889 16.4716 171.824 16.767 171.824 17.1136ZM180.172 21.1278C179.644 21.1278 179.172 20.9929 178.757 20.723C178.345 20.4503 178.021 20.0625 177.786 19.5597C177.553 19.054 177.436 18.4474 177.436 17.7401C177.436 17.0327 177.554 16.4276 177.79 15.9247C178.029 15.4219 178.355 15.0369 178.77 14.7699C179.185 14.5028 179.655 14.3693 180.181 14.3693C180.587 14.3693 180.914 14.4375 181.161 14.5739C181.411 14.7074 181.604 14.8636 181.74 15.0426C181.879 15.2216 181.987 15.3793 182.064 15.5156H182.141V12.2727H183.415V21H182.171V19.9815H182.064C181.987 20.1207 181.877 20.2798 181.732 20.4588C181.59 20.6378 181.394 20.794 181.144 20.9276C180.894 21.0611 180.57 21.1278 180.172 21.1278ZM180.453 20.0412C180.82 20.0412 181.129 19.9446 181.382 19.7514C181.638 19.5554 181.831 19.2841 181.962 18.9375C182.095 18.5909 182.162 18.1875 182.162 17.7273C182.162 17.2727 182.097 16.875 181.966 16.5341C181.835 16.1932 181.644 15.9276 181.391 15.7372C181.138 15.5469 180.825 15.4517 180.453 15.4517C180.07 15.4517 179.75 15.5511 179.494 15.75C179.239 15.9489 179.046 16.2202 178.915 16.5639C178.787 16.9077 178.723 17.2955 178.723 17.7273C178.723 18.1648 178.789 18.5582 178.919 18.9077C179.05 19.2571 179.243 19.5341 179.499 19.7386C179.757 19.9403 180.075 20.0412 180.453 20.0412ZM185.233 21V14.4545H186.508V21H185.233ZM185.877 13.4446C185.655 13.4446 185.465 13.3707 185.306 13.223C185.15 13.0724 185.072 12.8935 185.072 12.6861C185.072 12.4759 185.15 12.2969 185.306 12.1491C185.465 11.9986 185.655 11.9233 185.877 11.9233C186.099 11.9233 186.287 11.9986 186.444 12.1491C186.603 12.2969 186.682 12.4759 186.682 12.6861C186.682 12.8935 186.603 13.0724 186.444 13.223C186.287 13.3707 186.099 13.4446 185.877 13.4446ZM189.496 17.1136V21H188.222V14.4545H189.445V15.5199H189.526C189.676 15.1733 189.912 14.8949 190.233 14.6847C190.557 14.4744 190.965 14.3693 191.456 14.3693C191.902 14.3693 192.293 14.4631 192.628 14.6506C192.963 14.8352 193.223 15.1108 193.408 15.4773C193.593 15.8437 193.685 16.2969 193.685 16.8366V21H192.411V16.9901C192.411 16.5156 192.287 16.1449 192.04 15.8778C191.793 15.608 191.453 15.473 191.021 15.473C190.726 15.473 190.463 15.5369 190.233 15.6648C190.006 15.7926 189.825 15.9801 189.692 16.2273C189.561 16.4716 189.496 16.767 189.496 17.1136ZM198.138 23.5909C197.618 23.5909 197.171 23.5227 196.796 23.3864C196.423 23.25 196.119 23.0696 195.884 22.8452C195.648 22.6207 195.472 22.375 195.355 22.108L196.45 21.6562C196.527 21.7812 196.629 21.9134 196.757 22.0526C196.888 22.1946 197.064 22.3153 197.286 22.4148C197.51 22.5142 197.798 22.5639 198.151 22.5639C198.634 22.5639 199.033 22.446 199.348 22.2102C199.664 21.9773 199.821 21.6051 199.821 21.0938V19.8068H199.74C199.664 19.946 199.553 20.1009 199.408 20.2713C199.266 20.4418 199.07 20.5895 198.82 20.7145C198.57 20.8395 198.244 20.902 197.844 20.902C197.327 20.902 196.861 20.7812 196.446 20.5398C196.034 20.2955 195.708 19.9361 195.466 19.4616C195.227 18.9844 195.108 18.3977 195.108 17.7017C195.108 17.0057 195.226 16.4091 195.462 15.9119C195.7 15.4148 196.027 15.0341 196.442 14.7699C196.857 14.5028 197.327 14.3693 197.852 14.3693C198.259 14.3693 198.587 14.4375 198.837 14.5739C199.087 14.7074 199.281 14.8636 199.421 15.0426C199.563 15.2216 199.672 15.3793 199.749 15.5156H199.843V14.4545H201.091V21.1449C201.091 21.7074 200.96 22.169 200.699 22.5298C200.438 22.8906 200.084 23.1577 199.638 23.331C199.195 23.5043 198.695 23.5909 198.138 23.5909ZM198.125 19.8452C198.492 19.8452 198.801 19.7599 199.054 19.5895C199.31 19.4162 199.503 19.169 199.634 18.848C199.767 18.5241 199.834 18.1364 199.834 17.6847C199.834 17.2443 199.769 16.8565 199.638 16.5213C199.507 16.1861 199.316 15.9247 199.063 15.7372C198.81 15.5469 198.497 15.4517 198.125 15.4517C197.742 15.4517 197.422 15.5511 197.166 15.75C196.911 15.946 196.718 16.2131 196.587 16.5511C196.459 16.8892 196.395 17.267 196.395 17.6847C196.395 18.1136 196.46 18.4901 196.591 18.8139C196.722 19.1378 196.915 19.3906 197.171 19.5724C197.429 19.7543 197.747 19.8452 198.125 19.8452ZM154.297 36.1705H155.592L156.504 37.3594L156.934 37.8878L158.387 39.7841H157.041L156.069 38.5185L155.737 38.0582L154.297 36.1705ZM158.669 34.6364C158.669 35.5682 158.498 36.3693 158.157 37.0398C157.816 37.7074 157.349 38.2216 156.755 38.5824C156.164 38.9403 155.493 39.1193 154.74 39.1193C153.984 39.1193 153.309 38.9403 152.716 38.5824C152.125 38.2216 151.659 37.706 151.318 37.0355C150.977 36.3651 150.806 35.5653 150.806 34.6364C150.806 33.7045 150.977 32.9048 151.318 32.2372C151.659 31.5668 152.125 31.0526 152.716 30.6946C153.309 30.3338 153.984 30.1534 154.74 30.1534C155.493 30.1534 156.164 30.3338 156.755 30.6946C157.349 31.0526 157.816 31.5668 158.157 32.2372C158.498 32.9048 158.669 33.7045 158.669 34.6364ZM157.365 34.6364C157.365 33.9261 157.25 33.3281 157.02 32.8423C156.792 32.3537 156.48 31.9844 156.082 31.7344C155.687 31.4815 155.24 31.3551 154.74 31.3551C154.237 31.3551 153.788 31.4815 153.393 31.7344C152.998 31.9844 152.686 32.3537 152.456 32.8423C152.228 33.3281 152.115 33.9261 152.115 34.6364C152.115 35.3466 152.228 35.946 152.456 36.4347C152.686 36.9205 152.998 37.2898 153.393 37.5426C153.788 37.7926 154.237 37.9176 154.74 37.9176C155.24 37.9176 155.687 37.7926 156.082 37.5426C156.48 37.2898 156.792 36.9205 157.02 36.4347C157.25 35.946 157.365 35.3466 157.365 34.6364ZM164.354 36.2855V32.4545H165.633V39H164.38V37.8665H164.312C164.161 38.2159 163.92 38.5071 163.587 38.7401C163.258 38.9702 162.847 39.0852 162.356 39.0852C161.935 39.0852 161.563 38.9929 161.239 38.8082C160.918 38.6207 160.665 38.3438 160.481 37.9773C160.299 37.6108 160.208 37.1577 160.208 36.6179V32.4545H161.482V36.4645C161.482 36.9105 161.606 37.2656 161.853 37.5298C162.1 37.794 162.421 37.9261 162.816 37.9261C163.055 37.9261 163.292 37.8665 163.528 37.7472C163.766 37.6278 163.964 37.4474 164.12 37.206C164.279 36.9645 164.357 36.6577 164.354 36.2855ZM170.102 39.1321C169.488 39.1321 168.953 38.9915 168.495 38.7102C168.038 38.429 167.683 38.0355 167.43 37.5298C167.177 37.0241 167.051 36.4332 167.051 35.7571C167.051 35.0781 167.177 34.4844 167.43 33.9759C167.683 33.4673 168.038 33.0724 168.495 32.7912C168.953 32.5099 169.488 32.3693 170.102 32.3693C170.716 32.3693 171.251 32.5099 171.708 32.7912C172.166 33.0724 172.521 33.4673 172.774 33.9759C173.027 34.4844 173.153 35.0781 173.153 35.7571C173.153 36.4332 173.027 37.0241 172.774 37.5298C172.521 38.0355 172.166 38.429 171.708 38.7102C171.251 38.9915 170.716 39.1321 170.102 39.1321ZM170.106 38.0625C170.504 38.0625 170.833 37.9574 171.095 37.7472C171.356 37.5369 171.549 37.2571 171.674 36.9077C171.802 36.5582 171.866 36.1733 171.866 35.7528C171.866 35.3352 171.802 34.9517 171.674 34.6023C171.549 34.25 171.356 33.9673 171.095 33.7543C170.833 33.5412 170.504 33.4347 170.106 33.4347C169.706 33.4347 169.373 33.5412 169.109 33.7543C168.848 33.9673 168.653 34.25 168.525 34.6023C168.4 34.9517 168.338 35.3352 168.338 35.7528C168.338 36.1733 168.4 36.5582 168.525 36.9077C168.653 37.2571 168.848 37.5369 169.109 37.7472C169.373 37.9574 169.706 38.0625 170.106 38.0625ZM177.631 32.4545V33.4773H174.055V32.4545H177.631ZM175.014 30.8864H176.288V37.0781C176.288 37.3253 176.325 37.5114 176.399 37.6364C176.473 37.7585 176.568 37.8423 176.685 37.8878C176.804 37.9304 176.933 37.9517 177.072 37.9517C177.175 37.9517 177.264 37.9446 177.341 37.9304C177.418 37.9162 177.477 37.9048 177.52 37.8963L177.75 38.9489C177.676 38.9773 177.571 39.0057 177.435 39.0341C177.298 39.0653 177.128 39.0824 176.923 39.0852C176.588 39.0909 176.276 39.0312 175.986 38.9062C175.696 38.7812 175.462 38.5881 175.283 38.3267C175.104 38.0653 175.014 37.7372 175.014 37.3423V30.8864ZM180.945 39.1449C180.53 39.1449 180.155 39.0682 179.82 38.9148C179.485 38.7585 179.219 38.5327 179.023 38.2372C178.83 37.9418 178.733 37.5795 178.733 37.1506C178.733 36.7812 178.804 36.4773 178.946 36.2386C179.088 36 179.28 35.8111 179.522 35.6719C179.763 35.5327 180.033 35.4276 180.331 35.3565C180.63 35.2855 180.934 35.2315 181.243 35.1946C181.635 35.1491 181.953 35.1122 182.198 35.0838C182.442 35.0526 182.62 35.0028 182.73 34.9347C182.841 34.8665 182.897 34.7557 182.897 34.6023V34.5724C182.897 34.2003 182.792 33.9119 182.581 33.7074C182.374 33.5028 182.064 33.4006 181.652 33.4006C181.223 33.4006 180.885 33.4957 180.638 33.6861C180.394 33.8736 180.225 34.0824 180.131 34.3125L178.934 34.0398C179.076 33.642 179.283 33.321 179.556 33.0767C179.831 32.8295 180.148 32.6506 180.506 32.5398C180.864 32.4261 181.24 32.3693 181.635 32.3693C181.897 32.3693 182.174 32.4006 182.466 32.4631C182.762 32.5227 183.037 32.6335 183.293 32.7955C183.551 32.9574 183.763 33.1889 183.928 33.4901C184.093 33.7884 184.175 34.1761 184.175 34.6534V39H182.931V38.1051H182.88C182.797 38.2699 182.674 38.4318 182.509 38.5909C182.344 38.75 182.132 38.8821 181.874 38.9872C181.615 39.0923 181.306 39.1449 180.945 39.1449ZM181.222 38.1222C181.574 38.1222 181.875 38.0526 182.125 37.9134C182.378 37.7741 182.57 37.5923 182.701 37.3679C182.834 37.1406 182.901 36.8977 182.901 36.6392V35.7955C182.855 35.8409 182.767 35.8835 182.637 35.9233C182.509 35.9602 182.363 35.9929 182.198 36.0213C182.033 36.0469 181.873 36.071 181.716 36.0938C181.56 36.1136 181.429 36.1307 181.324 36.1449C181.077 36.1761 180.851 36.2287 180.647 36.3026C180.445 36.3764 180.283 36.483 180.161 36.6222C180.042 36.7585 179.982 36.9403 179.982 37.1676C179.982 37.483 180.098 37.7216 180.331 37.8835C180.564 38.0426 180.861 38.1222 181.222 38.1222ZM188.928 32.4545V33.4773H185.352V32.4545H188.928ZM186.311 30.8864H187.585V37.0781C187.585 37.3253 187.622 37.5114 187.696 37.6364C187.77 37.7585 187.865 37.8423 187.982 37.8878C188.101 37.9304 188.23 37.9517 188.369 37.9517C188.472 37.9517 188.561 37.9446 188.638 37.9304C188.714 37.9162 188.774 37.9048 188.817 37.8963L189.047 38.9489C188.973 38.9773 188.868 39.0057 188.732 39.0341C188.595 39.0653 188.425 39.0824 188.22 39.0852C187.885 39.0909 187.572 39.0312 187.283 38.9062C186.993 38.7812 186.759 38.5881 186.58 38.3267C186.401 38.0653 186.311 37.7372 186.311 37.3423V30.8864ZM190.337 39V32.4545H191.611V39H190.337ZM190.98 31.4446C190.759 31.4446 190.569 31.3707 190.409 31.223C190.253 31.0724 190.175 30.8935 190.175 30.6861C190.175 30.4759 190.253 30.2969 190.409 30.1491C190.569 29.9986 190.759 29.9233 190.98 29.9233C191.202 29.9233 191.391 29.9986 191.547 30.1491C191.706 30.2969 191.786 30.4759 191.786 30.6861C191.786 30.8935 191.706 31.0724 191.547 31.223C191.391 31.3707 191.202 31.4446 190.98 31.4446ZM196.082 39.1321C195.469 39.1321 194.933 38.9915 194.476 38.7102C194.018 38.429 193.663 38.0355 193.411 37.5298C193.158 37.0241 193.031 36.4332 193.031 35.7571C193.031 35.0781 193.158 34.4844 193.411 33.9759C193.663 33.4673 194.018 33.0724 194.476 32.7912C194.933 32.5099 195.469 32.3693 196.082 32.3693C196.696 32.3693 197.232 32.5099 197.689 32.7912C198.146 33.0724 198.501 33.4673 198.754 33.9759C199.007 34.4844 199.134 35.0781 199.134 35.7571C199.134 36.4332 199.007 37.0241 198.754 37.5298C198.501 38.0355 198.146 38.429 197.689 38.7102C197.232 38.9915 196.696 39.1321 196.082 39.1321ZM196.087 38.0625C196.484 38.0625 196.814 37.9574 197.075 37.7472C197.337 37.5369 197.53 37.2571 197.655 36.9077C197.783 36.5582 197.847 36.1733 197.847 35.7528C197.847 35.3352 197.783 34.9517 197.655 34.6023C197.53 34.25 197.337 33.9673 197.075 33.7543C196.814 33.5412 196.484 33.4347 196.087 33.4347C195.686 33.4347 195.354 33.5412 195.089 33.7543C194.828 33.9673 194.634 34.25 194.506 34.6023C194.381 34.9517 194.318 35.3352 194.318 35.7528C194.318 36.1733 194.381 36.5582 194.506 36.9077C194.634 37.2571 194.828 37.5369 195.089 37.7472C195.354 37.9574 195.686 38.0625 196.087 38.0625ZM201.83 35.1136V39H200.556V32.4545H201.779V33.5199H201.86C202.01 33.1733 202.246 32.8949 202.567 32.6847C202.891 32.4744 203.299 32.3693 203.79 32.3693C204.236 32.3693 204.627 32.4631 204.962 32.6506C205.297 32.8352 205.557 33.1108 205.742 33.4773C205.926 33.8437 206.019 34.2969 206.019 34.8366V39H204.745V34.9901C204.745 34.5156 204.621 34.1449 204.374 33.8778C204.127 33.608 203.787 33.473 203.355 33.473C203.06 33.473 202.797 33.5369 202.567 33.6648C202.34 33.7926 202.159 33.9801 202.026 34.2273C201.895 34.4716 201.83 34.767 201.83 35.1136Z" fill="white"/>
<rect x="138.25" y="0.25" width="80.5" height="51.5" rx="7.75" stroke="#63696E" stroke-opacity="0.24" stroke-width="0.5"/>
<path d="M183 59C183 61.4853 180.985 63.5 178.5 63.5C176.015 63.5 174 61.4853 174 59C174 56.5147 176.015 54.5 178.5 54.5C180.985 54.5 183 56.5147 183 59Z" fill="#63696E"/>
<path d="M184.571 49.4853C185.462 49.4853 185.908 50.5624 185.278 51.1924L179.207 57.2635C178.817 57.654 178.183 57.654 177.793 57.2635L171.722 51.1924C171.092 50.5624 171.538 49.4853 172.429 49.4853L184.571 49.4853Z" fill="#D5CFCF"/>
</g>
<g filter="url(#filter2_dd_584_872)">
<rect x="230" y="18" width="89" height="34" rx="8" fill="#D5CFCF"/>
<path d="M244.502 30.2727V39H243.185V30.2727H244.502ZM247.592 35.1136V39H246.317V32.4545H247.54V33.5199H247.621C247.772 33.1733 248.008 32.8949 248.329 32.6847C248.653 32.4744 249.06 32.3693 249.552 32.3693C249.998 32.3693 250.388 32.4631 250.724 32.6506C251.059 32.8352 251.319 33.1108 251.504 33.4773C251.688 33.8437 251.781 34.2969 251.781 34.8366V39H250.506V34.9901C250.506 34.5156 250.383 34.1449 250.136 33.8778C249.888 33.608 249.549 33.473 249.117 33.473C248.822 33.473 248.559 33.5369 248.329 33.6648C248.102 33.7926 247.921 33.9801 247.788 34.2273C247.657 34.4716 247.592 34.767 247.592 35.1136ZM256.767 39V30.2727H259.878C260.557 30.2727 261.12 30.3963 261.566 30.6435C262.012 30.8906 262.346 31.2287 262.567 31.6577C262.789 32.0838 262.9 32.5639 262.9 33.098C262.9 33.6349 262.787 34.1179 262.563 34.5469C262.341 34.973 262.006 35.3111 261.557 35.5611C261.111 35.8082 260.55 35.9318 259.874 35.9318H257.735V34.8153H259.755C260.184 34.8153 260.532 34.7415 260.799 34.5938C261.066 34.4432 261.262 34.2386 261.387 33.9801C261.512 33.7216 261.574 33.4276 261.574 33.098C261.574 32.7685 261.512 32.4759 261.387 32.2202C261.262 31.9645 261.064 31.7642 260.794 31.6193C260.527 31.4744 260.175 31.402 259.738 31.402H258.084V39H256.767ZM264.341 39V32.4545H265.572V33.4943H265.641C265.76 33.142 265.97 32.8651 266.271 32.6634C266.575 32.4588 266.919 32.3565 267.303 32.3565C267.382 32.3565 267.476 32.3594 267.584 32.3651C267.695 32.3707 267.781 32.3778 267.844 32.3864V33.6051C267.793 33.5909 267.702 33.5753 267.571 33.5582C267.44 33.5384 267.31 33.5284 267.179 33.5284C266.878 33.5284 266.609 33.5923 266.374 33.7202C266.141 33.8452 265.956 34.0199 265.82 34.2443C265.683 34.4659 265.615 34.7187 265.615 35.0028V39H264.341ZM271.469 39.1321C270.855 39.1321 270.32 38.9915 269.863 38.7102C269.405 38.429 269.05 38.0355 268.797 37.5298C268.544 37.0241 268.418 36.4332 268.418 35.7571C268.418 35.0781 268.544 34.4844 268.797 33.9759C269.05 33.4673 269.405 33.0724 269.863 32.7912C270.32 32.5099 270.855 32.3693 271.469 32.3693C272.083 32.3693 272.618 32.5099 273.076 32.7912C273.533 33.0724 273.888 33.4673 274.141 33.9759C274.394 34.4844 274.52 35.0781 274.52 35.7571C274.52 36.4332 274.394 37.0241 274.141 37.5298C273.888 38.0355 273.533 38.429 273.076 38.7102C272.618 38.9915 272.083 39.1321 271.469 39.1321ZM271.473 38.0625C271.871 38.0625 272.201 37.9574 272.462 37.7472C272.723 37.5369 272.917 37.2571 273.042 36.9077C273.169 36.5582 273.233 36.1733 273.233 35.7528C273.233 35.3352 273.169 34.9517 273.042 34.6023C272.917 34.25 272.723 33.9673 272.462 33.7543C272.201 33.5412 271.871 33.4347 271.473 33.4347C271.073 33.4347 270.74 33.5412 270.476 33.7543C270.215 33.9673 270.02 34.25 269.892 34.6023C269.767 34.9517 269.705 35.3352 269.705 35.7528C269.705 36.1733 269.767 36.5582 269.892 36.9077C270.02 37.2571 270.215 37.5369 270.476 37.7472C270.74 37.9574 271.073 38.0625 271.473 38.0625ZM278.687 41.5909C278.167 41.5909 277.719 41.5227 277.344 41.3864C276.972 41.25 276.668 41.0696 276.433 40.8452C276.197 40.6207 276.021 40.375 275.904 40.108L276.999 39.6562C277.076 39.7812 277.178 39.9134 277.306 40.0526C277.437 40.1946 277.613 40.3153 277.835 40.4148C278.059 40.5142 278.347 40.5639 278.7 40.5639C279.183 40.5639 279.582 40.446 279.897 40.2102C280.212 39.9773 280.37 39.6051 280.37 39.0938V37.8068H280.289C280.212 37.946 280.102 38.1009 279.957 38.2713C279.815 38.4418 279.619 38.5895 279.369 38.7145C279.119 38.8395 278.793 38.902 278.393 38.902C277.876 38.902 277.41 38.7812 276.995 38.5398C276.583 38.2955 276.256 37.9361 276.015 37.4616C275.776 36.9844 275.657 36.3977 275.657 35.7017C275.657 35.0057 275.775 34.4091 276.011 33.9119C276.249 33.4148 276.576 33.0341 276.991 32.7699C277.406 32.5028 277.876 32.3693 278.401 32.3693C278.808 32.3693 279.136 32.4375 279.386 32.5739C279.636 32.7074 279.83 32.8636 279.969 33.0426C280.112 33.2216 280.221 33.3793 280.298 33.5156H280.391V32.4545H281.64V39.1449C281.64 39.7074 281.509 40.169 281.248 40.5298C280.987 40.8906 280.633 41.1577 280.187 41.331C279.744 41.5043 279.244 41.5909 278.687 41.5909ZM278.674 37.8452C279.04 37.8452 279.35 37.7599 279.603 37.5895C279.859 37.4162 280.052 37.169 280.183 36.848C280.316 36.5241 280.383 36.1364 280.383 35.6847C280.383 35.2443 280.317 34.8565 280.187 34.5213C280.056 34.1861 279.864 33.9247 279.612 33.7372C279.359 33.5469 279.046 33.4517 278.674 33.4517C278.29 33.4517 277.971 33.5511 277.715 33.75C277.46 33.946 277.266 34.2131 277.136 34.5511C277.008 34.8892 276.944 35.267 276.944 35.6847C276.944 36.1136 277.009 36.4901 277.14 36.8139C277.271 37.1378 277.464 37.3906 277.719 37.5724C277.978 37.7543 278.296 37.8452 278.674 37.8452ZM283.349 39V32.4545H284.58V33.4943H284.648C284.768 33.142 284.978 32.8651 285.279 32.6634C285.583 32.4588 285.927 32.3565 286.31 32.3565C286.39 32.3565 286.484 32.3594 286.592 32.3651C286.702 32.3707 286.789 32.3778 286.852 32.3864V33.6051C286.8 33.5909 286.71 33.5753 286.579 33.5582C286.448 33.5384 286.317 33.5284 286.187 33.5284C285.886 33.5284 285.617 33.5923 285.381 33.7202C285.148 33.8452 284.964 34.0199 284.827 34.2443C284.691 34.4659 284.623 34.7187 284.623 35.0028V39H283.349ZM290.541 39.1321C289.896 39.1321 289.341 38.9943 288.875 38.7188C288.412 38.4403 288.054 38.0497 287.801 37.5469C287.551 37.0412 287.426 36.4489 287.426 35.7699C287.426 35.0994 287.551 34.5085 287.801 33.9972C288.054 33.4858 288.406 33.0866 288.858 32.7997C289.312 32.5128 289.843 32.3693 290.451 32.3693C290.821 32.3693 291.179 32.4304 291.525 32.5526C291.872 32.6747 292.183 32.8665 292.458 33.1278C292.734 33.3892 292.951 33.7287 293.11 34.1463C293.27 34.5611 293.349 35.0653 293.349 35.6591V36.1108H288.146V35.1562H292.1C292.1 34.821 292.032 34.5241 291.896 34.2656C291.76 34.0043 291.568 33.7983 291.321 33.6477C291.076 33.4972 290.789 33.4219 290.46 33.4219C290.102 33.4219 289.789 33.5099 289.522 33.6861C289.258 33.8594 289.054 34.0866 288.909 34.3679C288.767 34.6463 288.696 34.9489 288.696 35.2756V36.0213C288.696 36.4588 288.772 36.831 288.926 37.1378C289.082 37.4446 289.299 37.679 289.578 37.8409C289.856 38 290.181 38.0795 290.554 38.0795C290.795 38.0795 291.015 38.0455 291.214 37.9773C291.413 37.9062 291.585 37.8011 291.73 37.6619C291.875 37.5227 291.985 37.3509 292.062 37.1463L293.268 37.3636C293.172 37.7187 292.998 38.0298 292.748 38.2969C292.501 38.5611 292.19 38.767 291.815 38.9148C291.443 39.0597 291.018 39.1321 290.541 39.1321ZM299.668 34.0526L298.513 34.2571C298.464 34.1094 298.388 33.9687 298.283 33.8352C298.18 33.7017 298.041 33.5923 297.865 33.5071C297.689 33.4219 297.469 33.3793 297.205 33.3793C296.844 33.3793 296.543 33.4602 296.301 33.6222C296.06 33.7812 295.939 33.9872 295.939 34.2401C295.939 34.4588 296.02 34.6349 296.182 34.7685C296.344 34.902 296.605 35.0114 296.966 35.0966L298.006 35.3352C298.608 35.4744 299.057 35.6889 299.352 35.9787C299.648 36.2685 299.795 36.6449 299.795 37.108C299.795 37.5 299.682 37.8494 299.455 38.1562C299.23 38.4602 298.916 38.6989 298.513 38.8722C298.112 39.0455 297.648 39.1321 297.119 39.1321C296.386 39.1321 295.788 38.9759 295.325 38.6634C294.862 38.348 294.578 37.9006 294.473 37.321L295.705 37.1335C295.781 37.4545 295.939 37.6974 296.178 37.8622C296.416 38.0241 296.727 38.1051 297.111 38.1051C297.528 38.1051 297.862 38.0185 298.112 37.8452C298.362 37.669 298.487 37.4545 298.487 37.2017C298.487 36.9972 298.411 36.8253 298.257 36.6861C298.107 36.5469 297.875 36.4418 297.562 36.3707L296.455 36.1278C295.844 35.9886 295.392 35.767 295.099 35.4631C294.81 35.1591 294.665 34.7741 294.665 34.3082C294.665 33.9219 294.773 33.5838 294.989 33.294C295.205 33.0043 295.503 32.7784 295.884 32.6165C296.264 32.4517 296.7 32.3693 297.192 32.3693C297.899 32.3693 298.456 32.5227 298.862 32.8295C299.268 33.1335 299.537 33.5412 299.668 34.0526ZM306.101 34.0526L304.946 34.2571C304.898 34.1094 304.821 33.9687 304.716 33.8352C304.614 33.7017 304.475 33.5923 304.299 33.5071C304.123 33.4219 303.902 33.3793 303.638 33.3793C303.277 33.3793 302.976 33.4602 302.735 33.6222C302.493 33.7812 302.373 33.9872 302.373 34.2401C302.373 34.4588 302.453 34.6349 302.615 34.7685C302.777 34.902 303.039 35.0114 303.4 35.0966L304.439 35.3352C305.042 35.4744 305.49 35.6889 305.786 35.9787C306.081 36.2685 306.229 36.6449 306.229 37.108C306.229 37.5 306.115 37.8494 305.888 38.1562C305.664 38.4602 305.35 38.6989 304.946 38.8722C304.546 39.0455 304.081 39.1321 303.553 39.1321C302.82 39.1321 302.222 38.9759 301.759 38.6634C301.296 38.348 301.012 37.9006 300.907 37.321L302.138 37.1335C302.215 37.4545 302.373 37.6974 302.611 37.8622C302.85 38.0241 303.161 38.1051 303.544 38.1051C303.962 38.1051 304.296 38.0185 304.546 37.8452C304.796 37.669 304.921 37.4545 304.921 37.2017C304.921 36.9972 304.844 36.8253 304.691 36.6861C304.54 36.5469 304.309 36.4418 303.996 36.3707L302.888 36.1278C302.277 35.9886 301.826 35.767 301.533 35.4631C301.243 35.1591 301.098 34.7741 301.098 34.3082C301.098 33.9219 301.206 33.5838 301.422 33.294C301.638 33.0043 301.936 32.7784 302.317 32.6165C302.698 32.4517 303.134 32.3693 303.625 32.3693C304.333 32.3693 304.89 32.5227 305.296 32.8295C305.702 33.1335 305.971 33.5412 306.101 34.0526Z" fill="white"/>
<rect x="230.25" y="18.25" width="88.5" height="33.5" rx="7.75" stroke="#63696E" stroke-opacity="0.24" stroke-width="0.5"/>
<path d="M279 59C279 61.4853 276.985 63.5 274.5 63.5C272.015 63.5 270 61.4853 270 59C270 56.5147 272.015 54.5 274.5 54.5C276.985 54.5 279 56.5147 279 59Z" fill="#63696E"/>
<path d="M280.571 49.4853C281.462 49.4853 281.908 50.5624 281.278 51.1924L275.207 57.2635C274.817 57.654 274.183 57.654 273.793 57.2635L267.722 51.1924C267.092 50.5624 267.538 49.4853 268.429 49.4853H280.571Z" fill="#D5CFCF"/>
</g>
<g filter="url(#filter3_dd_584_872)">
<rect x="329" y="18" width="75" height="34" rx="8" fill="#D5CFCF"/>
<path d="M342.217 39V30.2727H345.327C346.004 30.2727 346.565 30.3892 347.011 30.6222C347.46 30.8551 347.795 31.1776 348.016 31.5895C348.238 31.9986 348.349 32.4716 348.349 33.0085C348.349 33.5426 348.237 34.0128 348.012 34.419C347.79 34.8224 347.455 35.1364 347.006 35.3608C346.56 35.5852 345.999 35.6974 345.323 35.6974H342.967V34.5639H345.204C345.63 34.5639 345.977 34.5028 346.244 34.3807C346.513 34.2585 346.711 34.081 346.836 33.848C346.961 33.6151 347.023 33.3352 347.023 33.0085C347.023 32.679 346.96 32.3935 346.832 32.152C346.707 31.9105 346.509 31.7259 346.239 31.598C345.972 31.4673 345.621 31.402 345.187 31.402H343.533V39H342.217ZM346.525 35.0625L348.681 39H347.181L345.067 35.0625H346.525ZM352.588 39.1321C351.943 39.1321 351.387 38.9943 350.922 38.7188C350.458 38.4403 350.1 38.0497 349.848 37.5469C349.598 37.0412 349.473 36.4489 349.473 35.7699C349.473 35.0994 349.598 34.5085 349.848 33.9972C350.1 33.4858 350.453 33.0866 350.904 32.7997C351.359 32.5128 351.89 32.3693 352.498 32.3693C352.868 32.3693 353.225 32.4304 353.572 32.5526C353.919 32.6747 354.23 32.8665 354.505 33.1278C354.781 33.3892 354.998 33.7287 355.157 34.1463C355.316 34.5611 355.396 35.0653 355.396 35.6591V36.1108H350.193V35.1562H354.147C354.147 34.821 354.079 34.5241 353.943 34.2656C353.806 34.0043 353.615 33.7983 353.368 33.6477C353.123 33.4972 352.836 33.4219 352.507 33.4219C352.149 33.4219 351.836 33.5099 351.569 33.6861C351.305 33.8594 351.1 34.0866 350.956 34.3679C350.814 34.6463 350.743 34.9489 350.743 35.2756V36.0213C350.743 36.4588 350.819 36.831 350.973 37.1378C351.129 37.4446 351.346 37.679 351.625 37.8409C351.903 38 352.228 38.0795 352.6 38.0795C352.842 38.0795 353.062 38.0455 353.261 37.9773C353.46 37.9062 353.632 37.8011 353.777 37.6619C353.922 37.5227 354.032 37.3509 354.109 37.1463L355.315 37.3636C355.218 37.7187 355.045 38.0298 354.795 38.2969C354.548 38.5611 354.237 38.767 353.862 38.9148C353.49 39.0597 353.065 39.1321 352.588 39.1321ZM356.81 32.4545H358.084V39.4261C358.084 39.8636 358.004 40.233 357.845 40.5341C357.689 40.8352 357.456 41.0639 357.146 41.2202C356.839 41.3764 356.46 41.4545 356.009 41.4545C355.963 41.4545 355.92 41.4545 355.881 41.4545C355.838 41.4545 355.794 41.4531 355.749 41.4503V40.3551C355.788 40.3551 355.824 40.3551 355.855 40.3551C355.884 40.3551 355.916 40.3551 355.953 40.3551C356.254 40.3551 356.472 40.2741 356.605 40.1122C356.741 39.9531 356.81 39.7216 356.81 39.4176V32.4545ZM357.44 31.4446C357.219 31.4446 357.028 31.3707 356.869 31.223C356.713 31.0724 356.635 30.8935 356.635 30.6861C356.635 30.4759 356.713 30.2969 356.869 30.1491C357.028 29.9986 357.219 29.9233 357.44 29.9233C357.662 29.9233 357.851 29.9986 358.007 30.1491C358.166 30.2969 358.246 30.4759 358.246 30.6861C358.246 30.8935 358.166 31.0724 358.007 31.223C357.851 31.3707 357.662 31.4446 357.44 31.4446ZM362.619 39.1321C361.974 39.1321 361.419 38.9943 360.953 38.7188C360.49 38.4403 360.132 38.0497 359.879 37.5469C359.629 37.0412 359.504 36.4489 359.504 35.7699C359.504 35.0994 359.629 34.5085 359.879 33.9972C360.132 33.4858 360.484 33.0866 360.936 32.7997C361.39 32.5128 361.922 32.3693 362.529 32.3693C362.899 32.3693 363.257 32.4304 363.603 32.5526C363.95 32.6747 364.261 32.8665 364.537 33.1278C364.812 33.3892 365.029 33.7287 365.189 34.1463C365.348 34.5611 365.427 35.0653 365.427 35.6591V36.1108H360.224V35.1562H364.179C364.179 34.821 364.11 34.5241 363.974 34.2656C363.838 34.0043 363.646 33.7983 363.399 33.6477C363.154 33.4972 362.868 33.4219 362.538 33.4219C362.18 33.4219 361.868 33.5099 361.6 33.6861C361.336 33.8594 361.132 34.0866 360.987 34.3679C360.845 34.6463 360.774 34.9489 360.774 35.2756V36.0213C360.774 36.4588 360.85 36.831 361.004 37.1378C361.16 37.4446 361.377 37.679 361.656 37.8409C361.934 38 362.26 38.0795 362.632 38.0795C362.873 38.0795 363.093 38.0455 363.292 37.9773C363.491 37.9062 363.663 37.8011 363.808 37.6619C363.953 37.5227 364.064 37.3509 364.14 37.1463L365.346 37.3636C365.25 37.7187 365.076 38.0298 364.826 38.2969C364.579 38.5611 364.268 38.767 363.893 38.9148C363.521 39.0597 363.096 39.1321 362.619 39.1321ZM369.598 39.1321C368.964 39.1321 368.419 38.9886 367.962 38.7017C367.507 38.4119 367.158 38.0128 366.913 37.5043C366.669 36.9957 366.547 36.4134 366.547 35.7571C366.547 35.0923 366.672 34.5057 366.922 33.9972C367.172 33.4858 367.524 33.0866 367.979 32.7997C368.433 32.5128 368.969 32.3693 369.585 32.3693C370.082 32.3693 370.526 32.4616 370.915 32.6463C371.304 32.8281 371.618 33.0838 371.857 33.4134C372.098 33.7429 372.241 34.1278 372.287 34.5682H371.047C370.979 34.2614 370.822 33.9972 370.578 33.7756C370.337 33.554 370.013 33.4432 369.607 33.4432C369.251 33.4432 368.94 33.5369 368.673 33.7244C368.409 33.9091 368.203 34.1733 368.055 34.517C367.908 34.858 367.834 35.2614 367.834 35.7273C367.834 36.2045 367.906 36.6165 368.051 36.9631C368.196 37.3097 368.401 37.5781 368.665 37.7685C368.932 37.9588 369.246 38.054 369.607 38.054C369.848 38.054 370.067 38.0099 370.263 37.9219C370.462 37.831 370.628 37.7017 370.761 37.5341C370.898 37.3665 370.993 37.1648 371.047 36.929H372.287C372.241 37.3523 372.104 37.7301 371.874 38.0625C371.643 38.3949 371.335 38.6562 370.949 38.8466C370.565 39.0369 370.115 39.1321 369.598 39.1321ZM376.705 32.4545V33.4773H373.13V32.4545H376.705ZM374.088 30.8864H375.363V37.0781C375.363 37.3253 375.4 37.5114 375.473 37.6364C375.547 37.7585 375.642 37.8423 375.759 37.8878C375.878 37.9304 376.007 37.9517 376.147 37.9517C376.249 37.9517 376.338 37.9446 376.415 37.9304C376.492 37.9162 376.551 37.9048 376.594 37.8963L376.824 38.9489C376.75 38.9773 376.645 39.0057 376.509 39.0341C376.373 39.0653 376.202 39.0824 375.998 39.0852C375.662 39.0909 375.35 39.0312 375.06 38.9062C374.77 38.7812 374.536 38.5881 374.357 38.3267C374.178 38.0653 374.088 37.7372 374.088 37.3423V30.8864ZM380.865 39.1321C380.22 39.1321 379.665 38.9943 379.199 38.7188C378.736 38.4403 378.378 38.0497 378.125 37.5469C377.875 37.0412 377.75 36.4489 377.75 35.7699C377.75 35.0994 377.875 34.5085 378.125 33.9972C378.378 33.4858 378.73 33.0866 379.182 32.7997C379.636 32.5128 380.168 32.3693 380.776 32.3693C381.145 32.3693 381.503 32.4304 381.849 32.5526C382.196 32.6747 382.507 32.8665 382.783 33.1278C383.058 33.3892 383.276 33.7287 383.435 34.1463C383.594 34.5611 383.673 35.0653 383.673 35.6591V36.1108H378.47V35.1562H382.425C382.425 34.821 382.357 34.5241 382.22 34.2656C382.084 34.0043 381.892 33.7983 381.645 33.6477C381.401 33.4972 381.114 33.4219 380.784 33.4219C380.426 33.4219 380.114 33.5099 379.847 33.6861C379.582 33.8594 379.378 34.0866 379.233 34.3679C379.091 34.6463 379.02 34.9489 379.02 35.2756V36.0213C379.02 36.4588 379.097 36.831 379.25 37.1378C379.406 37.4446 379.624 37.679 379.902 37.8409C380.18 38 380.506 38.0795 380.878 38.0795C381.119 38.0795 381.339 38.0455 381.538 37.9773C381.737 37.9062 381.909 37.8011 382.054 37.6619C382.199 37.5227 382.31 37.3509 382.386 37.1463L383.592 37.3636C383.496 37.7187 383.322 38.0298 383.072 38.2969C382.825 38.5611 382.514 38.767 382.139 38.9148C381.767 39.0597 381.342 39.1321 380.865 39.1321ZM387.537 39.1278C387.009 39.1278 386.537 38.9929 386.123 38.723C385.711 38.4503 385.387 38.0625 385.151 37.5597C384.918 37.054 384.801 36.4474 384.801 35.7401C384.801 35.0327 384.919 34.4276 385.155 33.9247C385.394 33.4219 385.721 33.0369 386.135 32.7699C386.55 32.5028 387.02 32.3693 387.546 32.3693C387.952 32.3693 388.279 32.4375 388.526 32.5739C388.776 32.7074 388.969 32.8636 389.105 33.0426C389.245 33.2216 389.353 33.3793 389.429 33.5156H389.506V30.2727H390.78V39H389.536V37.9815H389.429C389.353 38.1207 389.242 38.2798 389.097 38.4588C388.955 38.6378 388.759 38.794 388.509 38.9276C388.259 39.0611 387.935 39.1278 387.537 39.1278ZM387.819 38.0412C388.185 38.0412 388.495 37.9446 388.748 37.7514C389.003 37.5554 389.196 37.2841 389.327 36.9375C389.461 36.5909 389.527 36.1875 389.527 35.7273C389.527 35.2727 389.462 34.875 389.331 34.5341C389.201 34.1932 389.009 33.9276 388.756 33.7372C388.503 33.5469 388.191 33.4517 387.819 33.4517C387.435 33.4517 387.115 33.5511 386.86 33.75C386.604 33.9489 386.411 34.2202 386.28 34.5639C386.152 34.9077 386.088 35.2955 386.088 35.7273C386.088 36.1648 386.154 36.5582 386.284 36.9077C386.415 37.2571 386.608 37.5341 386.864 37.7386C387.123 37.9403 387.441 38.0412 387.819 38.0412Z" fill="white"/>
<rect x="329.25" y="18.25" width="74.5" height="33.5" rx="7.75" stroke="#63696E" stroke-opacity="0.24" stroke-width="0.5"/>
<path d="M371 59C371 61.4853 368.985 63.5 366.5 63.5C364.015 63.5 362 61.4853 362 59C362 56.5147 364.015 54.5 366.5 54.5C368.985 54.5 371 56.5147 371 59Z" fill="#63696E"/>
<path d="M372.571 49.4853C373.462 49.4853 373.908 50.5624 373.278 51.1924L367.207 57.2635C366.817 57.654 366.183 57.654 365.793 57.2635L359.722 51.1924C359.092 50.5624 359.538 49.4853 360.429 49.4853H372.571Z" fill="#D5CFCF"/>
</g>
<defs>
<filter id="filter0_dd_584_872" x="0" y="18" width="100" height="69.5" filterUnits="userSpaceOnUse" color-interpolation-filters="sRGB">
<feFlood flood-opacity="0" result="BackgroundImageFix"/>
<feColorMatrix in="SourceAlpha" type="matrix" values="0 0 0 0 0 0 0 0 0 0 0 0 0 0 0 0 0 0 127 0" result="hardAlpha"/>
<feMorphology radius="2" operator="erode" in="SourceAlpha" result="effect1_dropShadow_584_872"/>
<feOffset dy="4"/>
<feGaussianBlur stdDeviation="3"/>
<feColorMatrix type="matrix" values="0 0 0 0 0.0627451 0 0 0 0 0.0941176 0 0 0 0 0.156863 0 0 0 0.03 0"/>
<feBlend mode="normal" in2="BackgroundImageFix" result="effect1_dropShadow_584_872"/>
<feColorMatrix in="SourceAlpha" type="matrix" values="0 0 0 0 0 0 0 0 0 0 0 0 0 0 0 0 0 0 127 0" result="hardAlpha"/>
<feMorphology radius="4" operator="erode" in="SourceAlpha" result="effect2_dropShadow_584_872"/>
<feOffset dy="12"/>
<feGaussianBlur stdDeviation="8"/>
<feColorMatrix type="matrix" values="0 0 0 0 0.0627451 0 0 0 0 0.0941176 0 0 0 0 0.156863 0 0 0 0.08 0"/>
<feBlend mode="normal" in2="effect1_dropShadow_584_872" result="effect2_dropShadow_584_872"/>
<feBlend mode="normal" in="SourceGraphic" in2="effect2_dropShadow_584_872" result="shape"/>
</filter>
<filter id="filter1_dd_584_872" x="126" y="0" width="105" height="87.5" filterUnits="userSpaceOnUse" color-interpolation-filters="sRGB">
<feFlood flood-opacity="0" result="BackgroundImageFix"/>
<feColorMatrix in="SourceAlpha" type="matrix" values="0 0 0 0 0 0 0 0 0 0 0 0 0 0 0 0 0 0 127 0" result="hardAlpha"/>
<feMorphology radius="2" operator="erode" in="SourceAlpha" result="effect1_dropShadow_584_872"/>
<feOffset dy="4"/>
<feGaussianBlur stdDeviation="3"/>
<feColorMatrix type="matrix" values="0 0 0 0 0.0627451 0 0 0 0 0.0941176 0 0 0 0 0.156863 0 0 0 0.03 0"/>
<feBlend mode="normal" in2="BackgroundImageFix" result="effect1_dropShadow_584_872"/>
<feColorMatrix in="SourceAlpha" type="matrix" values="0 0 0 0 0 0 0 0 0 0 0 0 0 0 0 0 0 0 127 0" result="hardAlpha"/>
<feMorphology radius="4" operator="erode" in="SourceAlpha" result="effect2_dropShadow_584_872"/>
<feOffset dy="12"/>
<feGaussianBlur stdDeviation="8"/>
<feColorMatrix type="matrix" values="0 0 0 0 0.0627451 0 0 0 0 0.0941176 0 0 0 0 0.156863 0 0 0 0.08 0"/>
<feBlend mode="normal" in2="effect1_dropShadow_584_872" result="effect2_dropShadow_584_872"/>
<feBlend mode="normal" in="SourceGraphic" in2="effect2_dropShadow_584_872" result="shape"/>
</filter>
<filter id="filter2_dd_584_872" x="218" y="18" width="113" height="69.5" filterUnits="userSpaceOnUse" color-interpolation-filters="sRGB">
<feFlood flood-opacity="0" result="BackgroundImageFix"/>
<feColorMatrix in="SourceAlpha" type="matrix" values="0 0 0 0 0 0 0 0 0 0 0 0 0 0 0 0 0 0 127 0" result="hardAlpha"/>
<feMorphology radius="2" operator="erode" in="SourceAlpha" result="effect1_dropShadow_584_872"/>
<feOffset dy="4"/>
<feGaussianBlur stdDeviation="3"/>
<feColorMatrix type="matrix" values="0 0 0 0 0.0627451 0 0 0 0 0.0941176 0 0 0 0 0.156863 0 0 0 0.03 0"/>
<feBlend mode="normal" in2="BackgroundImageFix" result="effect1_dropShadow_584_872"/>
<feColorMatrix in="SourceAlpha" type="matrix" values="0 0 0 0 0 0 0 0 0 0 0 0 0 0 0 0 0 0 127 0" result="hardAlpha"/>
<feMorphology radius="4" operator="erode" in="SourceAlpha" result="effect2_dropShadow_584_872"/>
<feOffset dy="12"/>
<feGaussianBlur stdDeviation="8"/>
<feColorMatrix type="matrix" values="0 0 0 0 0.0627451 0 0 0 0 0.0941176 0 0 0 0 0.156863 0 0 0 0.08 0"/>
<feBlend mode="normal" in2="effect1_dropShadow_584_872" result="effect2_dropShadow_584_872"/>
<feBlend mode="normal" in="SourceGraphic" in2="effect2_dropShadow_584_872" result="shape"/>
</filter>
<filter id="filter3_dd_584_872" x="317" y="18" width="99" height="69.5" filterUnits="userSpaceOnUse" color-interpolation-filters="sRGB">
<feFlood flood-opacity="0" result="BackgroundImageFix"/>
<feColorMatrix in="SourceAlpha" type="matrix" values="0 0 0 0 0 0 0 0 0 0 0 0 0 0 0 0 0 0 127 0" result="hardAlpha"/>
<feMorphology radius="2" operator="erode" in="SourceAlpha" result="effect1_dropShadow_584_872"/>
<feOffset dy="4"/>
<feGaussianBlur stdDeviation="3"/>
<feColorMatrix type="matrix" values="0 0 0 0 0.0627451 0 0 0 0 0.0941176 0 0 0 0 0.156863 0 0 0 0.03 0"/>
<feBlend mode="normal" in2="BackgroundImageFix" result="effect1_dropShadow_584_872"/>
<feColorMatrix in="SourceAlpha" type="matrix" values="0 0 0 0 0 0 0 0 0 0 0 0 0 0 0 0 0 0 127 0" result="hardAlpha"/>
<feMorphology radius="4" operator="erode" in="SourceAlpha" result="effect2_dropShadow_584_872"/>
<feOffset dy="12"/>
<feGaussianBlur stdDeviation="8"/>
<feColorMatrix type="matrix" values="0 0 0 0 0.0627451 0 0 0 0 0.0941176 0 0 0 0 0.156863 0 0 0 0.08 0"/>
<feBlend mode="normal" in2="effect1_dropShadow_584_872" result="effect2_dropShadow_584_872"/>
<feBlend mode="normal" in="SourceGraphic" in2="effect2_dropShadow_584_872" result="shape"/>
</filter>
</defs>
</svg>
