<svg width="335" height="70" viewBox="0 0 335 70" fill="none" xmlns="http://www.w3.org/2000/svg">
<line x1="78" y1="41.25" x2="279" y2="41.25" stroke="#D9D9D9" stroke-width="3.5"/>
<g filter="url(#filter0_dd_203_382)">
<rect x="12" width="131" height="34" rx="8" fill="white"/>
<path d="M25.0565 21V12.2727H28.1673C28.8462 12.2727 29.4087 12.3963 29.8548 12.6435C30.3008 12.8906 30.6346 13.2287 30.8562 13.6577C31.0778 14.0838 31.1886 14.5639 31.1886 15.098C31.1886 15.6349 31.0763 16.1179 30.8519 16.5469C30.6303 16.973 30.2951 17.3111 29.8462 17.5611C29.4002 17.8082 28.8391 17.9318 28.163 17.9318H26.0238V16.8153H28.0437C28.4727 16.8153 28.8207 16.7415 29.0877 16.5938C29.3548 16.4432 29.5508 16.2386 29.6758 15.9801C29.8008 15.7216 29.8633 15.4276 29.8633 15.098C29.8633 14.7685 29.8008 14.4759 29.6758 14.2202C29.5508 13.9645 29.3533 13.7642 29.0835 13.6193C28.8164 13.4744 28.4641 13.402 28.0266 13.402H26.3732V21H25.0565ZM35.369 21.1321C34.7241 21.1321 34.1687 20.9943 33.7028 20.7188C33.2397 20.4403 32.8817 20.0497 32.6289 19.5469C32.3789 19.0412 32.2539 18.4489 32.2539 17.7699C32.2539 17.0994 32.3789 16.5085 32.6289 15.9972C32.8817 15.4858 33.234 15.0866 33.6857 14.7997C34.1403 14.5128 34.6715 14.3693 35.2795 14.3693C35.6488 14.3693 36.0067 14.4304 36.3533 14.5526C36.6999 14.6747 37.011 14.8665 37.2866 15.1278C37.5621 15.3892 37.7795 15.7287 37.9386 16.1463C38.0977 16.5611 38.1772 17.0653 38.1772 17.6591V18.1108H32.9741V17.1562H36.9286C36.9286 16.821 36.8604 16.5241 36.7241 16.2656C36.5877 16.0043 36.396 15.7983 36.1488 15.6477C35.9045 15.4972 35.6175 15.4219 35.288 15.4219C34.93 15.4219 34.6175 15.5099 34.3505 15.6861C34.0863 15.8594 33.8817 16.0866 33.7369 16.3679C33.5948 16.6463 33.5238 16.9489 33.5238 17.2756V18.0213C33.5238 18.4588 33.6005 18.831 33.7539 19.1378C33.9102 19.4446 34.1275 19.679 34.4059 19.8409C34.6843 20 35.0096 20.0795 35.3817 20.0795C35.6232 20.0795 35.8434 20.0455 36.0423 19.9773C36.2411 19.9062 36.413 19.8011 36.5579 19.6619C36.7028 19.5227 36.8136 19.3509 36.8903 19.1463L38.0962 19.3636C37.9996 19.7187 37.8263 20.0298 37.5763 20.2969C37.3292 20.5611 37.0181 20.767 36.6431 20.9148C36.271 21.0597 35.8462 21.1321 35.369 21.1321ZM40.8651 17.1136V21H39.5909V14.4545H40.8139V15.5199H40.8949C41.0455 15.1733 41.2813 14.8949 41.6023 14.6847C41.9261 14.4744 42.3338 14.3693 42.8253 14.3693C43.2713 14.3693 43.6619 14.4631 43.9972 14.6506C44.3324 14.8352 44.5923 15.1108 44.777 15.4773C44.9616 15.8437 45.054 16.2969 45.054 16.8366V21H43.7798V16.9901C43.7798 16.5156 43.6563 16.1449 43.4091 15.8778C43.1619 15.608 42.8224 15.473 42.3906 15.473C42.0952 15.473 41.8324 15.5369 41.6023 15.6648C41.375 15.7926 41.1946 15.9801 41.0611 16.2273C40.9304 16.4716 40.8651 16.767 40.8651 17.1136ZM49.2131 21.1278C48.6847 21.1278 48.2131 20.9929 47.7983 20.723C47.3864 20.4503 47.0625 20.0625 46.8267 19.5597C46.5938 19.054 46.4773 18.4474 46.4773 17.7401C46.4773 17.0327 46.5952 16.4276 46.831 15.9247C47.0696 15.4219 47.3963 15.0369 47.8111 14.7699C48.2259 14.5028 48.696 14.3693 49.2216 14.3693C49.6278 14.3693 49.9545 14.4375 50.2017 14.5739C50.4517 14.7074 50.6449 14.8636 50.7812 15.0426C50.9205 15.2216 51.0284 15.3793 51.1051 15.5156H51.1818V12.2727H52.456V21H51.2116V19.9815H51.1051C51.0284 20.1207 50.9176 20.2798 50.7727 20.4588C50.6307 20.6378 50.4347 20.794 50.1847 20.9276C49.9347 21.0611 49.6108 21.1278 49.2131 21.1278ZM49.4943 20.0412C49.8608 20.0412 50.1705 19.9446 50.4233 19.7514C50.679 19.5554 50.8722 19.2841 51.0028 18.9375C51.1364 18.5909 51.2031 18.1875 51.2031 17.7273C51.2031 17.2727 51.1378 16.875 51.0071 16.5341C50.8764 16.1932 50.6847 15.9276 50.4318 15.7372C50.179 15.5469 49.8665 15.4517 49.4943 15.4517C49.1108 15.4517 48.7912 15.5511 48.5355 15.75C48.2798 15.9489 48.0866 16.2202 47.956 16.5639C47.8281 16.9077 47.7642 17.2955 47.7642 17.7273C47.7642 18.1648 47.8295 18.5582 47.9602 18.9077C48.0909 19.2571 48.2841 19.5341 48.5398 19.7386C48.7983 19.9403 49.1165 20.0412 49.4943 20.0412ZM54.2745 21V14.4545H55.5487V21H54.2745ZM54.918 13.4446C54.6964 13.4446 54.506 13.3707 54.3469 13.223C54.1907 13.0724 54.1126 12.8935 54.1126 12.6861C54.1126 12.4759 54.1907 12.2969 54.3469 12.1491C54.506 11.9986 54.6964 11.9233 54.918 11.9233C55.1396 11.9233 55.3285 11.9986 55.4847 12.1491C55.6438 12.2969 55.7234 12.4759 55.7234 12.6861C55.7234 12.8935 55.6438 13.0724 55.4847 13.223C55.3285 13.3707 55.1396 13.4446 54.918 13.4446ZM58.5369 17.1136V21H57.2628V14.4545H58.4858V15.5199H58.5668C58.7173 15.1733 58.9531 14.8949 59.2741 14.6847C59.598 14.4744 60.0057 14.3693 60.4972 14.3693C60.9432 14.3693 61.3338 14.4631 61.669 14.6506C62.0043 14.8352 62.2642 15.1108 62.4489 15.4773C62.6335 15.8437 62.7259 16.2969 62.7259 16.8366V21H61.4517V16.9901C61.4517 16.5156 61.3281 16.1449 61.081 15.8778C60.8338 15.608 60.4943 15.473 60.0625 15.473C59.767 15.473 59.5043 15.5369 59.2741 15.6648C59.0469 15.7926 58.8665 15.9801 58.733 16.2273C58.6023 16.4716 58.5369 16.767 58.5369 17.1136ZM67.179 23.5909C66.6591 23.5909 66.2116 23.5227 65.8366 23.3864C65.4645 23.25 65.1605 23.0696 64.9247 22.8452C64.6889 22.6207 64.5128 22.375 64.3963 22.108L65.4915 21.6562C65.5682 21.7812 65.6705 21.9134 65.7983 22.0526C65.929 22.1946 66.1051 22.3153 66.3267 22.4148C66.5511 22.5142 66.8395 22.5639 67.1918 22.5639C67.6747 22.5639 68.0739 22.446 68.3892 22.2102C68.7045 21.9773 68.8622 21.6051 68.8622 21.0938V19.8068H68.7812C68.7045 19.946 68.5938 20.1009 68.4489 20.2713C68.3068 20.4418 68.1108 20.5895 67.8608 20.7145C67.6108 20.8395 67.2855 20.902 66.8849 20.902C66.3679 20.902 65.902 20.7812 65.4872 20.5398C65.0753 20.2955 64.7486 19.9361 64.5071 19.4616C64.2685 18.9844 64.1491 18.3977 64.1491 17.7017C64.1491 17.0057 64.267 16.4091 64.5028 15.9119C64.7415 15.4148 65.0682 15.0341 65.483 14.7699C65.8977 14.5028 66.3679 14.3693 66.8935 14.3693C67.2997 14.3693 67.6278 14.4375 67.8778 14.5739C68.1278 14.7074 68.3224 14.8636 68.4616 15.0426C68.6037 15.2216 68.7131 15.3793 68.7898 15.5156H68.8835V14.4545H70.1321V21.1449C70.1321 21.7074 70.0014 22.169 69.7401 22.5298C69.4787 22.8906 69.125 23.1577 68.679 23.331C68.2358 23.5043 67.7358 23.5909 67.179 23.5909ZM67.1662 19.8452C67.5327 19.8452 67.8423 19.7599 68.0952 19.5895C68.3509 19.4162 68.544 19.169 68.6747 18.848C68.8082 18.5241 68.875 18.1364 68.875 17.6847C68.875 17.2443 68.8097 16.8565 68.679 16.5213C68.5483 16.1861 68.3565 15.9247 68.1037 15.7372C67.8509 15.5469 67.5384 15.4517 67.1662 15.4517C66.7827 15.4517 66.4631 15.5511 66.2074 15.75C65.9517 15.946 65.7585 16.2131 65.6278 16.5511C65.5 16.8892 65.4361 17.267 65.4361 17.6847C65.4361 18.1136 65.5014 18.4901 65.6321 18.8139C65.7628 19.1378 65.956 19.3906 66.2116 19.5724C66.4702 19.7543 66.7884 19.8452 67.1662 19.8452ZM78.3278 18.1705H79.6232L80.5352 19.3594L80.9656 19.8878L82.4187 21.7841H81.0721L80.1005 20.5185L79.7681 20.0582L78.3278 18.1705ZM82.6999 16.6364C82.6999 17.5682 82.5295 18.3693 82.1886 19.0398C81.8477 19.7074 81.3803 20.2216 80.7866 20.5824C80.1957 20.9403 79.5238 21.1193 78.771 21.1193C78.0153 21.1193 77.3406 20.9403 76.7468 20.5824C76.1559 20.2216 75.69 19.706 75.3491 19.0355C75.0082 18.3651 74.8377 17.5653 74.8377 16.6364C74.8377 15.7045 75.0082 14.9048 75.3491 14.2372C75.69 13.5668 76.1559 13.0526 76.7468 12.6946C77.3406 12.3338 78.0153 12.1534 78.771 12.1534C79.5238 12.1534 80.1957 12.3338 80.7866 12.6946C81.3803 13.0526 81.8477 13.5668 82.1886 14.2372C82.5295 14.9048 82.6999 15.7045 82.6999 16.6364ZM81.396 16.6364C81.396 15.9261 81.2809 15.3281 81.0508 14.8423C80.8235 14.3537 80.511 13.9844 80.1133 13.7344C79.7184 13.4815 79.271 13.3551 78.771 13.3551C78.2681 13.3551 77.8192 13.4815 77.4244 13.7344C77.0295 13.9844 76.717 14.3537 76.4869 14.8423C76.2596 15.3281 76.146 15.9261 76.146 16.6364C76.146 17.3466 76.2596 17.946 76.4869 18.4347C76.717 18.9205 77.0295 19.2898 77.4244 19.5426C77.8192 19.7926 78.2681 19.9176 78.771 19.9176C79.271 19.9176 79.7184 19.7926 80.1133 19.5426C80.511 19.2898 80.8235 18.9205 81.0508 18.4347C81.2809 17.946 81.396 17.3466 81.396 16.6364ZM88.3857 18.2855V14.4545H89.6641V21H88.4112V19.8665H88.343C88.1925 20.2159 87.951 20.5071 87.6186 20.7401C87.2891 20.9702 86.8786 21.0852 86.3871 21.0852C85.9666 21.0852 85.5945 20.9929 85.2706 20.8082C84.9496 20.6207 84.6967 20.3438 84.5121 19.9773C84.3303 19.6108 84.2393 19.1577 84.2393 18.6179V14.4545H85.5135V18.4645C85.5135 18.9105 85.6371 19.2656 85.8842 19.5298C86.1314 19.794 86.4524 19.9261 86.8473 19.9261C87.0859 19.9261 87.3232 19.8665 87.5589 19.7472C87.7976 19.6278 87.995 19.4474 88.1513 19.206C88.3104 18.9645 88.3885 18.6577 88.3857 18.2855ZM94.1332 21.1321C93.5195 21.1321 92.984 20.9915 92.5266 20.7102C92.0692 20.429 91.7141 20.0355 91.4613 19.5298C91.2085 19.0241 91.082 18.4332 91.082 17.7571C91.082 17.0781 91.2085 16.4844 91.4613 15.9759C91.7141 15.4673 92.0692 15.0724 92.5266 14.7912C92.984 14.5099 93.5195 14.3693 94.1332 14.3693C94.7468 14.3693 95.2823 14.5099 95.7397 14.7912C96.1971 15.0724 96.5522 15.4673 96.805 15.9759C97.0579 16.4844 97.1843 17.0781 97.1843 17.7571C97.1843 18.4332 97.0579 19.0241 96.805 19.5298C96.5522 20.0355 96.1971 20.429 95.7397 20.7102C95.2823 20.9915 94.7468 21.1321 94.1332 21.1321ZM94.1374 20.0625C94.5352 20.0625 94.8647 19.9574 95.1261 19.7472C95.3874 19.5369 95.5806 19.2571 95.7056 18.9077C95.8335 18.5582 95.8974 18.1733 95.8974 17.7528C95.8974 17.3352 95.8335 16.9517 95.7056 16.6023C95.5806 16.25 95.3874 15.9673 95.1261 15.7543C94.8647 15.5412 94.5352 15.4347 94.1374 15.4347C93.7369 15.4347 93.4045 15.5412 93.1403 15.7543C92.8789 15.9673 92.6843 16.25 92.5565 16.6023C92.4315 16.9517 92.369 17.3352 92.369 17.7528C92.369 18.1733 92.4315 18.5582 92.5565 18.9077C92.6843 19.2571 92.8789 19.5369 93.1403 19.7472C93.4045 19.9574 93.7369 20.0625 94.1374 20.0625ZM101.662 14.4545V15.4773H98.0866V14.4545H101.662ZM99.0455 12.8864H100.32V19.0781C100.32 19.3253 100.357 19.5114 100.43 19.6364C100.504 19.7585 100.599 19.8423 100.716 19.8878C100.835 19.9304 100.964 19.9517 101.104 19.9517C101.206 19.9517 101.295 19.9446 101.372 19.9304C101.449 19.9162 101.509 19.9048 101.551 19.8963L101.781 20.9489C101.707 20.9773 101.602 21.0057 101.466 21.0341C101.33 21.0653 101.159 21.0824 100.955 21.0852C100.619 21.0909 100.307 21.0312 100.017 20.9062C99.7273 20.7812 99.4929 20.5881 99.3139 20.3267C99.1349 20.0653 99.0455 19.7372 99.0455 19.3423V12.8864ZM104.976 21.1449C104.561 21.1449 104.186 21.0682 103.851 20.9148C103.516 20.7585 103.25 20.5327 103.054 20.2372C102.861 19.9418 102.765 19.5795 102.765 19.1506C102.765 18.7812 102.836 18.4773 102.978 18.2386C103.12 18 103.311 17.8111 103.553 17.6719C103.794 17.5327 104.064 17.4276 104.363 17.3565C104.661 17.2855 104.965 17.2315 105.275 17.1946C105.667 17.1491 105.985 17.1122 106.229 17.0838C106.473 17.0526 106.651 17.0028 106.762 16.9347C106.873 16.8665 106.928 16.7557 106.928 16.6023V16.5724C106.928 16.2003 106.823 15.9119 106.613 15.7074C106.405 15.5028 106.096 15.4006 105.684 15.4006C105.255 15.4006 104.917 15.4957 104.669 15.6861C104.425 15.8736 104.256 16.0824 104.162 16.3125L102.965 16.0398C103.107 15.642 103.314 15.321 103.587 15.0767C103.863 14.8295 104.179 14.6506 104.537 14.5398C104.895 14.4261 105.272 14.3693 105.667 14.3693C105.928 14.3693 106.205 14.4006 106.498 14.4631C106.793 14.5227 107.069 14.6335 107.324 14.7955C107.583 14.9574 107.794 15.1889 107.959 15.4901C108.124 15.7884 108.206 16.1761 108.206 16.6534V21H106.962V20.1051H106.911C106.828 20.2699 106.705 20.4318 106.54 20.5909C106.375 20.75 106.164 20.8821 105.905 20.9872C105.647 21.0923 105.337 21.1449 104.976 21.1449ZM105.253 20.1222C105.605 20.1222 105.907 20.0526 106.157 19.9134C106.409 19.7741 106.601 19.5923 106.732 19.3679C106.865 19.1406 106.932 18.8977 106.932 18.6392V17.7955C106.887 17.8409 106.799 17.8835 106.668 17.9233C106.54 17.9602 106.394 17.9929 106.229 18.0213C106.064 18.0469 105.904 18.071 105.748 18.0938C105.591 18.1136 105.461 18.1307 105.355 18.1449C105.108 18.1761 104.882 18.2287 104.678 18.3026C104.476 18.3764 104.314 18.483 104.192 18.6222C104.073 18.7585 104.013 18.9403 104.013 19.1676C104.013 19.483 104.13 19.7216 104.363 19.8835C104.596 20.0426 104.892 20.1222 105.253 20.1222ZM112.959 14.4545V15.4773H109.384V14.4545H112.959ZM110.342 12.8864H111.616V19.0781C111.616 19.3253 111.653 19.5114 111.727 19.6364C111.801 19.7585 111.896 19.8423 112.013 19.8878C112.132 19.9304 112.261 19.9517 112.401 19.9517C112.503 19.9517 112.592 19.9446 112.669 19.9304C112.746 19.9162 112.805 19.9048 112.848 19.8963L113.078 20.9489C113.004 20.9773 112.899 21.0057 112.763 21.0341C112.626 21.0653 112.456 21.0824 112.251 21.0852C111.916 21.0909 111.604 21.0312 111.314 20.9062C111.024 20.7812 110.79 20.5881 110.611 20.3267C110.432 20.0653 110.342 19.7372 110.342 19.3423V12.8864ZM114.368 21V14.4545H115.642V21H114.368ZM115.012 13.4446C114.79 13.4446 114.6 13.3707 114.441 13.223C114.284 13.0724 114.206 12.8935 114.206 12.6861C114.206 12.4759 114.284 12.2969 114.441 12.1491C114.6 11.9986 114.79 11.9233 115.012 11.9233C115.233 11.9233 115.422 11.9986 115.578 12.1491C115.738 12.2969 115.817 12.4759 115.817 12.6861C115.817 12.8935 115.738 13.0724 115.578 13.223C115.422 13.3707 115.233 13.4446 115.012 13.4446ZM120.114 21.1321C119.5 21.1321 118.964 20.9915 118.507 20.7102C118.05 20.429 117.695 20.0355 117.442 19.5298C117.189 19.0241 117.062 18.4332 117.062 17.7571C117.062 17.0781 117.189 16.4844 117.442 15.9759C117.695 15.4673 118.05 15.0724 118.507 14.7912C118.964 14.5099 119.5 14.3693 120.114 14.3693C120.727 14.3693 121.263 14.5099 121.72 14.7912C122.178 15.0724 122.533 15.4673 122.786 15.9759C123.038 16.4844 123.165 17.0781 123.165 17.7571C123.165 18.4332 123.038 19.0241 122.786 19.5298C122.533 20.0355 122.178 20.429 121.72 20.7102C121.263 20.9915 120.727 21.1321 120.114 21.1321ZM120.118 20.0625C120.516 20.0625 120.845 19.9574 121.107 19.7472C121.368 19.5369 121.561 19.2571 121.686 18.9077C121.814 18.5582 121.878 18.1733 121.878 17.7528C121.878 17.3352 121.814 16.9517 121.686 16.6023C121.561 16.25 121.368 15.9673 121.107 15.7543C120.845 15.5412 120.516 15.4347 120.118 15.4347C119.717 15.4347 119.385 15.5412 119.121 15.7543C118.859 15.9673 118.665 16.25 118.537 16.6023C118.412 16.9517 118.349 17.3352 118.349 17.7528C118.349 18.1733 118.412 18.5582 118.537 18.9077C118.665 19.2571 118.859 19.5369 119.121 19.7472C119.385 19.9574 119.717 20.0625 120.118 20.0625ZM125.861 17.1136V21H124.587V14.4545H125.81V15.5199H125.891C126.042 15.1733 126.277 14.8949 126.598 14.6847C126.922 14.4744 127.33 14.3693 127.821 14.3693C128.267 14.3693 128.658 14.4631 128.993 14.6506C129.328 14.8352 129.588 15.1108 129.773 15.4773C129.958 15.8437 130.05 16.2969 130.05 16.8366V21H128.776V16.9901C128.776 16.5156 128.652 16.1449 128.405 15.8778C128.158 15.608 127.819 15.473 127.387 15.473C127.091 15.473 126.828 15.5369 126.598 15.6648C126.371 15.7926 126.191 15.9801 126.057 16.2273C125.926 16.4716 125.861 16.767 125.861 17.1136Z" fill="#344054"/>
<rect x="12.25" y="0.25" width="130.5" height="33.5" rx="7.75" stroke="#63696E" stroke-opacity="0.24" stroke-width="0.5"/>
<path d="M82 41C82 43.4853 79.9853 45.5 77.5 45.5C75.0147 45.5 73 43.4853 73 41C73 38.5147 75.0147 36.5 77.5 36.5C79.9853 36.5 82 38.5147 82 41Z" fill="#3180BA"/>
<path d="M83.5711 31.4853C84.462 31.4853 84.9081 32.5624 84.2782 33.1924L78.2071 39.2635C77.8166 39.654 77.1834 39.654 76.7929 39.2635L70.7218 33.1924C70.0919 32.5624 70.538 31.4853 71.4289 31.4853L83.5711 31.4853Z" fill="white"/>
</g>
<g filter="url(#filter1_dd_203_382)">
<rect x="234" width="89" height="34" rx="8" fill="#D5CFCF"/>
<path d="M248.502 12.2727V21H247.185V12.2727H248.502ZM251.592 17.1136V21H250.317V14.4545H251.54V15.5199H251.621C251.772 15.1733 252.008 14.8949 252.329 14.6847C252.653 14.4744 253.06 14.3693 253.552 14.3693C253.998 14.3693 254.388 14.4631 254.724 14.6506C255.059 14.8352 255.319 15.1108 255.504 15.4773C255.688 15.8437 255.781 16.2969 255.781 16.8366V21H254.506V16.9901C254.506 16.5156 254.383 16.1449 254.136 15.8778C253.888 15.608 253.549 15.473 253.117 15.473C252.822 15.473 252.559 15.5369 252.329 15.6648C252.102 15.7926 251.921 15.9801 251.788 16.2273C251.657 16.4716 251.592 16.767 251.592 17.1136ZM260.767 21V12.2727H263.878C264.557 12.2727 265.12 12.3963 265.566 12.6435C266.012 12.8906 266.346 13.2287 266.567 13.6577C266.789 14.0838 266.9 14.5639 266.9 15.098C266.9 15.6349 266.787 16.1179 266.563 16.5469C266.341 16.973 266.006 17.3111 265.557 17.5611C265.111 17.8082 264.55 17.9318 263.874 17.9318H261.735V16.8153H263.755C264.184 16.8153 264.532 16.7415 264.799 16.5938C265.066 16.4432 265.262 16.2386 265.387 15.9801C265.512 15.7216 265.574 15.4276 265.574 15.098C265.574 14.7685 265.512 14.4759 265.387 14.2202C265.262 13.9645 265.064 13.7642 264.794 13.6193C264.527 13.4744 264.175 13.402 263.738 13.402H262.084V21H260.767ZM268.341 21V14.4545H269.572V15.4943H269.641C269.76 15.142 269.97 14.8651 270.271 14.6634C270.575 14.4588 270.919 14.3565 271.303 14.3565C271.382 14.3565 271.476 14.3594 271.584 14.3651C271.695 14.3707 271.781 14.3778 271.844 14.3864V15.6051C271.793 15.5909 271.702 15.5753 271.571 15.5582C271.44 15.5384 271.31 15.5284 271.179 15.5284C270.878 15.5284 270.609 15.5923 270.374 15.7202C270.141 15.8452 269.956 16.0199 269.82 16.2443C269.683 16.4659 269.615 16.7187 269.615 17.0028V21H268.341ZM275.469 21.1321C274.855 21.1321 274.32 20.9915 273.863 20.7102C273.405 20.429 273.05 20.0355 272.797 19.5298C272.544 19.0241 272.418 18.4332 272.418 17.7571C272.418 17.0781 272.544 16.4844 272.797 15.9759C273.05 15.4673 273.405 15.0724 273.863 14.7912C274.32 14.5099 274.855 14.3693 275.469 14.3693C276.083 14.3693 276.618 14.5099 277.076 14.7912C277.533 15.0724 277.888 15.4673 278.141 15.9759C278.394 16.4844 278.52 17.0781 278.52 17.7571C278.52 18.4332 278.394 19.0241 278.141 19.5298C277.888 20.0355 277.533 20.429 277.076 20.7102C276.618 20.9915 276.083 21.1321 275.469 21.1321ZM275.473 20.0625C275.871 20.0625 276.201 19.9574 276.462 19.7472C276.723 19.5369 276.917 19.2571 277.042 18.9077C277.169 18.5582 277.233 18.1733 277.233 17.7528C277.233 17.3352 277.169 16.9517 277.042 16.6023C276.917 16.25 276.723 15.9673 276.462 15.7543C276.201 15.5412 275.871 15.4347 275.473 15.4347C275.073 15.4347 274.74 15.5412 274.476 15.7543C274.215 15.9673 274.02 16.25 273.892 16.6023C273.767 16.9517 273.705 17.3352 273.705 17.7528C273.705 18.1733 273.767 18.5582 273.892 18.9077C274.02 19.2571 274.215 19.5369 274.476 19.7472C274.74 19.9574 275.073 20.0625 275.473 20.0625ZM282.687 23.5909C282.167 23.5909 281.719 23.5227 281.344 23.3864C280.972 23.25 280.668 23.0696 280.433 22.8452C280.197 22.6207 280.021 22.375 279.904 22.108L280.999 21.6562C281.076 21.7812 281.178 21.9134 281.306 22.0526C281.437 22.1946 281.613 22.3153 281.835 22.4148C282.059 22.5142 282.347 22.5639 282.7 22.5639C283.183 22.5639 283.582 22.446 283.897 22.2102C284.212 21.9773 284.37 21.6051 284.37 21.0938V19.8068H284.289C284.212 19.946 284.102 20.1009 283.957 20.2713C283.815 20.4418 283.619 20.5895 283.369 20.7145C283.119 20.8395 282.793 20.902 282.393 20.902C281.876 20.902 281.41 20.7812 280.995 20.5398C280.583 20.2955 280.256 19.9361 280.015 19.4616C279.776 18.9844 279.657 18.3977 279.657 17.7017C279.657 17.0057 279.775 16.4091 280.011 15.9119C280.249 15.4148 280.576 15.0341 280.991 14.7699C281.406 14.5028 281.876 14.3693 282.401 14.3693C282.808 14.3693 283.136 14.4375 283.386 14.5739C283.636 14.7074 283.83 14.8636 283.969 15.0426C284.112 15.2216 284.221 15.3793 284.298 15.5156H284.391V14.4545H285.64V21.1449C285.64 21.7074 285.509 22.169 285.248 22.5298C284.987 22.8906 284.633 23.1577 284.187 23.331C283.744 23.5043 283.244 23.5909 282.687 23.5909ZM282.674 19.8452C283.04 19.8452 283.35 19.7599 283.603 19.5895C283.859 19.4162 284.052 19.169 284.183 18.848C284.316 18.5241 284.383 18.1364 284.383 17.6847C284.383 17.2443 284.317 16.8565 284.187 16.5213C284.056 16.1861 283.864 15.9247 283.612 15.7372C283.359 15.5469 283.046 15.4517 282.674 15.4517C282.29 15.4517 281.971 15.5511 281.715 15.75C281.46 15.946 281.266 16.2131 281.136 16.5511C281.008 16.8892 280.944 17.267 280.944 17.6847C280.944 18.1136 281.009 18.4901 281.14 18.8139C281.271 19.1378 281.464 19.3906 281.719 19.5724C281.978 19.7543 282.296 19.8452 282.674 19.8452ZM287.349 21V14.4545H288.58V15.4943H288.648C288.768 15.142 288.978 14.8651 289.279 14.6634C289.583 14.4588 289.927 14.3565 290.31 14.3565C290.39 14.3565 290.484 14.3594 290.592 14.3651C290.702 14.3707 290.789 14.3778 290.852 14.3864V15.6051C290.8 15.5909 290.71 15.5753 290.579 15.5582C290.448 15.5384 290.317 15.5284 290.187 15.5284C289.886 15.5284 289.617 15.5923 289.381 15.7202C289.148 15.8452 288.964 16.0199 288.827 16.2443C288.691 16.4659 288.623 16.7187 288.623 17.0028V21H287.349ZM294.541 21.1321C293.896 21.1321 293.341 20.9943 292.875 20.7188C292.412 20.4403 292.054 20.0497 291.801 19.5469C291.551 19.0412 291.426 18.4489 291.426 17.7699C291.426 17.0994 291.551 16.5085 291.801 15.9972C292.054 15.4858 292.406 15.0866 292.858 14.7997C293.312 14.5128 293.843 14.3693 294.451 14.3693C294.821 14.3693 295.179 14.4304 295.525 14.5526C295.872 14.6747 296.183 14.8665 296.458 15.1278C296.734 15.3892 296.951 15.7287 297.11 16.1463C297.27 16.5611 297.349 17.0653 297.349 17.6591V18.1108H292.146V17.1562H296.1C296.1 16.821 296.032 16.5241 295.896 16.2656C295.76 16.0043 295.568 15.7983 295.321 15.6477C295.076 15.4972 294.789 15.4219 294.46 15.4219C294.102 15.4219 293.789 15.5099 293.522 15.6861C293.258 15.8594 293.054 16.0866 292.909 16.3679C292.767 16.6463 292.696 16.9489 292.696 17.2756V18.0213C292.696 18.4588 292.772 18.831 292.926 19.1378C293.082 19.4446 293.299 19.679 293.578 19.8409C293.856 20 294.181 20.0795 294.554 20.0795C294.795 20.0795 295.015 20.0455 295.214 19.9773C295.413 19.9062 295.585 19.8011 295.73 19.6619C295.875 19.5227 295.985 19.3509 296.062 19.1463L297.268 19.3636C297.172 19.7187 296.998 20.0298 296.748 20.2969C296.501 20.5611 296.19 20.767 295.815 20.9148C295.443 21.0597 295.018 21.1321 294.541 21.1321ZM303.668 16.0526L302.513 16.2571C302.464 16.1094 302.388 15.9687 302.283 15.8352C302.18 15.7017 302.041 15.5923 301.865 15.5071C301.689 15.4219 301.469 15.3793 301.205 15.3793C300.844 15.3793 300.543 15.4602 300.301 15.6222C300.06 15.7812 299.939 15.9872 299.939 16.2401C299.939 16.4588 300.02 16.6349 300.182 16.7685C300.344 16.902 300.605 17.0114 300.966 17.0966L302.006 17.3352C302.608 17.4744 303.057 17.6889 303.352 17.9787C303.648 18.2685 303.795 18.6449 303.795 19.108C303.795 19.5 303.682 19.8494 303.455 20.1562C303.23 20.4602 302.916 20.6989 302.513 20.8722C302.112 21.0455 301.648 21.1321 301.119 21.1321C300.386 21.1321 299.788 20.9759 299.325 20.6634C298.862 20.348 298.578 19.9006 298.473 19.321L299.705 19.1335C299.781 19.4545 299.939 19.6974 300.178 19.8622C300.416 20.0241 300.727 20.1051 301.111 20.1051C301.528 20.1051 301.862 20.0185 302.112 19.8452C302.362 19.669 302.487 19.4545 302.487 19.2017C302.487 18.9972 302.411 18.8253 302.257 18.6861C302.107 18.5469 301.875 18.4418 301.562 18.3707L300.455 18.1278C299.844 17.9886 299.392 17.767 299.099 17.4631C298.81 17.1591 298.665 16.7741 298.665 16.3082C298.665 15.9219 298.773 15.5838 298.989 15.294C299.205 15.0043 299.503 14.7784 299.884 14.6165C300.264 14.4517 300.7 14.3693 301.192 14.3693C301.899 14.3693 302.456 14.5227 302.862 14.8295C303.268 15.1335 303.537 15.5412 303.668 16.0526ZM310.101 16.0526L308.946 16.2571C308.898 16.1094 308.821 15.9687 308.716 15.8352C308.614 15.7017 308.475 15.5923 308.299 15.5071C308.123 15.4219 307.902 15.3793 307.638 15.3793C307.277 15.3793 306.976 15.4602 306.735 15.6222C306.493 15.7812 306.373 15.9872 306.373 16.2401C306.373 16.4588 306.453 16.6349 306.615 16.7685C306.777 16.902 307.039 17.0114 307.4 17.0966L308.439 17.3352C309.042 17.4744 309.49 17.6889 309.786 17.9787C310.081 18.2685 310.229 18.6449 310.229 19.108C310.229 19.5 310.115 19.8494 309.888 20.1562C309.664 20.4602 309.35 20.6989 308.946 20.8722C308.546 21.0455 308.081 21.1321 307.553 21.1321C306.82 21.1321 306.222 20.9759 305.759 20.6634C305.296 20.348 305.012 19.9006 304.907 19.321L306.138 19.1335C306.215 19.4545 306.373 19.6974 306.611 19.8622C306.85 20.0241 307.161 20.1051 307.544 20.1051C307.962 20.1051 308.296 20.0185 308.546 19.8452C308.796 19.669 308.921 19.4545 308.921 19.2017C308.921 18.9972 308.844 18.8253 308.691 18.6861C308.54 18.5469 308.309 18.4418 307.996 18.3707L306.888 18.1278C306.277 17.9886 305.826 17.767 305.533 17.4631C305.243 17.1591 305.098 16.7741 305.098 16.3082C305.098 15.9219 305.206 15.5838 305.422 15.294C305.638 15.0043 305.936 14.7784 306.317 14.6165C306.698 14.4517 307.134 14.3693 307.625 14.3693C308.333 14.3693 308.89 14.5227 309.296 14.8295C309.702 15.1335 309.971 15.5412 310.101 16.0526Z" fill="white"/>
<rect x="234.25" y="0.25" width="88.5" height="33.5" rx="7.75" stroke="#63696E" stroke-opacity="0.24" stroke-width="0.5"/>
<path d="M283 41C283 43.4853 280.985 45.5 278.5 45.5C276.015 45.5 274 43.4853 274 41C274 38.5147 276.015 36.5 278.5 36.5C280.985 36.5 283 38.5147 283 41Z" fill="#63696E"/>
<path d="M284.571 31.4853C285.462 31.4853 285.908 32.5624 285.278 33.1924L279.207 39.2635C278.817 39.654 278.183 39.654 277.793 39.2635L271.722 33.1924C271.092 32.5624 271.538 31.4853 272.429 31.4853L284.571 31.4853Z" fill="#D5CFCF"/>
</g>
<defs>
<filter id="filter0_dd_203_382" x="0" y="0" width="155" height="69.5" filterUnits="userSpaceOnUse" color-interpolation-filters="sRGB">
<feFlood flood-opacity="0" result="BackgroundImageFix"/>
<feColorMatrix in="SourceAlpha" type="matrix" values="0 0 0 0 0 0 0 0 0 0 0 0 0 0 0 0 0 0 127 0" result="hardAlpha"/>
<feMorphology radius="2" operator="erode" in="SourceAlpha" result="effect1_dropShadow_203_382"/>
<feOffset dy="4"/>
<feGaussianBlur stdDeviation="3"/>
<feColorMatrix type="matrix" values="0 0 0 0 0.0627451 0 0 0 0 0.0941176 0 0 0 0 0.156863 0 0 0 0.03 0"/>
<feBlend mode="normal" in2="BackgroundImageFix" result="effect1_dropShadow_203_382"/>
<feColorMatrix in="SourceAlpha" type="matrix" values="0 0 0 0 0 0 0 0 0 0 0 0 0 0 0 0 0 0 127 0" result="hardAlpha"/>
<feMorphology radius="4" operator="erode" in="SourceAlpha" result="effect2_dropShadow_203_382"/>
<feOffset dy="12"/>
<feGaussianBlur stdDeviation="8"/>
<feColorMatrix type="matrix" values="0 0 0 0 0.0627451 0 0 0 0 0.0941176 0 0 0 0 0.156863 0 0 0 0.08 0"/>
<feBlend mode="normal" in2="effect1_dropShadow_203_382" result="effect2_dropShadow_203_382"/>
<feBlend mode="normal" in="SourceGraphic" in2="effect2_dropShadow_203_382" result="shape"/>
</filter>
<filter id="filter1_dd_203_382" x="222" y="0" width="113" height="69.5" filterUnits="userSpaceOnUse" color-interpolation-filters="sRGB">
<feFlood flood-opacity="0" result="BackgroundImageFix"/>
<feColorMatrix in="SourceAlpha" type="matrix" values="0 0 0 0 0 0 0 0 0 0 0 0 0 0 0 0 0 0 127 0" result="hardAlpha"/>
<feMorphology radius="2" operator="erode" in="SourceAlpha" result="effect1_dropShadow_203_382"/>
<feOffset dy="4"/>
<feGaussianBlur stdDeviation="3"/>
<feColorMatrix type="matrix" values="0 0 0 0 0.0627451 0 0 0 0 0.0941176 0 0 0 0 0.156863 0 0 0 0.03 0"/>
<feBlend mode="normal" in2="BackgroundImageFix" result="effect1_dropShadow_203_382"/>
<feColorMatrix in="SourceAlpha" type="matrix" values="0 0 0 0 0 0 0 0 0 0 0 0 0 0 0 0 0 0 127 0" result="hardAlpha"/>
<feMorphology radius="4" operator="erode" in="SourceAlpha" result="effect2_dropShadow_203_382"/>
<feOffset dy="12"/>
<feGaussianBlur stdDeviation="8"/>
<feColorMatrix type="matrix" values="0 0 0 0 0.0627451 0 0 0 0 0.0941176 0 0 0 0 0.156863 0 0 0 0.08 0"/>
<feBlend mode="normal" in2="effect1_dropShadow_203_382" result="effect2_dropShadow_203_382"/>
<feBlend mode="normal" in="SourceGraphic" in2="effect2_dropShadow_203_382" result="shape"/>
</filter>
</defs>
</svg>
