<svg width="336" height="70" viewBox="0 0 336 70" fill="none" xmlns="http://www.w3.org/2000/svg">
<line x1="46.9961" y1="40.9736" x2="283.002" y2="40.9736" stroke="#D9D9D9" stroke-width="3.5"/>
<g filter="url(#filter0_dd_331_823)">
<rect x="12" width="76" height="34" rx="8" fill="white"/>
<path d="M26.6935 12.2727V21H25.3768V12.2727H26.6935ZM29.783 17.1136V21H28.5089V14.4545H29.7319V15.5199H29.8129C29.9634 15.1733 30.1992 14.8949 30.5202 14.6847C30.8441 14.4744 31.2518 14.3693 31.7433 14.3693C32.1893 14.3693 32.5799 14.4631 32.9151 14.6506C33.2504 14.8352 33.5103 15.1108 33.695 15.4773C33.8796 15.8437 33.9719 16.2969 33.9719 16.8366V21H32.6978V16.9901C32.6978 16.5156 32.5742 16.1449 32.3271 15.8778C32.0799 15.608 31.7404 15.473 31.3086 15.473C31.0131 15.473 30.7504 15.5369 30.5202 15.6648C30.293 15.7926 30.1126 15.9801 29.979 16.2273C29.8484 16.4716 29.783 16.767 29.783 17.1136ZM42.1676 18.1705H43.4631L44.375 19.3594L44.8054 19.8878L46.2585 21.7841H44.9119L43.9403 20.5185L43.608 20.0582L42.1676 18.1705ZM46.5398 16.6364C46.5398 17.5682 46.3693 18.3693 46.0284 19.0398C45.6875 19.7074 45.2202 20.2216 44.6264 20.5824C44.0355 20.9403 43.3636 21.1193 42.6108 21.1193C41.8551 21.1193 41.1804 20.9403 40.5866 20.5824C39.9957 20.2216 39.5298 19.706 39.1889 19.0355C38.848 18.3651 38.6776 17.5653 38.6776 16.6364C38.6776 15.7045 38.848 14.9048 39.1889 14.2372C39.5298 13.5668 39.9957 13.0526 40.5866 12.6946C41.1804 12.3338 41.8551 12.1534 42.6108 12.1534C43.3636 12.1534 44.0355 12.3338 44.6264 12.6946C45.2202 13.0526 45.6875 13.5668 46.0284 14.2372C46.3693 14.9048 46.5398 15.7045 46.5398 16.6364ZM45.2358 16.6364C45.2358 15.9261 45.1207 15.3281 44.8906 14.8423C44.6634 14.3537 44.3509 13.9844 43.9531 13.7344C43.5582 13.4815 43.1108 13.3551 42.6108 13.3551C42.108 13.3551 41.6591 13.4815 41.2642 13.7344C40.8693 13.9844 40.5568 14.3537 40.3267 14.8423C40.0994 15.3281 39.9858 15.9261 39.9858 16.6364C39.9858 17.3466 40.0994 17.946 40.3267 18.4347C40.5568 18.9205 40.8693 19.2898 41.2642 19.5426C41.6591 19.7926 42.108 19.9176 42.6108 19.9176C43.1108 19.9176 43.5582 19.7926 43.9531 19.5426C44.3509 19.2898 44.6634 18.9205 44.8906 18.4347C45.1207 17.946 45.2358 17.3466 45.2358 16.6364ZM52.2255 18.2855V14.4545H53.5039V21H52.2511V19.8665H52.1829C52.0323 20.2159 51.7908 20.5071 51.4585 20.7401C51.1289 20.9702 50.7184 21.0852 50.2269 21.0852C49.8065 21.0852 49.4343 20.9929 49.1104 20.8082C48.7894 20.6207 48.5366 20.3438 48.3519 19.9773C48.1701 19.6108 48.0792 19.1577 48.0792 18.6179V14.4545H49.3533V18.4645C49.3533 18.9105 49.4769 19.2656 49.7241 19.5298C49.9712 19.794 50.2923 19.9261 50.6871 19.9261C50.9258 19.9261 51.163 19.8665 51.3988 19.7472C51.6374 19.6278 51.8349 19.4474 51.9911 19.206C52.1502 18.9645 52.2283 18.6577 52.2255 18.2855ZM58.0369 21.1321C57.392 21.1321 56.8366 20.9943 56.3707 20.7188C55.9077 20.4403 55.5497 20.0497 55.2969 19.5469C55.0469 19.0412 54.9219 18.4489 54.9219 17.7699C54.9219 17.0994 55.0469 16.5085 55.2969 15.9972C55.5497 15.4858 55.902 15.0866 56.3537 14.7997C56.8082 14.5128 57.3395 14.3693 57.9474 14.3693C58.3168 14.3693 58.6747 14.4304 59.0213 14.5526C59.3679 14.6747 59.679 14.8665 59.9545 15.1278C60.2301 15.3892 60.4474 15.7287 60.6065 16.1463C60.7656 16.5611 60.8452 17.0653 60.8452 17.6591V18.1108H55.642V17.1562H59.5966C59.5966 16.821 59.5284 16.5241 59.392 16.2656C59.2557 16.0043 59.0639 15.7983 58.8168 15.6477C58.5724 15.4972 58.2855 15.4219 57.956 15.4219C57.598 15.4219 57.2855 15.5099 57.0185 15.6861C56.7543 15.8594 56.5497 16.0866 56.4048 16.3679C56.2628 16.6463 56.1918 16.9489 56.1918 17.2756V18.0213C56.1918 18.4588 56.2685 18.831 56.4219 19.1378C56.5781 19.4446 56.7955 19.679 57.0739 19.8409C57.3523 20 57.6776 20.0795 58.0497 20.0795C58.2912 20.0795 58.5114 20.0455 58.7102 19.9773C58.9091 19.9062 59.081 19.8011 59.2259 19.6619C59.3707 19.5227 59.4815 19.3509 59.5582 19.1463L60.7642 19.3636C60.6676 19.7187 60.4943 20.0298 60.2443 20.2969C59.9972 20.5611 59.6861 20.767 59.3111 20.9148C58.9389 21.0597 58.5142 21.1321 58.0369 21.1321ZM66.4052 18.2855V14.4545H67.6836V21H66.4308V19.8665H66.3626C66.212 20.2159 65.9705 20.5071 65.6381 20.7401C65.3086 20.9702 64.8981 21.0852 64.4066 21.0852C63.9862 21.0852 63.614 20.9929 63.2901 20.8082C62.9691 20.6207 62.7163 20.3438 62.5316 19.9773C62.3498 19.6108 62.2589 19.1577 62.2589 18.6179V14.4545H63.533V18.4645C63.533 18.9105 63.6566 19.2656 63.9038 19.5298C64.1509 19.794 64.4719 19.9261 64.8668 19.9261C65.1055 19.9261 65.3427 19.8665 65.5785 19.7472C65.8171 19.6278 66.0146 19.4474 66.1708 19.206C66.3299 18.9645 66.408 18.6577 66.4052 18.2855ZM72.2166 21.1321C71.5717 21.1321 71.0163 20.9943 70.5504 20.7188C70.0874 20.4403 69.7294 20.0497 69.4766 19.5469C69.2266 19.0412 69.1016 18.4489 69.1016 17.7699C69.1016 17.0994 69.2266 16.5085 69.4766 15.9972C69.7294 15.4858 70.0817 15.0866 70.5334 14.7997C70.9879 14.5128 71.5192 14.3693 72.1271 14.3693C72.4964 14.3693 72.8544 14.4304 73.201 14.5526C73.5476 14.6747 73.8587 14.8665 74.1342 15.1278C74.4098 15.3892 74.6271 15.7287 74.7862 16.1463C74.9453 16.5611 75.0249 17.0653 75.0249 17.6591V18.1108H69.8217V17.1562H73.7763C73.7763 16.821 73.7081 16.5241 73.5717 16.2656C73.4354 16.0043 73.2436 15.7983 72.9964 15.6477C72.7521 15.4972 72.4652 15.4219 72.1357 15.4219C71.7777 15.4219 71.4652 15.5099 71.1982 15.6861C70.9339 15.8594 70.7294 16.0866 70.5845 16.3679C70.4425 16.6463 70.3714 16.9489 70.3714 17.2756V18.0213C70.3714 18.4588 70.4482 18.831 70.6016 19.1378C70.7578 19.4446 70.9751 19.679 71.2536 19.8409C71.532 20 71.8572 20.0795 72.2294 20.0795C72.4709 20.0795 72.6911 20.0455 72.8899 19.9773C73.0888 19.9062 73.2607 19.8011 73.4055 19.6619C73.5504 19.5227 73.6612 19.3509 73.7379 19.1463L74.9439 19.3636C74.8473 19.7187 74.674 20.0298 74.424 20.2969C74.1768 20.5611 73.8658 20.767 73.4908 20.9148C73.1186 21.0597 72.6939 21.1321 72.2166 21.1321Z" fill="#344054"/>
<rect x="12.25" y="0.25" width="75.5" height="33.5" rx="7.75" stroke="#63696E" stroke-opacity="0.24" stroke-width="0.5"/>
<path d="M54.5 41C54.5 43.4853 52.4853 45.5 50 45.5C47.5147 45.5 45.5 43.4853 45.5 41C45.5 38.5147 47.5147 36.5 50 36.5C52.4853 36.5 54.5 38.5147 54.5 41Z" fill="#3180BA"/>
<path d="M56.0711 31.4853C56.962 31.4853 57.4081 32.5624 56.7782 33.1924L50.7071 39.2635C50.3166 39.654 49.6834 39.654 49.2929 39.2635L43.2218 33.1924C42.5919 32.5624 43.038 31.4853 43.9289 31.4853H56.0711Z" fill="white"/>
</g>
<g filter="url(#filter1_dd_331_823)">
<rect x="235" width="89" height="34" rx="8" fill="#D5CFCF"/>
<path d="M249.502 12.2727V21H248.185V12.2727H249.502ZM252.592 17.1136V21H251.317V14.4545H252.54V15.5199H252.621C252.772 15.1733 253.008 14.8949 253.329 14.6847C253.653 14.4744 254.06 14.3693 254.552 14.3693C254.998 14.3693 255.388 14.4631 255.724 14.6506C256.059 14.8352 256.319 15.1108 256.504 15.4773C256.688 15.8437 256.781 16.2969 256.781 16.8366V21H255.506V16.9901C255.506 16.5156 255.383 16.1449 255.136 15.8778C254.888 15.608 254.549 15.473 254.117 15.473C253.822 15.473 253.559 15.5369 253.329 15.6648C253.102 15.7926 252.921 15.9801 252.788 16.2273C252.657 16.4716 252.592 16.767 252.592 17.1136ZM261.767 21V12.2727H264.878C265.557 12.2727 266.12 12.3963 266.566 12.6435C267.012 12.8906 267.346 13.2287 267.567 13.6577C267.789 14.0838 267.9 14.5639 267.9 15.098C267.9 15.6349 267.787 16.1179 267.563 16.5469C267.341 16.973 267.006 17.3111 266.557 17.5611C266.111 17.8082 265.55 17.9318 264.874 17.9318H262.735V16.8153H264.755C265.184 16.8153 265.532 16.7415 265.799 16.5938C266.066 16.4432 266.262 16.2386 266.387 15.9801C266.512 15.7216 266.574 15.4276 266.574 15.098C266.574 14.7685 266.512 14.4759 266.387 14.2202C266.262 13.9645 266.064 13.7642 265.794 13.6193C265.527 13.4744 265.175 13.402 264.738 13.402H263.084V21H261.767ZM269.341 21V14.4545H270.572V15.4943H270.641C270.76 15.142 270.97 14.8651 271.271 14.6634C271.575 14.4588 271.919 14.3565 272.303 14.3565C272.382 14.3565 272.476 14.3594 272.584 14.3651C272.695 14.3707 272.781 14.3778 272.844 14.3864V15.6051C272.793 15.5909 272.702 15.5753 272.571 15.5582C272.44 15.5384 272.31 15.5284 272.179 15.5284C271.878 15.5284 271.609 15.5923 271.374 15.7202C271.141 15.8452 270.956 16.0199 270.82 16.2443C270.683 16.4659 270.615 16.7187 270.615 17.0028V21H269.341ZM276.469 21.1321C275.855 21.1321 275.32 20.9915 274.863 20.7102C274.405 20.429 274.05 20.0355 273.797 19.5298C273.544 19.0241 273.418 18.4332 273.418 17.7571C273.418 17.0781 273.544 16.4844 273.797 15.9759C274.05 15.4673 274.405 15.0724 274.863 14.7912C275.32 14.5099 275.855 14.3693 276.469 14.3693C277.083 14.3693 277.618 14.5099 278.076 14.7912C278.533 15.0724 278.888 15.4673 279.141 15.9759C279.394 16.4844 279.52 17.0781 279.52 17.7571C279.52 18.4332 279.394 19.0241 279.141 19.5298C278.888 20.0355 278.533 20.429 278.076 20.7102C277.618 20.9915 277.083 21.1321 276.469 21.1321ZM276.473 20.0625C276.871 20.0625 277.201 19.9574 277.462 19.7472C277.723 19.5369 277.917 19.2571 278.042 18.9077C278.169 18.5582 278.233 18.1733 278.233 17.7528C278.233 17.3352 278.169 16.9517 278.042 16.6023C277.917 16.25 277.723 15.9673 277.462 15.7543C277.201 15.5412 276.871 15.4347 276.473 15.4347C276.073 15.4347 275.74 15.5412 275.476 15.7543C275.215 15.9673 275.02 16.25 274.892 16.6023C274.767 16.9517 274.705 17.3352 274.705 17.7528C274.705 18.1733 274.767 18.5582 274.892 18.9077C275.02 19.2571 275.215 19.5369 275.476 19.7472C275.74 19.9574 276.073 20.0625 276.473 20.0625ZM283.687 23.5909C283.167 23.5909 282.719 23.5227 282.344 23.3864C281.972 23.25 281.668 23.0696 281.433 22.8452C281.197 22.6207 281.021 22.375 280.904 22.108L281.999 21.6562C282.076 21.7812 282.178 21.9134 282.306 22.0526C282.437 22.1946 282.613 22.3153 282.835 22.4148C283.059 22.5142 283.347 22.5639 283.7 22.5639C284.183 22.5639 284.582 22.446 284.897 22.2102C285.212 21.9773 285.37 21.6051 285.37 21.0938V19.8068H285.289C285.212 19.946 285.102 20.1009 284.957 20.2713C284.815 20.4418 284.619 20.5895 284.369 20.7145C284.119 20.8395 283.793 20.902 283.393 20.902C282.876 20.902 282.41 20.7812 281.995 20.5398C281.583 20.2955 281.256 19.9361 281.015 19.4616C280.776 18.9844 280.657 18.3977 280.657 17.7017C280.657 17.0057 280.775 16.4091 281.011 15.9119C281.249 15.4148 281.576 15.0341 281.991 14.7699C282.406 14.5028 282.876 14.3693 283.401 14.3693C283.808 14.3693 284.136 14.4375 284.386 14.5739C284.636 14.7074 284.83 14.8636 284.969 15.0426C285.112 15.2216 285.221 15.3793 285.298 15.5156H285.391V14.4545H286.64V21.1449C286.64 21.7074 286.509 22.169 286.248 22.5298C285.987 22.8906 285.633 23.1577 285.187 23.331C284.744 23.5043 284.244 23.5909 283.687 23.5909ZM283.674 19.8452C284.04 19.8452 284.35 19.7599 284.603 19.5895C284.859 19.4162 285.052 19.169 285.183 18.848C285.316 18.5241 285.383 18.1364 285.383 17.6847C285.383 17.2443 285.317 16.8565 285.187 16.5213C285.056 16.1861 284.864 15.9247 284.612 15.7372C284.359 15.5469 284.046 15.4517 283.674 15.4517C283.29 15.4517 282.971 15.5511 282.715 15.75C282.46 15.946 282.266 16.2131 282.136 16.5511C282.008 16.8892 281.944 17.267 281.944 17.6847C281.944 18.1136 282.009 18.4901 282.14 18.8139C282.271 19.1378 282.464 19.3906 282.719 19.5724C282.978 19.7543 283.296 19.8452 283.674 19.8452ZM288.349 21V14.4545H289.58V15.4943H289.648C289.768 15.142 289.978 14.8651 290.279 14.6634C290.583 14.4588 290.927 14.3565 291.31 14.3565C291.39 14.3565 291.484 14.3594 291.592 14.3651C291.702 14.3707 291.789 14.3778 291.852 14.3864V15.6051C291.8 15.5909 291.71 15.5753 291.579 15.5582C291.448 15.5384 291.317 15.5284 291.187 15.5284C290.886 15.5284 290.617 15.5923 290.381 15.7202C290.148 15.8452 289.964 16.0199 289.827 16.2443C289.691 16.4659 289.623 16.7187 289.623 17.0028V21H288.349ZM295.541 21.1321C294.896 21.1321 294.341 20.9943 293.875 20.7188C293.412 20.4403 293.054 20.0497 292.801 19.5469C292.551 19.0412 292.426 18.4489 292.426 17.7699C292.426 17.0994 292.551 16.5085 292.801 15.9972C293.054 15.4858 293.406 15.0866 293.858 14.7997C294.312 14.5128 294.843 14.3693 295.451 14.3693C295.821 14.3693 296.179 14.4304 296.525 14.5526C296.872 14.6747 297.183 14.8665 297.458 15.1278C297.734 15.3892 297.951 15.7287 298.11 16.1463C298.27 16.5611 298.349 17.0653 298.349 17.6591V18.1108H293.146V17.1562H297.1C297.1 16.821 297.032 16.5241 296.896 16.2656C296.76 16.0043 296.568 15.7983 296.321 15.6477C296.076 15.4972 295.789 15.4219 295.46 15.4219C295.102 15.4219 294.789 15.5099 294.522 15.6861C294.258 15.8594 294.054 16.0866 293.909 16.3679C293.767 16.6463 293.696 16.9489 293.696 17.2756V18.0213C293.696 18.4588 293.772 18.831 293.926 19.1378C294.082 19.4446 294.299 19.679 294.578 19.8409C294.856 20 295.181 20.0795 295.554 20.0795C295.795 20.0795 296.015 20.0455 296.214 19.9773C296.413 19.9062 296.585 19.8011 296.73 19.6619C296.875 19.5227 296.985 19.3509 297.062 19.1463L298.268 19.3636C298.172 19.7187 297.998 20.0298 297.748 20.2969C297.501 20.5611 297.19 20.767 296.815 20.9148C296.443 21.0597 296.018 21.1321 295.541 21.1321ZM304.668 16.0526L303.513 16.2571C303.464 16.1094 303.388 15.9687 303.283 15.8352C303.18 15.7017 303.041 15.5923 302.865 15.5071C302.689 15.4219 302.469 15.3793 302.205 15.3793C301.844 15.3793 301.543 15.4602 301.301 15.6222C301.06 15.7812 300.939 15.9872 300.939 16.2401C300.939 16.4588 301.02 16.6349 301.182 16.7685C301.344 16.902 301.605 17.0114 301.966 17.0966L303.006 17.3352C303.608 17.4744 304.057 17.6889 304.352 17.9787C304.648 18.2685 304.795 18.6449 304.795 19.108C304.795 19.5 304.682 19.8494 304.455 20.1562C304.23 20.4602 303.916 20.6989 303.513 20.8722C303.112 21.0455 302.648 21.1321 302.119 21.1321C301.386 21.1321 300.788 20.9759 300.325 20.6634C299.862 20.348 299.578 19.9006 299.473 19.321L300.705 19.1335C300.781 19.4545 300.939 19.6974 301.178 19.8622C301.416 20.0241 301.727 20.1051 302.111 20.1051C302.528 20.1051 302.862 20.0185 303.112 19.8452C303.362 19.669 303.487 19.4545 303.487 19.2017C303.487 18.9972 303.411 18.8253 303.257 18.6861C303.107 18.5469 302.875 18.4418 302.562 18.3707L301.455 18.1278C300.844 17.9886 300.392 17.767 300.099 17.4631C299.81 17.1591 299.665 16.7741 299.665 16.3082C299.665 15.9219 299.773 15.5838 299.989 15.294C300.205 15.0043 300.503 14.7784 300.884 14.6165C301.264 14.4517 301.7 14.3693 302.192 14.3693C302.899 14.3693 303.456 14.5227 303.862 14.8295C304.268 15.1335 304.537 15.5412 304.668 16.0526ZM311.101 16.0526L309.946 16.2571C309.898 16.1094 309.821 15.9687 309.716 15.8352C309.614 15.7017 309.475 15.5923 309.299 15.5071C309.123 15.4219 308.902 15.3793 308.638 15.3793C308.277 15.3793 307.976 15.4602 307.735 15.6222C307.493 15.7812 307.373 15.9872 307.373 16.2401C307.373 16.4588 307.453 16.6349 307.615 16.7685C307.777 16.902 308.039 17.0114 308.4 17.0966L309.439 17.3352C310.042 17.4744 310.49 17.6889 310.786 17.9787C311.081 18.2685 311.229 18.6449 311.229 19.108C311.229 19.5 311.115 19.8494 310.888 20.1562C310.664 20.4602 310.35 20.6989 309.946 20.8722C309.546 21.0455 309.081 21.1321 308.553 21.1321C307.82 21.1321 307.222 20.9759 306.759 20.6634C306.296 20.348 306.012 19.9006 305.907 19.321L307.138 19.1335C307.215 19.4545 307.373 19.6974 307.611 19.8622C307.85 20.0241 308.161 20.1051 308.544 20.1051C308.962 20.1051 309.296 20.0185 309.546 19.8452C309.796 19.669 309.921 19.4545 309.921 19.2017C309.921 18.9972 309.844 18.8253 309.691 18.6861C309.54 18.5469 309.309 18.4418 308.996 18.3707L307.888 18.1278C307.277 17.9886 306.826 17.767 306.533 17.4631C306.243 17.1591 306.098 16.7741 306.098 16.3082C306.098 15.9219 306.206 15.5838 306.422 15.294C306.638 15.0043 306.936 14.7784 307.317 14.6165C307.698 14.4517 308.134 14.3693 308.625 14.3693C309.333 14.3693 309.89 14.5227 310.296 14.8295C310.702 15.1335 310.971 15.5412 311.101 16.0526Z" fill="white"/>
<rect x="235.25" y="0.25" width="88.5" height="33.5" rx="7.75" stroke="#63696E" stroke-opacity="0.24" stroke-width="0.5"/>
<path d="M284 41C284 43.4853 281.985 45.5 279.5 45.5C277.015 45.5 275 43.4853 275 41C275 38.5147 277.015 36.5 279.5 36.5C281.985 36.5 284 38.5147 284 41Z" fill="#63696E"/>
<path d="M285.571 31.4853C286.462 31.4853 286.908 32.5624 286.278 33.1924L280.207 39.2635C279.817 39.654 279.183 39.654 278.793 39.2635L272.722 33.1924C272.092 32.5624 272.538 31.4853 273.429 31.4853H285.571Z" fill="#D5CFCF"/>
</g>
<defs>
<filter id="filter0_dd_331_823" x="0" y="0" width="100" height="69.5" filterUnits="userSpaceOnUse" color-interpolation-filters="sRGB">
<feFlood flood-opacity="0" result="BackgroundImageFix"/>
<feColorMatrix in="SourceAlpha" type="matrix" values="0 0 0 0 0 0 0 0 0 0 0 0 0 0 0 0 0 0 127 0" result="hardAlpha"/>
<feMorphology radius="2" operator="erode" in="SourceAlpha" result="effect1_dropShadow_331_823"/>
<feOffset dy="4"/>
<feGaussianBlur stdDeviation="3"/>
<feColorMatrix type="matrix" values="0 0 0 0 0.0627451 0 0 0 0 0.0941176 0 0 0 0 0.156863 0 0 0 0.03 0"/>
<feBlend mode="normal" in2="BackgroundImageFix" result="effect1_dropShadow_331_823"/>
<feColorMatrix in="SourceAlpha" type="matrix" values="0 0 0 0 0 0 0 0 0 0 0 0 0 0 0 0 0 0 127 0" result="hardAlpha"/>
<feMorphology radius="4" operator="erode" in="SourceAlpha" result="effect2_dropShadow_331_823"/>
<feOffset dy="12"/>
<feGaussianBlur stdDeviation="8"/>
<feColorMatrix type="matrix" values="0 0 0 0 0.0627451 0 0 0 0 0.0941176 0 0 0 0 0.156863 0 0 0 0.08 0"/>
<feBlend mode="normal" in2="effect1_dropShadow_331_823" result="effect2_dropShadow_331_823"/>
<feBlend mode="normal" in="SourceGraphic" in2="effect2_dropShadow_331_823" result="shape"/>
</filter>
<filter id="filter1_dd_331_823" x="223" y="0" width="113" height="69.5" filterUnits="userSpaceOnUse" color-interpolation-filters="sRGB">
<feFlood flood-opacity="0" result="BackgroundImageFix"/>
<feColorMatrix in="SourceAlpha" type="matrix" values="0 0 0 0 0 0 0 0 0 0 0 0 0 0 0 0 0 0 127 0" result="hardAlpha"/>
<feMorphology radius="2" operator="erode" in="SourceAlpha" result="effect1_dropShadow_331_823"/>
<feOffset dy="4"/>
<feGaussianBlur stdDeviation="3"/>
<feColorMatrix type="matrix" values="0 0 0 0 0.0627451 0 0 0 0 0.0941176 0 0 0 0 0.156863 0 0 0 0.03 0"/>
<feBlend mode="normal" in2="BackgroundImageFix" result="effect1_dropShadow_331_823"/>
<feColorMatrix in="SourceAlpha" type="matrix" values="0 0 0 0 0 0 0 0 0 0 0 0 0 0 0 0 0 0 127 0" result="hardAlpha"/>
<feMorphology radius="4" operator="erode" in="SourceAlpha" result="effect2_dropShadow_331_823"/>
<feOffset dy="12"/>
<feGaussianBlur stdDeviation="8"/>
<feColorMatrix type="matrix" values="0 0 0 0 0.0627451 0 0 0 0 0.0941176 0 0 0 0 0.156863 0 0 0 0.08 0"/>
<feBlend mode="normal" in2="effect1_dropShadow_331_823" result="effect2_dropShadow_331_823"/>
<feBlend mode="normal" in="SourceGraphic" in2="effect2_dropShadow_331_823" result="shape"/>
</filter>
</defs>
</svg>
