<svg width="353" height="88" viewBox="0 0 353 88" fill="none" xmlns="http://www.w3.org/2000/svg">
<path d="M47 58.25L176 58.25" stroke="#D9D9D9" stroke-width="3.5"/>
<path d="M175 58.124L301.001 57.876" stroke="#D9D9D9" stroke-width="3.5" stroke-dasharray="7 7"/>
<g filter="url(#filter0_dd_583_850)">
<rect x="12" y="18" width="70" height="34" rx="8" fill="white"/>
<path d="M32.8406 34.6364C32.8406 35.5682 32.6701 36.3693 32.3292 37.0398C31.9883 37.7074 31.521 38.2216 30.9272 38.5824C30.3363 38.9403 29.6644 39.1193 28.9116 39.1193C28.1559 39.1193 27.4812 38.9403 26.8874 38.5824C26.2965 38.2216 25.8306 37.706 25.4897 37.0355C25.1488 36.3651 24.9783 35.5653 24.9783 34.6364C24.9783 33.7045 25.1488 32.9048 25.4897 32.2372C25.8306 31.5668 26.2965 31.0526 26.8874 30.6946C27.4812 30.3338 28.1559 30.1534 28.9116 30.1534C29.6644 30.1534 30.3363 30.3338 30.9272 30.6946C31.521 31.0526 31.9883 31.5668 32.3292 32.2372C32.6701 32.9048 32.8406 33.7045 32.8406 34.6364ZM31.5366 34.6364C31.5366 33.9261 31.4215 33.3281 31.1914 32.8423C30.9641 32.3537 30.6516 31.9844 30.2539 31.7344C29.859 31.4815 29.4116 31.3551 28.9116 31.3551C28.4087 31.3551 27.9599 31.4815 27.565 31.7344C27.1701 31.9844 26.8576 32.3537 26.6275 32.8423C26.4002 33.3281 26.2866 33.9261 26.2866 34.6364C26.2866 35.3466 26.4002 35.946 26.6275 36.4347C26.8576 36.9205 27.1701 37.2898 27.565 37.5426C27.9599 37.7926 28.4087 37.9176 28.9116 37.9176C29.4116 37.9176 29.859 37.7926 30.2539 37.5426C30.6516 37.2898 30.9641 36.9205 31.1914 36.4347C31.4215 35.946 31.5366 35.3466 31.5366 34.6364ZM34.38 41.4545V32.4545H35.6243V33.5156H35.7308C35.8047 33.3793 35.9112 33.2216 36.0504 33.0426C36.1896 32.8636 36.3828 32.7074 36.63 32.5739C36.8771 32.4375 37.2038 32.3693 37.6101 32.3693C38.1385 32.3693 38.6101 32.5028 39.0249 32.7699C39.4396 33.0369 39.7649 33.4219 40.0007 33.9247C40.2393 34.4276 40.3587 35.0327 40.3587 35.7401C40.3587 36.4474 40.2408 37.054 40.005 37.5597C39.7692 38.0625 39.4453 38.4503 39.0334 38.723C38.6214 38.9929 38.1513 39.1278 37.6229 39.1278C37.2251 39.1278 36.8999 39.0611 36.647 38.9276C36.397 38.794 36.201 38.6378 36.0589 38.4588C35.9169 38.2798 35.8075 38.1207 35.7308 37.9815H35.6541V41.4545H34.38ZM35.6286 35.7273C35.6286 36.1875 35.6953 36.5909 35.8288 36.9375C35.9624 37.2841 36.1555 37.5554 36.4084 37.7514C36.6612 37.9446 36.9709 38.0412 37.3374 38.0412C37.718 38.0412 38.0362 37.9403 38.2919 37.7386C38.5476 37.5341 38.7408 37.2571 38.8714 36.9077C39.005 36.5582 39.0717 36.1648 39.0717 35.7273C39.0717 35.2955 39.0064 34.9077 38.8757 34.5639C38.7479 34.2202 38.5547 33.9489 38.2962 33.75C38.0405 33.5511 37.7209 33.4517 37.3374 33.4517C36.968 33.4517 36.6555 33.5469 36.3999 33.7372C36.147 33.9276 35.9553 34.1932 35.8246 34.5341C35.6939 34.875 35.6286 35.2727 35.6286 35.7273ZM44.6072 39.1321C43.9624 39.1321 43.407 38.9943 42.9411 38.7188C42.478 38.4403 42.12 38.0497 41.8672 37.5469C41.6172 37.0412 41.4922 36.4489 41.4922 35.7699C41.4922 35.0994 41.6172 34.5085 41.8672 33.9972C42.12 33.4858 42.4723 33.0866 42.924 32.7997C43.3786 32.5128 43.9098 32.3693 44.5178 32.3693C44.8871 32.3693 45.245 32.4304 45.5916 32.5526C45.9382 32.6747 46.2493 32.8665 46.5249 33.1278C46.8004 33.3892 47.0178 33.7287 47.1768 34.1463C47.3359 34.5611 47.4155 35.0653 47.4155 35.6591V36.1108H42.2124V35.1562H46.1669C46.1669 34.821 46.0987 34.5241 45.9624 34.2656C45.826 34.0043 45.6342 33.7983 45.3871 33.6477C45.1428 33.4972 44.8558 33.4219 44.5263 33.4219C44.1683 33.4219 43.8558 33.5099 43.5888 33.6861C43.3246 33.8594 43.12 34.0866 42.9751 34.3679C42.8331 34.6463 42.7621 34.9489 42.7621 35.2756V36.0213C42.7621 36.4588 42.8388 36.831 42.9922 37.1378C43.1484 37.4446 43.3658 37.679 43.6442 37.8409C43.9226 38 44.2479 38.0795 44.62 38.0795C44.8615 38.0795 45.0817 38.0455 45.2805 37.9773C45.4794 37.9062 45.6513 37.8011 45.7962 37.6619C45.9411 37.5227 46.0518 37.3509 46.1286 37.1463L47.3345 37.3636C47.2379 37.7187 47.0646 38.0298 46.8146 38.2969C46.5675 38.5611 46.2564 38.767 45.8814 38.9148C45.5092 39.0597 45.0845 39.1321 44.6072 39.1321ZM50.1033 35.1136V39H48.8292V32.4545H50.0522V33.5199H50.1332C50.2837 33.1733 50.5195 32.8949 50.8406 32.6847C51.1644 32.4744 51.5721 32.3693 52.0636 32.3693C52.5096 32.3693 52.9002 32.4631 53.2354 32.6506C53.5707 32.8352 53.8306 33.1108 54.0153 33.4773C54.1999 33.8437 54.2923 34.2969 54.2923 34.8366V39H53.0181V34.9901C53.0181 34.5156 52.8945 34.1449 52.6474 33.8778C52.4002 33.608 52.0607 33.473 51.6289 33.473C51.3335 33.473 51.0707 33.5369 50.8406 33.6648C50.6133 33.7926 50.4329 33.9801 50.2994 34.2273C50.1687 34.4716 50.1033 34.767 50.1033 35.1136ZM58.8221 39.1321C58.1772 39.1321 57.6218 38.9943 57.1559 38.7188C56.6928 38.4403 56.3349 38.0497 56.082 37.5469C55.832 37.0412 55.707 36.4489 55.707 35.7699C55.707 35.0994 55.832 34.5085 56.082 33.9972C56.3349 33.4858 56.6871 33.0866 57.1388 32.7997C57.5934 32.5128 58.1246 32.3693 58.7326 32.3693C59.1019 32.3693 59.4599 32.4304 59.8065 32.5526C60.1531 32.6747 60.4641 32.8665 60.7397 33.1278C61.0153 33.3892 61.2326 33.7287 61.3917 34.1463C61.5508 34.5611 61.6303 35.0653 61.6303 35.6591V36.1108H56.4272V35.1562H60.3817C60.3817 34.821 60.3136 34.5241 60.1772 34.2656C60.0408 34.0043 59.8491 33.7983 59.6019 33.6477C59.3576 33.4972 59.0707 33.4219 58.7411 33.4219C58.3832 33.4219 58.0707 33.5099 57.8036 33.6861C57.5394 33.8594 57.3349 34.0866 57.19 34.3679C57.0479 34.6463 56.9769 34.9489 56.9769 35.2756V36.0213C56.9769 36.4588 57.0536 36.831 57.207 37.1378C57.3633 37.4446 57.5806 37.679 57.859 37.8409C58.1374 38 58.4627 38.0795 58.8349 38.0795C59.0763 38.0795 59.2965 38.0455 59.4954 37.9773C59.6942 37.9062 59.8661 37.8011 60.011 37.6619C60.1559 37.5227 60.2667 37.3509 60.3434 37.1463L61.5494 37.3636C61.4528 37.7187 61.2795 38.0298 61.0295 38.2969C60.7823 38.5611 60.4712 38.767 60.0962 38.9148C59.7241 39.0597 59.2994 39.1321 58.8221 39.1321ZM65.4943 39.1278C64.9659 39.1278 64.4943 38.9929 64.0795 38.723C63.6676 38.4503 63.3438 38.0625 63.108 37.5597C62.875 37.054 62.7585 36.4474 62.7585 35.7401C62.7585 35.0327 62.8764 34.4276 63.1122 33.9247C63.3509 33.4219 63.6776 33.0369 64.0923 32.7699C64.5071 32.5028 64.9773 32.3693 65.5028 32.3693C65.9091 32.3693 66.2358 32.4375 66.483 32.5739C66.733 32.7074 66.9261 32.8636 67.0625 33.0426C67.2017 33.2216 67.3097 33.3793 67.3864 33.5156H67.4631V30.2727H68.7372V39H67.4929V37.9815H67.3864C67.3097 38.1207 67.1989 38.2798 67.054 38.4588C66.9119 38.6378 66.7159 38.794 66.4659 38.9276C66.2159 39.0611 65.892 39.1278 65.4943 39.1278ZM65.7756 38.0412C66.142 38.0412 66.4517 37.9446 66.7045 37.7514C66.9602 37.5554 67.1534 37.2841 67.2841 36.9375C67.4176 36.5909 67.4844 36.1875 67.4844 35.7273C67.4844 35.2727 67.419 34.875 67.2884 34.5341C67.1577 34.1932 66.9659 33.9276 66.7131 33.7372C66.4602 33.5469 66.1477 33.4517 65.7756 33.4517C65.392 33.4517 65.0724 33.5511 64.8168 33.75C64.5611 33.9489 64.3679 34.2202 64.2372 34.5639C64.1094 34.9077 64.0455 35.2955 64.0455 35.7273C64.0455 36.1648 64.1108 36.5582 64.2415 36.9077C64.3722 37.2571 64.5653 37.5341 64.821 37.7386C65.0795 37.9403 65.3977 38.0412 65.7756 38.0412Z" fill="#344054"/>
<rect x="12.25" y="18.25" width="69.5" height="33.5" rx="7.75" stroke="#63696E" stroke-opacity="0.24" stroke-width="0.5"/>
<path d="M51.5 59C51.5 61.4853 49.4853 63.5 47 63.5C44.5147 63.5 42.5 61.4853 42.5 59C42.5 56.5147 44.5147 54.5 47 54.5C49.4853 54.5 51.5 56.5147 51.5 59Z" fill="#3180BA"/>
<path d="M53.0711 49.4853C53.962 49.4853 54.4081 50.5624 53.7782 51.1924L47.7071 57.2635C47.3166 57.654 46.6834 57.654 46.2929 57.2635L40.2218 51.1924C39.5919 50.5624 40.038 49.4853 40.9289 49.4853L53.0711 49.4853Z" fill="white"/>
</g>
<g filter="url(#filter1_dd_583_850)">
<rect x="136" y="18" width="76" height="34" rx="8" fill="#D5CFCF"/>
<path d="M150.694 30.2727V39H149.377V30.2727H150.694ZM153.783 35.1136V39H152.509V32.4545H153.732V33.5199H153.813C153.963 33.1733 154.199 32.8949 154.52 32.6847C154.844 32.4744 155.252 32.3693 155.743 32.3693C156.189 32.3693 156.58 32.4631 156.915 32.6506C157.25 32.8352 157.51 33.1108 157.695 33.4773C157.88 33.8437 157.972 34.2969 157.972 34.8366V39H156.698V34.9901C156.698 34.5156 156.574 34.1449 156.327 33.8778C156.08 33.608 155.74 33.473 155.309 33.473C155.013 33.473 154.75 33.5369 154.52 33.6648C154.293 33.7926 154.113 33.9801 153.979 34.2273C153.848 34.4716 153.783 34.767 153.783 35.1136ZM166.168 36.1705H167.463L168.375 37.3594L168.805 37.8878L170.259 39.7841H168.912L167.94 38.5185L167.608 38.0582L166.168 36.1705ZM170.54 34.6364C170.54 35.5682 170.369 36.3693 170.028 37.0398C169.688 37.7074 169.22 38.2216 168.626 38.5824C168.036 38.9403 167.364 39.1193 166.611 39.1193C165.855 39.1193 165.18 38.9403 164.587 38.5824C163.996 38.2216 163.53 37.706 163.189 37.0355C162.848 36.3651 162.678 35.5653 162.678 34.6364C162.678 33.7045 162.848 32.9048 163.189 32.2372C163.53 31.5668 163.996 31.0526 164.587 30.6946C165.18 30.3338 165.855 30.1534 166.611 30.1534C167.364 30.1534 168.036 30.3338 168.626 30.6946C169.22 31.0526 169.688 31.5668 170.028 32.2372C170.369 32.9048 170.54 33.7045 170.54 34.6364ZM169.236 34.6364C169.236 33.9261 169.121 33.3281 168.891 32.8423C168.663 32.3537 168.351 31.9844 167.953 31.7344C167.558 31.4815 167.111 31.3551 166.611 31.3551C166.108 31.3551 165.659 31.4815 165.264 31.7344C164.869 31.9844 164.557 32.3537 164.327 32.8423C164.099 33.3281 163.986 33.9261 163.986 34.6364C163.986 35.3466 164.099 35.946 164.327 36.4347C164.557 36.9205 164.869 37.2898 165.264 37.5426C165.659 37.7926 166.108 37.9176 166.611 37.9176C167.111 37.9176 167.558 37.7926 167.953 37.5426C168.351 37.2898 168.663 36.9205 168.891 36.4347C169.121 35.946 169.236 35.3466 169.236 34.6364ZM176.225 36.2855V32.4545H177.504V39H176.251V37.8665H176.183C176.032 38.2159 175.791 38.5071 175.458 38.7401C175.129 38.9702 174.718 39.0852 174.227 39.0852C173.806 39.0852 173.434 38.9929 173.11 38.8082C172.789 38.6207 172.537 38.3438 172.352 37.9773C172.17 37.6108 172.079 37.1577 172.079 36.6179V32.4545H173.353V36.4645C173.353 36.9105 173.477 37.2656 173.724 37.5298C173.971 37.794 174.292 37.9261 174.687 37.9261C174.926 37.9261 175.163 37.8665 175.399 37.7472C175.637 37.6278 175.835 37.4474 175.991 37.206C176.15 36.9645 176.228 36.6577 176.225 36.2855ZM182.037 39.1321C181.392 39.1321 180.837 38.9943 180.371 38.7188C179.908 38.4403 179.55 38.0497 179.297 37.5469C179.047 37.0412 178.922 36.4489 178.922 35.7699C178.922 35.0994 179.047 34.5085 179.297 33.9972C179.55 33.4858 179.902 33.0866 180.354 32.7997C180.808 32.5128 181.339 32.3693 181.947 32.3693C182.317 32.3693 182.675 32.4304 183.021 32.5526C183.368 32.6747 183.679 32.8665 183.955 33.1278C184.23 33.3892 184.447 33.7287 184.607 34.1463C184.766 34.5611 184.845 35.0653 184.845 35.6591V36.1108H179.642V35.1562H183.597C183.597 34.821 183.528 34.5241 183.392 34.2656C183.256 34.0043 183.064 33.7983 182.817 33.6477C182.572 33.4972 182.286 33.4219 181.956 33.4219C181.598 33.4219 181.286 33.5099 181.018 33.6861C180.754 33.8594 180.55 34.0866 180.405 34.3679C180.263 34.6463 180.192 34.9489 180.192 35.2756V36.0213C180.192 36.4588 180.268 36.831 180.422 37.1378C180.578 37.4446 180.795 37.679 181.074 37.8409C181.352 38 181.678 38.0795 182.05 38.0795C182.291 38.0795 182.511 38.0455 182.71 37.9773C182.909 37.9062 183.081 37.8011 183.226 37.6619C183.371 37.5227 183.482 37.3509 183.558 37.1463L184.764 37.3636C184.668 37.7187 184.494 38.0298 184.244 38.2969C183.997 38.5611 183.686 38.767 183.311 38.9148C182.939 39.0597 182.514 39.1321 182.037 39.1321ZM190.405 36.2855V32.4545H191.684V39H190.431V37.8665H190.363C190.212 38.2159 189.971 38.5071 189.638 38.7401C189.309 38.9702 188.898 39.0852 188.407 39.0852C187.986 39.0852 187.614 38.9929 187.29 38.8082C186.969 38.6207 186.716 38.3438 186.532 37.9773C186.35 37.6108 186.259 37.1577 186.259 36.6179V32.4545H187.533V36.4645C187.533 36.9105 187.657 37.2656 187.904 37.5298C188.151 37.794 188.472 37.9261 188.867 37.9261C189.105 37.9261 189.343 37.8665 189.578 37.7472C189.817 37.6278 190.015 37.4474 190.171 37.206C190.33 36.9645 190.408 36.6577 190.405 36.2855ZM196.217 39.1321C195.572 39.1321 195.016 38.9943 194.55 38.7188C194.087 38.4403 193.729 38.0497 193.477 37.5469C193.227 37.0412 193.102 36.4489 193.102 35.7699C193.102 35.0994 193.227 34.5085 193.477 33.9972C193.729 33.4858 194.082 33.0866 194.533 32.7997C194.988 32.5128 195.519 32.3693 196.127 32.3693C196.496 32.3693 196.854 32.4304 197.201 32.5526C197.548 32.6747 197.859 32.8665 198.134 33.1278C198.41 33.3892 198.627 33.7287 198.786 34.1463C198.945 34.5611 199.025 35.0653 199.025 35.6591V36.1108H193.822V35.1562H197.776C197.776 34.821 197.708 34.5241 197.572 34.2656C197.435 34.0043 197.244 33.7983 196.996 33.6477C196.752 33.4972 196.465 33.4219 196.136 33.4219C195.778 33.4219 195.465 33.5099 195.198 33.6861C194.934 33.8594 194.729 34.0866 194.585 34.3679C194.442 34.6463 194.371 34.9489 194.371 35.2756V36.0213C194.371 36.4588 194.448 36.831 194.602 37.1378C194.758 37.4446 194.975 37.679 195.254 37.8409C195.532 38 195.857 38.0795 196.229 38.0795C196.471 38.0795 196.691 38.0455 196.89 37.9773C197.089 37.9062 197.261 37.8011 197.406 37.6619C197.55 37.5227 197.661 37.3509 197.738 37.1463L198.944 37.3636C198.847 37.7187 198.674 38.0298 198.424 38.2969C198.177 38.5611 197.866 38.767 197.491 38.9148C197.119 39.0597 196.694 39.1321 196.217 39.1321Z" fill="white"/>
<rect x="136.25" y="18.25" width="75.5" height="33.5" rx="7.75" stroke="#63696E" stroke-opacity="0.24" stroke-width="0.5"/>
<path d="M178.5 59C178.5 61.4853 176.485 63.5 174 63.5C171.515 63.5 169.5 61.4853 169.5 59C169.5 56.5147 171.515 54.5 174 54.5C176.485 54.5 178.5 56.5147 178.5 59Z" fill="#63696E"/>
<path d="M180.071 49.4853C180.962 49.4853 181.408 50.5624 180.778 51.1924L174.707 57.2635C174.317 57.654 173.683 57.654 173.293 57.2635L167.222 51.1924C166.592 50.5624 167.038 49.4853 167.929 49.4853L180.071 49.4853Z" fill="#D5CFCF"/>
</g>
<g filter="url(#filter2_dd_583_850)">
<rect x="260" width="81" height="52" rx="8" fill="#D5CFCF"/>
<path d="M278.015 21V12.2727H281.126C281.805 12.2727 282.368 12.3963 282.814 12.6435C283.26 12.8906 283.594 13.2287 283.815 13.6577C284.037 14.0838 284.148 14.5639 284.148 15.098C284.148 15.6349 284.035 16.1179 283.811 16.5469C283.589 16.973 283.254 17.3111 282.805 17.5611C282.359 17.8082 281.798 17.9318 281.122 17.9318H278.983V16.8153H281.003C281.432 16.8153 281.78 16.7415 282.047 16.5938C282.314 16.4432 282.51 16.2386 282.635 15.9801C282.76 15.7216 282.822 15.4276 282.822 15.098C282.822 14.7685 282.76 14.4759 282.635 14.2202C282.51 13.9645 282.312 13.7642 282.042 13.6193C281.775 13.4744 281.423 13.402 280.986 13.402H279.332V21H278.015ZM288.328 21.1321C287.683 21.1321 287.128 20.9943 286.662 20.7188C286.199 20.4403 285.841 20.0497 285.588 19.5469C285.338 19.0412 285.213 18.4489 285.213 17.7699C285.213 17.0994 285.338 16.5085 285.588 15.9972C285.841 15.4858 286.193 15.0866 286.645 14.7997C287.099 14.5128 287.631 14.3693 288.238 14.3693C288.608 14.3693 288.966 14.4304 289.312 14.5526C289.659 14.6747 289.97 14.8665 290.246 15.1278C290.521 15.3892 290.738 15.7287 290.898 16.1463C291.057 16.5611 291.136 17.0653 291.136 17.6591V18.1108H285.933V17.1562H289.888C289.888 16.821 289.819 16.5241 289.683 16.2656C289.547 16.0043 289.355 15.7983 289.108 15.6477C288.863 15.4972 288.577 15.4219 288.247 15.4219C287.889 15.4219 287.577 15.5099 287.309 15.6861C287.045 15.8594 286.841 16.0866 286.696 16.3679C286.554 16.6463 286.483 16.9489 286.483 17.2756V18.0213C286.483 18.4588 286.559 18.831 286.713 19.1378C286.869 19.4446 287.086 19.679 287.365 19.8409C287.643 20 287.969 20.0795 288.341 20.0795C288.582 20.0795 288.802 20.0455 289.001 19.9773C289.2 19.9062 289.372 19.8011 289.517 19.6619C289.662 19.5227 289.773 19.3509 289.849 19.1463L291.055 19.3636C290.959 19.7187 290.785 20.0298 290.535 20.2969C290.288 20.5611 289.977 20.767 289.602 20.9148C289.23 21.0597 288.805 21.1321 288.328 21.1321ZM293.824 17.1136V21H292.55V14.4545H293.773V15.5199H293.854C294.004 15.1733 294.24 14.8949 294.561 14.6847C294.885 14.4744 295.293 14.3693 295.784 14.3693C296.23 14.3693 296.621 14.4631 296.956 14.6506C297.291 14.8352 297.551 15.1108 297.736 15.4773C297.921 15.8437 298.013 16.2969 298.013 16.8366V21H296.739V16.9901C296.739 16.5156 296.615 16.1449 296.368 15.8778C296.121 15.608 295.781 15.473 295.35 15.473C295.054 15.473 294.791 15.5369 294.561 15.6648C294.334 15.7926 294.154 15.9801 294.02 16.2273C293.889 16.4716 293.824 16.767 293.824 17.1136ZM302.172 21.1278C301.644 21.1278 301.172 20.9929 300.757 20.723C300.345 20.4503 300.021 20.0625 299.786 19.5597C299.553 19.054 299.436 18.4474 299.436 17.7401C299.436 17.0327 299.554 16.4276 299.79 15.9247C300.029 15.4219 300.355 15.0369 300.77 14.7699C301.185 14.5028 301.655 14.3693 302.181 14.3693C302.587 14.3693 302.914 14.4375 303.161 14.5739C303.411 14.7074 303.604 14.8636 303.74 15.0426C303.879 15.2216 303.987 15.3793 304.064 15.5156H304.141V12.2727H305.415V21H304.171V19.9815H304.064C303.987 20.1207 303.877 20.2798 303.732 20.4588C303.59 20.6378 303.394 20.794 303.144 20.9276C302.894 21.0611 302.57 21.1278 302.172 21.1278ZM302.453 20.0412C302.82 20.0412 303.129 19.9446 303.382 19.7514C303.638 19.5554 303.831 19.2841 303.962 18.9375C304.095 18.5909 304.162 18.1875 304.162 17.7273C304.162 17.2727 304.097 16.875 303.966 16.5341C303.835 16.1932 303.644 15.9276 303.391 15.7372C303.138 15.5469 302.825 15.4517 302.453 15.4517C302.07 15.4517 301.75 15.5511 301.494 15.75C301.239 15.9489 301.046 16.2202 300.915 16.5639C300.787 16.9077 300.723 17.2955 300.723 17.7273C300.723 18.1648 300.789 18.5582 300.919 18.9077C301.05 19.2571 301.243 19.5341 301.499 19.7386C301.757 19.9403 302.075 20.0412 302.453 20.0412ZM307.233 21V14.4545H308.508V21H307.233ZM307.877 13.4446C307.655 13.4446 307.465 13.3707 307.306 13.223C307.15 13.0724 307.072 12.8935 307.072 12.6861C307.072 12.4759 307.15 12.2969 307.306 12.1491C307.465 11.9986 307.655 11.9233 307.877 11.9233C308.099 11.9233 308.287 11.9986 308.444 12.1491C308.603 12.2969 308.682 12.4759 308.682 12.6861C308.682 12.8935 308.603 13.0724 308.444 13.223C308.287 13.3707 308.099 13.4446 307.877 13.4446ZM311.496 17.1136V21H310.222V14.4545H311.445V15.5199H311.526C311.676 15.1733 311.912 14.8949 312.233 14.6847C312.557 14.4744 312.965 14.3693 313.456 14.3693C313.902 14.3693 314.293 14.4631 314.628 14.6506C314.963 14.8352 315.223 15.1108 315.408 15.4773C315.593 15.8437 315.685 16.2969 315.685 16.8366V21H314.411V16.9901C314.411 16.5156 314.287 16.1449 314.04 15.8778C313.793 15.608 313.453 15.473 313.021 15.473C312.726 15.473 312.463 15.5369 312.233 15.6648C312.006 15.7926 311.825 15.9801 311.692 16.2273C311.561 16.4716 311.496 16.767 311.496 17.1136ZM320.138 23.5909C319.618 23.5909 319.171 23.5227 318.796 23.3864C318.423 23.25 318.119 23.0696 317.884 22.8452C317.648 22.6207 317.472 22.375 317.355 22.108L318.45 21.6562C318.527 21.7812 318.629 21.9134 318.757 22.0526C318.888 22.1946 319.064 22.3153 319.286 22.4148C319.51 22.5142 319.798 22.5639 320.151 22.5639C320.634 22.5639 321.033 22.446 321.348 22.2102C321.664 21.9773 321.821 21.6051 321.821 21.0938V19.8068H321.74C321.664 19.946 321.553 20.1009 321.408 20.2713C321.266 20.4418 321.07 20.5895 320.82 20.7145C320.57 20.8395 320.244 20.902 319.844 20.902C319.327 20.902 318.861 20.7812 318.446 20.5398C318.034 20.2955 317.708 19.9361 317.466 19.4616C317.227 18.9844 317.108 18.3977 317.108 17.7017C317.108 17.0057 317.226 16.4091 317.462 15.9119C317.7 15.4148 318.027 15.0341 318.442 14.7699C318.857 14.5028 319.327 14.3693 319.852 14.3693C320.259 14.3693 320.587 14.4375 320.837 14.5739C321.087 14.7074 321.281 14.8636 321.421 15.0426C321.563 15.2216 321.672 15.3793 321.749 15.5156H321.843V14.4545H323.091V21.1449C323.091 21.7074 322.96 22.169 322.699 22.5298C322.438 22.8906 322.084 23.1577 321.638 23.331C321.195 23.5043 320.695 23.5909 320.138 23.5909ZM320.125 19.8452C320.492 19.8452 320.801 19.7599 321.054 19.5895C321.31 19.4162 321.503 19.169 321.634 18.848C321.767 18.5241 321.834 18.1364 321.834 17.6847C321.834 17.2443 321.769 16.8565 321.638 16.5213C321.507 16.1861 321.316 15.9247 321.063 15.7372C320.81 15.5469 320.497 15.4517 320.125 15.4517C319.742 15.4517 319.422 15.5511 319.166 15.75C318.911 15.946 318.718 16.2131 318.587 16.5511C318.459 16.8892 318.395 17.267 318.395 17.6847C318.395 18.1136 318.46 18.4901 318.591 18.8139C318.722 19.1378 318.915 19.3906 319.171 19.5724C319.429 19.7543 319.747 19.8452 320.125 19.8452ZM276.297 36.1705H277.592L278.504 37.3594L278.934 37.8878L280.387 39.7841H279.041L278.069 38.5185L277.737 38.0582L276.297 36.1705ZM280.669 34.6364C280.669 35.5682 280.498 36.3693 280.157 37.0398C279.816 37.7074 279.349 38.2216 278.755 38.5824C278.164 38.9403 277.493 39.1193 276.74 39.1193C275.984 39.1193 275.309 38.9403 274.716 38.5824C274.125 38.2216 273.659 37.706 273.318 37.0355C272.977 36.3651 272.806 35.5653 272.806 34.6364C272.806 33.7045 272.977 32.9048 273.318 32.2372C273.659 31.5668 274.125 31.0526 274.716 30.6946C275.309 30.3338 275.984 30.1534 276.74 30.1534C277.493 30.1534 278.164 30.3338 278.755 30.6946C279.349 31.0526 279.816 31.5668 280.157 32.2372C280.498 32.9048 280.669 33.7045 280.669 34.6364ZM279.365 34.6364C279.365 33.9261 279.25 33.3281 279.02 32.8423C278.792 32.3537 278.48 31.9844 278.082 31.7344C277.687 31.4815 277.24 31.3551 276.74 31.3551C276.237 31.3551 275.788 31.4815 275.393 31.7344C274.998 31.9844 274.686 32.3537 274.456 32.8423C274.228 33.3281 274.115 33.9261 274.115 34.6364C274.115 35.3466 274.228 35.946 274.456 36.4347C274.686 36.9205 274.998 37.2898 275.393 37.5426C275.788 37.7926 276.237 37.9176 276.74 37.9176C277.24 37.9176 277.687 37.7926 278.082 37.5426C278.48 37.2898 278.792 36.9205 279.02 36.4347C279.25 35.946 279.365 35.3466 279.365 34.6364ZM286.354 36.2855V32.4545H287.633V39H286.38V37.8665H286.312C286.161 38.2159 285.92 38.5071 285.587 38.7401C285.258 38.9702 284.847 39.0852 284.356 39.0852C283.935 39.0852 283.563 38.9929 283.239 38.8082C282.918 38.6207 282.665 38.3438 282.481 37.9773C282.299 37.6108 282.208 37.1577 282.208 36.6179V32.4545H283.482V36.4645C283.482 36.9105 283.606 37.2656 283.853 37.5298C284.1 37.794 284.421 37.9261 284.816 37.9261C285.055 37.9261 285.292 37.8665 285.528 37.7472C285.766 37.6278 285.964 37.4474 286.12 37.206C286.279 36.9645 286.357 36.6577 286.354 36.2855ZM292.102 39.1321C291.488 39.1321 290.953 38.9915 290.495 38.7102C290.038 38.429 289.683 38.0355 289.43 37.5298C289.177 37.0241 289.051 36.4332 289.051 35.7571C289.051 35.0781 289.177 34.4844 289.43 33.9759C289.683 33.4673 290.038 33.0724 290.495 32.7912C290.953 32.5099 291.488 32.3693 292.102 32.3693C292.716 32.3693 293.251 32.5099 293.708 32.7912C294.166 33.0724 294.521 33.4673 294.774 33.9759C295.027 34.4844 295.153 35.0781 295.153 35.7571C295.153 36.4332 295.027 37.0241 294.774 37.5298C294.521 38.0355 294.166 38.429 293.708 38.7102C293.251 38.9915 292.716 39.1321 292.102 39.1321ZM292.106 38.0625C292.504 38.0625 292.833 37.9574 293.095 37.7472C293.356 37.5369 293.549 37.2571 293.674 36.9077C293.802 36.5582 293.866 36.1733 293.866 35.7528C293.866 35.3352 293.802 34.9517 293.674 34.6023C293.549 34.25 293.356 33.9673 293.095 33.7543C292.833 33.5412 292.504 33.4347 292.106 33.4347C291.706 33.4347 291.373 33.5412 291.109 33.7543C290.848 33.9673 290.653 34.25 290.525 34.6023C290.4 34.9517 290.338 35.3352 290.338 35.7528C290.338 36.1733 290.4 36.5582 290.525 36.9077C290.653 37.2571 290.848 37.5369 291.109 37.7472C291.373 37.9574 291.706 38.0625 292.106 38.0625ZM299.631 32.4545V33.4773H296.055V32.4545H299.631ZM297.014 30.8864H298.288V37.0781C298.288 37.3253 298.325 37.5114 298.399 37.6364C298.473 37.7585 298.568 37.8423 298.685 37.8878C298.804 37.9304 298.933 37.9517 299.072 37.9517C299.175 37.9517 299.264 37.9446 299.341 37.9304C299.418 37.9162 299.477 37.9048 299.52 37.8963L299.75 38.9489C299.676 38.9773 299.571 39.0057 299.435 39.0341C299.298 39.0653 299.128 39.0824 298.923 39.0852C298.588 39.0909 298.276 39.0312 297.986 38.9062C297.696 38.7812 297.462 38.5881 297.283 38.3267C297.104 38.0653 297.014 37.7372 297.014 37.3423V30.8864ZM302.945 39.1449C302.53 39.1449 302.155 39.0682 301.82 38.9148C301.485 38.7585 301.219 38.5327 301.023 38.2372C300.83 37.9418 300.733 37.5795 300.733 37.1506C300.733 36.7812 300.804 36.4773 300.946 36.2386C301.088 36 301.28 35.8111 301.522 35.6719C301.763 35.5327 302.033 35.4276 302.331 35.3565C302.63 35.2855 302.934 35.2315 303.243 35.1946C303.635 35.1491 303.953 35.1122 304.198 35.0838C304.442 35.0526 304.62 35.0028 304.73 34.9347C304.841 34.8665 304.897 34.7557 304.897 34.6023V34.5724C304.897 34.2003 304.792 33.9119 304.581 33.7074C304.374 33.5028 304.064 33.4006 303.652 33.4006C303.223 33.4006 302.885 33.4957 302.638 33.6861C302.394 33.8736 302.225 34.0824 302.131 34.3125L300.934 34.0398C301.076 33.642 301.283 33.321 301.556 33.0767C301.831 32.8295 302.148 32.6506 302.506 32.5398C302.864 32.4261 303.24 32.3693 303.635 32.3693C303.897 32.3693 304.174 32.4006 304.466 32.4631C304.762 32.5227 305.037 32.6335 305.293 32.7955C305.551 32.9574 305.763 33.1889 305.928 33.4901C306.093 33.7884 306.175 34.1761 306.175 34.6534V39H304.931V38.1051H304.88C304.797 38.2699 304.674 38.4318 304.509 38.5909C304.344 38.75 304.132 38.8821 303.874 38.9872C303.615 39.0923 303.306 39.1449 302.945 39.1449ZM303.222 38.1222C303.574 38.1222 303.875 38.0526 304.125 37.9134C304.378 37.7741 304.57 37.5923 304.701 37.3679C304.834 37.1406 304.901 36.8977 304.901 36.6392V35.7955C304.855 35.8409 304.767 35.8835 304.637 35.9233C304.509 35.9602 304.363 35.9929 304.198 36.0213C304.033 36.0469 303.873 36.071 303.716 36.0938C303.56 36.1136 303.429 36.1307 303.324 36.1449C303.077 36.1761 302.851 36.2287 302.647 36.3026C302.445 36.3764 302.283 36.483 302.161 36.6222C302.042 36.7585 301.982 36.9403 301.982 37.1676C301.982 37.483 302.098 37.7216 302.331 37.8835C302.564 38.0426 302.861 38.1222 303.222 38.1222ZM310.928 32.4545V33.4773H307.352V32.4545H310.928ZM308.311 30.8864H309.585V37.0781C309.585 37.3253 309.622 37.5114 309.696 37.6364C309.77 37.7585 309.865 37.8423 309.982 37.8878C310.101 37.9304 310.23 37.9517 310.369 37.9517C310.472 37.9517 310.561 37.9446 310.638 37.9304C310.714 37.9162 310.774 37.9048 310.817 37.8963L311.047 38.9489C310.973 38.9773 310.868 39.0057 310.732 39.0341C310.595 39.0653 310.425 39.0824 310.22 39.0852C309.885 39.0909 309.572 39.0312 309.283 38.9062C308.993 38.7812 308.759 38.5881 308.58 38.3267C308.401 38.0653 308.311 37.7372 308.311 37.3423V30.8864ZM312.337 39V32.4545H313.611V39H312.337ZM312.98 31.4446C312.759 31.4446 312.569 31.3707 312.409 31.223C312.253 31.0724 312.175 30.8935 312.175 30.6861C312.175 30.4759 312.253 30.2969 312.409 30.1491C312.569 29.9986 312.759 29.9233 312.98 29.9233C313.202 29.9233 313.391 29.9986 313.547 30.1491C313.706 30.2969 313.786 30.4759 313.786 30.6861C313.786 30.8935 313.706 31.0724 313.547 31.223C313.391 31.3707 313.202 31.4446 312.98 31.4446ZM318.082 39.1321C317.469 39.1321 316.933 38.9915 316.476 38.7102C316.018 38.429 315.663 38.0355 315.411 37.5298C315.158 37.0241 315.031 36.4332 315.031 35.7571C315.031 35.0781 315.158 34.4844 315.411 33.9759C315.663 33.4673 316.018 33.0724 316.476 32.7912C316.933 32.5099 317.469 32.3693 318.082 32.3693C318.696 32.3693 319.232 32.5099 319.689 32.7912C320.146 33.0724 320.501 33.4673 320.754 33.9759C321.007 34.4844 321.134 35.0781 321.134 35.7571C321.134 36.4332 321.007 37.0241 320.754 37.5298C320.501 38.0355 320.146 38.429 319.689 38.7102C319.232 38.9915 318.696 39.1321 318.082 39.1321ZM318.087 38.0625C318.484 38.0625 318.814 37.9574 319.075 37.7472C319.337 37.5369 319.53 37.2571 319.655 36.9077C319.783 36.5582 319.847 36.1733 319.847 35.7528C319.847 35.3352 319.783 34.9517 319.655 34.6023C319.53 34.25 319.337 33.9673 319.075 33.7543C318.814 33.5412 318.484 33.4347 318.087 33.4347C317.686 33.4347 317.354 33.5412 317.089 33.7543C316.828 33.9673 316.634 34.25 316.506 34.6023C316.381 34.9517 316.318 35.3352 316.318 35.7528C316.318 36.1733 316.381 36.5582 316.506 36.9077C316.634 37.2571 316.828 37.5369 317.089 37.7472C317.354 37.9574 317.686 38.0625 318.087 38.0625ZM323.83 35.1136V39H322.556V32.4545H323.779V33.5199H323.86C324.01 33.1733 324.246 32.8949 324.567 32.6847C324.891 32.4744 325.299 32.3693 325.79 32.3693C326.236 32.3693 326.627 32.4631 326.962 32.6506C327.297 32.8352 327.557 33.1108 327.742 33.4773C327.926 33.8437 328.019 34.2969 328.019 34.8366V39H326.745V34.9901C326.745 34.5156 326.621 34.1449 326.374 33.8778C326.127 33.608 325.787 33.473 325.355 33.473C325.06 33.473 324.797 33.5369 324.567 33.6648C324.34 33.7926 324.159 33.9801 324.026 34.2273C323.895 34.4716 323.83 34.767 323.83 35.1136Z" fill="white"/>
<rect x="260.25" y="0.25" width="80.5" height="51.5" rx="7.75" stroke="#63696E" stroke-opacity="0.24" stroke-width="0.5"/>
<path d="M305 59C305 61.4853 302.985 63.5 300.5 63.5C298.015 63.5 296 61.4853 296 59C296 56.5147 298.015 54.5 300.5 54.5C302.985 54.5 305 56.5147 305 59Z" fill="#63696E"/>
<path d="M306.571 49.4853C307.462 49.4853 307.908 50.5624 307.278 51.1924L301.207 57.2635C300.817 57.654 300.183 57.654 299.793 57.2635L293.722 51.1924C293.092 50.5624 293.538 49.4853 294.429 49.4853L306.571 49.4853Z" fill="#D5CFCF"/>
</g>
<defs>
<filter id="filter0_dd_583_850" x="0" y="18" width="94" height="69.5" filterUnits="userSpaceOnUse" color-interpolation-filters="sRGB">
<feFlood flood-opacity="0" result="BackgroundImageFix"/>
<feColorMatrix in="SourceAlpha" type="matrix" values="0 0 0 0 0 0 0 0 0 0 0 0 0 0 0 0 0 0 127 0" result="hardAlpha"/>
<feMorphology radius="2" operator="erode" in="SourceAlpha" result="effect1_dropShadow_583_850"/>
<feOffset dy="4"/>
<feGaussianBlur stdDeviation="3"/>
<feColorMatrix type="matrix" values="0 0 0 0 0.0627451 0 0 0 0 0.0941176 0 0 0 0 0.156863 0 0 0 0.03 0"/>
<feBlend mode="normal" in2="BackgroundImageFix" result="effect1_dropShadow_583_850"/>
<feColorMatrix in="SourceAlpha" type="matrix" values="0 0 0 0 0 0 0 0 0 0 0 0 0 0 0 0 0 0 127 0" result="hardAlpha"/>
<feMorphology radius="4" operator="erode" in="SourceAlpha" result="effect2_dropShadow_583_850"/>
<feOffset dy="12"/>
<feGaussianBlur stdDeviation="8"/>
<feColorMatrix type="matrix" values="0 0 0 0 0.0627451 0 0 0 0 0.0941176 0 0 0 0 0.156863 0 0 0 0.08 0"/>
<feBlend mode="normal" in2="effect1_dropShadow_583_850" result="effect2_dropShadow_583_850"/>
<feBlend mode="normal" in="SourceGraphic" in2="effect2_dropShadow_583_850" result="shape"/>
</filter>
<filter id="filter1_dd_583_850" x="124" y="18" width="100" height="69.5" filterUnits="userSpaceOnUse" color-interpolation-filters="sRGB">
<feFlood flood-opacity="0" result="BackgroundImageFix"/>
<feColorMatrix in="SourceAlpha" type="matrix" values="0 0 0 0 0 0 0 0 0 0 0 0 0 0 0 0 0 0 127 0" result="hardAlpha"/>
<feMorphology radius="2" operator="erode" in="SourceAlpha" result="effect1_dropShadow_583_850"/>
<feOffset dy="4"/>
<feGaussianBlur stdDeviation="3"/>
<feColorMatrix type="matrix" values="0 0 0 0 0.0627451 0 0 0 0 0.0941176 0 0 0 0 0.156863 0 0 0 0.03 0"/>
<feBlend mode="normal" in2="BackgroundImageFix" result="effect1_dropShadow_583_850"/>
<feColorMatrix in="SourceAlpha" type="matrix" values="0 0 0 0 0 0 0 0 0 0 0 0 0 0 0 0 0 0 127 0" result="hardAlpha"/>
<feMorphology radius="4" operator="erode" in="SourceAlpha" result="effect2_dropShadow_583_850"/>
<feOffset dy="12"/>
<feGaussianBlur stdDeviation="8"/>
<feColorMatrix type="matrix" values="0 0 0 0 0.0627451 0 0 0 0 0.0941176 0 0 0 0 0.156863 0 0 0 0.08 0"/>
<feBlend mode="normal" in2="effect1_dropShadow_583_850" result="effect2_dropShadow_583_850"/>
<feBlend mode="normal" in="SourceGraphic" in2="effect2_dropShadow_583_850" result="shape"/>
</filter>
<filter id="filter2_dd_583_850" x="248" y="0" width="105" height="87.5" filterUnits="userSpaceOnUse" color-interpolation-filters="sRGB">
<feFlood flood-opacity="0" result="BackgroundImageFix"/>
<feColorMatrix in="SourceAlpha" type="matrix" values="0 0 0 0 0 0 0 0 0 0 0 0 0 0 0 0 0 0 127 0" result="hardAlpha"/>
<feMorphology radius="2" operator="erode" in="SourceAlpha" result="effect1_dropShadow_583_850"/>
<feOffset dy="4"/>
<feGaussianBlur stdDeviation="3"/>
<feColorMatrix type="matrix" values="0 0 0 0 0.0627451 0 0 0 0 0.0941176 0 0 0 0 0.156863 0 0 0 0.03 0"/>
<feBlend mode="normal" in2="BackgroundImageFix" result="effect1_dropShadow_583_850"/>
<feColorMatrix in="SourceAlpha" type="matrix" values="0 0 0 0 0 0 0 0 0 0 0 0 0 0 0 0 0 0 127 0" result="hardAlpha"/>
<feMorphology radius="4" operator="erode" in="SourceAlpha" result="effect2_dropShadow_583_850"/>
<feOffset dy="12"/>
<feGaussianBlur stdDeviation="8"/>
<feColorMatrix type="matrix" values="0 0 0 0 0.0627451 0 0 0 0 0.0941176 0 0 0 0 0.156863 0 0 0 0.08 0"/>
<feBlend mode="normal" in2="effect1_dropShadow_583_850" result="effect2_dropShadow_583_850"/>
<feBlend mode="normal" in="SourceGraphic" in2="effect2_dropShadow_583_850" result="shape"/>
</filter>
</defs>
</svg>
