<svg width="275" height="70" viewBox="0 0 275 70" fill="none" xmlns="http://www.w3.org/2000/svg">
<path d="M160 40H275" stroke="white" stroke-width="3.5"/>
<path d="M150.667 40.037C150.677 45.1916 154.864 49.3619 160.019 49.3515C165.174 49.3411 169.344 45.154 169.333 39.9993C169.323 34.8447 165.136 30.6744 159.981 30.6848C154.827 30.6952 150.656 34.8823 150.667 40.037ZM45.0035 42L160.004 41.7681L159.997 38.2681L44.9965 38.5L45.0035 42Z" fill="#D9D9D9"/>
<g filter="url(#filter0_dd_205_386)">
<rect x="12" width="65" height="34" rx="8" fill="#D5CFCF"/>
<path d="M32.6918 15.1108H31.3622C31.3111 14.8267 31.2159 14.5767 31.0767 14.3608C30.9375 14.1449 30.767 13.9616 30.5653 13.8111C30.3636 13.6605 30.1378 13.5469 29.8878 13.4702C29.6406 13.3935 29.3778 13.3551 29.0994 13.3551C28.5966 13.3551 28.1463 13.4815 27.7486 13.7344C27.3537 13.9872 27.0412 14.358 26.8111 14.8466C26.5838 15.3352 26.4702 15.9318 26.4702 16.6364C26.4702 17.3466 26.5838 17.946 26.8111 18.4347C27.0412 18.9233 27.3551 19.2926 27.7528 19.5426C28.1506 19.7926 28.598 19.9176 29.0952 19.9176C29.3707 19.9176 29.6321 19.8807 29.8793 19.8068C30.1293 19.7301 30.3551 19.6179 30.5568 19.4702C30.7585 19.3224 30.929 19.142 31.0682 18.929C31.2102 18.7131 31.3082 18.4659 31.3622 18.1875L32.6918 18.1918C32.6207 18.6207 32.483 19.0156 32.2784 19.3764C32.0767 19.7344 31.8168 20.044 31.4986 20.3054C31.1832 20.5639 30.8224 20.7642 30.4162 20.9062C30.0099 21.0483 29.5668 21.1193 29.0866 21.1193C28.331 21.1193 27.6577 20.9403 27.0668 20.5824C26.4759 20.2216 26.0099 19.706 25.669 19.0355C25.331 18.3651 25.1619 17.5653 25.1619 16.6364C25.1619 15.7045 25.3324 14.9048 25.6733 14.2372C26.0142 13.5668 26.4801 13.0526 27.071 12.6946C27.6619 12.3338 28.3338 12.1534 29.0866 12.1534C29.5497 12.1534 29.9815 12.2202 30.3821 12.3537C30.7855 12.4844 31.1477 12.6776 31.4688 12.9332C31.7898 13.1861 32.0554 13.4957 32.2656 13.8622C32.4759 14.2259 32.6179 14.642 32.6918 15.1108ZM35.4393 12.2727V21H34.1651V12.2727H35.4393ZM39.9105 21.1321C39.2969 21.1321 38.7614 20.9915 38.304 20.7102C37.8466 20.429 37.4915 20.0355 37.2386 19.5298C36.9858 19.0241 36.8594 18.4332 36.8594 17.7571C36.8594 17.0781 36.9858 16.4844 37.2386 15.9759C37.4915 15.4673 37.8466 15.0724 38.304 14.7912C38.7614 14.5099 39.2969 14.3693 39.9105 14.3693C40.5241 14.3693 41.0597 14.5099 41.517 14.7912C41.9744 15.0724 42.3295 15.4673 42.5824 15.9759C42.8352 16.4844 42.9616 17.0781 42.9616 17.7571C42.9616 18.4332 42.8352 19.0241 42.5824 19.5298C42.3295 20.0355 41.9744 20.429 41.517 20.7102C41.0597 20.9915 40.5241 21.1321 39.9105 21.1321ZM39.9148 20.0625C40.3125 20.0625 40.642 19.9574 40.9034 19.7472C41.1648 19.5369 41.358 19.2571 41.483 18.9077C41.6108 18.5582 41.6747 18.1733 41.6747 17.7528C41.6747 17.3352 41.6108 16.9517 41.483 16.6023C41.358 16.25 41.1648 15.9673 40.9034 15.7543C40.642 15.5412 40.3125 15.4347 39.9148 15.4347C39.5142 15.4347 39.1818 15.5412 38.9176 15.7543C38.6563 15.9673 38.4616 16.25 38.3338 16.6023C38.2088 16.9517 38.1463 17.3352 38.1463 17.7528C38.1463 18.1733 38.2088 18.5582 38.3338 18.9077C38.4616 19.2571 38.6563 19.5369 38.9176 19.7472C39.1818 19.9574 39.5142 20.0625 39.9148 20.0625ZM49.2887 16.0526L48.1339 16.2571C48.0856 16.1094 48.0089 15.9687 47.9038 15.8352C47.8015 15.7017 47.6623 15.5923 47.4862 15.5071C47.31 15.4219 47.0898 15.3793 46.8256 15.3793C46.4648 15.3793 46.1637 15.4602 45.9222 15.6222C45.6808 15.7812 45.56 15.9872 45.56 16.2401C45.56 16.4588 45.641 16.6349 45.8029 16.7685C45.9648 16.902 46.2262 17.0114 46.587 17.0966L47.6268 17.3352C48.229 17.4744 48.6779 17.6889 48.9734 17.9787C49.2688 18.2685 49.4165 18.6449 49.4165 19.108C49.4165 19.5 49.3029 19.8494 49.0756 20.1562C48.8512 20.4602 48.5373 20.6989 48.1339 20.8722C47.7333 21.0455 47.2688 21.1321 46.7404 21.1321C46.0075 21.1321 45.4094 20.9759 44.9464 20.6634C44.4833 20.348 44.1992 19.9006 44.0941 19.321L45.3256 19.1335C45.4023 19.4545 45.56 19.6974 45.7987 19.8622C46.0373 20.0241 46.3484 20.1051 46.7319 20.1051C47.1495 20.1051 47.4833 20.0185 47.7333 19.8452C47.9833 19.669 48.1083 19.4545 48.1083 19.2017C48.1083 18.9972 48.0316 18.8253 47.8782 18.6861C47.7276 18.5469 47.4961 18.4418 47.1836 18.3707L46.0756 18.1278C45.4648 17.9886 45.0131 17.767 44.7205 17.4631C44.4308 17.1591 44.2859 16.7741 44.2859 16.3082C44.2859 15.9219 44.3938 15.5838 44.6097 15.294C44.8256 15.0043 45.1239 14.7784 45.5046 14.6165C45.8853 14.4517 46.3214 14.3693 46.8129 14.3693C47.5202 14.3693 48.0771 14.5227 48.4833 14.8295C48.8896 15.1335 49.158 15.5412 49.2887 16.0526ZM53.6385 21.1321C52.9936 21.1321 52.4382 20.9943 51.9723 20.7188C51.5092 20.4403 51.1513 20.0497 50.8984 19.5469C50.6484 19.0412 50.5234 18.4489 50.5234 17.7699C50.5234 17.0994 50.6484 16.5085 50.8984 15.9972C51.1513 15.4858 51.5036 15.0866 51.9553 14.7997C52.4098 14.5128 52.9411 14.3693 53.549 14.3693C53.9183 14.3693 54.2763 14.4304 54.6229 14.5526C54.9695 14.6747 55.2805 14.8665 55.5561 15.1278C55.8317 15.3892 56.049 15.7287 56.2081 16.1463C56.3672 16.5611 56.4467 17.0653 56.4467 17.6591V18.1108H51.2436V17.1562H55.1982C55.1982 16.821 55.13 16.5241 54.9936 16.2656C54.8572 16.0043 54.6655 15.7983 54.4183 15.6477C54.174 15.4972 53.8871 15.4219 53.5575 15.4219C53.1996 15.4219 52.8871 15.5099 52.62 15.6861C52.3558 15.8594 52.1513 16.0866 52.0064 16.3679C51.8643 16.6463 51.7933 16.9489 51.7933 17.2756V18.0213C51.7933 18.4588 51.87 18.831 52.0234 19.1378C52.1797 19.4446 52.397 19.679 52.6754 19.8409C52.9538 20 53.2791 20.0795 53.6513 20.0795C53.8928 20.0795 54.1129 20.0455 54.3118 19.9773C54.5107 19.9062 54.6825 19.8011 54.8274 19.6619C54.9723 19.5227 55.0831 19.3509 55.1598 19.1463L56.3658 19.3636C56.2692 19.7187 56.0959 20.0298 55.8459 20.2969C55.5987 20.5611 55.2876 20.767 54.9126 20.9148C54.5405 21.0597 54.1158 21.1321 53.6385 21.1321ZM60.3107 21.1278C59.7823 21.1278 59.3107 20.9929 58.896 20.723C58.484 20.4503 58.1602 20.0625 57.9244 19.5597C57.6914 19.054 57.5749 18.4474 57.5749 17.7401C57.5749 17.0327 57.6928 16.4276 57.9286 15.9247C58.1673 15.4219 58.494 15.0369 58.9087 14.7699C59.3235 14.5028 59.7937 14.3693 60.3192 14.3693C60.7255 14.3693 61.0522 14.4375 61.2994 14.5739C61.5494 14.7074 61.7425 14.8636 61.8789 15.0426C62.0181 15.2216 62.1261 15.3793 62.2028 15.5156H62.2795V12.2727H63.5536V21H62.3093V19.9815H62.2028C62.1261 20.1207 62.0153 20.2798 61.8704 20.4588C61.7283 20.6378 61.5323 20.794 61.2823 20.9276C61.0323 21.0611 60.7085 21.1278 60.3107 21.1278ZM60.592 20.0412C60.9585 20.0412 61.2681 19.9446 61.521 19.7514C61.7766 19.5554 61.9698 19.2841 62.1005 18.9375C62.234 18.5909 62.3008 18.1875 62.3008 17.7273C62.3008 17.2727 62.2354 16.875 62.1048 16.5341C61.9741 16.1932 61.7823 15.9276 61.5295 15.7372C61.2766 15.5469 60.9641 15.4517 60.592 15.4517C60.2085 15.4517 59.8888 15.5511 59.6332 15.75C59.3775 15.9489 59.1843 16.2202 59.0536 16.5639C58.9258 16.9077 58.8619 17.2955 58.8619 17.7273C58.8619 18.1648 58.9272 18.5582 59.0579 18.9077C59.1886 19.2571 59.3817 19.5341 59.6374 19.7386C59.896 19.9403 60.2141 20.0412 60.592 20.0412Z" fill="white"/>
<rect x="12.25" y="0.25" width="64.5" height="33.5" rx="7.75" stroke="#63696E" stroke-opacity="0.24" stroke-width="0.5"/>
<path d="M49 41C49 43.4853 46.9853 45.5 44.5 45.5C42.0147 45.5 40 43.4853 40 41C40 38.5147 42.0147 36.5 44.5 36.5C46.9853 36.5 49 38.5147 49 41Z" fill="#63696E"/>
<path d="M50.5711 31.4853C51.462 31.4853 51.9081 32.5624 51.2782 33.1924L45.2071 39.2635C44.8166 39.654 44.1834 39.654 43.7929 39.2635L37.7218 33.1924C37.0919 32.5624 37.538 31.4853 38.4289 31.4853L50.5711 31.4853Z" fill="#D5CFCF"/>
</g>
<defs>
<filter id="filter0_dd_205_386" x="0" y="0" width="89" height="69.5" filterUnits="userSpaceOnUse" color-interpolation-filters="sRGB">
<feFlood flood-opacity="0" result="BackgroundImageFix"/>
<feColorMatrix in="SourceAlpha" type="matrix" values="0 0 0 0 0 0 0 0 0 0 0 0 0 0 0 0 0 0 127 0" result="hardAlpha"/>
<feMorphology radius="2" operator="erode" in="SourceAlpha" result="effect1_dropShadow_205_386"/>
<feOffset dy="4"/>
<feGaussianBlur stdDeviation="3"/>
<feColorMatrix type="matrix" values="0 0 0 0 0.0627451 0 0 0 0 0.0941176 0 0 0 0 0.156863 0 0 0 0.03 0"/>
<feBlend mode="normal" in2="BackgroundImageFix" result="effect1_dropShadow_205_386"/>
<feColorMatrix in="SourceAlpha" type="matrix" values="0 0 0 0 0 0 0 0 0 0 0 0 0 0 0 0 0 0 127 0" result="hardAlpha"/>
<feMorphology radius="4" operator="erode" in="SourceAlpha" result="effect2_dropShadow_205_386"/>
<feOffset dy="12"/>
<feGaussianBlur stdDeviation="8"/>
<feColorMatrix type="matrix" values="0 0 0 0 0.0627451 0 0 0 0 0.0941176 0 0 0 0 0.156863 0 0 0 0.08 0"/>
<feBlend mode="normal" in2="effect1_dropShadow_205_386" result="effect2_dropShadow_205_386"/>
<feBlend mode="normal" in="SourceGraphic" in2="effect2_dropShadow_205_386" result="shape"/>
</filter>
</defs>
</svg>
