<svg width="219" height="70" viewBox="0 0 219 70" fill="none" xmlns="http://www.w3.org/2000/svg">
<g filter="url(#filter0_dd_205_400)">
<rect x="77" width="65" height="34" rx="8" fill="#D5CFCF"/>
<path d="M97.6918 15.1108H96.3622C96.3111 14.8267 96.2159 14.5767 96.0767 14.3608C95.9375 14.1449 95.767 13.9616 95.5653 13.8111C95.3636 13.6605 95.1378 13.5469 94.8878 13.4702C94.6406 13.3935 94.3778 13.3551 94.0994 13.3551C93.5966 13.3551 93.1463 13.4815 92.7486 13.7344C92.3537 13.9872 92.0412 14.358 91.8111 14.8466C91.5838 15.3352 91.4702 15.9318 91.4702 16.6364C91.4702 17.3466 91.5838 17.946 91.8111 18.4347C92.0412 18.9233 92.3551 19.2926 92.7528 19.5426C93.1506 19.7926 93.598 19.9176 94.0952 19.9176C94.3707 19.9176 94.6321 19.8807 94.8793 19.8068C95.1293 19.7301 95.3551 19.6179 95.5568 19.4702C95.7585 19.3224 95.929 19.142 96.0682 18.929C96.2102 18.7131 96.3082 18.4659 96.3622 18.1875L97.6918 18.1918C97.6207 18.6207 97.483 19.0156 97.2784 19.3764C97.0767 19.7344 96.8168 20.044 96.4986 20.3054C96.1832 20.5639 95.8224 20.7642 95.4162 20.9062C95.0099 21.0483 94.5668 21.1193 94.0866 21.1193C93.331 21.1193 92.6577 20.9403 92.0668 20.5824C91.4759 20.2216 91.0099 19.706 90.669 19.0355C90.331 18.3651 90.1619 17.5653 90.1619 16.6364C90.1619 15.7045 90.3324 14.9048 90.6733 14.2372C91.0142 13.5668 91.4801 13.0526 92.071 12.6946C92.6619 12.3338 93.3338 12.1534 94.0866 12.1534C94.5497 12.1534 94.9815 12.2202 95.3821 12.3537C95.7855 12.4844 96.1477 12.6776 96.4688 12.9332C96.7898 13.1861 97.0554 13.4957 97.2656 13.8622C97.4759 14.2259 97.6179 14.642 97.6918 15.1108ZM100.439 12.2727V21H99.1651V12.2727H100.439ZM104.911 21.1321C104.297 21.1321 103.761 20.9915 103.304 20.7102C102.847 20.429 102.491 20.0355 102.239 19.5298C101.986 19.0241 101.859 18.4332 101.859 17.7571C101.859 17.0781 101.986 16.4844 102.239 15.9759C102.491 15.4673 102.847 15.0724 103.304 14.7912C103.761 14.5099 104.297 14.3693 104.911 14.3693C105.524 14.3693 106.06 14.5099 106.517 14.7912C106.974 15.0724 107.33 15.4673 107.582 15.9759C107.835 16.4844 107.962 17.0781 107.962 17.7571C107.962 18.4332 107.835 19.0241 107.582 19.5298C107.33 20.0355 106.974 20.429 106.517 20.7102C106.06 20.9915 105.524 21.1321 104.911 21.1321ZM104.915 20.0625C105.313 20.0625 105.642 19.9574 105.903 19.7472C106.165 19.5369 106.358 19.2571 106.483 18.9077C106.611 18.5582 106.675 18.1733 106.675 17.7528C106.675 17.3352 106.611 16.9517 106.483 16.6023C106.358 16.25 106.165 15.9673 105.903 15.7543C105.642 15.5412 105.313 15.4347 104.915 15.4347C104.514 15.4347 104.182 15.5412 103.918 15.7543C103.656 15.9673 103.462 16.25 103.334 16.6023C103.209 16.9517 103.146 17.3352 103.146 17.7528C103.146 18.1733 103.209 18.5582 103.334 18.9077C103.462 19.2571 103.656 19.5369 103.918 19.7472C104.182 19.9574 104.514 20.0625 104.915 20.0625ZM114.289 16.0526L113.134 16.2571C113.086 16.1094 113.009 15.9687 112.904 15.8352C112.801 15.7017 112.662 15.5923 112.486 15.5071C112.31 15.4219 112.09 15.3793 111.826 15.3793C111.465 15.3793 111.164 15.4602 110.922 15.6222C110.681 15.7812 110.56 15.9872 110.56 16.2401C110.56 16.4588 110.641 16.6349 110.803 16.7685C110.965 16.902 111.226 17.0114 111.587 17.0966L112.627 17.3352C113.229 17.4744 113.678 17.6889 113.973 17.9787C114.269 18.2685 114.417 18.6449 114.417 19.108C114.417 19.5 114.303 19.8494 114.076 20.1562C113.851 20.4602 113.537 20.6989 113.134 20.8722C112.733 21.0455 112.269 21.1321 111.74 21.1321C111.007 21.1321 110.409 20.9759 109.946 20.6634C109.483 20.348 109.199 19.9006 109.094 19.321L110.326 19.1335C110.402 19.4545 110.56 19.6974 110.799 19.8622C111.037 20.0241 111.348 20.1051 111.732 20.1051C112.15 20.1051 112.483 20.0185 112.733 19.8452C112.983 19.669 113.108 19.4545 113.108 19.2017C113.108 18.9972 113.032 18.8253 112.878 18.6861C112.728 18.5469 112.496 18.4418 112.184 18.3707L111.076 18.1278C110.465 17.9886 110.013 17.767 109.721 17.4631C109.431 17.1591 109.286 16.7741 109.286 16.3082C109.286 15.9219 109.394 15.5838 109.61 15.294C109.826 15.0043 110.124 14.7784 110.505 14.6165C110.885 14.4517 111.321 14.3693 111.813 14.3693C112.52 14.3693 113.077 14.5227 113.483 14.8295C113.89 15.1335 114.158 15.5412 114.289 16.0526ZM118.638 21.1321C117.994 21.1321 117.438 20.9943 116.972 20.7188C116.509 20.4403 116.151 20.0497 115.898 19.5469C115.648 19.0412 115.523 18.4489 115.523 17.7699C115.523 17.0994 115.648 16.5085 115.898 15.9972C116.151 15.4858 116.504 15.0866 116.955 14.7997C117.41 14.5128 117.941 14.3693 118.549 14.3693C118.918 14.3693 119.276 14.4304 119.623 14.5526C119.969 14.6747 120.281 14.8665 120.556 15.1278C120.832 15.3892 121.049 15.7287 121.208 16.1463C121.367 16.5611 121.447 17.0653 121.447 17.6591V18.1108H116.244V17.1562H120.198C120.198 16.821 120.13 16.5241 119.994 16.2656C119.857 16.0043 119.665 15.7983 119.418 15.6477C119.174 15.4972 118.887 15.4219 118.558 15.4219C118.2 15.4219 117.887 15.5099 117.62 15.6861C117.356 15.8594 117.151 16.0866 117.006 16.3679C116.864 16.6463 116.793 16.9489 116.793 17.2756V18.0213C116.793 18.4588 116.87 18.831 117.023 19.1378C117.18 19.4446 117.397 19.679 117.675 19.8409C117.954 20 118.279 20.0795 118.651 20.0795C118.893 20.0795 119.113 20.0455 119.312 19.9773C119.511 19.9062 119.683 19.8011 119.827 19.6619C119.972 19.5227 120.083 19.3509 120.16 19.1463L121.366 19.3636C121.269 19.7187 121.096 20.0298 120.846 20.2969C120.599 20.5611 120.288 20.767 119.913 20.9148C119.54 21.0597 119.116 21.1321 118.638 21.1321ZM125.311 21.1278C124.782 21.1278 124.311 20.9929 123.896 20.723C123.484 20.4503 123.16 20.0625 122.924 19.5597C122.691 19.054 122.575 18.4474 122.575 17.7401C122.575 17.0327 122.693 16.4276 122.929 15.9247C123.167 15.4219 123.494 15.0369 123.909 14.7699C124.324 14.5028 124.794 14.3693 125.319 14.3693C125.725 14.3693 126.052 14.4375 126.299 14.5739C126.549 14.7074 126.743 14.8636 126.879 15.0426C127.018 15.2216 127.126 15.3793 127.203 15.5156H127.279V12.2727H128.554V21H127.309V19.9815H127.203C127.126 20.1207 127.015 20.2798 126.87 20.4588C126.728 20.6378 126.532 20.794 126.282 20.9276C126.032 21.0611 125.708 21.1278 125.311 21.1278ZM125.592 20.0412C125.958 20.0412 126.268 19.9446 126.521 19.7514C126.777 19.5554 126.97 19.2841 127.1 18.9375C127.234 18.5909 127.301 18.1875 127.301 17.7273C127.301 17.2727 127.235 16.875 127.105 16.5341C126.974 16.1932 126.782 15.9276 126.529 15.7372C126.277 15.5469 125.964 15.4517 125.592 15.4517C125.208 15.4517 124.889 15.5511 124.633 15.75C124.377 15.9489 124.184 16.2202 124.054 16.5639C123.926 16.9077 123.862 17.2955 123.862 17.7273C123.862 18.1648 123.927 18.5582 124.058 18.9077C124.189 19.2571 124.382 19.5341 124.637 19.7386C124.896 19.9403 125.214 20.0412 125.592 20.0412Z" fill="white"/>
<rect x="77.25" y="0.25" width="64.5" height="33.5" rx="7.75" stroke="#63696E" stroke-opacity="0.24" stroke-width="0.5"/>
<path d="M114 41C114 43.4853 111.985 45.5 109.5 45.5C107.015 45.5 105 43.4853 105 41C105 38.5147 107.015 36.5 109.5 36.5C111.985 36.5 114 38.5147 114 41Z" fill="#63696E"/>
<path d="M115.571 31.4853C116.462 31.4853 116.908 32.5624 116.278 33.1924L110.207 39.2635C109.817 39.654 109.183 39.654 108.793 39.2635L102.722 33.1924C102.092 32.5624 102.538 31.4853 103.429 31.4853H115.571Z" fill="#D5CFCF"/>
</g>
<defs>
<filter id="filter0_dd_205_400" x="65" y="0" width="89" height="69.5" filterUnits="userSpaceOnUse" color-interpolation-filters="sRGB">
<feFlood flood-opacity="0" result="BackgroundImageFix"/>
<feColorMatrix in="SourceAlpha" type="matrix" values="0 0 0 0 0 0 0 0 0 0 0 0 0 0 0 0 0 0 127 0" result="hardAlpha"/>
<feMorphology radius="2" operator="erode" in="SourceAlpha" result="effect1_dropShadow_205_400"/>
<feOffset dy="4"/>
<feGaussianBlur stdDeviation="3"/>
<feColorMatrix type="matrix" values="0 0 0 0 0.0627451 0 0 0 0 0.0941176 0 0 0 0 0.156863 0 0 0 0.03 0"/>
<feBlend mode="normal" in2="BackgroundImageFix" result="effect1_dropShadow_205_400"/>
<feColorMatrix in="SourceAlpha" type="matrix" values="0 0 0 0 0 0 0 0 0 0 0 0 0 0 0 0 0 0 127 0" result="hardAlpha"/>
<feMorphology radius="4" operator="erode" in="SourceAlpha" result="effect2_dropShadow_205_400"/>
<feOffset dy="12"/>
<feGaussianBlur stdDeviation="8"/>
<feColorMatrix type="matrix" values="0 0 0 0 0.0627451 0 0 0 0 0.0941176 0 0 0 0 0.156863 0 0 0 0.08 0"/>
<feBlend mode="normal" in2="effect1_dropShadow_205_400" result="effect2_dropShadow_205_400"/>
<feBlend mode="normal" in="SourceGraphic" in2="effect2_dropShadow_205_400" result="shape"/>
</filter>
</defs>
</svg>
