<svg width="318" height="71" viewBox="0 0 318 71" fill="none" xmlns="http://www.w3.org/2000/svg">
<line x1="73" y1="41.25" x2="274" y2="41.25" stroke="#D9D9D9" stroke-width="3.5"/>
<g filter="url(#filter0_dd_205_385)">
<rect x="12" width="126" height="34" rx="8" fill="white"/>
<path d="M25.4158 21V12.2727H28.5266C29.2056 12.2727 29.7681 12.3963 30.2141 12.6435C30.6602 12.8906 30.994 13.2287 31.2156 13.6577C31.4371 14.0838 31.5479 14.5639 31.5479 15.098C31.5479 15.6349 31.4357 16.1179 31.2113 16.5469C30.9897 16.973 30.6545 17.3111 30.2056 17.5611C29.7596 17.8082 29.1985 17.9318 28.5224 17.9318H26.3832V16.8153H28.4031C28.832 16.8153 29.18 16.7415 29.4471 16.5938C29.7141 16.4432 29.9102 16.2386 30.0352 15.9801C30.1602 15.7216 30.2227 15.4276 30.2227 15.098C30.2227 14.7685 30.1602 14.4759 30.0352 14.2202C29.9102 13.9645 29.7127 13.7642 29.4428 13.6193C29.1758 13.4744 28.8235 13.402 28.386 13.402H26.7326V21H25.4158ZM35.7283 21.1321C35.0835 21.1321 34.5281 20.9943 34.0621 20.7188C33.5991 20.4403 33.2411 20.0497 32.9883 19.5469C32.7383 19.0412 32.6133 18.4489 32.6133 17.7699C32.6133 17.0994 32.7383 16.5085 32.9883 15.9972C33.2411 15.4858 33.5934 15.0866 34.0451 14.7997C34.4996 14.5128 35.0309 14.3693 35.6388 14.3693C36.0082 14.3693 36.3661 14.4304 36.7127 14.5526C37.0593 14.6747 37.3704 14.8665 37.646 15.1278C37.9215 15.3892 38.1388 15.7287 38.2979 16.1463C38.457 16.5611 38.5366 17.0653 38.5366 17.6591V18.1108H33.3335V17.1562H37.288C37.288 16.821 37.2198 16.5241 37.0835 16.2656C36.9471 16.0043 36.7553 15.7983 36.5082 15.6477C36.2638 15.4972 35.9769 15.4219 35.6474 15.4219C35.2894 15.4219 34.9769 15.5099 34.7099 15.6861C34.4457 15.8594 34.2411 16.0866 34.0962 16.3679C33.9542 16.6463 33.8832 16.9489 33.8832 17.2756V18.0213C33.8832 18.4588 33.9599 18.831 34.1133 19.1378C34.2695 19.4446 34.4869 19.679 34.7653 19.8409C35.0437 20 35.369 20.0795 35.7411 20.0795C35.9826 20.0795 36.2028 20.0455 36.4016 19.9773C36.6005 19.9062 36.7724 19.8011 36.9173 19.6619C37.0621 19.5227 37.1729 19.3509 37.2496 19.1463L38.4556 19.3636C38.359 19.7187 38.1857 20.0298 37.9357 20.2969C37.6886 20.5611 37.3775 20.767 37.0025 20.9148C36.6303 21.0597 36.2056 21.1321 35.7283 21.1321ZM41.2244 17.1136V21H39.9503V14.4545H41.1733V15.5199H41.2543C41.4048 15.1733 41.6406 14.8949 41.9616 14.6847C42.2855 14.4744 42.6932 14.3693 43.1847 14.3693C43.6307 14.3693 44.0213 14.4631 44.3565 14.6506C44.6918 14.8352 44.9517 15.1108 45.1364 15.4773C45.321 15.8437 45.4134 16.2969 45.4134 16.8366V21H44.1392V16.9901C44.1392 16.5156 44.0156 16.1449 43.7685 15.8778C43.5213 15.608 43.1818 15.473 42.75 15.473C42.4545 15.473 42.1918 15.5369 41.9616 15.6648C41.7344 15.7926 41.554 15.9801 41.4205 16.2273C41.2898 16.4716 41.2244 16.767 41.2244 17.1136ZM49.5724 21.1278C49.044 21.1278 48.5724 20.9929 48.1577 20.723C47.7457 20.4503 47.4219 20.0625 47.1861 19.5597C46.9531 19.054 46.8366 18.4474 46.8366 17.7401C46.8366 17.0327 46.9545 16.4276 47.1903 15.9247C47.429 15.4219 47.7557 15.0369 48.1705 14.7699C48.5852 14.5028 49.0554 14.3693 49.581 14.3693C49.9872 14.3693 50.3139 14.4375 50.5611 14.5739C50.8111 14.7074 51.0043 14.8636 51.1406 15.0426C51.2798 15.2216 51.3878 15.3793 51.4645 15.5156H51.5412V12.2727H52.8153V21H51.571V19.9815H51.4645C51.3878 20.1207 51.277 20.2798 51.1321 20.4588C50.9901 20.6378 50.794 20.794 50.544 20.9276C50.294 21.0611 49.9702 21.1278 49.5724 21.1278ZM49.8537 20.0412C50.2202 20.0412 50.5298 19.9446 50.7827 19.7514C51.0384 19.5554 51.2315 19.2841 51.3622 18.9375C51.4957 18.5909 51.5625 18.1875 51.5625 17.7273C51.5625 17.2727 51.4972 16.875 51.3665 16.5341C51.2358 16.1932 51.044 15.9276 50.7912 15.7372C50.5384 15.5469 50.2259 15.4517 49.8537 15.4517C49.4702 15.4517 49.1506 15.5511 48.8949 15.75C48.6392 15.9489 48.446 16.2202 48.3153 16.5639C48.1875 16.9077 48.1236 17.2955 48.1236 17.7273C48.1236 18.1648 48.1889 18.5582 48.3196 18.9077C48.4503 19.2571 48.6435 19.5341 48.8991 19.7386C49.1577 19.9403 49.4759 20.0412 49.8537 20.0412ZM54.6339 21V14.4545H55.908V21H54.6339ZM55.2773 13.4446C55.0558 13.4446 54.8654 13.3707 54.7063 13.223C54.5501 13.0724 54.4719 12.8935 54.4719 12.6861C54.4719 12.4759 54.5501 12.2969 54.7063 12.1491C54.8654 11.9986 55.0558 11.9233 55.2773 11.9233C55.4989 11.9233 55.6879 11.9986 55.8441 12.1491C56.0032 12.2969 56.0827 12.4759 56.0827 12.6861C56.0827 12.8935 56.0032 13.0724 55.8441 13.223C55.6879 13.3707 55.4989 13.4446 55.2773 13.4446ZM58.8963 17.1136V21H57.6222V14.4545H58.8452V15.5199H58.9261C59.0767 15.1733 59.3125 14.8949 59.6335 14.6847C59.9574 14.4744 60.3651 14.3693 60.8565 14.3693C61.3026 14.3693 61.6932 14.4631 62.0284 14.6506C62.3636 14.8352 62.6236 15.1108 62.8082 15.4773C62.9929 15.8437 63.0852 16.2969 63.0852 16.8366V21H61.8111V16.9901C61.8111 16.5156 61.6875 16.1449 61.4403 15.8778C61.1932 15.608 60.8537 15.473 60.4219 15.473C60.1264 15.473 59.8636 15.5369 59.6335 15.6648C59.4063 15.7926 59.2259 15.9801 59.0923 16.2273C58.9616 16.4716 58.8963 16.767 58.8963 17.1136ZM67.5384 23.5909C67.0185 23.5909 66.571 23.5227 66.196 23.3864C65.8239 23.25 65.5199 23.0696 65.2841 22.8452C65.0483 22.6207 64.8722 22.375 64.7557 22.108L65.8509 21.6562C65.9276 21.7812 66.0298 21.9134 66.1577 22.0526C66.2884 22.1946 66.4645 22.3153 66.6861 22.4148C66.9105 22.5142 67.1989 22.5639 67.5511 22.5639C68.0341 22.5639 68.4332 22.446 68.7486 22.2102C69.0639 21.9773 69.2216 21.6051 69.2216 21.0938V19.8068H69.1406C69.0639 19.946 68.9531 20.1009 68.8082 20.2713C68.6662 20.4418 68.4702 20.5895 68.2202 20.7145C67.9702 20.8395 67.6449 20.902 67.2443 20.902C66.7273 20.902 66.2614 20.7812 65.8466 20.5398C65.4347 20.2955 65.108 19.9361 64.8665 19.4616C64.6278 18.9844 64.5085 18.3977 64.5085 17.7017C64.5085 17.0057 64.6264 16.4091 64.8622 15.9119C65.1009 15.4148 65.4276 15.0341 65.8423 14.7699C66.2571 14.5028 66.7273 14.3693 67.2528 14.3693C67.6591 14.3693 67.9872 14.4375 68.2372 14.5739C68.4872 14.7074 68.6818 14.8636 68.821 15.0426C68.9631 15.2216 69.0724 15.3793 69.1491 15.5156H69.2429V14.4545H70.4915V21.1449C70.4915 21.7074 70.3608 22.169 70.0994 22.5298C69.8381 22.8906 69.4844 23.1577 69.0384 23.331C68.5952 23.5043 68.0952 23.5909 67.5384 23.5909ZM67.5256 19.8452C67.892 19.8452 68.2017 19.7599 68.4545 19.5895C68.7102 19.4162 68.9034 19.169 69.0341 18.848C69.1676 18.5241 69.2344 18.1364 69.2344 17.6847C69.2344 17.2443 69.169 16.8565 69.0384 16.5213C68.9077 16.1861 68.7159 15.9247 68.4631 15.7372C68.2102 15.5469 67.8977 15.4517 67.5256 15.4517C67.142 15.4517 66.8224 15.5511 66.5668 15.75C66.3111 15.946 66.1179 16.2131 65.9872 16.5511C65.8594 16.8892 65.7955 17.267 65.7955 17.6847C65.7955 18.1136 65.8608 18.4901 65.9915 18.8139C66.1222 19.1378 66.3153 19.3906 66.571 19.5724C66.8295 19.7543 67.1477 19.8452 67.5256 19.8452ZM76.2156 21H74.8178L77.9585 12.2727H79.4798L82.6204 21H81.2227L78.7553 13.858H78.6871L76.2156 21ZM76.4499 17.5824H80.984V18.6903H76.4499V17.5824ZM83.7784 23.4545V14.4545H85.0227V15.5156H85.1293C85.2031 15.3793 85.3097 15.2216 85.4489 15.0426C85.5881 14.8636 85.7813 14.7074 86.0284 14.5739C86.2756 14.4375 86.6023 14.3693 87.0085 14.3693C87.5369 14.3693 88.0085 14.5028 88.4233 14.7699C88.8381 15.0369 89.1634 15.4219 89.3991 15.9247C89.6378 16.4276 89.7571 17.0327 89.7571 17.7401C89.7571 18.4474 89.6392 19.054 89.4034 19.5597C89.1676 20.0625 88.8438 20.4503 88.4318 20.723C88.0199 20.9929 87.5497 21.1278 87.0213 21.1278C86.6236 21.1278 86.2983 21.0611 86.0455 20.9276C85.7955 20.794 85.5994 20.6378 85.4574 20.4588C85.3153 20.2798 85.206 20.1207 85.1293 19.9815H85.0526V23.4545H83.7784ZM85.027 17.7273C85.027 18.1875 85.0938 18.5909 85.2273 18.9375C85.3608 19.2841 85.554 19.5554 85.8068 19.7514C86.0597 19.9446 86.3693 20.0412 86.7358 20.0412C87.1165 20.0412 87.4347 19.9403 87.6903 19.7386C87.946 19.5341 88.1392 19.2571 88.2699 18.9077C88.4034 18.5582 88.4702 18.1648 88.4702 17.7273C88.4702 17.2955 88.4048 16.9077 88.2741 16.5639C88.1463 16.2202 87.9531 15.9489 87.6946 15.75C87.4389 15.5511 87.1193 15.4517 86.7358 15.4517C86.3665 15.4517 86.054 15.5469 85.7983 15.7372C85.5455 15.9276 85.3537 16.1932 85.223 16.5341C85.0923 16.875 85.027 17.2727 85.027 17.7273ZM91.1847 23.4545V14.4545H92.429V15.5156H92.5355C92.6094 15.3793 92.7159 15.2216 92.8551 15.0426C92.9943 14.8636 93.1875 14.7074 93.4347 14.5739C93.6818 14.4375 94.0085 14.3693 94.4148 14.3693C94.9432 14.3693 95.4148 14.5028 95.8295 14.7699C96.2443 15.0369 96.5696 15.4219 96.8054 15.9247C97.044 16.4276 97.1634 17.0327 97.1634 17.7401C97.1634 18.4474 97.0455 19.054 96.8097 19.5597C96.5739 20.0625 96.25 20.4503 95.8381 20.723C95.4261 20.9929 94.956 21.1278 94.4276 21.1278C94.0298 21.1278 93.7045 21.0611 93.4517 20.9276C93.2017 20.794 93.0057 20.6378 92.8636 20.4588C92.7216 20.2798 92.6122 20.1207 92.5355 19.9815H92.4588V23.4545H91.1847ZM92.4332 17.7273C92.4332 18.1875 92.5 18.5909 92.6335 18.9375C92.767 19.2841 92.9602 19.5554 93.2131 19.7514C93.4659 19.9446 93.7756 20.0412 94.142 20.0412C94.5227 20.0412 94.8409 19.9403 95.0966 19.7386C95.3523 19.5341 95.5455 19.2571 95.6761 18.9077C95.8097 18.5582 95.8764 18.1648 95.8764 17.7273C95.8764 17.2955 95.8111 16.9077 95.6804 16.5639C95.5526 16.2202 95.3594 15.9489 95.1009 15.75C94.8452 15.5511 94.5256 15.4517 94.142 15.4517C93.7727 15.4517 93.4602 15.5469 93.2045 15.7372C92.9517 15.9276 92.7599 16.1932 92.6293 16.5341C92.4986 16.875 92.4332 17.2727 92.4332 17.7273ZM98.5909 21V14.4545H99.8224V15.4943H99.8906C100.01 15.142 100.22 14.8651 100.521 14.6634C100.825 14.4588 101.169 14.3565 101.553 14.3565C101.632 14.3565 101.726 14.3594 101.834 14.3651C101.945 14.3707 102.031 14.3778 102.094 14.3864V15.6051C102.043 15.5909 101.952 15.5753 101.821 15.5582C101.69 15.5384 101.56 15.5284 101.429 15.5284C101.128 15.5284 100.859 15.5923 100.624 15.7202C100.391 15.8452 100.206 16.0199 100.07 16.2443C99.9332 16.4659 99.8651 16.7187 99.8651 17.0028V21H98.5909ZM105.719 21.1321C105.105 21.1321 104.57 20.9915 104.113 20.7102C103.655 20.429 103.3 20.0355 103.047 19.5298C102.794 19.0241 102.668 18.4332 102.668 17.7571C102.668 17.0781 102.794 16.4844 103.047 15.9759C103.3 15.4673 103.655 15.0724 104.113 14.7912C104.57 14.5099 105.105 14.3693 105.719 14.3693C106.333 14.3693 106.868 14.5099 107.326 14.7912C107.783 15.0724 108.138 15.4673 108.391 15.9759C108.644 16.4844 108.77 17.0781 108.77 17.7571C108.77 18.4332 108.644 19.0241 108.391 19.5298C108.138 20.0355 107.783 20.429 107.326 20.7102C106.868 20.9915 106.333 21.1321 105.719 21.1321ZM105.723 20.0625C106.121 20.0625 106.451 19.9574 106.712 19.7472C106.973 19.5369 107.167 19.2571 107.292 18.9077C107.419 18.5582 107.483 18.1733 107.483 17.7528C107.483 17.3352 107.419 16.9517 107.292 16.6023C107.167 16.25 106.973 15.9673 106.712 15.7543C106.451 15.5412 106.121 15.4347 105.723 15.4347C105.323 15.4347 104.99 15.5412 104.726 15.7543C104.465 15.9673 104.27 16.25 104.142 16.6023C104.017 16.9517 103.955 17.3352 103.955 17.7528C103.955 18.1733 104.017 18.5582 104.142 18.9077C104.27 19.2571 104.465 19.5369 104.726 19.7472C104.99 19.9574 105.323 20.0625 105.723 20.0625ZM115.569 14.4545L113.196 21H111.832L109.454 14.4545H110.822L112.48 19.4915H112.548L114.201 14.4545H115.569ZM118.484 21.1449C118.069 21.1449 117.694 21.0682 117.359 20.9148C117.024 20.7585 116.758 20.5327 116.562 20.2372C116.369 19.9418 116.272 19.5795 116.272 19.1506C116.272 18.7812 116.343 18.4773 116.485 18.2386C116.627 18 116.819 17.8111 117.061 17.6719C117.302 17.5327 117.572 17.4276 117.87 17.3565C118.169 17.2855 118.473 17.2315 118.782 17.1946C119.174 17.1491 119.493 17.1122 119.737 17.0838C119.981 17.0526 120.159 17.0028 120.27 16.9347C120.38 16.8665 120.436 16.7557 120.436 16.6023V16.5724C120.436 16.2003 120.331 15.9119 120.12 15.7074C119.913 15.5028 119.603 15.4006 119.191 15.4006C118.762 15.4006 118.424 15.4957 118.177 15.6861C117.933 15.8736 117.764 16.0824 117.67 16.3125L116.473 16.0398C116.615 15.642 116.822 15.321 117.095 15.0767C117.37 14.8295 117.687 14.6506 118.045 14.5398C118.403 14.4261 118.779 14.3693 119.174 14.3693C119.436 14.3693 119.713 14.4006 120.005 14.4631C120.301 14.5227 120.576 14.6335 120.832 14.7955C121.091 14.9574 121.302 15.1889 121.467 15.4901C121.632 15.7884 121.714 16.1761 121.714 16.6534V21H120.47V20.1051H120.419C120.336 20.2699 120.213 20.4318 120.048 20.5909C119.883 20.75 119.672 20.8821 119.413 20.9872C119.154 21.0923 118.845 21.1449 118.484 21.1449ZM118.761 20.1222C119.113 20.1222 119.414 20.0526 119.664 19.9134C119.917 19.7741 120.109 19.5923 120.24 19.3679C120.373 19.1406 120.44 18.8977 120.44 18.6392V17.7955C120.395 17.8409 120.306 17.8835 120.176 17.9233C120.048 17.9602 119.902 17.9929 119.737 18.0213C119.572 18.0469 119.412 18.071 119.255 18.0938C119.099 18.1136 118.968 18.1307 118.863 18.1449C118.616 18.1761 118.39 18.2287 118.186 18.3026C117.984 18.3764 117.822 18.483 117.7 18.6222C117.581 18.7585 117.521 18.9403 117.521 19.1676C117.521 19.483 117.637 19.7216 117.87 19.8835C118.103 20.0426 118.4 20.1222 118.761 20.1222ZM124.685 12.2727V21H123.411V12.2727H124.685Z" fill="#344054"/>
<rect x="12.25" y="0.25" width="125.5" height="33.5" rx="7.75" stroke="#63696E" stroke-opacity="0.24" stroke-width="0.5"/>
<path d="M79.5 41C79.5 43.4853 77.4853 45.5 75 45.5C72.5147 45.5 70.5 43.4853 70.5 41C70.5 38.5147 72.5147 36.5 75 36.5C77.4853 36.5 79.5 38.5147 79.5 41Z" fill="#3180BA"/>
<path d="M81.0711 31.4853C81.962 31.4853 82.4081 32.5624 81.7782 33.1924L75.7071 39.2635C75.3166 39.654 74.6834 39.654 74.2929 39.2635L68.2218 33.1924C67.5919 32.5624 68.038 31.4853 68.9289 31.4853L81.0711 31.4853Z" fill="white"/>
</g>
<g filter="url(#filter1_dd_205_385)">
<rect x="241" y="1" width="65" height="34" rx="8" fill="#D5CFCF"/>
<path d="M261.692 16.1108H260.362C260.311 15.8267 260.216 15.5767 260.077 15.3608C259.938 15.1449 259.767 14.9616 259.565 14.8111C259.364 14.6605 259.138 14.5469 258.888 14.4702C258.641 14.3935 258.378 14.3551 258.099 14.3551C257.597 14.3551 257.146 14.4815 256.749 14.7344C256.354 14.9872 256.041 15.358 255.811 15.8466C255.584 16.3352 255.47 16.9318 255.47 17.6364C255.47 18.3466 255.584 18.946 255.811 19.4347C256.041 19.9233 256.355 20.2926 256.753 20.5426C257.151 20.7926 257.598 20.9176 258.095 20.9176C258.371 20.9176 258.632 20.8807 258.879 20.8068C259.129 20.7301 259.355 20.6179 259.557 20.4702C259.759 20.3224 259.929 20.142 260.068 19.929C260.21 19.7131 260.308 19.4659 260.362 19.1875L261.692 19.1918C261.621 19.6207 261.483 20.0156 261.278 20.3764C261.077 20.7344 260.817 21.044 260.499 21.3054C260.183 21.5639 259.822 21.7642 259.416 21.9062C259.01 22.0483 258.567 22.1193 258.087 22.1193C257.331 22.1193 256.658 21.9403 256.067 21.5824C255.476 21.2216 255.01 20.706 254.669 20.0355C254.331 19.3651 254.162 18.5653 254.162 17.6364C254.162 16.7045 254.332 15.9048 254.673 15.2372C255.014 14.5668 255.48 14.0526 256.071 13.6946C256.662 13.3338 257.334 13.1534 258.087 13.1534C258.55 13.1534 258.982 13.2202 259.382 13.3537C259.786 13.4844 260.148 13.6776 260.469 13.9332C260.79 14.1861 261.055 14.4957 261.266 14.8622C261.476 15.2259 261.618 15.642 261.692 16.1108ZM264.439 13.2727V22H263.165V13.2727H264.439ZM268.911 22.1321C268.297 22.1321 267.761 21.9915 267.304 21.7102C266.847 21.429 266.491 21.0355 266.239 20.5298C265.986 20.0241 265.859 19.4332 265.859 18.7571C265.859 18.0781 265.986 17.4844 266.239 16.9759C266.491 16.4673 266.847 16.0724 267.304 15.7912C267.761 15.5099 268.297 15.3693 268.911 15.3693C269.524 15.3693 270.06 15.5099 270.517 15.7912C270.974 16.0724 271.33 16.4673 271.582 16.9759C271.835 17.4844 271.962 18.0781 271.962 18.7571C271.962 19.4332 271.835 20.0241 271.582 20.5298C271.33 21.0355 270.974 21.429 270.517 21.7102C270.06 21.9915 269.524 22.1321 268.911 22.1321ZM268.915 21.0625C269.313 21.0625 269.642 20.9574 269.903 20.7472C270.165 20.5369 270.358 20.2571 270.483 19.9077C270.611 19.5582 270.675 19.1733 270.675 18.7528C270.675 18.3352 270.611 17.9517 270.483 17.6023C270.358 17.25 270.165 16.9673 269.903 16.7543C269.642 16.5412 269.313 16.4347 268.915 16.4347C268.514 16.4347 268.182 16.5412 267.918 16.7543C267.656 16.9673 267.462 17.25 267.334 17.6023C267.209 17.9517 267.146 18.3352 267.146 18.7528C267.146 19.1733 267.209 19.5582 267.334 19.9077C267.462 20.2571 267.656 20.5369 267.918 20.7472C268.182 20.9574 268.514 21.0625 268.915 21.0625ZM278.289 17.0526L277.134 17.2571C277.086 17.1094 277.009 16.9687 276.904 16.8352C276.801 16.7017 276.662 16.5923 276.486 16.5071C276.31 16.4219 276.09 16.3793 275.826 16.3793C275.465 16.3793 275.164 16.4602 274.922 16.6222C274.681 16.7812 274.56 16.9872 274.56 17.2401C274.56 17.4588 274.641 17.6349 274.803 17.7685C274.965 17.902 275.226 18.0114 275.587 18.0966L276.627 18.3352C277.229 18.4744 277.678 18.6889 277.973 18.9787C278.269 19.2685 278.417 19.6449 278.417 20.108C278.417 20.5 278.303 20.8494 278.076 21.1562C277.851 21.4602 277.537 21.6989 277.134 21.8722C276.733 22.0455 276.269 22.1321 275.74 22.1321C275.007 22.1321 274.409 21.9759 273.946 21.6634C273.483 21.348 273.199 20.9006 273.094 20.321L274.326 20.1335C274.402 20.4545 274.56 20.6974 274.799 20.8622C275.037 21.0241 275.348 21.1051 275.732 21.1051C276.15 21.1051 276.483 21.0185 276.733 20.8452C276.983 20.669 277.108 20.4545 277.108 20.2017C277.108 19.9972 277.032 19.8253 276.878 19.6861C276.728 19.5469 276.496 19.4418 276.184 19.3707L275.076 19.1278C274.465 18.9886 274.013 18.767 273.721 18.4631C273.431 18.1591 273.286 17.7741 273.286 17.3082C273.286 16.9219 273.394 16.5838 273.61 16.294C273.826 16.0043 274.124 15.7784 274.505 15.6165C274.885 15.4517 275.321 15.3693 275.813 15.3693C276.52 15.3693 277.077 15.5227 277.483 15.8295C277.89 16.1335 278.158 16.5412 278.289 17.0526ZM282.638 22.1321C281.994 22.1321 281.438 21.9943 280.972 21.7188C280.509 21.4403 280.151 21.0497 279.898 20.5469C279.648 20.0412 279.523 19.4489 279.523 18.7699C279.523 18.0994 279.648 17.5085 279.898 16.9972C280.151 16.4858 280.504 16.0866 280.955 15.7997C281.41 15.5128 281.941 15.3693 282.549 15.3693C282.918 15.3693 283.276 15.4304 283.623 15.5526C283.969 15.6747 284.281 15.8665 284.556 16.1278C284.832 16.3892 285.049 16.7287 285.208 17.1463C285.367 17.5611 285.447 18.0653 285.447 18.6591V19.1108H280.244V18.1562H284.198C284.198 17.821 284.13 17.5241 283.994 17.2656C283.857 17.0043 283.665 16.7983 283.418 16.6477C283.174 16.4972 282.887 16.4219 282.558 16.4219C282.2 16.4219 281.887 16.5099 281.62 16.6861C281.356 16.8594 281.151 17.0866 281.006 17.3679C280.864 17.6463 280.793 17.9489 280.793 18.2756V19.0213C280.793 19.4588 280.87 19.831 281.023 20.1378C281.18 20.4446 281.397 20.679 281.675 20.8409C281.954 21 282.279 21.0795 282.651 21.0795C282.893 21.0795 283.113 21.0455 283.312 20.9773C283.511 20.9062 283.683 20.8011 283.827 20.6619C283.972 20.5227 284.083 20.3509 284.16 20.1463L285.366 20.3636C285.269 20.7187 285.096 21.0298 284.846 21.2969C284.599 21.5611 284.288 21.767 283.913 21.9148C283.54 22.0597 283.116 22.1321 282.638 22.1321ZM289.311 22.1278C288.782 22.1278 288.311 21.9929 287.896 21.723C287.484 21.4503 287.16 21.0625 286.924 20.5597C286.691 20.054 286.575 19.4474 286.575 18.7401C286.575 18.0327 286.693 17.4276 286.929 16.9247C287.167 16.4219 287.494 16.0369 287.909 15.7699C288.324 15.5028 288.794 15.3693 289.319 15.3693C289.725 15.3693 290.052 15.4375 290.299 15.5739C290.549 15.7074 290.743 15.8636 290.879 16.0426C291.018 16.2216 291.126 16.3793 291.203 16.5156H291.279V13.2727H292.554V22H291.309V20.9815H291.203C291.126 21.1207 291.015 21.2798 290.87 21.4588C290.728 21.6378 290.532 21.794 290.282 21.9276C290.032 22.0611 289.708 22.1278 289.311 22.1278ZM289.592 21.0412C289.958 21.0412 290.268 20.9446 290.521 20.7514C290.777 20.5554 290.97 20.2841 291.1 19.9375C291.234 19.5909 291.301 19.1875 291.301 18.7273C291.301 18.2727 291.235 17.875 291.105 17.5341C290.974 17.1932 290.782 16.9276 290.529 16.7372C290.277 16.5469 289.964 16.4517 289.592 16.4517C289.208 16.4517 288.889 16.5511 288.633 16.75C288.377 16.9489 288.184 17.2202 288.054 17.5639C287.926 17.9077 287.862 18.2955 287.862 18.7273C287.862 19.1648 287.927 19.5582 288.058 19.9077C288.189 20.2571 288.382 20.5341 288.637 20.7386C288.896 20.9403 289.214 21.0412 289.592 21.0412Z" fill="white"/>
<rect x="241.25" y="1.25" width="64.5" height="33.5" rx="7.75" stroke="#63696E" stroke-opacity="0.24" stroke-width="0.5"/>
<path d="M278 42C278 44.4853 275.985 46.5 273.5 46.5C271.015 46.5 269 44.4853 269 42C269 39.5147 271.015 37.5 273.5 37.5C275.985 37.5 278 39.5147 278 42Z" fill="#63696E"/>
<path d="M279.571 32.4853C280.462 32.4853 280.908 33.5624 280.278 34.1924L274.207 40.2635C273.817 40.654 273.183 40.654 272.793 40.2635L266.722 34.1924C266.092 33.5624 266.538 32.4853 267.429 32.4853L279.571 32.4853Z" fill="#D5CFCF"/>
</g>
<defs>
<filter id="filter0_dd_205_385" x="0" y="0" width="150" height="69.5" filterUnits="userSpaceOnUse" color-interpolation-filters="sRGB">
<feFlood flood-opacity="0" result="BackgroundImageFix"/>
<feColorMatrix in="SourceAlpha" type="matrix" values="0 0 0 0 0 0 0 0 0 0 0 0 0 0 0 0 0 0 127 0" result="hardAlpha"/>
<feMorphology radius="2" operator="erode" in="SourceAlpha" result="effect1_dropShadow_205_385"/>
<feOffset dy="4"/>
<feGaussianBlur stdDeviation="3"/>
<feColorMatrix type="matrix" values="0 0 0 0 0.0627451 0 0 0 0 0.0941176 0 0 0 0 0.156863 0 0 0 0.03 0"/>
<feBlend mode="normal" in2="BackgroundImageFix" result="effect1_dropShadow_205_385"/>
<feColorMatrix in="SourceAlpha" type="matrix" values="0 0 0 0 0 0 0 0 0 0 0 0 0 0 0 0 0 0 127 0" result="hardAlpha"/>
<feMorphology radius="4" operator="erode" in="SourceAlpha" result="effect2_dropShadow_205_385"/>
<feOffset dy="12"/>
<feGaussianBlur stdDeviation="8"/>
<feColorMatrix type="matrix" values="0 0 0 0 0.0627451 0 0 0 0 0.0941176 0 0 0 0 0.156863 0 0 0 0.08 0"/>
<feBlend mode="normal" in2="effect1_dropShadow_205_385" result="effect2_dropShadow_205_385"/>
<feBlend mode="normal" in="SourceGraphic" in2="effect2_dropShadow_205_385" result="shape"/>
</filter>
<filter id="filter1_dd_205_385" x="229" y="1" width="89" height="69.5" filterUnits="userSpaceOnUse" color-interpolation-filters="sRGB">
<feFlood flood-opacity="0" result="BackgroundImageFix"/>
<feColorMatrix in="SourceAlpha" type="matrix" values="0 0 0 0 0 0 0 0 0 0 0 0 0 0 0 0 0 0 127 0" result="hardAlpha"/>
<feMorphology radius="2" operator="erode" in="SourceAlpha" result="effect1_dropShadow_205_385"/>
<feOffset dy="4"/>
<feGaussianBlur stdDeviation="3"/>
<feColorMatrix type="matrix" values="0 0 0 0 0.0627451 0 0 0 0 0.0941176 0 0 0 0 0.156863 0 0 0 0.03 0"/>
<feBlend mode="normal" in2="BackgroundImageFix" result="effect1_dropShadow_205_385"/>
<feColorMatrix in="SourceAlpha" type="matrix" values="0 0 0 0 0 0 0 0 0 0 0 0 0 0 0 0 0 0 127 0" result="hardAlpha"/>
<feMorphology radius="4" operator="erode" in="SourceAlpha" result="effect2_dropShadow_205_385"/>
<feOffset dy="12"/>
<feGaussianBlur stdDeviation="8"/>
<feColorMatrix type="matrix" values="0 0 0 0 0.0627451 0 0 0 0 0.0941176 0 0 0 0 0.156863 0 0 0 0.08 0"/>
<feBlend mode="normal" in2="effect1_dropShadow_205_385" result="effect2_dropShadow_205_385"/>
<feBlend mode="normal" in="SourceGraphic" in2="effect2_dropShadow_205_385" result="shape"/>
</filter>
</defs>
</svg>
