<svg width="330" height="71" viewBox="0 0 330 71" fill="none" xmlns="http://www.w3.org/2000/svg">
<line x1="57" y1="41.25" x2="258" y2="41.25" stroke="#D9D9D9" stroke-width="3.5"/>
<g filter="url(#filter0_dd_205_384)">
<rect x="12" y="1" width="89" height="34" rx="8" fill="white"/>
<path d="M26.5021 13.2727V22H25.1854V13.2727H26.5021ZM29.5916 18.1136V22H28.3175V15.4545H29.5405V16.5199H29.6214C29.772 16.1733 30.0078 15.8949 30.3288 15.6847C30.6527 15.4744 31.0604 15.3693 31.5518 15.3693C31.9979 15.3693 32.3885 15.4631 32.7237 15.6506C33.0589 15.8352 33.3189 16.1108 33.5036 16.4773C33.6882 16.8437 33.7805 17.2969 33.7805 17.8366V22H32.5064V17.9901C32.5064 17.5156 32.3828 17.1449 32.1357 16.8778C31.8885 16.608 31.549 16.473 31.1172 16.473C30.8217 16.473 30.5589 16.5369 30.3288 16.6648C30.1016 16.7926 29.9212 16.9801 29.7876 17.2273C29.657 17.4716 29.5916 17.767 29.5916 18.1136ZM38.7674 22V13.2727H41.8782C42.5572 13.2727 43.1197 13.3963 43.5657 13.6435C44.0117 13.8906 44.3455 14.2287 44.5671 14.6577C44.7887 15.0838 44.8995 15.5639 44.8995 16.098C44.8995 16.6349 44.7873 17.1179 44.5629 17.5469C44.3413 17.973 44.006 18.3111 43.5572 18.5611C43.1112 18.8082 42.5501 18.9318 41.8739 18.9318H39.7347V17.8153H41.7546C42.1836 17.8153 42.5316 17.7415 42.7987 17.5938C43.0657 17.4432 43.2617 17.2386 43.3867 16.9801C43.5117 16.7216 43.5742 16.4276 43.5742 16.098C43.5742 15.7685 43.5117 15.4759 43.3867 15.2202C43.2617 14.9645 43.0643 14.7642 42.7944 14.6193C42.5273 14.4744 42.1751 14.402 41.7376 14.402H40.0842V22H38.7674ZM46.3409 22V15.4545H47.5724V16.4943H47.6406C47.7599 16.142 47.9702 15.8651 48.2713 15.6634C48.5753 15.4588 48.919 15.3565 49.3026 15.3565C49.3821 15.3565 49.4759 15.3594 49.5838 15.3651C49.6946 15.3707 49.7812 15.3778 49.8438 15.3864V16.6051C49.7926 16.5909 49.7017 16.5753 49.571 16.5582C49.4403 16.5384 49.3097 16.5284 49.179 16.5284C48.8778 16.5284 48.6094 16.5923 48.3736 16.7202C48.1406 16.8452 47.956 17.0199 47.8196 17.2443C47.6832 17.4659 47.6151 17.7187 47.6151 18.0028V22H46.3409ZM53.4691 22.1321C52.8555 22.1321 52.32 21.9915 51.8626 21.7102C51.4052 21.429 51.0501 21.0355 50.7972 20.5298C50.5444 20.0241 50.418 19.4332 50.418 18.7571C50.418 18.0781 50.5444 17.4844 50.7972 16.9759C51.0501 16.4673 51.4052 16.0724 51.8626 15.7912C52.32 15.5099 52.8555 15.3693 53.4691 15.3693C54.0827 15.3693 54.6183 15.5099 55.0756 15.7912C55.533 16.0724 55.8881 16.4673 56.141 16.9759C56.3938 17.4844 56.5202 18.0781 56.5202 18.7571C56.5202 19.4332 56.3938 20.0241 56.141 20.5298C55.8881 21.0355 55.533 21.429 55.0756 21.7102C54.6183 21.9915 54.0827 22.1321 53.4691 22.1321ZM53.4734 21.0625C53.8711 21.0625 54.2006 20.9574 54.462 20.7472C54.7234 20.5369 54.9165 20.2571 55.0415 19.9077C55.1694 19.5582 55.2333 19.1733 55.2333 18.7528C55.2333 18.3352 55.1694 17.9517 55.0415 17.6023C54.9165 17.25 54.7234 16.9673 54.462 16.7543C54.2006 16.5412 53.8711 16.4347 53.4734 16.4347C53.0728 16.4347 52.7404 16.5412 52.4762 16.7543C52.2148 16.9673 52.0202 17.25 51.8924 17.6023C51.7674 17.9517 51.7049 18.3352 51.7049 18.7528C51.7049 19.1733 51.7674 19.5582 51.8924 19.9077C52.0202 20.2571 52.2148 20.5369 52.4762 20.7472C52.7404 20.9574 53.0728 21.0625 53.4734 21.0625ZM60.6868 24.5909C60.1669 24.5909 59.7195 24.5227 59.3445 24.3864C58.9723 24.25 58.6683 24.0696 58.4325 23.8452C58.1967 23.6207 58.0206 23.375 57.9041 23.108L58.9993 22.6562C59.076 22.7812 59.1783 22.9134 59.3061 23.0526C59.4368 23.1946 59.6129 23.3153 59.8345 23.4148C60.0589 23.5142 60.3473 23.5639 60.6996 23.5639C61.1825 23.5639 61.5817 23.446 61.897 23.2102C62.2124 22.9773 62.37 22.6051 62.37 22.0938V20.8068H62.2891C62.2124 20.946 62.1016 21.1009 61.9567 21.2713C61.8146 21.4418 61.6186 21.5895 61.3686 21.7145C61.1186 21.8395 60.7933 21.902 60.3928 21.902C59.8757 21.902 59.4098 21.7812 58.995 21.5398C58.5831 21.2955 58.2564 20.9361 58.0149 20.4616C57.7763 19.9844 57.657 19.3977 57.657 18.7017C57.657 18.0057 57.7749 17.4091 58.0107 16.9119C58.2493 16.4148 58.576 16.0341 58.9908 15.7699C59.4055 15.5028 59.8757 15.3693 60.4013 15.3693C60.8075 15.3693 61.1357 15.4375 61.3857 15.5739C61.6357 15.7074 61.8303 15.8636 61.9695 16.0426C62.1115 16.2216 62.2209 16.3793 62.2976 16.5156H62.3913V15.4545H63.6399V22.1449C63.6399 22.7074 63.5092 23.169 63.2479 23.5298C62.9865 23.8906 62.6328 24.1577 62.1868 24.331C61.7436 24.5043 61.2436 24.5909 60.6868 24.5909ZM60.674 20.8452C61.0405 20.8452 61.3501 20.7599 61.603 20.5895C61.8587 20.4162 62.0518 20.169 62.1825 19.848C62.3161 19.5241 62.3828 19.1364 62.3828 18.6847C62.3828 18.2443 62.3175 17.8565 62.1868 17.5213C62.0561 17.1861 61.8643 16.9247 61.6115 16.7372C61.3587 16.5469 61.0462 16.4517 60.674 16.4517C60.2905 16.4517 59.9709 16.5511 59.7152 16.75C59.4595 16.946 59.2663 17.2131 59.1357 17.5511C59.0078 17.8892 58.9439 18.267 58.9439 18.6847C58.9439 19.1136 59.0092 19.4901 59.1399 19.8139C59.2706 20.1378 59.4638 20.3906 59.7195 20.5724C59.978 20.7543 60.2962 20.8452 60.674 20.8452ZM65.3487 22V15.4545H66.5803V16.4943H66.6484C66.7678 16.142 66.978 15.8651 67.2791 15.6634C67.5831 15.4588 67.9268 15.3565 68.3104 15.3565C68.3899 15.3565 68.4837 15.3594 68.5916 15.3651C68.7024 15.3707 68.7891 15.3778 68.8516 15.3864V16.6051C68.8004 16.5909 68.7095 16.5753 68.5788 16.5582C68.4482 16.5384 68.3175 16.5284 68.1868 16.5284C67.8857 16.5284 67.6172 16.5923 67.3814 16.7202C67.1484 16.8452 66.9638 17.0199 66.8274 17.2443C66.6911 17.4659 66.6229 17.7187 66.6229 18.0028V22H65.3487ZM72.5408 22.1321C71.896 22.1321 71.3406 21.9943 70.8746 21.7188C70.4116 21.4403 70.0536 21.0497 69.8008 20.5469C69.5508 20.0412 69.4258 19.4489 69.4258 18.7699C69.4258 18.0994 69.5508 17.5085 69.8008 16.9972C70.0536 16.4858 70.4059 16.0866 70.8576 15.7997C71.3121 15.5128 71.8434 15.3693 72.4513 15.3693C72.8207 15.3693 73.1786 15.4304 73.5252 15.5526C73.8718 15.6747 74.1829 15.8665 74.4585 16.1278C74.734 16.3892 74.9513 16.7287 75.1104 17.1463C75.2695 17.5611 75.3491 18.0653 75.3491 18.6591V19.1108H70.146V18.1562H74.1005C74.1005 17.821 74.0323 17.5241 73.896 17.2656C73.7596 17.0043 73.5678 16.7983 73.3207 16.6477C73.0763 16.4972 72.7894 16.4219 72.4599 16.4219C72.1019 16.4219 71.7894 16.5099 71.5224 16.6861C71.2582 16.8594 71.0536 17.0866 70.9087 17.3679C70.7667 17.6463 70.6957 17.9489 70.6957 18.2756V19.0213C70.6957 19.4588 70.7724 19.831 70.9258 20.1378C71.082 20.4446 71.2994 20.679 71.5778 20.8409C71.8562 21 72.1815 21.0795 72.5536 21.0795C72.7951 21.0795 73.0153 21.0455 73.2141 20.9773C73.413 20.9062 73.5849 20.8011 73.7298 20.6619C73.8746 20.5227 73.9854 20.3509 74.0621 20.1463L75.2681 20.3636C75.1715 20.7187 74.9982 21.0298 74.7482 21.2969C74.5011 21.5611 74.19 21.767 73.815 21.9148C73.4428 22.0597 73.0181 22.1321 72.5408 22.1321ZM81.6676 17.0526L80.5128 17.2571C80.4645 17.1094 80.3878 16.9687 80.2827 16.8352C80.1804 16.7017 80.0412 16.5923 79.8651 16.5071C79.6889 16.4219 79.4688 16.3793 79.2045 16.3793C78.8438 16.3793 78.5426 16.4602 78.3011 16.6222C78.0597 16.7812 77.9389 16.9872 77.9389 17.2401C77.9389 17.4588 78.0199 17.6349 78.1818 17.7685C78.3438 17.902 78.6051 18.0114 78.9659 18.0966L80.0057 18.3352C80.608 18.4744 81.0568 18.6889 81.3523 18.9787C81.6477 19.2685 81.7955 19.6449 81.7955 20.108C81.7955 20.5 81.6818 20.8494 81.4545 21.1562C81.2301 21.4602 80.9162 21.6989 80.5128 21.8722C80.1122 22.0455 79.6477 22.1321 79.1193 22.1321C78.3864 22.1321 77.7884 21.9759 77.3253 21.6634C76.8622 21.348 76.5781 20.9006 76.473 20.321L77.7045 20.1335C77.7813 20.4545 77.9389 20.6974 78.1776 20.8622C78.4162 21.0241 78.7273 21.1051 79.1108 21.1051C79.5284 21.1051 79.8622 21.0185 80.1122 20.8452C80.3622 20.669 80.4872 20.4545 80.4872 20.2017C80.4872 19.9972 80.4105 19.8253 80.2571 19.6861C80.1065 19.5469 79.875 19.4418 79.5625 19.3707L78.4545 19.1278C77.8438 18.9886 77.392 18.767 77.0994 18.4631C76.8097 18.1591 76.6648 17.7741 76.6648 17.3082C76.6648 16.9219 76.7727 16.5838 76.9886 16.294C77.2045 16.0043 77.5028 15.7784 77.8835 15.6165C78.2642 15.4517 78.7003 15.3693 79.1918 15.3693C79.8991 15.3693 80.456 15.5227 80.8622 15.8295C81.2685 16.1335 81.5369 16.5412 81.6676 17.0526ZM88.1012 17.0526L86.9464 17.2571C86.8981 17.1094 86.8214 16.9687 86.7163 16.8352C86.614 16.7017 86.4748 16.5923 86.2987 16.5071C86.1225 16.4219 85.9023 16.3793 85.6381 16.3793C85.2773 16.3793 84.9762 16.4602 84.7347 16.6222C84.4933 16.7812 84.3725 16.9872 84.3725 17.2401C84.3725 17.4588 84.4535 17.6349 84.6154 17.7685C84.7773 17.902 85.0387 18.0114 85.3995 18.0966L86.4393 18.3352C87.0415 18.4744 87.4904 18.6889 87.7859 18.9787C88.0813 19.2685 88.229 19.6449 88.229 20.108C88.229 20.5 88.1154 20.8494 87.8881 21.1562C87.6637 21.4602 87.3498 21.6989 86.9464 21.8722C86.5458 22.0455 86.0813 22.1321 85.5529 22.1321C84.82 22.1321 84.2219 21.9759 83.7589 21.6634C83.2958 21.348 83.0117 20.9006 82.9066 20.321L84.1381 20.1335C84.2148 20.4545 84.3725 20.6974 84.6112 20.8622C84.8498 21.0241 85.1609 21.1051 85.5444 21.1051C85.962 21.1051 86.2958 21.0185 86.5458 20.8452C86.7958 20.669 86.9208 20.4545 86.9208 20.2017C86.9208 19.9972 86.8441 19.8253 86.6907 19.6861C86.5401 19.5469 86.3086 19.4418 85.9961 19.3707L84.8881 19.1278C84.2773 18.9886 83.8256 18.767 83.533 18.4631C83.2433 18.1591 83.0984 17.7741 83.0984 17.3082C83.0984 16.9219 83.2063 16.5838 83.4222 16.294C83.6381 16.0043 83.9364 15.7784 84.3171 15.6165C84.6978 15.4517 85.1339 15.3693 85.6254 15.3693C86.3327 15.3693 86.8896 15.5227 87.2958 15.8295C87.7021 16.1335 87.9705 16.5412 88.1012 17.0526Z" fill="#344054"/>
<rect x="12.25" y="1.25" width="88.5" height="33.5" rx="7.75" stroke="#63696E" stroke-opacity="0.24" stroke-width="0.5"/>
<path d="M61 42C61 44.4853 58.9853 46.5 56.5 46.5C54.0147 46.5 52 44.4853 52 42C52 39.5147 54.0147 37.5 56.5 37.5C58.9853 37.5 61 39.5147 61 42Z" fill="#3180BA"/>
<path d="M62.5711 32.4853C63.462 32.4853 63.9081 33.5624 63.2782 34.1924L57.2071 40.2635C56.8166 40.654 56.1834 40.654 55.7929 40.2635L49.7218 34.1924C49.0919 33.5624 49.538 32.4853 50.4289 32.4853L62.5711 32.4853Z" fill="white"/>
</g>
<g filter="url(#filter1_dd_205_384)">
<rect x="192" width="126" height="34" rx="8" fill="#D5CFCF"/>
<path d="M205.416 21V12.2727H208.527C209.206 12.2727 209.768 12.3963 210.214 12.6435C210.66 12.8906 210.994 13.2287 211.216 13.6577C211.437 14.0838 211.548 14.5639 211.548 15.098C211.548 15.6349 211.436 16.1179 211.211 16.5469C210.99 16.973 210.654 17.3111 210.206 17.5611C209.76 17.8082 209.199 17.9318 208.522 17.9318H206.383V16.8153H208.403C208.832 16.8153 209.18 16.7415 209.447 16.5938C209.714 16.4432 209.91 16.2386 210.035 15.9801C210.16 15.7216 210.223 15.4276 210.223 15.098C210.223 14.7685 210.16 14.4759 210.035 14.2202C209.91 13.9645 209.713 13.7642 209.443 13.6193C209.176 13.4744 208.824 13.402 208.386 13.402H206.733V21H205.416ZM215.728 21.1321C215.083 21.1321 214.528 20.9943 214.062 20.7188C213.599 20.4403 213.241 20.0497 212.988 19.5469C212.738 19.0412 212.613 18.4489 212.613 17.7699C212.613 17.0994 212.738 16.5085 212.988 15.9972C213.241 15.4858 213.593 15.0866 214.045 14.7997C214.5 14.5128 215.031 14.3693 215.639 14.3693C216.008 14.3693 216.366 14.4304 216.713 14.5526C217.059 14.6747 217.37 14.8665 217.646 15.1278C217.922 15.3892 218.139 15.7287 218.298 16.1463C218.457 16.5611 218.537 17.0653 218.537 17.6591V18.1108H213.333V17.1562H217.288C217.288 16.821 217.22 16.5241 217.083 16.2656C216.947 16.0043 216.755 15.7983 216.508 15.6477C216.264 15.4972 215.977 15.4219 215.647 15.4219C215.289 15.4219 214.977 15.5099 214.71 15.6861C214.446 15.8594 214.241 16.0866 214.096 16.3679C213.954 16.6463 213.883 16.9489 213.883 17.2756V18.0213C213.883 18.4588 213.96 18.831 214.113 19.1378C214.27 19.4446 214.487 19.679 214.765 19.8409C215.044 20 215.369 20.0795 215.741 20.0795C215.983 20.0795 216.203 20.0455 216.402 19.9773C216.6 19.9062 216.772 19.8011 216.917 19.6619C217.062 19.5227 217.173 19.3509 217.25 19.1463L218.456 19.3636C218.359 19.7187 218.186 20.0298 217.936 20.2969C217.689 20.5611 217.377 20.767 217.002 20.9148C216.63 21.0597 216.206 21.1321 215.728 21.1321ZM221.224 17.1136V21H219.95V14.4545H221.173V15.5199H221.254C221.405 15.1733 221.641 14.8949 221.962 14.6847C222.286 14.4744 222.693 14.3693 223.185 14.3693C223.631 14.3693 224.021 14.4631 224.357 14.6506C224.692 14.8352 224.952 15.1108 225.136 15.4773C225.321 15.8437 225.413 16.2969 225.413 16.8366V21H224.139V16.9901C224.139 16.5156 224.016 16.1449 223.768 15.8778C223.521 15.608 223.182 15.473 222.75 15.473C222.455 15.473 222.192 15.5369 221.962 15.6648C221.734 15.7926 221.554 15.9801 221.42 16.2273C221.29 16.4716 221.224 16.767 221.224 17.1136ZM229.572 21.1278C229.044 21.1278 228.572 20.9929 228.158 20.723C227.746 20.4503 227.422 20.0625 227.186 19.5597C226.953 19.054 226.837 18.4474 226.837 17.7401C226.837 17.0327 226.955 16.4276 227.19 15.9247C227.429 15.4219 227.756 15.0369 228.17 14.7699C228.585 14.5028 229.055 14.3693 229.581 14.3693C229.987 14.3693 230.314 14.4375 230.561 14.5739C230.811 14.7074 231.004 14.8636 231.141 15.0426C231.28 15.2216 231.388 15.3793 231.464 15.5156H231.541V12.2727H232.815V21H231.571V19.9815H231.464C231.388 20.1207 231.277 20.2798 231.132 20.4588C230.99 20.6378 230.794 20.794 230.544 20.9276C230.294 21.0611 229.97 21.1278 229.572 21.1278ZM229.854 20.0412C230.22 20.0412 230.53 19.9446 230.783 19.7514C231.038 19.5554 231.232 19.2841 231.362 18.9375C231.496 18.5909 231.562 18.1875 231.562 17.7273C231.562 17.2727 231.497 16.875 231.366 16.5341C231.236 16.1932 231.044 15.9276 230.791 15.7372C230.538 15.5469 230.226 15.4517 229.854 15.4517C229.47 15.4517 229.151 15.5511 228.895 15.75C228.639 15.9489 228.446 16.2202 228.315 16.5639C228.188 16.9077 228.124 17.2955 228.124 17.7273C228.124 18.1648 228.189 18.5582 228.32 18.9077C228.45 19.2571 228.643 19.5341 228.899 19.7386C229.158 19.9403 229.476 20.0412 229.854 20.0412ZM234.634 21V14.4545H235.908V21H234.634ZM235.277 13.4446C235.056 13.4446 234.865 13.3707 234.706 13.223C234.55 13.0724 234.472 12.8935 234.472 12.6861C234.472 12.4759 234.55 12.2969 234.706 12.1491C234.865 11.9986 235.056 11.9233 235.277 11.9233C235.499 11.9233 235.688 11.9986 235.844 12.1491C236.003 12.2969 236.083 12.4759 236.083 12.6861C236.083 12.8935 236.003 13.0724 235.844 13.223C235.688 13.3707 235.499 13.4446 235.277 13.4446ZM238.896 17.1136V21H237.622V14.4545H238.845V15.5199H238.926C239.077 15.1733 239.313 14.8949 239.634 14.6847C239.957 14.4744 240.365 14.3693 240.857 14.3693C241.303 14.3693 241.693 14.4631 242.028 14.6506C242.364 14.8352 242.624 15.1108 242.808 15.4773C242.993 15.8437 243.085 16.2969 243.085 16.8366V21H241.811V16.9901C241.811 16.5156 241.688 16.1449 241.44 15.8778C241.193 15.608 240.854 15.473 240.422 15.473C240.126 15.473 239.864 15.5369 239.634 15.6648C239.406 15.7926 239.226 15.9801 239.092 16.2273C238.962 16.4716 238.896 16.767 238.896 17.1136ZM247.538 23.5909C247.018 23.5909 246.571 23.5227 246.196 23.3864C245.824 23.25 245.52 23.0696 245.284 22.8452C245.048 22.6207 244.872 22.375 244.756 22.108L245.851 21.6562C245.928 21.7812 246.03 21.9134 246.158 22.0526C246.288 22.1946 246.464 22.3153 246.686 22.4148C246.911 22.5142 247.199 22.5639 247.551 22.5639C248.034 22.5639 248.433 22.446 248.749 22.2102C249.064 21.9773 249.222 21.6051 249.222 21.0938V19.8068H249.141C249.064 19.946 248.953 20.1009 248.808 20.2713C248.666 20.4418 248.47 20.5895 248.22 20.7145C247.97 20.8395 247.645 20.902 247.244 20.902C246.727 20.902 246.261 20.7812 245.847 20.5398C245.435 20.2955 245.108 19.9361 244.866 19.4616C244.628 18.9844 244.509 18.3977 244.509 17.7017C244.509 17.0057 244.626 16.4091 244.862 15.9119C245.101 15.4148 245.428 15.0341 245.842 14.7699C246.257 14.5028 246.727 14.3693 247.253 14.3693C247.659 14.3693 247.987 14.4375 248.237 14.5739C248.487 14.7074 248.682 14.8636 248.821 15.0426C248.963 15.2216 249.072 15.3793 249.149 15.5156H249.243V14.4545H250.491V21.1449C250.491 21.7074 250.361 22.169 250.099 22.5298C249.838 22.8906 249.484 23.1577 249.038 23.331C248.595 23.5043 248.095 23.5909 247.538 23.5909ZM247.526 19.8452C247.892 19.8452 248.202 19.7599 248.455 19.5895C248.71 19.4162 248.903 19.169 249.034 18.848C249.168 18.5241 249.234 18.1364 249.234 17.6847C249.234 17.2443 249.169 16.8565 249.038 16.5213C248.908 16.1861 248.716 15.9247 248.463 15.7372C248.21 15.5469 247.898 15.4517 247.526 15.4517C247.142 15.4517 246.822 15.5511 246.567 15.75C246.311 15.946 246.118 16.2131 245.987 16.5511C245.859 16.8892 245.795 17.267 245.795 17.6847C245.795 18.1136 245.861 18.4901 245.991 18.8139C246.122 19.1378 246.315 19.3906 246.571 19.5724C246.83 19.7543 247.148 19.8452 247.526 19.8452ZM256.216 21H254.818L257.958 12.2727H259.48L262.62 21H261.223L258.755 13.858H258.687L256.216 21ZM256.45 17.5824H260.984V18.6903H256.45V17.5824ZM263.778 23.4545V14.4545H265.023V15.5156H265.129C265.203 15.3793 265.31 15.2216 265.449 15.0426C265.588 14.8636 265.781 14.7074 266.028 14.5739C266.276 14.4375 266.602 14.3693 267.009 14.3693C267.537 14.3693 268.009 14.5028 268.423 14.7699C268.838 15.0369 269.163 15.4219 269.399 15.9247C269.638 16.4276 269.757 17.0327 269.757 17.7401C269.757 18.4474 269.639 19.054 269.403 19.5597C269.168 20.0625 268.844 20.4503 268.432 20.723C268.02 20.9929 267.55 21.1278 267.021 21.1278C266.624 21.1278 266.298 21.0611 266.045 20.9276C265.795 20.794 265.599 20.6378 265.457 20.4588C265.315 20.2798 265.206 20.1207 265.129 19.9815H265.053V23.4545H263.778ZM265.027 17.7273C265.027 18.1875 265.094 18.5909 265.227 18.9375C265.361 19.2841 265.554 19.5554 265.807 19.7514C266.06 19.9446 266.369 20.0412 266.736 20.0412C267.116 20.0412 267.435 19.9403 267.69 19.7386C267.946 19.5341 268.139 19.2571 268.27 18.9077C268.403 18.5582 268.47 18.1648 268.47 17.7273C268.47 17.2955 268.405 16.9077 268.274 16.5639C268.146 16.2202 267.953 15.9489 267.695 15.75C267.439 15.5511 267.119 15.4517 266.736 15.4517C266.366 15.4517 266.054 15.5469 265.798 15.7372C265.545 15.9276 265.354 16.1932 265.223 16.5341C265.092 16.875 265.027 17.2727 265.027 17.7273ZM271.185 23.4545V14.4545H272.429V15.5156H272.536C272.609 15.3793 272.716 15.2216 272.855 15.0426C272.994 14.8636 273.188 14.7074 273.435 14.5739C273.682 14.4375 274.009 14.3693 274.415 14.3693C274.943 14.3693 275.415 14.5028 275.83 14.7699C276.244 15.0369 276.57 15.4219 276.805 15.9247C277.044 16.4276 277.163 17.0327 277.163 17.7401C277.163 18.4474 277.045 19.054 276.81 19.5597C276.574 20.0625 276.25 20.4503 275.838 20.723C275.426 20.9929 274.956 21.1278 274.428 21.1278C274.03 21.1278 273.705 21.0611 273.452 20.9276C273.202 20.794 273.006 20.6378 272.864 20.4588C272.722 20.2798 272.612 20.1207 272.536 19.9815H272.459V23.4545H271.185ZM272.433 17.7273C272.433 18.1875 272.5 18.5909 272.634 18.9375C272.767 19.2841 272.96 19.5554 273.213 19.7514C273.466 19.9446 273.776 20.0412 274.142 20.0412C274.523 20.0412 274.841 19.9403 275.097 19.7386C275.352 19.5341 275.545 19.2571 275.676 18.9077C275.81 18.5582 275.876 18.1648 275.876 17.7273C275.876 17.2955 275.811 16.9077 275.68 16.5639C275.553 16.2202 275.359 15.9489 275.101 15.75C274.845 15.5511 274.526 15.4517 274.142 15.4517C273.773 15.4517 273.46 15.5469 273.205 15.7372C272.952 15.9276 272.76 16.1932 272.629 16.5341C272.499 16.875 272.433 17.2727 272.433 17.7273ZM278.591 21V14.4545H279.822V15.4943H279.891C280.01 15.142 280.22 14.8651 280.521 14.6634C280.825 14.4588 281.169 14.3565 281.553 14.3565C281.632 14.3565 281.726 14.3594 281.834 14.3651C281.945 14.3707 282.031 14.3778 282.094 14.3864V15.6051C282.043 15.5909 281.952 15.5753 281.821 15.5582C281.69 15.5384 281.56 15.5284 281.429 15.5284C281.128 15.5284 280.859 15.5923 280.624 15.7202C280.391 15.8452 280.206 16.0199 280.07 16.2443C279.933 16.4659 279.865 16.7187 279.865 17.0028V21H278.591ZM285.719 21.1321C285.105 21.1321 284.57 20.9915 284.113 20.7102C283.655 20.429 283.3 20.0355 283.047 19.5298C282.794 19.0241 282.668 18.4332 282.668 17.7571C282.668 17.0781 282.794 16.4844 283.047 15.9759C283.3 15.4673 283.655 15.0724 284.113 14.7912C284.57 14.5099 285.105 14.3693 285.719 14.3693C286.333 14.3693 286.868 14.5099 287.326 14.7912C287.783 15.0724 288.138 15.4673 288.391 15.9759C288.644 16.4844 288.77 17.0781 288.77 17.7571C288.77 18.4332 288.644 19.0241 288.391 19.5298C288.138 20.0355 287.783 20.429 287.326 20.7102C286.868 20.9915 286.333 21.1321 285.719 21.1321ZM285.723 20.0625C286.121 20.0625 286.451 19.9574 286.712 19.7472C286.973 19.5369 287.167 19.2571 287.292 18.9077C287.419 18.5582 287.483 18.1733 287.483 17.7528C287.483 17.3352 287.419 16.9517 287.292 16.6023C287.167 16.25 286.973 15.9673 286.712 15.7543C286.451 15.5412 286.121 15.4347 285.723 15.4347C285.323 15.4347 284.99 15.5412 284.726 15.7543C284.465 15.9673 284.27 16.25 284.142 16.6023C284.017 16.9517 283.955 17.3352 283.955 17.7528C283.955 18.1733 284.017 18.5582 284.142 18.9077C284.27 19.2571 284.465 19.5369 284.726 19.7472C284.99 19.9574 285.323 20.0625 285.723 20.0625ZM295.569 14.4545L293.196 21H291.832L289.454 14.4545H290.822L292.48 19.4915H292.548L294.201 14.4545H295.569ZM298.484 21.1449C298.069 21.1449 297.694 21.0682 297.359 20.9148C297.024 20.7585 296.758 20.5327 296.562 20.2372C296.369 19.9418 296.272 19.5795 296.272 19.1506C296.272 18.7812 296.343 18.4773 296.485 18.2386C296.627 18 296.819 17.8111 297.061 17.6719C297.302 17.5327 297.572 17.4276 297.87 17.3565C298.169 17.2855 298.473 17.2315 298.782 17.1946C299.174 17.1491 299.493 17.1122 299.737 17.0838C299.981 17.0526 300.159 17.0028 300.27 16.9347C300.38 16.8665 300.436 16.7557 300.436 16.6023V16.5724C300.436 16.2003 300.331 15.9119 300.12 15.7074C299.913 15.5028 299.603 15.4006 299.191 15.4006C298.762 15.4006 298.424 15.4957 298.177 15.6861C297.933 15.8736 297.764 16.0824 297.67 16.3125L296.473 16.0398C296.615 15.642 296.822 15.321 297.095 15.0767C297.37 14.8295 297.687 14.6506 298.045 14.5398C298.403 14.4261 298.779 14.3693 299.174 14.3693C299.436 14.3693 299.713 14.4006 300.005 14.4631C300.301 14.5227 300.576 14.6335 300.832 14.7955C301.091 14.9574 301.302 15.1889 301.467 15.4901C301.632 15.7884 301.714 16.1761 301.714 16.6534V21H300.47V20.1051H300.419C300.336 20.2699 300.213 20.4318 300.048 20.5909C299.883 20.75 299.672 20.8821 299.413 20.9872C299.154 21.0923 298.845 21.1449 298.484 21.1449ZM298.761 20.1222C299.113 20.1222 299.414 20.0526 299.664 19.9134C299.917 19.7741 300.109 19.5923 300.24 19.3679C300.373 19.1406 300.44 18.8977 300.44 18.6392V17.7955C300.395 17.8409 300.306 17.8835 300.176 17.9233C300.048 17.9602 299.902 17.9929 299.737 18.0213C299.572 18.0469 299.412 18.071 299.255 18.0938C299.099 18.1136 298.968 18.1307 298.863 18.1449C298.616 18.1761 298.39 18.2287 298.186 18.3026C297.984 18.3764 297.822 18.483 297.7 18.6222C297.581 18.7585 297.521 18.9403 297.521 19.1676C297.521 19.483 297.637 19.7216 297.87 19.8835C298.103 20.0426 298.4 20.1222 298.761 20.1222ZM304.685 12.2727V21H303.411V12.2727H304.685Z" fill="white"/>
<rect x="192.25" y="0.25" width="125.5" height="33.5" rx="7.75" stroke="#63696E" stroke-opacity="0.24" stroke-width="0.5"/>
<path d="M259.5 41C259.5 43.4853 257.485 45.5 255 45.5C252.515 45.5 250.5 43.4853 250.5 41C250.5 38.5147 252.515 36.5 255 36.5C257.485 36.5 259.5 38.5147 259.5 41Z" fill="#63696E"/>
<path d="M261.071 31.4853C261.962 31.4853 262.408 32.5624 261.778 33.1924L255.707 39.2635C255.317 39.654 254.683 39.654 254.293 39.2635L248.222 33.1924C247.592 32.5624 248.038 31.4853 248.929 31.4853L261.071 31.4853Z" fill="#D5CFCF"/>
</g>
<defs>
<filter id="filter0_dd_205_384" x="0" y="1" width="113" height="69.5" filterUnits="userSpaceOnUse" color-interpolation-filters="sRGB">
<feFlood flood-opacity="0" result="BackgroundImageFix"/>
<feColorMatrix in="SourceAlpha" type="matrix" values="0 0 0 0 0 0 0 0 0 0 0 0 0 0 0 0 0 0 127 0" result="hardAlpha"/>
<feMorphology radius="2" operator="erode" in="SourceAlpha" result="effect1_dropShadow_205_384"/>
<feOffset dy="4"/>
<feGaussianBlur stdDeviation="3"/>
<feColorMatrix type="matrix" values="0 0 0 0 0.0627451 0 0 0 0 0.0941176 0 0 0 0 0.156863 0 0 0 0.03 0"/>
<feBlend mode="normal" in2="BackgroundImageFix" result="effect1_dropShadow_205_384"/>
<feColorMatrix in="SourceAlpha" type="matrix" values="0 0 0 0 0 0 0 0 0 0 0 0 0 0 0 0 0 0 127 0" result="hardAlpha"/>
<feMorphology radius="4" operator="erode" in="SourceAlpha" result="effect2_dropShadow_205_384"/>
<feOffset dy="12"/>
<feGaussianBlur stdDeviation="8"/>
<feColorMatrix type="matrix" values="0 0 0 0 0.0627451 0 0 0 0 0.0941176 0 0 0 0 0.156863 0 0 0 0.08 0"/>
<feBlend mode="normal" in2="effect1_dropShadow_205_384" result="effect2_dropShadow_205_384"/>
<feBlend mode="normal" in="SourceGraphic" in2="effect2_dropShadow_205_384" result="shape"/>
</filter>
<filter id="filter1_dd_205_384" x="180" y="0" width="150" height="69.5" filterUnits="userSpaceOnUse" color-interpolation-filters="sRGB">
<feFlood flood-opacity="0" result="BackgroundImageFix"/>
<feColorMatrix in="SourceAlpha" type="matrix" values="0 0 0 0 0 0 0 0 0 0 0 0 0 0 0 0 0 0 127 0" result="hardAlpha"/>
<feMorphology radius="2" operator="erode" in="SourceAlpha" result="effect1_dropShadow_205_384"/>
<feOffset dy="4"/>
<feGaussianBlur stdDeviation="3"/>
<feColorMatrix type="matrix" values="0 0 0 0 0.0627451 0 0 0 0 0.0941176 0 0 0 0 0.156863 0 0 0 0.03 0"/>
<feBlend mode="normal" in2="BackgroundImageFix" result="effect1_dropShadow_205_384"/>
<feColorMatrix in="SourceAlpha" type="matrix" values="0 0 0 0 0 0 0 0 0 0 0 0 0 0 0 0 0 0 127 0" result="hardAlpha"/>
<feMorphology radius="4" operator="erode" in="SourceAlpha" result="effect2_dropShadow_205_384"/>
<feOffset dy="12"/>
<feGaussianBlur stdDeviation="8"/>
<feColorMatrix type="matrix" values="0 0 0 0 0.0627451 0 0 0 0 0.0941176 0 0 0 0 0.156863 0 0 0 0.08 0"/>
<feBlend mode="normal" in2="effect1_dropShadow_205_384" result="effect2_dropShadow_205_384"/>
<feBlend mode="normal" in="SourceGraphic" in2="effect2_dropShadow_205_384" result="shape"/>
</filter>
</defs>
</svg>
