<svg width="353" height="93" viewBox="0 0 353 93" fill="none" xmlns="http://www.w3.org/2000/svg">
<path d="M50 58.25L179 58.25" stroke="#D9D9D9" stroke-width="3.5" stroke-dasharray="7 7"/>
<path d="M50 58L50 90.5L304 90.5L304 58.5" stroke="#D9D9D9" stroke-width="3.5" stroke-dasharray="7 7"/>
<g filter="url(#filter0_dd_583_851)">
<rect x="12" width="76" height="52" rx="8" fill="white"/>
<path d="M25.9276 21V12.2727H29.0384C29.7173 12.2727 30.2798 12.3963 30.7259 12.6435C31.1719 12.8906 31.5057 13.2287 31.7273 13.6577C31.9489 14.0838 32.0597 14.5639 32.0597 15.098C32.0597 15.6349 31.9474 16.1179 31.723 16.5469C31.5014 16.973 31.1662 17.3111 30.7173 17.5611C30.2713 17.8082 29.7102 17.9318 29.0341 17.9318H26.8949V16.8153H28.9148C29.3438 16.8153 29.6918 16.7415 29.9588 16.5938C30.2259 16.4432 30.4219 16.2386 30.5469 15.9801C30.6719 15.7216 30.7344 15.4276 30.7344 15.098C30.7344 14.7685 30.6719 14.4759 30.5469 14.2202C30.4219 13.9645 30.2244 13.7642 29.9545 13.6193C29.6875 13.4744 29.3352 13.402 28.8977 13.402H27.2443V21H25.9276ZM36.2401 21.1321C35.5952 21.1321 35.0398 20.9943 34.5739 20.7188C34.1108 20.4403 33.7528 20.0497 33.5 19.5469C33.25 19.0412 33.125 18.4489 33.125 17.7699C33.125 17.0994 33.25 16.5085 33.5 15.9972C33.7528 15.4858 34.1051 15.0866 34.5568 14.7997C35.0114 14.5128 35.5426 14.3693 36.1506 14.3693C36.5199 14.3693 36.8778 14.4304 37.2244 14.5526C37.571 14.6747 37.8821 14.8665 38.1577 15.1278C38.4332 15.3892 38.6506 15.7287 38.8097 16.1463C38.9688 16.5611 39.0483 17.0653 39.0483 17.6591V18.1108H33.8452V17.1562H37.7997C37.7997 16.821 37.7315 16.5241 37.5952 16.2656C37.4588 16.0043 37.267 15.7983 37.0199 15.6477C36.7756 15.4972 36.4886 15.4219 36.1591 15.4219C35.8011 15.4219 35.4886 15.5099 35.2216 15.6861C34.9574 15.8594 34.7528 16.0866 34.608 16.3679C34.4659 16.6463 34.3949 16.9489 34.3949 17.2756V18.0213C34.3949 18.4588 34.4716 18.831 34.625 19.1378C34.7812 19.4446 34.9986 19.679 35.277 19.8409C35.5554 20 35.8807 20.0795 36.2528 20.0795C36.4943 20.0795 36.7145 20.0455 36.9134 19.9773C37.1122 19.9062 37.2841 19.8011 37.429 19.6619C37.5739 19.5227 37.6847 19.3509 37.7614 19.1463L38.9673 19.3636C38.8707 19.7187 38.6974 20.0298 38.4474 20.2969C38.2003 20.5611 37.8892 20.767 37.5142 20.9148C37.142 21.0597 36.7173 21.1321 36.2401 21.1321ZM41.7362 17.1136V21H40.462V14.4545H41.685V15.5199H41.766C41.9165 15.1733 42.1523 14.8949 42.4734 14.6847C42.7972 14.4744 43.2049 14.3693 43.6964 14.3693C44.1424 14.3693 44.533 14.4631 44.8683 14.6506C45.2035 14.8352 45.4634 15.1108 45.6481 15.4773C45.8327 15.8437 45.9251 16.2969 45.9251 16.8366V21H44.6509V16.9901C44.6509 16.5156 44.5273 16.1449 44.2802 15.8778C44.033 15.608 43.6935 15.473 43.2617 15.473C42.9663 15.473 42.7035 15.5369 42.4734 15.6648C42.2461 15.7926 42.0657 15.9801 41.9322 16.2273C41.8015 16.4716 41.7362 16.767 41.7362 17.1136ZM50.0842 21.1278C49.5558 21.1278 49.0842 20.9929 48.6694 20.723C48.2575 20.4503 47.9336 20.0625 47.6978 19.5597C47.4648 19.054 47.3484 18.4474 47.3484 17.7401C47.3484 17.0327 47.4663 16.4276 47.7021 15.9247C47.9407 15.4219 48.2674 15.0369 48.6822 14.7699C49.0969 14.5028 49.5671 14.3693 50.0927 14.3693C50.4989 14.3693 50.8256 14.4375 51.0728 14.5739C51.3228 14.7074 51.516 14.8636 51.6523 15.0426C51.7915 15.2216 51.8995 15.3793 51.9762 15.5156H52.0529V12.2727H53.3271V21H52.0827V19.9815H51.9762C51.8995 20.1207 51.7887 20.2798 51.6438 20.4588C51.5018 20.6378 51.3058 20.794 51.0558 20.9276C50.8058 21.0611 50.4819 21.1278 50.0842 21.1278ZM50.3654 20.0412C50.7319 20.0412 51.0415 19.9446 51.2944 19.7514C51.5501 19.5554 51.7433 19.2841 51.8739 18.9375C52.0075 18.5909 52.0742 18.1875 52.0742 17.7273C52.0742 17.2727 52.0089 16.875 51.8782 16.5341C51.7475 16.1932 51.5558 15.9276 51.3029 15.7372C51.0501 15.5469 50.7376 15.4517 50.3654 15.4517C49.9819 15.4517 49.6623 15.5511 49.4066 15.75C49.1509 15.9489 48.9577 16.2202 48.8271 16.5639C48.6992 16.9077 48.6353 17.2955 48.6353 17.7273C48.6353 18.1648 48.7006 18.5582 48.8313 18.9077C48.962 19.2571 49.1552 19.5341 49.4109 19.7386C49.6694 19.9403 49.9876 20.0412 50.3654 20.0412ZM55.1456 21V14.4545H56.4197V21H55.1456ZM55.7891 13.4446C55.5675 13.4446 55.3771 13.3707 55.218 13.223C55.0618 13.0724 54.9837 12.8935 54.9837 12.6861C54.9837 12.4759 55.0618 12.2969 55.218 12.1491C55.3771 11.9986 55.5675 11.9233 55.7891 11.9233C56.0107 11.9233 56.1996 11.9986 56.3558 12.1491C56.5149 12.2969 56.5945 12.4759 56.5945 12.6861C56.5945 12.8935 56.5149 13.0724 56.3558 13.223C56.1996 13.3707 56.0107 13.4446 55.7891 13.4446ZM59.408 17.1136V21H58.1339V14.4545H59.3569V15.5199H59.4379C59.5884 15.1733 59.8242 14.8949 60.1452 14.6847C60.4691 14.4744 60.8768 14.3693 61.3683 14.3693C61.8143 14.3693 62.2049 14.4631 62.5401 14.6506C62.8754 14.8352 63.1353 15.1108 63.32 15.4773C63.5046 15.8437 63.5969 16.2969 63.5969 16.8366V21H62.3228V16.9901C62.3228 16.5156 62.1992 16.1449 61.9521 15.8778C61.7049 15.608 61.3654 15.473 60.9336 15.473C60.6381 15.473 60.3754 15.5369 60.1452 15.6648C59.918 15.7926 59.7376 15.9801 59.604 16.2273C59.4734 16.4716 59.408 16.767 59.408 17.1136ZM68.0501 23.5909C67.5302 23.5909 67.0827 23.5227 66.7077 23.3864C66.3356 23.25 66.0316 23.0696 65.7958 22.8452C65.56 22.6207 65.3839 22.375 65.2674 22.108L66.3626 21.6562C66.4393 21.7812 66.5415 21.9134 66.6694 22.0526C66.8001 22.1946 66.9762 22.3153 67.1978 22.4148C67.4222 22.5142 67.7106 22.5639 68.0629 22.5639C68.5458 22.5639 68.945 22.446 69.2603 22.2102C69.5756 21.9773 69.7333 21.6051 69.7333 21.0938V19.8068H69.6523C69.5756 19.946 69.4648 20.1009 69.32 20.2713C69.1779 20.4418 68.9819 20.5895 68.7319 20.7145C68.4819 20.8395 68.1566 20.902 67.756 20.902C67.239 20.902 66.7731 20.7812 66.3583 20.5398C65.9464 20.2955 65.6197 19.9361 65.3782 19.4616C65.1396 18.9844 65.0202 18.3977 65.0202 17.7017C65.0202 17.0057 65.1381 16.4091 65.3739 15.9119C65.6126 15.4148 65.9393 15.0341 66.354 14.7699C66.7688 14.5028 67.239 14.3693 67.7646 14.3693C68.1708 14.3693 68.4989 14.4375 68.7489 14.5739C68.9989 14.7074 69.1935 14.8636 69.3327 15.0426C69.4748 15.2216 69.5842 15.3793 69.6609 15.5156H69.7546V14.4545H71.0032V21.1449C71.0032 21.7074 70.8725 22.169 70.6112 22.5298C70.3498 22.8906 69.9961 23.1577 69.5501 23.331C69.1069 23.5043 68.6069 23.5909 68.0501 23.5909ZM68.0373 19.8452C68.4038 19.8452 68.7134 19.7599 68.9663 19.5895C69.2219 19.4162 69.4151 19.169 69.5458 18.848C69.6793 18.5241 69.7461 18.1364 69.7461 17.6847C69.7461 17.2443 69.6808 16.8565 69.5501 16.5213C69.4194 16.1861 69.2276 15.9247 68.9748 15.7372C68.7219 15.5469 68.4094 15.4517 68.0373 15.4517C67.6538 15.4517 67.3342 15.5511 67.0785 15.75C66.8228 15.946 66.6296 16.2131 66.4989 16.5511C66.3711 16.8892 66.3072 17.267 66.3072 17.6847C66.3072 18.1136 66.3725 18.4901 66.5032 18.8139C66.6339 19.1378 66.8271 19.3906 67.0827 19.5724C67.3413 19.7543 67.6594 19.8452 68.0373 19.8452ZM26.1843 39H24.7866L27.9272 30.2727H29.4485L32.5891 39H31.1914L28.7241 31.858H28.6559L26.1843 39ZM26.4187 35.5824H30.9528V36.6903H26.4187V35.5824ZM33.7472 41.4545V32.4545H34.9915V33.5156H35.098C35.1719 33.3793 35.2784 33.2216 35.4176 33.0426C35.5568 32.8636 35.75 32.7074 35.9972 32.5739C36.2443 32.4375 36.571 32.3693 36.9773 32.3693C37.5057 32.3693 37.9773 32.5028 38.392 32.7699C38.8068 33.0369 39.1321 33.4219 39.3679 33.9247C39.6065 34.4276 39.7259 35.0327 39.7259 35.7401C39.7259 36.4474 39.608 37.054 39.3722 37.5597C39.1364 38.0625 38.8125 38.4503 38.4006 38.723C37.9886 38.9929 37.5185 39.1278 36.9901 39.1278C36.5923 39.1278 36.267 39.0611 36.0142 38.9276C35.7642 38.794 35.5682 38.6378 35.4261 38.4588C35.2841 38.2798 35.1747 38.1207 35.098 37.9815H35.0213V41.4545H33.7472ZM34.9957 35.7273C34.9957 36.1875 35.0625 36.5909 35.196 36.9375C35.3295 37.2841 35.5227 37.5554 35.7756 37.7514C36.0284 37.9446 36.3381 38.0412 36.7045 38.0412C37.0852 38.0412 37.4034 37.9403 37.6591 37.7386C37.9148 37.5341 38.108 37.2571 38.2386 36.9077C38.3722 36.5582 38.4389 36.1648 38.4389 35.7273C38.4389 35.2955 38.3736 34.9077 38.2429 34.5639C38.1151 34.2202 37.9219 33.9489 37.6634 33.75C37.4077 33.5511 37.0881 33.4517 36.7045 33.4517C36.3352 33.4517 36.0227 33.5469 35.767 33.7372C35.5142 33.9276 35.3224 34.1932 35.1918 34.5341C35.0611 34.875 34.9957 35.2727 34.9957 35.7273ZM41.1534 41.4545V32.4545H42.3977V33.5156H42.5043C42.5781 33.3793 42.6847 33.2216 42.8239 33.0426C42.9631 32.8636 43.1563 32.7074 43.4034 32.5739C43.6506 32.4375 43.9773 32.3693 44.3835 32.3693C44.9119 32.3693 45.3835 32.5028 45.7983 32.7699C46.2131 33.0369 46.5384 33.4219 46.7741 33.9247C47.0128 34.4276 47.1321 35.0327 47.1321 35.7401C47.1321 36.4474 47.0142 37.054 46.7784 37.5597C46.5426 38.0625 46.2188 38.4503 45.8068 38.723C45.3949 38.9929 44.9247 39.1278 44.3963 39.1278C43.9986 39.1278 43.6733 39.0611 43.4205 38.9276C43.1705 38.794 42.9744 38.6378 42.8324 38.4588C42.6903 38.2798 42.581 38.1207 42.5043 37.9815H42.4276V41.4545H41.1534ZM42.402 35.7273C42.402 36.1875 42.4688 36.5909 42.6023 36.9375C42.7358 37.2841 42.929 37.5554 43.1818 37.7514C43.4347 37.9446 43.7443 38.0412 44.1108 38.0412C44.4915 38.0412 44.8097 37.9403 45.0653 37.7386C45.321 37.5341 45.5142 37.2571 45.6449 36.9077C45.7784 36.5582 45.8452 36.1648 45.8452 35.7273C45.8452 35.2955 45.7798 34.9077 45.6491 34.5639C45.5213 34.2202 45.3281 33.9489 45.0696 33.75C44.8139 33.5511 44.4943 33.4517 44.1108 33.4517C43.7415 33.4517 43.429 33.5469 43.1733 33.7372C42.9205 33.9276 42.7287 34.1932 42.598 34.5341C42.4673 34.875 42.402 35.2727 42.402 35.7273ZM48.5597 39V32.4545H49.7912V33.4943H49.8594C49.9787 33.142 50.1889 32.8651 50.4901 32.6634C50.794 32.4588 51.1378 32.3565 51.5213 32.3565C51.6009 32.3565 51.6946 32.3594 51.8026 32.3651C51.9134 32.3707 52 32.3778 52.0625 32.3864V33.6051C52.0114 33.5909 51.9205 33.5753 51.7898 33.5582C51.6591 33.5384 51.5284 33.5284 51.3977 33.5284C51.0966 33.5284 50.8281 33.5923 50.5923 33.7202C50.3594 33.8452 50.1747 34.0199 50.0384 34.2443C49.902 34.4659 49.8338 34.7187 49.8338 35.0028V39H48.5597ZM55.6879 39.1321C55.0742 39.1321 54.5387 38.9915 54.0813 38.7102C53.6239 38.429 53.2688 38.0355 53.016 37.5298C52.7631 37.0241 52.6367 36.4332 52.6367 35.7571C52.6367 35.0781 52.7631 34.4844 53.016 33.9759C53.2688 33.4673 53.6239 33.0724 54.0813 32.7912C54.5387 32.5099 55.0742 32.3693 55.6879 32.3693C56.3015 32.3693 56.837 32.5099 57.2944 32.7912C57.7518 33.0724 58.1069 33.4673 58.3597 33.9759C58.6126 34.4844 58.739 35.0781 58.739 35.7571C58.739 36.4332 58.6126 37.0241 58.3597 37.5298C58.1069 38.0355 57.7518 38.429 57.2944 38.7102C56.837 38.9915 56.3015 39.1321 55.6879 39.1321ZM55.6921 38.0625C56.0898 38.0625 56.4194 37.9574 56.6808 37.7472C56.9421 37.5369 57.1353 37.2571 57.2603 36.9077C57.3881 36.5582 57.4521 36.1733 57.4521 35.7528C57.4521 35.3352 57.3881 34.9517 57.2603 34.6023C57.1353 34.25 56.9421 33.9673 56.6808 33.7543C56.4194 33.5412 56.0898 33.4347 55.6921 33.4347C55.2915 33.4347 54.9592 33.5412 54.695 33.7543C54.4336 33.9673 54.239 34.25 54.1112 34.6023C53.9862 34.9517 53.9237 35.3352 53.9237 35.7528C53.9237 36.1733 53.9862 36.5582 54.1112 36.9077C54.239 37.2571 54.4336 37.5369 54.695 37.7472C54.9592 37.9574 55.2915 38.0625 55.6921 38.0625ZM65.538 32.4545L63.1644 39H61.8008L59.4229 32.4545H60.7908L62.4485 37.4915H62.5167L64.1701 32.4545H65.538ZM68.4528 39.1449C68.038 39.1449 67.663 39.0682 67.3278 38.9148C66.9925 38.7585 66.7269 38.5327 66.5309 38.2372C66.3377 37.9418 66.2411 37.5795 66.2411 37.1506C66.2411 36.7812 66.3121 36.4773 66.4542 36.2386C66.5962 36 66.788 35.8111 67.0295 35.6719C67.271 35.5327 67.5408 35.4276 67.8391 35.3565C68.1374 35.2855 68.4414 35.2315 68.7511 35.1946C69.1431 35.1491 69.4613 35.1122 69.7056 35.0838C69.9499 35.0526 70.1275 35.0028 70.2383 34.9347C70.3491 34.8665 70.4045 34.7557 70.4045 34.6023V34.5724C70.4045 34.2003 70.2994 33.9119 70.0891 33.7074C69.8817 33.5028 69.5721 33.4006 69.1602 33.4006C68.7312 33.4006 68.3931 33.4957 68.146 33.6861C67.9016 33.8736 67.7326 34.0824 67.6388 34.3125L66.4414 34.0398C66.5835 33.642 66.7908 33.321 67.0636 33.0767C67.3391 32.8295 67.6559 32.6506 68.0138 32.5398C68.3718 32.4261 68.7482 32.3693 69.1431 32.3693C69.4045 32.3693 69.6815 32.4006 69.9741 32.4631C70.2695 32.5227 70.5451 32.6335 70.8008 32.7955C71.0593 32.9574 71.271 33.1889 71.4357 33.4901C71.6005 33.7884 71.6829 34.1761 71.6829 34.6534V39H70.4386V38.1051H70.3874C70.305 38.2699 70.1815 38.4318 70.0167 38.5909C69.8519 38.75 69.6403 38.8821 69.3817 38.9872C69.1232 39.0923 68.8136 39.1449 68.4528 39.1449ZM68.7298 38.1222C69.082 38.1222 69.3832 38.0526 69.6332 37.9134C69.886 37.7741 70.0778 37.5923 70.2085 37.3679C70.342 37.1406 70.4087 36.8977 70.4087 36.6392V35.7955C70.3633 35.8409 70.2752 35.8835 70.1445 35.9233C70.0167 35.9602 69.8704 35.9929 69.7056 36.0213C69.5408 36.0469 69.3803 36.071 69.2241 36.0938C69.0678 36.1136 68.9371 36.1307 68.832 36.1449C68.5849 36.1761 68.359 36.2287 68.1545 36.3026C67.9528 36.3764 67.7908 36.483 67.6687 36.6222C67.5494 36.7585 67.4897 36.9403 67.4897 37.1676C67.4897 37.483 67.6062 37.7216 67.8391 37.8835C68.0721 38.0426 68.369 38.1222 68.7298 38.1222ZM74.6541 30.2727V39H73.38V30.2727H74.6541Z" fill="#344054"/>
<rect x="12.25" y="0.25" width="75.5" height="51.5" rx="7.75" stroke="#63696E" stroke-opacity="0.24" stroke-width="0.5"/>
<path d="M54.5 59C54.5 61.4853 52.4853 63.5 50 63.5C47.5147 63.5 45.5 61.4853 45.5 59C45.5 56.5147 47.5147 54.5 50 54.5C52.4853 54.5 54.5 56.5147 54.5 59Z" fill="#3180BA"/>
<path d="M56.0711 49.4853C56.962 49.4853 57.4081 50.5624 56.7782 51.1924L50.7071 57.2635C50.3166 57.654 49.6834 57.654 49.2929 57.2635L43.2218 51.1924C42.5919 50.5624 43.038 49.4853 43.9289 49.4853L56.0711 49.4853Z" fill="white"/>
</g>
<g filter="url(#filter1_dd_583_851)">
<rect x="146" y="18" width="65" height="34" rx="8" fill="#D5CFCF"/>
<path d="M166.692 33.1108H165.362C165.311 32.8267 165.216 32.5767 165.077 32.3608C164.938 32.1449 164.767 31.9616 164.565 31.8111C164.364 31.6605 164.138 31.5469 163.888 31.4702C163.641 31.3935 163.378 31.3551 163.099 31.3551C162.597 31.3551 162.146 31.4815 161.749 31.7344C161.354 31.9872 161.041 32.358 160.811 32.8466C160.584 33.3352 160.47 33.9318 160.47 34.6364C160.47 35.3466 160.584 35.946 160.811 36.4347C161.041 36.9233 161.355 37.2926 161.753 37.5426C162.151 37.7926 162.598 37.9176 163.095 37.9176C163.371 37.9176 163.632 37.8807 163.879 37.8068C164.129 37.7301 164.355 37.6179 164.557 37.4702C164.759 37.3224 164.929 37.142 165.068 36.929C165.21 36.7131 165.308 36.4659 165.362 36.1875L166.692 36.1918C166.621 36.6207 166.483 37.0156 166.278 37.3764C166.077 37.7344 165.817 38.044 165.499 38.3054C165.183 38.5639 164.822 38.7642 164.416 38.9062C164.01 39.0483 163.567 39.1193 163.087 39.1193C162.331 39.1193 161.658 38.9403 161.067 38.5824C160.476 38.2216 160.01 37.706 159.669 37.0355C159.331 36.3651 159.162 35.5653 159.162 34.6364C159.162 33.7045 159.332 32.9048 159.673 32.2372C160.014 31.5668 160.48 31.0526 161.071 30.6946C161.662 30.3338 162.334 30.1534 163.087 30.1534C163.55 30.1534 163.982 30.2202 164.382 30.3537C164.786 30.4844 165.148 30.6776 165.469 30.9332C165.79 31.1861 166.055 31.4957 166.266 31.8622C166.476 32.2259 166.618 32.642 166.692 33.1108ZM169.439 30.2727V39H168.165V30.2727H169.439ZM173.911 39.1321C173.297 39.1321 172.761 38.9915 172.304 38.7102C171.847 38.429 171.491 38.0355 171.239 37.5298C170.986 37.0241 170.859 36.4332 170.859 35.7571C170.859 35.0781 170.986 34.4844 171.239 33.9759C171.491 33.4673 171.847 33.0724 172.304 32.7912C172.761 32.5099 173.297 32.3693 173.911 32.3693C174.524 32.3693 175.06 32.5099 175.517 32.7912C175.974 33.0724 176.33 33.4673 176.582 33.9759C176.835 34.4844 176.962 35.0781 176.962 35.7571C176.962 36.4332 176.835 37.0241 176.582 37.5298C176.33 38.0355 175.974 38.429 175.517 38.7102C175.06 38.9915 174.524 39.1321 173.911 39.1321ZM173.915 38.0625C174.313 38.0625 174.642 37.9574 174.903 37.7472C175.165 37.5369 175.358 37.2571 175.483 36.9077C175.611 36.5582 175.675 36.1733 175.675 35.7528C175.675 35.3352 175.611 34.9517 175.483 34.6023C175.358 34.25 175.165 33.9673 174.903 33.7543C174.642 33.5412 174.313 33.4347 173.915 33.4347C173.514 33.4347 173.182 33.5412 172.918 33.7543C172.656 33.9673 172.462 34.25 172.334 34.6023C172.209 34.9517 172.146 35.3352 172.146 35.7528C172.146 36.1733 172.209 36.5582 172.334 36.9077C172.462 37.2571 172.656 37.5369 172.918 37.7472C173.182 37.9574 173.514 38.0625 173.915 38.0625ZM183.289 34.0526L182.134 34.2571C182.086 34.1094 182.009 33.9687 181.904 33.8352C181.801 33.7017 181.662 33.5923 181.486 33.5071C181.31 33.4219 181.09 33.3793 180.826 33.3793C180.465 33.3793 180.164 33.4602 179.922 33.6222C179.681 33.7812 179.56 33.9872 179.56 34.2401C179.56 34.4588 179.641 34.6349 179.803 34.7685C179.965 34.902 180.226 35.0114 180.587 35.0966L181.627 35.3352C182.229 35.4744 182.678 35.6889 182.973 35.9787C183.269 36.2685 183.417 36.6449 183.417 37.108C183.417 37.5 183.303 37.8494 183.076 38.1562C182.851 38.4602 182.537 38.6989 182.134 38.8722C181.733 39.0455 181.269 39.1321 180.74 39.1321C180.007 39.1321 179.409 38.9759 178.946 38.6634C178.483 38.348 178.199 37.9006 178.094 37.321L179.326 37.1335C179.402 37.4545 179.56 37.6974 179.799 37.8622C180.037 38.0241 180.348 38.1051 180.732 38.1051C181.15 38.1051 181.483 38.0185 181.733 37.8452C181.983 37.669 182.108 37.4545 182.108 37.2017C182.108 36.9972 182.032 36.8253 181.878 36.6861C181.728 36.5469 181.496 36.4418 181.184 36.3707L180.076 36.1278C179.465 35.9886 179.013 35.767 178.721 35.4631C178.431 35.1591 178.286 34.7741 178.286 34.3082C178.286 33.9219 178.394 33.5838 178.61 33.294C178.826 33.0043 179.124 32.7784 179.505 32.6165C179.885 32.4517 180.321 32.3693 180.813 32.3693C181.52 32.3693 182.077 32.5227 182.483 32.8295C182.89 33.1335 183.158 33.5412 183.289 34.0526ZM187.638 39.1321C186.994 39.1321 186.438 38.9943 185.972 38.7188C185.509 38.4403 185.151 38.0497 184.898 37.5469C184.648 37.0412 184.523 36.4489 184.523 35.7699C184.523 35.0994 184.648 34.5085 184.898 33.9972C185.151 33.4858 185.504 33.0866 185.955 32.7997C186.41 32.5128 186.941 32.3693 187.549 32.3693C187.918 32.3693 188.276 32.4304 188.623 32.5526C188.969 32.6747 189.281 32.8665 189.556 33.1278C189.832 33.3892 190.049 33.7287 190.208 34.1463C190.367 34.5611 190.447 35.0653 190.447 35.6591V36.1108H185.244V35.1562H189.198C189.198 34.821 189.13 34.5241 188.994 34.2656C188.857 34.0043 188.665 33.7983 188.418 33.6477C188.174 33.4972 187.887 33.4219 187.558 33.4219C187.2 33.4219 186.887 33.5099 186.62 33.6861C186.356 33.8594 186.151 34.0866 186.006 34.3679C185.864 34.6463 185.793 34.9489 185.793 35.2756V36.0213C185.793 36.4588 185.87 36.831 186.023 37.1378C186.18 37.4446 186.397 37.679 186.675 37.8409C186.954 38 187.279 38.0795 187.651 38.0795C187.893 38.0795 188.113 38.0455 188.312 37.9773C188.511 37.9062 188.683 37.8011 188.827 37.6619C188.972 37.5227 189.083 37.3509 189.16 37.1463L190.366 37.3636C190.269 37.7187 190.096 38.0298 189.846 38.2969C189.599 38.5611 189.288 38.767 188.913 38.9148C188.54 39.0597 188.116 39.1321 187.638 39.1321ZM194.311 39.1278C193.782 39.1278 193.311 38.9929 192.896 38.723C192.484 38.4503 192.16 38.0625 191.924 37.5597C191.691 37.054 191.575 36.4474 191.575 35.7401C191.575 35.0327 191.693 34.4276 191.929 33.9247C192.167 33.4219 192.494 33.0369 192.909 32.7699C193.324 32.5028 193.794 32.3693 194.319 32.3693C194.725 32.3693 195.052 32.4375 195.299 32.5739C195.549 32.7074 195.743 32.8636 195.879 33.0426C196.018 33.2216 196.126 33.3793 196.203 33.5156H196.279V30.2727H197.554V39H196.309V37.9815H196.203C196.126 38.1207 196.015 38.2798 195.87 38.4588C195.728 38.6378 195.532 38.794 195.282 38.9276C195.032 39.0611 194.708 39.1278 194.311 39.1278ZM194.592 38.0412C194.958 38.0412 195.268 37.9446 195.521 37.7514C195.777 37.5554 195.97 37.2841 196.1 36.9375C196.234 36.5909 196.301 36.1875 196.301 35.7273C196.301 35.2727 196.235 34.875 196.105 34.5341C195.974 34.1932 195.782 33.9276 195.529 33.7372C195.277 33.5469 194.964 33.4517 194.592 33.4517C194.208 33.4517 193.889 33.5511 193.633 33.75C193.377 33.9489 193.184 34.2202 193.054 34.5639C192.926 34.9077 192.862 35.2955 192.862 35.7273C192.862 36.1648 192.927 36.5582 193.058 36.9077C193.189 37.2571 193.382 37.5341 193.637 37.7386C193.896 37.9403 194.214 38.0412 194.592 38.0412Z" fill="white"/>
<rect x="146.25" y="18.25" width="64.5" height="33.5" rx="7.75" stroke="#63696E" stroke-opacity="0.24" stroke-width="0.5"/>
<path d="M183 59C183 61.4853 180.985 63.5 178.5 63.5C176.015 63.5 174 61.4853 174 59C174 56.5147 176.015 54.5 178.5 54.5C180.985 54.5 183 56.5147 183 59Z" fill="#63696E"/>
<path d="M184.571 49.4853C185.462 49.4853 185.908 50.5624 185.278 51.1924L179.207 57.2635C178.817 57.654 178.183 57.654 177.793 57.2635L171.722 51.1924C171.092 50.5624 171.538 49.4853 172.429 49.4853L184.571 49.4853Z" fill="#D5CFCF"/>
</g>
<g filter="url(#filter2_dd_583_851)">
<rect x="265" y="18" width="76" height="34" rx="8" fill="#D5CFCF"/>
<path d="M279.694 30.2727V39H278.377V30.2727H279.694ZM282.783 35.1136V39H281.509V32.4545H282.732V33.5199H282.813C282.963 33.1733 283.199 32.8949 283.52 32.6847C283.844 32.4744 284.252 32.3693 284.743 32.3693C285.189 32.3693 285.58 32.4631 285.915 32.6506C286.25 32.8352 286.51 33.1108 286.695 33.4773C286.88 33.8437 286.972 34.2969 286.972 34.8366V39H285.698V34.9901C285.698 34.5156 285.574 34.1449 285.327 33.8778C285.08 33.608 284.74 33.473 284.309 33.473C284.013 33.473 283.75 33.5369 283.52 33.6648C283.293 33.7926 283.113 33.9801 282.979 34.2273C282.848 34.4716 282.783 34.767 282.783 35.1136ZM295.168 36.1705H296.463L297.375 37.3594L297.805 37.8878L299.259 39.7841H297.912L296.94 38.5185L296.608 38.0582L295.168 36.1705ZM299.54 34.6364C299.54 35.5682 299.369 36.3693 299.028 37.0398C298.688 37.7074 298.22 38.2216 297.626 38.5824C297.036 38.9403 296.364 39.1193 295.611 39.1193C294.855 39.1193 294.18 38.9403 293.587 38.5824C292.996 38.2216 292.53 37.706 292.189 37.0355C291.848 36.3651 291.678 35.5653 291.678 34.6364C291.678 33.7045 291.848 32.9048 292.189 32.2372C292.53 31.5668 292.996 31.0526 293.587 30.6946C294.18 30.3338 294.855 30.1534 295.611 30.1534C296.364 30.1534 297.036 30.3338 297.626 30.6946C298.22 31.0526 298.688 31.5668 299.028 32.2372C299.369 32.9048 299.54 33.7045 299.54 34.6364ZM298.236 34.6364C298.236 33.9261 298.121 33.3281 297.891 32.8423C297.663 32.3537 297.351 31.9844 296.953 31.7344C296.558 31.4815 296.111 31.3551 295.611 31.3551C295.108 31.3551 294.659 31.4815 294.264 31.7344C293.869 31.9844 293.557 32.3537 293.327 32.8423C293.099 33.3281 292.986 33.9261 292.986 34.6364C292.986 35.3466 293.099 35.946 293.327 36.4347C293.557 36.9205 293.869 37.2898 294.264 37.5426C294.659 37.7926 295.108 37.9176 295.611 37.9176C296.111 37.9176 296.558 37.7926 296.953 37.5426C297.351 37.2898 297.663 36.9205 297.891 36.4347C298.121 35.946 298.236 35.3466 298.236 34.6364ZM305.225 36.2855V32.4545H306.504V39H305.251V37.8665H305.183C305.032 38.2159 304.791 38.5071 304.458 38.7401C304.129 38.9702 303.718 39.0852 303.227 39.0852C302.806 39.0852 302.434 38.9929 302.11 38.8082C301.789 38.6207 301.537 38.3438 301.352 37.9773C301.17 37.6108 301.079 37.1577 301.079 36.6179V32.4545H302.353V36.4645C302.353 36.9105 302.477 37.2656 302.724 37.5298C302.971 37.794 303.292 37.9261 303.687 37.9261C303.926 37.9261 304.163 37.8665 304.399 37.7472C304.637 37.6278 304.835 37.4474 304.991 37.206C305.15 36.9645 305.228 36.6577 305.225 36.2855ZM311.037 39.1321C310.392 39.1321 309.837 38.9943 309.371 38.7188C308.908 38.4403 308.55 38.0497 308.297 37.5469C308.047 37.0412 307.922 36.4489 307.922 35.7699C307.922 35.0994 308.047 34.5085 308.297 33.9972C308.55 33.4858 308.902 33.0866 309.354 32.7997C309.808 32.5128 310.339 32.3693 310.947 32.3693C311.317 32.3693 311.675 32.4304 312.021 32.5526C312.368 32.6747 312.679 32.8665 312.955 33.1278C313.23 33.3892 313.447 33.7287 313.607 34.1463C313.766 34.5611 313.845 35.0653 313.845 35.6591V36.1108H308.642V35.1562H312.597C312.597 34.821 312.528 34.5241 312.392 34.2656C312.256 34.0043 312.064 33.7983 311.817 33.6477C311.572 33.4972 311.286 33.4219 310.956 33.4219C310.598 33.4219 310.286 33.5099 310.018 33.6861C309.754 33.8594 309.55 34.0866 309.405 34.3679C309.263 34.6463 309.192 34.9489 309.192 35.2756V36.0213C309.192 36.4588 309.268 36.831 309.422 37.1378C309.578 37.4446 309.795 37.679 310.074 37.8409C310.352 38 310.678 38.0795 311.05 38.0795C311.291 38.0795 311.511 38.0455 311.71 37.9773C311.909 37.9062 312.081 37.8011 312.226 37.6619C312.371 37.5227 312.482 37.3509 312.558 37.1463L313.764 37.3636C313.668 37.7187 313.494 38.0298 313.244 38.2969C312.997 38.5611 312.686 38.767 312.311 38.9148C311.939 39.0597 311.514 39.1321 311.037 39.1321ZM319.405 36.2855V32.4545H320.684V39H319.431V37.8665H319.363C319.212 38.2159 318.971 38.5071 318.638 38.7401C318.309 38.9702 317.898 39.0852 317.407 39.0852C316.986 39.0852 316.614 38.9929 316.29 38.8082C315.969 38.6207 315.716 38.3438 315.532 37.9773C315.35 37.6108 315.259 37.1577 315.259 36.6179V32.4545H316.533V36.4645C316.533 36.9105 316.657 37.2656 316.904 37.5298C317.151 37.794 317.472 37.9261 317.867 37.9261C318.105 37.9261 318.343 37.8665 318.578 37.7472C318.817 37.6278 319.015 37.4474 319.171 37.206C319.33 36.9645 319.408 36.6577 319.405 36.2855ZM325.217 39.1321C324.572 39.1321 324.016 38.9943 323.55 38.7188C323.087 38.4403 322.729 38.0497 322.477 37.5469C322.227 37.0412 322.102 36.4489 322.102 35.7699C322.102 35.0994 322.227 34.5085 322.477 33.9972C322.729 33.4858 323.082 33.0866 323.533 32.7997C323.988 32.5128 324.519 32.3693 325.127 32.3693C325.496 32.3693 325.854 32.4304 326.201 32.5526C326.548 32.6747 326.859 32.8665 327.134 33.1278C327.41 33.3892 327.627 33.7287 327.786 34.1463C327.945 34.5611 328.025 35.0653 328.025 35.6591V36.1108H322.822V35.1562H326.776C326.776 34.821 326.708 34.5241 326.572 34.2656C326.435 34.0043 326.244 33.7983 325.996 33.6477C325.752 33.4972 325.465 33.4219 325.136 33.4219C324.778 33.4219 324.465 33.5099 324.198 33.6861C323.934 33.8594 323.729 34.0866 323.585 34.3679C323.442 34.6463 323.371 34.9489 323.371 35.2756V36.0213C323.371 36.4588 323.448 36.831 323.602 37.1378C323.758 37.4446 323.975 37.679 324.254 37.8409C324.532 38 324.857 38.0795 325.229 38.0795C325.471 38.0795 325.691 38.0455 325.89 37.9773C326.089 37.9062 326.261 37.8011 326.406 37.6619C326.55 37.5227 326.661 37.3509 326.738 37.1463L327.944 37.3636C327.847 37.7187 327.674 38.0298 327.424 38.2969C327.177 38.5611 326.866 38.767 326.491 38.9148C326.119 39.0597 325.694 39.1321 325.217 39.1321Z" fill="white"/>
<rect x="265.25" y="18.25" width="75.5" height="33.5" rx="7.75" stroke="#63696E" stroke-opacity="0.24" stroke-width="0.5"/>
<path d="M307.5 59C307.5 61.4853 305.485 63.5 303 63.5C300.515 63.5 298.5 61.4853 298.5 59C298.5 56.5147 300.515 54.5 303 54.5C305.485 54.5 307.5 56.5147 307.5 59Z" fill="#63696E"/>
<path d="M309.071 49.4853C309.962 49.4853 310.408 50.5624 309.778 51.1924L303.707 57.2635C303.317 57.654 302.683 57.654 302.293 57.2635L296.222 51.1924C295.592 50.5624 296.038 49.4853 296.929 49.4853L309.071 49.4853Z" fill="#D5CFCF"/>
</g>
<defs>
<filter id="filter0_dd_583_851" x="0" y="0" width="100" height="87.5" filterUnits="userSpaceOnUse" color-interpolation-filters="sRGB">
<feFlood flood-opacity="0" result="BackgroundImageFix"/>
<feColorMatrix in="SourceAlpha" type="matrix" values="0 0 0 0 0 0 0 0 0 0 0 0 0 0 0 0 0 0 127 0" result="hardAlpha"/>
<feMorphology radius="2" operator="erode" in="SourceAlpha" result="effect1_dropShadow_583_851"/>
<feOffset dy="4"/>
<feGaussianBlur stdDeviation="3"/>
<feColorMatrix type="matrix" values="0 0 0 0 0.0627451 0 0 0 0 0.0941176 0 0 0 0 0.156863 0 0 0 0.03 0"/>
<feBlend mode="normal" in2="BackgroundImageFix" result="effect1_dropShadow_583_851"/>
<feColorMatrix in="SourceAlpha" type="matrix" values="0 0 0 0 0 0 0 0 0 0 0 0 0 0 0 0 0 0 127 0" result="hardAlpha"/>
<feMorphology radius="4" operator="erode" in="SourceAlpha" result="effect2_dropShadow_583_851"/>
<feOffset dy="12"/>
<feGaussianBlur stdDeviation="8"/>
<feColorMatrix type="matrix" values="0 0 0 0 0.0627451 0 0 0 0 0.0941176 0 0 0 0 0.156863 0 0 0 0.08 0"/>
<feBlend mode="normal" in2="effect1_dropShadow_583_851" result="effect2_dropShadow_583_851"/>
<feBlend mode="normal" in="SourceGraphic" in2="effect2_dropShadow_583_851" result="shape"/>
</filter>
<filter id="filter1_dd_583_851" x="134" y="18" width="89" height="69.5" filterUnits="userSpaceOnUse" color-interpolation-filters="sRGB">
<feFlood flood-opacity="0" result="BackgroundImageFix"/>
<feColorMatrix in="SourceAlpha" type="matrix" values="0 0 0 0 0 0 0 0 0 0 0 0 0 0 0 0 0 0 127 0" result="hardAlpha"/>
<feMorphology radius="2" operator="erode" in="SourceAlpha" result="effect1_dropShadow_583_851"/>
<feOffset dy="4"/>
<feGaussianBlur stdDeviation="3"/>
<feColorMatrix type="matrix" values="0 0 0 0 0.0627451 0 0 0 0 0.0941176 0 0 0 0 0.156863 0 0 0 0.03 0"/>
<feBlend mode="normal" in2="BackgroundImageFix" result="effect1_dropShadow_583_851"/>
<feColorMatrix in="SourceAlpha" type="matrix" values="0 0 0 0 0 0 0 0 0 0 0 0 0 0 0 0 0 0 127 0" result="hardAlpha"/>
<feMorphology radius="4" operator="erode" in="SourceAlpha" result="effect2_dropShadow_583_851"/>
<feOffset dy="12"/>
<feGaussianBlur stdDeviation="8"/>
<feColorMatrix type="matrix" values="0 0 0 0 0.0627451 0 0 0 0 0.0941176 0 0 0 0 0.156863 0 0 0 0.08 0"/>
<feBlend mode="normal" in2="effect1_dropShadow_583_851" result="effect2_dropShadow_583_851"/>
<feBlend mode="normal" in="SourceGraphic" in2="effect2_dropShadow_583_851" result="shape"/>
</filter>
<filter id="filter2_dd_583_851" x="253" y="18" width="100" height="69.5" filterUnits="userSpaceOnUse" color-interpolation-filters="sRGB">
<feFlood flood-opacity="0" result="BackgroundImageFix"/>
<feColorMatrix in="SourceAlpha" type="matrix" values="0 0 0 0 0 0 0 0 0 0 0 0 0 0 0 0 0 0 127 0" result="hardAlpha"/>
<feMorphology radius="2" operator="erode" in="SourceAlpha" result="effect1_dropShadow_583_851"/>
<feOffset dy="4"/>
<feGaussianBlur stdDeviation="3"/>
<feColorMatrix type="matrix" values="0 0 0 0 0.0627451 0 0 0 0 0.0941176 0 0 0 0 0.156863 0 0 0 0.03 0"/>
<feBlend mode="normal" in2="BackgroundImageFix" result="effect1_dropShadow_583_851"/>
<feColorMatrix in="SourceAlpha" type="matrix" values="0 0 0 0 0 0 0 0 0 0 0 0 0 0 0 0 0 0 127 0" result="hardAlpha"/>
<feMorphology radius="4" operator="erode" in="SourceAlpha" result="effect2_dropShadow_583_851"/>
<feOffset dy="12"/>
<feGaussianBlur stdDeviation="8"/>
<feColorMatrix type="matrix" values="0 0 0 0 0.0627451 0 0 0 0 0.0941176 0 0 0 0 0.156863 0 0 0 0.08 0"/>
<feBlend mode="normal" in2="effect1_dropShadow_583_851" result="effect2_dropShadow_583_851"/>
<feBlend mode="normal" in="SourceGraphic" in2="effect2_dropShadow_583_851" result="shape"/>
</filter>
</defs>
</svg>
