<svg width="39" height="16" viewBox="0 0 39 16" fill="none" xmlns="http://www.w3.org/2000/svg">
<path d="M24 11.1112L29.4444 8.77783L38 12.6667M14.2037 7.56317L7.96128 13.8056C7.19657 14.5704 6.15935 15 5.07784 15C3.99633 15 2.95911 14.5704 2.19437 13.8056C1.42963 13.0409 1 12.0036 1 10.9221C1 9.8406 1.42963 8.80343 2.19437 8.03865L8.43677 1.79624C8.94662 1.28642 9.63811 1 10.3591 1C11.0801 1 11.7716 1.28642 12.2814 1.79624C12.7912 2.30608 13.0777 2.99755 13.0777 3.71856C13.0777 4.43957 12.7912 5.13104 12.2814 5.64087L6.03221 11.8833C5.77729 12.1382 5.43155 12.2814 5.07105 12.2814C4.71054 12.2814 4.36481 12.1382 4.10989 11.8833C3.85498 11.6283 3.71176 11.2827 3.71176 10.9221C3.71176 10.5616 3.85498 10.2159 4.10989 9.96096L9.8768 4.20083M38 1.46667V14.5333C38 14.7911 37.7911 15 37.5333 15H24.4667C24.2089 15 24 14.7911 24 14.5333V1.46667C24 1.20893 24.2089 1 24.4667 1H37.5333C37.7911 1 38 1.20893 38 1.46667ZM34.1111 6.44436C33.252 6.44436 32.5555 5.74792 32.5555 4.88881C32.5555 4.0297 33.252 3.33325 34.1111 3.33325C34.9702 3.33325 35.6667 4.0297 35.6667 4.88881C35.6667 5.74792 34.9702 6.44436 34.1111 6.44436Z" stroke="#63696E" stroke-linecap="round" stroke-linejoin="round"/>
</svg>
